<svg width="15" height="15" viewBox="0 0 15 15" fill="none" xmlns="http://www.w3.org/2000/svg">
<path d="M11.5014 0H3.5131C1.57433 0 0 1.57282 0 3.50971V11.5049C0 13.4272 1.57433 15 3.5131 15H4.94166C5.27693 15 5.5539 14.7233 5.5539 14.3884V8.98544C5.5539 8.65049 5.27693 8.37379 4.94166 8.37379H4.48977V7.68932H4.94166C5.27693 7.68932 5.5539 7.41262 5.5539 7.07767V5.83981C5.5539 5.22816 5.77256 4.17961 7.20112 4.17961H8.25067V4.80583H7.65301C7.12823 4.80583 6.55972 5.15534 6.55972 5.94175V7.06311C6.55972 7.39806 6.83669 7.67476 7.17196 7.67476H8.20694L8.13406 8.35922H7.17196C6.83669 8.35922 6.55972 8.63592 6.55972 8.97087V14.3738C6.55972 14.7087 6.83669 14.9854 7.17196 14.9854H11.4868C13.4256 14.9854 14.9999 13.4126 14.9999 11.4757V3.50971C15.0145 1.57282 13.4401 0 11.5014 0ZM11.5014 13.7767H7.79878V9.59709H8.70257C9.02326 9.59709 9.28565 9.36408 9.31481 9.04369L9.50431 7.13592C9.51889 6.96117 9.46058 6.78641 9.34396 6.6699C9.22734 6.53884 9.06699 6.46602 8.89207 6.46602H7.79878V6.04369H8.87749C9.21277 6.04369 9.48973 5.76699 9.48973 5.43204V3.59709C9.48973 3.26214 9.21277 2.98544 8.87749 2.98544H7.2157C5.08743 2.98544 4.34399 4.47087 4.34399 5.85437V6.48058H3.8921C3.55683 6.48058 3.27986 6.75728 3.27986 7.09223V9C3.27986 9.33495 3.55683 9.61165 3.8921 9.61165H4.34399V13.7913H3.52767C2.27404 13.7913 1.23906 12.7718 1.23906 11.5049V3.50971C1.23906 2.25728 2.25946 1.2233 3.52767 1.2233H11.5305C12.7842 1.2233 13.8191 2.24272 13.8191 3.50971V11.5049C13.79 12.7573 12.7696 13.7767 11.5014 13.7767Z" fill="#9E9E9E"/>
</svg>
