<svg width="26" height="18" viewBox="0 0 26 18" fill="none" xmlns="http://www.w3.org/2000/svg">
<path d="M8.54286 18C3.80714 18 0 13.9782 0 9.02452C0 4.07084 3.80714 0 8.54286 0C10.725 0 12.7214 0.833788 14.2536 2.35422C14.3929 2.50136 14.4857 2.69755 14.4857 2.89373C14.4857 3.08992 14.3929 3.2861 14.2536 3.43324L12.1179 5.59128C11.8393 5.88556 11.4214 5.88556 11.1429 5.59128C10.6786 5.10082 9.79643 4.51226 8.49643 4.51226C6.22143 4.51226 4.31786 6.52316 4.31786 9.02452C4.31786 11.4768 6.175 13.5368 8.49643 13.5368C10.4929 13.5368 11.5607 12.4087 11.9786 11.4278H8.49643C8.125 11.4278 7.8 11.0845 7.8 10.6921V7.84741C7.8 7.45504 8.125 7.11172 8.49643 7.11172H15.8786C16.2036 7.11172 16.5286 7.35695 16.575 7.70027C16.6214 8.09264 16.7143 8.58311 16.7143 9.17166C16.7607 14.3706 13.3714 18 8.54286 18ZM8.54286 1.47139C4.59643 1.47139 1.39286 4.85559 1.39286 9.02452C1.39286 13.1935 4.59643 16.5777 8.54286 16.5777C12.6286 16.5777 15.3679 13.6349 15.3679 9.22071C15.3679 8.97548 15.3679 8.77929 15.3214 8.58311H9.23929V9.9564H13C13.1857 9.9564 13.4179 10.0545 13.5107 10.2016C13.65 10.3488 13.6964 10.594 13.65 10.7902C13.4179 12.2616 12.0714 14.9591 8.49643 14.9591C5.43214 14.9591 2.925 12.2616 2.925 8.97548C2.925 5.68937 5.43214 2.99183 8.49643 2.99183C9.88929 2.99183 10.9107 3.48229 11.6071 4.0218L12.7214 2.94278C11.5143 1.96185 10.1214 1.47139 8.54286 1.47139Z" fill="#9E9E9E"/>
<path d="M23.075 13.2914H20.8464C20.475 13.2914 20.15 12.9481 20.15 12.5557V10.9372H18.6178C18.2464 10.9372 17.9214 10.5938 17.9214 10.2015V7.84724C17.9214 7.45487 18.2464 7.11155 18.6178 7.11155H20.15V5.49302C20.15 5.10065 20.475 4.75732 20.8464 4.75732H23.075C23.4464 4.75732 23.7714 5.10065 23.7714 5.49302V7.11155H25.3035C25.675 7.11155 26 7.45487 26 7.84724V10.2015C26 10.5938 25.675 10.9372 25.3035 10.9372H23.7714V12.5557C23.7714 12.9481 23.4464 13.2914 23.075 13.2914ZM21.5428 11.82H22.3785V10.2015C22.3785 9.80909 22.7035 9.46577 23.075 9.46577H24.6071V8.58294H23.075C22.7035 8.58294 22.3785 8.23961 22.3785 7.84724V6.22871H21.5428V7.84724C21.5428 8.23961 21.2178 8.58294 20.8464 8.58294H19.3142V9.46577H20.8464C21.2178 9.46577 21.5428 9.80909 21.5428 10.2015V11.82Z" fill="#9E9E9E"/>
</svg>
