<svg width="15" height="15" viewBox="0 0 15 15" fill="none" xmlns="http://www.w3.org/2000/svg">
<g clip-path="url(#clip0)">
<path d="M0.0043923 7.51278C0.00439234 8.50511 0.00439238 9.5017 0.00439243 10.494C0.00439251 12.4744 1.15037 14.1141 3.02484 14.753C3.48068 14.9063 3.98337 14.9787 4.46477 14.983C6.48835 15.0085 8.51192 15 10.5312 14.9915C12.6656 14.9872 14.4208 13.586 14.8936 11.5119C14.9703 11.184 14.9916 10.839 14.9959 10.4983C15.0044 8.49659 15.0044 6.49489 15.0001 4.49744C14.9959 2.34668 13.6113 0.596251 11.5238 0.110731C11.1958 0.0340702 10.8507 0.00851649 10.5099 0.00851651C8.50766 -6.69757e-07 6.50538 -5.82235e-07 4.50737 0.00425766C2.35174 0.00851686 0.605073 1.38416 0.119417 3.4753C0.0427337 3.81175 0.0171723 4.16525 0.0129123 4.51022C-0.00838798 5.51107 0.00439225 6.51193 0.0043923 7.51278ZM7.48096 1.36712C8.4821 1.36712 9.48323 1.36286 10.4844 1.37138C10.7315 1.37138 10.9828 1.38842 11.2214 1.43952C12.657 1.75894 13.6241 2.94719 13.6326 4.41652C13.6411 6.47359 13.6369 8.53066 13.6326 10.5877C13.6326 10.8007 13.6113 11.0136 13.5645 11.2223C13.2407 12.6576 12.0564 13.6244 10.5866 13.6329C8.52896 13.6414 6.4713 13.6371 4.41365 13.6329C4.20064 13.6329 3.98764 13.6116 3.77889 13.5647C2.3347 13.2411 1.37616 12.0486 1.36764 10.5664C1.35912 8.52215 1.36338 6.47785 1.36764 4.43782C1.36764 4.22061 1.38894 3.99489 1.4358 3.78194C1.75532 2.34668 2.9439 1.38416 4.41365 1.37138C5.43609 1.3586 6.45852 1.36712 7.48096 1.36712Z" fill="#828282" fill-opacity="0.75"/>
<path d="M7.51086 3.4112C5.26575 3.40269 3.41685 5.24681 3.41259 7.49553C3.40833 9.74 5.25723 11.5884 7.50234 11.5884C9.74318 11.5884 11.5793 9.75703 11.5878 7.51683C11.6006 5.27236 9.76022 3.41972 7.51086 3.4112ZM7.48956 4.77407C8.99339 4.76981 10.2118 5.97509 10.2246 7.4785C10.2374 8.99042 9.02321 10.217 7.5066 10.2213C6.00276 10.2255 4.78436 9.02024 4.77158 7.51683C4.76306 6.0049 5.9772 4.77833 7.48956 4.77407Z" fill="#828282" fill-opacity="0.75"/>
<path d="M12.1414 3.46237C12.1371 3.12166 11.8475 2.84482 11.5024 2.8576C11.1701 2.87038 10.9017 3.15147 10.906 3.48367C10.9102 3.82439 11.1999 4.10122 11.545 4.08844C11.8815 4.07992 12.1499 3.79883 12.1414 3.46237Z" fill="#828282" fill-opacity="0.75"/>
</g>
<defs>
<clipPath id="clip0">
<rect width="15" height="15" fill="white" transform="matrix(-4.37114e-08 -1 -1 4.37114e-08 15 15)"/>
</clipPath>
</defs>
</svg>
