<svg width="17" height="15" viewBox="0 0 17 15" fill="none" xmlns="http://www.w3.org/2000/svg">
<path d="M6.83084 13.4443C6.61924 13.4443 6.40765 13.3172 6.33711 13.0813L4.85593 8.97894C4.75013 8.68852 4.89119 8.37993 5.17332 8.27102C5.45546 8.16211 5.75522 8.30733 5.86102 8.59776L7.3422 12.7001C7.448 12.9905 7.30694 13.2991 7.02481 13.408C6.95427 13.4261 6.88374 13.4443 6.83084 13.4443Z" fill="#9E9E9E"/>
<path d="M6.84882 13.4809C6.77829 13.4809 6.69012 13.4627 6.61959 13.4264C6.42562 13.3357 6.31982 13.136 6.31982 12.9182L6.46089 9.54194C6.47852 9.34227 6.58432 9.16075 6.76065 9.06999C6.93699 8.97924 7.14858 9.01554 7.30728 9.12445L9.2822 10.6674C9.40564 10.7581 9.4938 10.9215 9.4938 11.0848C9.4938 11.2482 9.42327 11.4116 9.29984 11.5205L7.18385 13.372C7.09569 13.4446 6.97225 13.4809 6.84882 13.4809ZM7.48362 10.6129L7.43072 11.702L8.11841 11.103L7.48362 10.6129Z" fill="#9E9E9E"/>
<path d="M12.4036 14.0982C12.1039 14.0982 11.8041 13.9893 11.5572 13.8078L6.67284 9.99592C6.54941 9.90516 6.46124 9.74179 6.46124 9.57842C6.46124 9.41506 6.51414 9.25169 6.63757 9.14278L8.45379 7.50912L5.61485 9.25169C5.47378 9.34245 5.31508 9.3606 5.17402 9.30615L1.70028 8.10813C1.31235 7.98106 1.04785 7.61803 1.04785 7.18238C1.04785 6.74674 1.27708 6.38371 1.66501 6.23849L15.1015 0.974465C15.4365 0.847402 15.8068 0.920009 16.089 1.15598C16.3535 1.41011 16.4769 1.77314 16.3887 2.13618L13.779 12.991C13.6556 13.4629 13.3206 13.8441 12.8797 14.0075C12.721 14.0619 12.5623 14.0982 12.4036 14.0982ZM7.83663 9.52397L12.192 12.9184C12.3331 13.0273 12.4742 12.991 12.5271 12.9728C12.58 12.9547 12.721 12.8821 12.7563 12.7187L15.3484 2.06357L2.31744 7.16423L5.29745 8.19889L12.9855 3.44311C13.2148 3.2979 13.5322 3.35235 13.6909 3.58833C13.8496 3.8243 13.8143 4.13288 13.6203 4.3144L7.83663 9.52397Z" fill="#9E9E9E"/>
</svg>
