<svg width="22" height="13" viewBox="0 0 22 13" fill="none" xmlns="http://www.w3.org/2000/svg">
<path d="M21.9184 11.2409C21.4156 9.74593 18.4809 7.16624 18.2961 6.89406C18.3219 6.84531 18.3691 6.77625 18.3906 6.74375C18.9707 6.02062 21.1793 2.88844 21.5059 1.63312C21.5059 1.63312 21.5059 1.62906 21.5059 1.625C21.682 1.05219 21.5187 0.6825 21.3555 0.47125C21.102 0.158437 20.7023 0 20.1609 0H17.9051C17.1488 0 16.5773 0.361562 16.2852 1.01562C15.7996 2.18156 14.4375 4.57843 13.4148 5.4275C13.3848 4.225 13.4062 3.30687 13.4191 2.62437C13.4621 1.29594 13.5652 0 12.1043 0H8.55937C7.64414 0 6.76758 0.946562 7.71719 2.06781C8.54648 3.05094 8.01367 3.59937 8.19414 6.32531C7.49805 5.61843 6.25625 3.71312 5.37969 1.27156C5.13906 0.613437 4.76523 0 3.7168 0H1.46094C0.545703 0 0 0.47125 0 1.26344C0 3.03469 4.15078 13 11.1332 13C12.8906 13 13.3332 12.4191 13.4148 11.8056C13.4836 11.31 13.4191 9.74593 13.432 9.50624C13.634 9.55906 14.1109 9.78656 15.0906 10.6925C16.6074 12.1387 16.9941 13.0041 18.223 13.0041H20.4789C21.1922 13.0041 21.566 12.7237 21.7508 12.4881C21.9312 12.2566 22.1074 11.8584 21.9184 11.2409ZM18.223 11.7C17.7676 11.7 17.4152 11.0581 16.0617 9.76624C14.8457 8.64499 14.0551 8.18999 13.3332 8.18999C11.9367 8.18999 12.0398 9.26249 12.0527 10.5584C12.057 11.9641 12.0484 11.5212 12.057 11.6066C11.9754 11.635 11.7434 11.6959 11.1332 11.6959C5.31524 11.7 1.52969 2.97375 1.38359 1.30406C1.43516 1.3 2.12695 1.30406 3.7168 1.3C3.91445 1.3 3.93594 1.3 4.08203 1.69406C4.98008 4.1925 6.99102 7.88937 8.46484 7.88937C9.56914 7.88937 9.56914 6.82093 9.56914 6.41468V3.20531C9.50898 2.145 9.10078 1.61687 8.83008 1.29594L12.0441 1.3C12.0441 1.31625 12.027 4.85062 12.0527 5.70375C12.0527 6.91843 13.0754 7.61718 14.6695 6.08968C16.3496 4.29406 17.5141 1.61281 17.5613 1.50312C17.6301 1.34875 17.6902 1.29594 17.9051 1.29594H20.1609H20.1695C20.1695 1.3 20.1695 1.3 20.1695 1.30406C19.9633 2.21406 17.9266 5.11468 17.2477 6.0125C17.2348 6.02468 17.2262 6.04093 17.2176 6.05718C16.9168 6.52031 16.6719 7.03218 17.2605 7.75125C17.3121 7.81218 17.4539 7.95437 17.6559 8.15343C18.2832 8.76687 20.4316 10.8591 20.625 11.6878C20.4918 11.7122 20.3543 11.6959 18.223 11.7Z" fill="#9E9E9E"/>
</svg>
