<svg width="21" height="18" viewBox="0 0 21 18" fill="none" xmlns="http://www.w3.org/2000/svg">
<g clip-path="url(#clip0)">
<path d="M1.54987 0.0022834C1.76018 0.0022834 1.97338 0.0022834 2.1837 0.0022834C3.05666 0.00786825 3.7654 0.658504 3.8259 1.5074C3.83742 1.68891 3.872 1.86762 3.88928 2.04913C3.89792 2.13849 3.9469 2.15245 4.02757 2.14687C4.64412 2.09381 5.26066 2.04076 5.87721 1.9877C6.95184 1.89555 8.02936 1.8034 9.10399 1.71404C9.9683 1.64144 10.8355 1.56325 11.6998 1.49065C12.7572 1.40129 13.8145 1.31472 14.869 1.22537C15.9004 1.1388 16.9347 1.04944 17.9661 0.962878C18.6921 0.901445 19.4182 0.828842 20.1471 0.772993C20.6196 0.736692 21.0805 1.12763 20.9855 1.74476C20.8961 2.34234 20.8212 2.94271 20.7434 3.54308C20.6311 4.40594 20.5245 5.2688 20.415 6.13166C20.3026 7.00848 20.196 7.8853 20.0808 8.76213C20.0376 9.07767 20.0174 9.40718 19.9079 9.70318C19.6659 10.3538 19.1416 10.6805 18.4386 10.7392C17.459 10.8229 16.4766 10.9011 15.497 10.9821C14.4167 11.0715 13.3363 11.1636 12.2559 11.2558C11.4146 11.3284 10.5733 11.401 9.73206 11.4736C8.66607 11.5629 7.60008 11.6523 6.53409 11.7444C6.17972 11.7752 5.82535 11.8059 5.47386 11.8366C5.24338 11.8561 5.0417 11.7947 4.85155 11.6663C4.72767 11.5825 4.58073 11.5266 4.45109 11.4456C3.76828 11.0268 3.41391 10.4125 3.31019 9.64453C3.10564 8.12825 2.89532 6.61196 2.68788 5.09288C2.53231 3.95915 2.37673 2.82543 2.22403 1.6917C2.20963 1.59117 2.16641 1.56046 2.06557 1.56046C1.64206 1.56325 1.22143 1.56604 0.797912 1.56046C0.406088 1.55208 0.0949346 1.29238 0.0142651 0.9182C-0.0548802 0.585901 0.132388 0.225678 0.46659 0.0804714C0.573189 0.0357925 0.697075 0.0106607 0.812317 0.00507583C1.05721 -0.00609388 1.30498 0.0022834 1.54987 0.0022834ZM5.955 10.2254C6.18548 10.2058 6.49952 10.1835 6.81643 10.1555C7.88242 10.0634 8.94841 9.97125 10.0144 9.88189C11.0516 9.79533 12.0888 9.70876 13.1288 9.6222C14.4195 9.51329 15.7102 9.40159 17.001 9.29269C17.4014 9.25918 17.8048 9.22567 18.2052 9.18937C18.332 9.1782 18.4184 9.15307 18.4357 8.99111C18.5452 8.04727 18.6691 7.10622 18.7901 6.16517C18.9457 4.95605 19.0984 3.74693 19.2539 2.53781C19.2655 2.44007 19.2395 2.41494 19.1416 2.42332C18.2196 2.5043 17.2948 2.57969 16.3729 2.65788C15.1023 2.76679 13.8289 2.87569 12.5584 2.9846C11.138 3.10467 9.71765 3.22195 8.29729 3.34203C7.00082 3.45093 5.70723 3.56263 4.41075 3.67433C4.10248 3.70225 4.10824 3.64082 4.15722 3.99266C4.2667 4.77733 4.37618 5.55921 4.48566 6.34389C4.61243 7.26539 4.73631 8.18968 4.86308 9.11118C4.89189 9.31223 4.90917 9.52167 4.96968 9.71434C5.08492 10.0718 5.39607 10.2365 5.955 10.2254Z" fill="white"/>
<path d="M15.4338 12.5269C16.9435 12.5241 18.2515 13.7779 18.2544 15.2355C18.2601 16.7323 16.9694 17.9944 15.4281 17.9972C13.9155 18 12.6162 16.7434 12.6133 15.2718C12.6104 13.7807 13.8954 12.5297 15.4338 12.5269ZM14.218 15.2579C14.2152 15.8862 14.777 16.4391 15.4252 16.4418C16.0705 16.4446 16.6439 15.8945 16.6496 15.269C16.6525 14.6435 16.085 14.0878 15.4396 14.0878C14.7856 14.085 14.2238 14.6268 14.218 15.2579Z" fill="white"/>
<path d="M4.94145 15.2494C4.95009 13.761 6.24081 12.5184 7.77064 12.5268C9.30048 12.5352 10.5941 13.7973 10.5826 15.2717C10.571 16.7517 9.26879 18.0027 7.7476 17.9971C6.22064 17.9916 4.93281 16.7294 4.94145 15.2494ZM7.76776 14.0877C7.11665 14.085 6.55196 14.6267 6.5462 15.255C6.54043 15.8833 7.10512 16.4362 7.75048 16.439C8.39583 16.4418 8.96916 15.8944 8.97492 15.2689C8.97781 14.6434 8.41024 14.0877 7.76776 14.0877Z" fill="white"/>
</g>
<defs>
<clipPath id="clip0">
<rect width="21" height="18" fill="white"/>
</clipPath>
</defs>
</svg>
