<svg width="22" height="15" viewBox="0 0 22 15" fill="none" xmlns="http://www.w3.org/2000/svg">
<g clip-path="url(#clip0)">
<path d="M11 0.000311852C7.47935 0.000311852 3.9587 2.3054 0.454277 6.89862L0 7.50879L0.454277 8.11896C7.4469 17.3054 14.5369 17.3054 21.5457 8.11896L22 7.50879L21.5457 6.89862C18.0413 2.3054 14.5206 0.000311852 11 0.000311852ZM1.80088 7.50879C7.9823 -0.253925 14.0177 -0.253925 20.2153 7.50879C14.0177 15.2546 7.9823 15.2546 1.80088 7.50879Z" fill="white"/>
<path d="M11.0002 12.373C8.42056 12.373 6.32764 10.1866 6.32764 7.49169C6.32764 4.79677 8.42056 2.62728 11.0002 2.62728C13.5798 2.62728 15.6728 4.81372 15.6728 7.50864C15.6728 10.2036 13.5798 12.373 11.0002 12.373ZM11.0002 4.67813C9.50758 4.67813 8.30699 5.93237 8.30699 7.49169C8.30699 9.05101 9.50758 10.3052 11.0002 10.3052C12.4928 10.3052 13.6934 9.05101 13.6934 7.49169C13.6934 5.94932 12.4928 4.67813 11.0002 4.67813Z" fill="white"/>
</g>
<defs>
<clipPath id="clip0">
<rect width="22" height="15" fill="white" transform="matrix(1 0 0 -1 0 15)"/>
</clipPath>
</defs>
</svg>
