<svg width="20" height="21" viewBox="0 0 20 21" fill="none" xmlns="http://www.w3.org/2000/svg">
<path d="M15.3352 0H4.68413C2.09911 0 0 2.20194 0 4.91359V16.1068C0 18.7981 2.09911 21 4.68413 21H6.58888C7.03591 21 7.4052 20.6126 7.4052 20.1437V12.5796C7.4052 12.1107 7.03591 11.7233 6.58888 11.7233H5.98635V10.765H6.58888C7.03591 10.765 7.4052 10.3777 7.4052 9.90874V8.17573C7.4052 7.31942 7.69674 5.85146 9.60149 5.85146H11.0009V6.72816H10.204C9.50431 6.72816 8.7463 7.21748 8.7463 8.31845V9.88835C8.7463 10.3573 9.11559 10.7447 9.56262 10.7447H10.9426L10.8454 11.7029H9.56262C9.11559 11.7029 8.7463 12.0903 8.7463 12.5592V20.1233C8.7463 20.5922 9.11559 20.9796 9.56262 20.9796H15.3157C17.9008 20.9796 19.9999 18.7777 19.9999 16.066V4.91359C20.0193 2.20194 17.9202 0 15.3352 0ZM15.3352 19.2874H10.3984V13.4359H11.6034C12.031 13.4359 12.3809 13.1097 12.4197 12.6612L12.6724 9.99029C12.6918 9.74563 12.6141 9.50097 12.4586 9.33786C12.3031 9.15437 12.0893 9.05243 11.8561 9.05243H10.3984V8.46117H11.8367C12.2837 8.46117 12.653 8.07379 12.653 7.60485V5.03592C12.653 4.56699 12.2837 4.17961 11.8367 4.17961H9.62093C6.78324 4.17961 5.79199 6.25922 5.79199 8.19612V9.07282H5.18947C4.74244 9.07282 4.37315 9.46019 4.37315 9.92913V12.6C4.37315 13.0689 4.74244 13.4563 5.18947 13.4563H5.79199V19.3078H4.70356C3.03205 19.3078 1.65208 17.8806 1.65208 16.1068V4.91359C1.65208 3.16019 3.01261 1.71262 4.70356 1.71262H15.374C17.0456 1.71262 18.4255 3.13981 18.4255 4.91359V16.1068C18.3867 17.8602 17.0261 19.2874 15.3352 19.2874Z" fill="#121110"/>
</svg>
