<svg width="17" height="15" viewBox="0 0 17 15" fill="none" xmlns="http://www.w3.org/2000/svg">
<path d="M8.50581 15C8.21531 15 7.94805 14.8835 7.75051 14.6853L1.69651 8.61305C1.51059 8.44988 1.3363 8.27506 1.18524 8.08858C0.790157 7.62238 0.488038 7.0979 0.290499 6.52681C0.0929597 6.00233 0 5.45455 0 4.8951C0 2.2028 2.18455 0 4.86876 0C6.27478 0 7.58783 0.617716 8.49419 1.65501C9.41217 0.617716 10.7252 0 12.1312 0C14.8154 0 16.9884 2.2028 16.9884 4.8951C16.9884 5.4662 16.8954 6.02564 16.6979 6.55012C16.4539 7.21445 16.0704 7.84382 15.5707 8.34499L9.26111 14.6853C9.06357 14.8835 8.79631 15 8.50581 15ZM4.86876 1.74825C3.13739 1.74825 1.74299 3.15851 1.74299 4.8951C1.74299 5.25641 1.80109 5.60606 1.91729 5.94406C2.04511 6.31702 2.24265 6.65501 2.49829 6.94639C2.60287 7.07459 2.71907 7.19114 2.84689 7.29604L2.89337 7.34266L8.50581 12.9604L14.339 7.10956C14.6644 6.78322 14.9084 6.38695 15.0711 5.95571C15.1989 5.61772 15.257 5.25641 15.257 4.88345C15.257 3.14685 13.8626 1.7366 12.1429 1.7366C10.9111 1.74825 9.79563 2.47086 9.29597 3.6014L8.49419 5.36131L7.70403 3.6014C7.19276 2.47086 6.07724 1.74825 4.86876 1.74825Z" fill="white"/>
</svg>
