<svg width="12" height="12" viewBox="0 0 12 12" fill="none" xmlns="http://www.w3.org/2000/svg">
<circle cx="6" cy="6" r="5.25" stroke="#D0D0D0" stroke-width="0.5"/>
<path d="M5.61081 4.76H6.37881V9H5.61081V4.76ZM5.99481 3.944C5.84548 3.944 5.72015 3.896 5.61881 3.8C5.52281 3.704 5.47481 3.58667 5.47481 3.448C5.47481 3.30933 5.52281 3.192 5.61881 3.096C5.72015 2.99467 5.84548 2.944 5.99481 2.944C6.14415 2.944 6.26681 2.992 6.36281 3.088C6.46415 3.17867 6.51481 3.29333 6.51481 3.432C6.51481 3.576 6.46415 3.69867 6.36281 3.8C6.26681 3.896 6.14415 3.944 5.99481 3.944Z" fill="#D0D0D0"/>
</svg>
