<svg width="20" height="19" viewBox="0 0 20 19" fill="none" xmlns="http://www.w3.org/2000/svg">
<g clip-path="url(#clip0)">
<path d="M0.00634343 9.51619C0.00634348 10.7731 0.00634354 12.0355 0.00634359 13.2924C0.0063437 15.801 1.53432 17.8779 4.03361 18.6871C4.64139 18.8813 5.31165 18.973 5.95352 18.9784C8.65161 19.0108 11.3497 19 14.0421 18.9892C16.8879 18.9838 19.2282 17.209 19.8587 14.5818C19.9609 14.1664 19.9893 13.7294 19.995 13.2978C20.0063 10.7624 20.0063 8.22686 20.0007 5.69676C19.995 2.97246 18.1489 0.755253 15.3656 0.140263C14.9282 0.0431578 14.4681 0.0107901 14.0137 0.0107901C11.344 2.28591e-06 8.67433 4.95253e-07 6.01032 0.0053965C3.13613 0.0107906 0.807252 1.75327 0.159709 4.40205C0.0574659 4.82822 0.0233854 5.27598 0.0177053 5.71295C-0.0106969 6.98069 0.00634337 8.24844 0.00634343 9.51619ZM9.9751 1.73169C11.3099 1.73169 12.6448 1.72629 13.9796 1.73708C14.3091 1.73708 14.6442 1.75866 14.9623 1.8234C16.8766 2.228 18.166 3.73311 18.1773 5.59427C18.1887 8.19989 18.183 10.8055 18.1773 13.4111C18.1773 13.6809 18.1489 13.9506 18.0864 14.2149C17.6547 16.0329 16.0756 17.2575 14.116 17.2683C11.3724 17.2791 8.62889 17.2737 5.88535 17.2683C5.60134 17.2683 5.31734 17.2413 5.03901 17.182C3.11342 16.772 1.83537 15.2615 1.82401 13.3842C1.81265 10.7947 1.81833 8.20528 1.82401 5.62124C1.82401 5.34611 1.85241 5.06019 1.91489 4.79046C2.34091 2.97246 3.92568 1.75327 5.88535 1.73708C7.2486 1.7209 8.61185 1.73169 9.9751 1.73169Z" fill="#121110"/>
<path d="M10.0141 4.32193C7.02068 4.31114 4.55547 6.64703 4.54979 9.49542C4.54411 12.3384 7.00932 14.6797 10.0028 14.6797C12.9906 14.6797 15.4387 12.36 15.4501 9.52239C15.4671 6.6794 13.0133 4.33272 10.0141 4.32193ZM9.98575 6.04823C11.9909 6.04283 13.6154 7.56952 13.6324 9.47384C13.6495 11.3889 12.0306 12.9426 10.0085 12.948C8.00336 12.9534 6.37882 11.4267 6.36178 9.52239C6.35042 7.60728 7.96928 6.05362 9.98575 6.04823Z" fill="#121110"/>
<path d="M16.1887 4.38613C16.183 3.95456 15.7968 3.6039 15.3367 3.62008C14.8936 3.63627 14.5358 3.99232 14.5414 4.4131C14.5471 4.84468 14.9334 5.19533 15.3935 5.17915C15.8422 5.16836 16.2001 4.81231 16.1887 4.38613Z" fill="#121110"/>
</g>
<defs>
<clipPath id="clip0">
<rect width="19" height="20" fill="white" transform="matrix(-4.37114e-08 -1 -1 4.37114e-08 20 19)"/>
</clipPath>
</defs>
</svg>
