<svg width="22" height="17" viewBox="0 0 22 17" fill="none" xmlns="http://www.w3.org/2000/svg">
<path d="M19.2574 0H2.74263C1.23861 0 0 1.27728 0 2.82826V14.1717C0 15.7227 1.23861 17 2.74263 17H19.2279C20.7319 17 21.9705 15.7227 21.9705 14.1717V2.82826C22 1.27728 20.7614 0 19.2574 0ZM14.7158 7.57245L20.5255 2.43292C20.555 2.55456 20.6139 2.70662 20.6139 2.85868V14.2021C20.6139 14.2934 20.5844 14.3846 20.555 14.4758L14.7158 7.57245ZM19.2574 1.42934C19.3458 1.42934 19.4343 1.45975 19.5228 1.49016L11 9.00179L2.47721 1.45975C2.56568 1.45975 2.65416 1.42934 2.74263 1.42934H19.2574ZM1.41555 14.4454C1.38606 14.3542 1.35657 14.263 1.35657 14.1717V2.82826C1.35657 2.67621 1.38606 2.55456 1.44504 2.4025L7.25469 7.54204L1.41555 14.4454ZM2.74263 15.6011C2.59517 15.6011 2.47721 15.5707 2.35925 15.5098L8.31635 8.48479L10.5576 10.4615C10.6756 10.5832 10.8525 10.644 11 10.644C11.1475 10.644 11.3244 10.5832 11.4424 10.4615L13.6836 8.48479L19.6407 15.5098C19.5228 15.5403 19.3753 15.6011 19.2574 15.6011H2.74263Z" fill="#121110"/>
</svg>
