<svg width="21" height="21" viewBox="0 0 21 21" fill="none" xmlns="http://www.w3.org/2000/svg">
<path d="M19.4984 15.658L15.6543 13.0937C15.1645 12.7709 14.5115 12.8785 14.1516 13.3387L13.031 14.7785C12.8863 14.9678 12.6266 15.0234 12.4188 14.9084L12.2073 14.7896C11.5023 14.4037 10.6229 13.925 8.84927 12.1549C7.07566 10.3847 6.597 9.50522 6.21482 8.79642L6.0998 8.58489C5.98106 8.37708 6.03672 8.1136 6.22595 7.96887L7.66562 6.84816C8.12573 6.48819 8.23333 5.83135 7.91052 5.34521L5.33914 1.50064C5.00891 1.00337 4.34844 0.851224 3.83639 1.15923L2.22975 2.12409C1.72512 2.42097 1.35407 2.90339 1.19452 3.46746C0.615682 5.57901 1.04981 9.21947 6.41519 14.5855C10.6823 18.8532 13.8584 19.9999 16.0439 19.9999C16.5448 20.0036 17.0458 19.9368 17.5318 19.8069C18.0958 19.6473 18.5782 19.2762 18.875 18.7715L19.8435 17.1647C20.1477 16.6526 19.9956 15.992 19.4984 15.658ZM19.2943 16.8418L18.3296 18.4487C18.1181 18.8123 17.7693 19.0832 17.3649 19.1983C15.4169 19.7327 12.0143 19.2911 6.86416 14.1402C1.71399 8.98939 1.26873 5.58643 1.80304 3.63817C1.91807 3.22996 2.18893 2.88484 2.55256 2.6696L4.15921 1.70475C4.38184 1.57115 4.66754 1.63424 4.81225 1.85319L6.20369 3.94618L7.3725 5.70147C7.51349 5.91299 7.46526 6.19874 7.26489 6.3546L5.82522 7.47531C5.38738 7.8093 5.26122 8.4179 5.53209 8.89662L5.64711 9.10443C6.05156 9.84663 6.55619 10.7707 8.39288 12.6076C10.2296 14.4445 11.1535 14.9492 11.8956 15.3537L12.1034 15.4688C12.5857 15.7397 13.1906 15.6135 13.5245 15.1756L14.6451 13.7357C14.8009 13.5353 15.0866 13.4908 15.2981 13.6281L19.1422 16.1924C19.3611 16.3297 19.4279 16.6192 19.2943 16.8418Z" fill="white" stroke="white"/>
</svg>
