<svg width="26" height="21" viewBox="0 0 26 21" fill="none" xmlns="http://www.w3.org/2000/svg">
<path d="M9.70844 19.6534C9.3584 19.6534 9.00836 19.4577 8.89168 19.0943L6.44141 12.7767C6.26639 12.3295 6.49975 11.8543 6.96647 11.6865C7.43319 11.5188 7.92908 11.7425 8.10409 12.1897L10.5544 18.5073C10.7294 18.9545 10.496 19.4297 10.0293 19.5975C9.91263 19.6254 9.79595 19.6534 9.70844 19.6534Z" fill="#121110"/>
<path d="M9.73789 19.7118C9.62121 19.7118 9.47536 19.6839 9.35868 19.628C9.03781 19.4882 8.86279 19.1807 8.86279 18.8453L9.09615 13.6459C9.12532 13.3384 9.30034 13.0588 9.59204 12.9191C9.88374 12.7793 10.2338 12.8352 10.4963 13.0029L13.7633 15.379C13.9675 15.5188 14.1134 15.7703 14.1134 16.0219C14.1134 16.2735 13.9967 16.5251 13.7925 16.6928L10.2921 19.5441C10.1463 19.6559 9.94208 19.7118 9.73789 19.7118ZM10.788 15.2951L10.7005 16.9724L11.8381 16.0499L10.788 15.2951Z" fill="#121110"/>
<path d="M18.927 20.6613C18.4311 20.6613 17.9352 20.4936 17.5269 20.2141L9.4468 14.3438C9.24261 14.204 9.09676 13.9524 9.09676 13.7008C9.09676 13.4493 9.18427 13.1977 9.38846 13.03L12.393 10.5141L7.69661 13.1977C7.46325 13.3374 7.20072 13.3654 6.96736 13.2815L1.22089 11.4366C0.57915 11.2409 0.141602 10.6818 0.141602 10.0109C0.141602 9.34005 0.52081 8.78097 1.16255 8.55734L23.39 0.450744C23.9443 0.255067 24.5568 0.366882 25.0235 0.730282C25.4611 1.12163 25.6653 1.68071 25.5194 2.23979L21.2023 18.9562C20.9981 19.683 20.4439 20.27 19.7146 20.5216C19.4521 20.6054 19.1896 20.6613 18.927 20.6613ZM11.372 13.617L18.577 18.8443C18.8103 19.0121 19.0437 18.9562 19.1312 18.9282C19.2187 18.9002 19.4521 18.7884 19.5104 18.5368L23.7984 2.12797L2.24184 9.98299L7.17155 11.5764L19.8896 4.25246C20.2688 4.02883 20.7939 4.11269 21.0564 4.47609C21.319 4.83949 21.2606 5.3147 20.9398 5.59424L11.372 13.617Z" fill="#121110"/>
</svg>
