<svg width="22" height="24" viewBox="0 0 22 24" fill="none" xmlns="http://www.w3.org/2000/svg">
<g clip-path="url(#clip0)">
<path d="M21.5989 6.35597C21.4199 5.48315 21.1233 4.35001 20.3971 3.34448C19.4817 2.07353 18.1777 1.22624 16.4185 0.741336C13.9127 0.047163 11.3148 -0.157005 8.70673 0.123726C7.08051 0.297269 5.77647 0.629043 4.6105 1.15478C2.37061 2.16541 1.00009 3.77834 0.539836 5.94763C0.135838 7.8464 -0.0380351 9.60735 0.0131039 11.3275C0.0642429 13.0476 0.33528 14.5125 0.836442 15.8039C1.57796 17.6975 2.8462 18.9327 4.61561 19.4687C4.67698 19.4891 4.73835 19.5095 4.79972 19.535C4.87131 19.5606 4.9429 19.5912 5.01961 19.6167C5.10144 19.6422 5.12189 19.6473 5.12189 19.78C5.11166 20.6835 5.11166 21.6022 5.11678 22.4904C5.11678 22.8017 5.11678 23.1182 5.11678 23.4296V23.991H5.37247C5.44407 23.991 5.51055 23.991 5.57703 23.9859C5.70488 23.9808 5.81227 23.9808 5.91966 23.991C5.95546 23.9961 5.99125 23.9961 6.02705 23.9961C6.36968 23.9961 6.58958 23.8124 6.73277 23.6694C7.8834 22.5057 9.04425 21.347 9.92384 20.4742C9.95453 20.4436 10.0108 20.4232 10.0363 20.4181C10.5733 20.3925 11.1154 20.3721 11.6472 20.3517C12.3427 20.3262 13.0638 20.2956 13.7695 20.2598C15.094 20.1884 16.1577 20.0097 17.1242 19.6882C18.8681 19.1114 20.0545 18.1314 20.7653 16.692C21.1898 15.8294 21.4761 15.0076 21.6347 14.1756C22.1358 11.5674 22.1256 8.93359 21.5989 6.35597ZM5.74579 18.2641C5.47475 18.1467 5.15769 18.0089 4.82017 17.9017C3.84342 17.5852 3.1019 16.9268 2.54448 15.8855C2.02798 14.9157 1.82342 13.8592 1.68535 12.9506C1.35806 10.7456 1.63421 8.55078 1.91548 6.8868C2.03821 6.1569 2.22742 5.31471 2.7337 4.55418C3.35759 3.59969 4.2781 2.91062 5.62817 2.39C6.77368 1.94082 8.0675 1.68561 9.69372 1.57843C10.0926 1.5529 10.4966 1.53759 10.9006 1.53759C12.4245 1.53759 13.9843 1.72134 15.5491 2.08885C15.9582 2.18583 16.3827 2.32364 16.8481 2.50739C18.5714 3.19646 19.6096 4.42147 20.0136 6.25899C20.4278 8.12202 20.5454 10.0361 20.3818 12.1135C20.2897 13.2926 20.0494 14.3798 19.6505 15.4415C19.1238 16.8451 18.1419 17.7588 16.6486 18.2335C15.7997 18.504 14.8588 18.6673 13.7746 18.7235C12.6649 18.7847 11.5347 18.8256 10.4403 18.8664L9.97498 18.8868C9.50962 18.9021 9.12096 19.0859 8.75276 19.4636C8.16978 20.0608 7.58168 20.6375 6.9629 21.2501C6.86062 21.3521 6.75834 21.4491 6.65606 21.5512C6.65606 21.4287 6.65606 21.3011 6.65606 21.1786C6.65606 20.6835 6.65606 20.168 6.65606 19.6626C6.65606 19.0093 6.34411 18.5244 5.74579 18.2641Z" fill="#121110"/>
<path d="M13.6493 16.965C13.8487 17.0467 14.0737 17.0773 14.2425 17.1181C14.401 17.0926 14.5033 17.0926 14.6004 17.062C15.4136 16.8374 16.0221 16.3576 16.421 15.6073C16.7636 14.959 16.6818 14.5099 16.1039 14.0658C15.5721 13.6524 15.0351 13.2491 14.4777 12.8714C14.2374 12.7081 13.951 12.5805 13.6646 12.5243C13.1225 12.4171 12.739 12.6979 12.4424 13.1317C12.1304 13.5911 11.7469 13.7595 11.3122 13.5911C9.72178 12.9684 8.54558 11.9118 7.90123 10.3142C7.68644 9.78336 7.79384 9.39034 8.22341 9.00752C8.39216 8.85439 8.58138 8.71658 8.74502 8.55835C9.00583 8.29803 9.08254 7.98668 8.92912 7.6498C8.48421 6.68 7.87566 5.82759 7.07789 5.1079C6.84265 4.89863 6.55116 4.77613 6.24944 4.88331C5.86589 5.01602 5.47212 5.15894 5.14483 5.38863C4.46468 5.86332 4.17319 6.73614 4.434 7.44053C4.6897 8.1347 4.95051 8.82887 5.29314 9.48221C7.13414 13.0143 9.99282 15.4388 13.6493 16.965Z" fill="#121110"/>
<path d="M10.7703 4.92257C13.1483 4.44788 15.5671 6.08633 16.0121 8.46489C16.1297 9.10291 16.1143 9.73073 15.9916 10.3637C15.9405 10.6138 16.0632 10.8281 16.2882 10.9251C16.5132 11.0221 16.7178 10.9762 16.861 10.7924C16.9428 10.6852 16.9939 10.5372 17.0195 10.3994C17.6843 7.01019 15.066 3.83537 11.609 3.84047C11.4709 3.84047 11.3379 3.83027 11.1999 3.84047C10.9953 3.86089 10.7959 3.88641 10.5913 3.92214C10.1157 4.00381 9.91116 4.21819 9.97253 4.56017C10.0339 4.88684 10.31 5.01444 10.7703 4.92257Z" fill="#121110"/>
<path d="M14.9633 10.4723C15.2599 10.508 15.49 10.3345 15.5463 10.0282C15.9758 7.62413 14.0428 5.34766 11.583 5.34766C11.3631 5.36807 11.1432 5.38339 10.9233 5.41401C10.6062 5.45995 10.4272 5.71006 10.4784 6.01631C10.5244 6.31235 10.7801 6.46037 11.1381 6.41954C12.345 6.27152 13.3166 6.67986 14.0274 7.65986C14.4979 8.30299 14.6564 9.0431 14.5337 9.83426C14.4877 10.1813 14.6616 10.4366 14.9633 10.4723Z" fill="#121110"/>
<path d="M11.6189 6.89494C11.2456 6.88473 11.0103 7.06848 10.995 7.37984C10.9848 7.6963 11.1944 7.89026 11.5729 7.91578C12.3962 7.96172 12.9945 8.56912 13.0405 9.396C13.061 9.7584 13.2553 9.96257 13.5673 9.95746C13.8843 9.95236 14.0735 9.71756 14.0633 9.34496C14.0275 8.04849 12.9178 6.93577 11.6189 6.89494Z" fill="#121110"/>
</g>
<defs>
<clipPath id="clip0">
<rect width="22" height="24" fill="white"/>
</clipPath>
</defs>
</svg>
