<svg width="29" height="16" viewBox="0 0 29 16" fill="none" xmlns="http://www.w3.org/2000/svg">
<path d="M28.8928 13.8307C28.2301 11.9913 24.3615 8.81724 24.1179 8.48235C24.1519 8.42237 24.2142 8.33739 24.2426 8.29741C25.0072 7.40769 27.9186 3.55389 28.3491 2.00937C28.3491 2.00937 28.3491 2.00437 28.3491 1.99938C28.5813 1.2946 28.3661 0.839738 28.1508 0.579819C27.8166 0.194939 27.2899 0 26.5762 0H23.6025C22.6056 0 21.8523 0.444861 21.4671 1.24961C20.8271 2.68416 19.0315 5.63324 17.6835 6.67791C17.6438 5.19838 17.6721 4.06873 17.6891 3.22899C17.7458 1.5945 17.8817 0 15.9559 0H11.283C10.0765 0 8.92103 1.16464 10.1728 2.5442C11.266 3.75383 10.5636 4.42862 10.8015 7.78257C9.88394 6.91284 8.247 4.56857 7.09151 1.56451C6.77432 0.754764 6.28154 0 4.89949 0H1.92581C0.719347 0 0 0.579819 0 1.55451C0 3.73383 5.47157 15.995 14.6758 15.995C16.9924 15.995 17.5759 15.2802 17.6835 14.5255C17.7741 13.9157 17.6891 11.9913 17.7061 11.6963C17.9723 11.7613 18.6011 12.0412 19.8925 13.1559C21.8919 14.9353 22.4017 16 24.0217 16H26.9953C27.9356 16 28.4284 15.6551 28.6719 15.3652C28.9098 15.0803 29.142 14.5904 28.8928 13.8307ZM24.0217 14.3955C23.4213 14.3955 22.9568 13.6057 21.1726 12.0162C19.5696 10.6367 18.5274 10.0769 17.5759 10.0769C15.735 10.0769 15.8709 11.3964 15.8879 12.9909C15.8936 14.7204 15.8823 14.1756 15.8936 14.2805C15.786 14.3155 15.4801 14.3905 14.6758 14.3905C7.00655 14.3955 2.01644 3.65886 1.82386 1.6045C1.89183 1.5995 2.80375 1.6045 4.89949 1.5995C5.16004 1.5995 5.18836 1.5995 5.38094 2.08435C6.56475 5.15839 9.21557 9.70697 11.1584 9.70697C12.6141 9.70697 12.6141 8.39238 12.6141 7.89253V3.94377C12.5348 2.63918 11.9967 1.98938 11.6398 1.5945L15.8766 1.5995C15.8766 1.61949 15.854 5.96813 15.8879 7.01781C15.8879 8.51234 17.236 9.37207 19.3374 7.49266C21.5521 5.28335 23.0871 1.98438 23.1494 1.84942C23.24 1.65948 23.3193 1.5945 23.6025 1.5945H26.5762H26.5875C26.5875 1.5995 26.5875 1.5995 26.5875 1.6045C26.3156 2.72415 23.6308 6.29303 22.7359 7.39769C22.7189 7.41268 22.7076 7.43268 22.6962 7.45267C22.2998 8.02249 21.9769 8.6523 22.7529 9.53702C22.8209 9.612 23.0078 9.78694 23.274 10.0319C24.101 10.7866 26.933 13.3608 27.1879 14.3805C27.0123 14.4105 26.8311 14.3905 24.0217 14.3955Z" fill="#121110"/>
</svg>
