<svg width="23" height="23" viewBox="0 0 23 23" fill="none" xmlns="http://www.w3.org/2000/svg">
<g clip-path="url(#clip0)">
<path d="M22.6291 8.57902C22.2037 6.95799 21.4568 5.48969 20.4033 4.20863C19.3942 2.97684 18.1577 1.98648 16.7282 1.25726C15.2987 0.528041 13.7654 0.114159 12.1727 0.0205431C10.5157 -0.0780002 8.88348 0.178212 7.31552 0.784253C5.74757 1.39029 4.37252 2.30182 3.2151 3.48927C2.10714 4.63237 1.26134 5.97256 0.707358 7.47534C0.158327 8.97812 -0.0741463 10.54 0.0198321 12.1217C0.118757 13.7673 0.57381 15.3489 1.37015 16.8172C1.4394 16.9453 1.44929 17.0439 1.40972 17.1868C0.934885 18.8571 0.474885 20.5077 0.0445633 22.04C-0.0345764 22.3209 0.00993965 22.5672 0.168219 22.7249C0.326499 22.8875 0.563918 22.9368 0.850799 22.8678C1.34542 22.7446 1.84499 22.6264 2.33962 22.5032C3.52671 22.2125 4.74843 21.9119 5.95531 21.6212C6.06907 21.5966 6.22241 21.6114 6.33122 21.6656C7.94864 22.4638 9.64025 22.8826 11.3714 22.9072L11.3863 22.9959L11.5099 22.9762C11.777 22.9368 12.054 22.9023 12.3211 22.8727C12.8998 22.8037 13.4983 22.7298 14.077 22.6017C15.6054 22.2618 17.02 21.6262 18.2813 20.7048C19.4981 19.8179 20.517 18.7142 21.3084 17.4184C22.1048 16.1176 22.6291 14.6986 22.8665 13.2056C23.1039 11.6585 23.0297 10.1015 22.6291 8.57902ZM1.58284 21.1285C1.68671 20.754 1.79058 20.3894 1.88951 20.0298C1.95381 19.7932 2.02306 19.5567 2.08736 19.3252C2.27531 18.6501 2.47316 17.9505 2.67101 17.2607C2.75015 16.9946 2.72048 16.763 2.58693 16.5315C1.62241 14.8562 1.16736 12.9987 1.23661 11.0081C1.38005 6.88901 4.22413 3.10002 8.16133 1.78939C12.9344 0.202848 17.9944 2.1343 20.4626 6.48991C21.4667 8.26369 21.8921 10.205 21.719 12.2448C21.348 16.6694 18.3456 20.2416 14.077 21.3453C11.5396 22.0006 9.06154 21.7148 6.71208 20.4929C6.50929 20.3845 6.31639 20.3352 6.11854 20.3352C6.00972 20.3352 5.89596 20.35 5.77725 20.3796C4.70886 20.6555 3.61574 20.9216 2.5622 21.1778C2.20607 21.2665 1.84994 21.3502 1.49876 21.4389L1.58284 21.1285Z" fill="#121110"/>
<path d="M6.83055 12.8939C8.42324 14.8845 10.0604 16.1458 11.9796 16.8603L12.1577 16.9293C12.9095 17.2101 13.686 17.5008 14.5318 17.5008C14.5368 17.5008 14.5417 17.5008 14.5467 17.5008H14.5566C14.6258 17.4959 14.7 17.491 14.7693 17.486C14.9275 17.4762 15.0957 17.4663 15.2589 17.4318C17.1187 17.0229 18.0536 15.9685 18.0437 14.3031C18.0387 13.8449 17.8161 13.5098 17.3759 13.3127C17.2127 13.2388 17.0445 13.16 16.8863 13.0861C16.7725 13.0319 16.6637 12.9826 16.5499 12.9284C16.4015 12.8594 16.2482 12.7904 16.0998 12.7215C15.7387 12.5539 15.3678 12.3815 14.9918 12.2287C14.4478 12.007 14.0372 12.1253 13.6564 12.6081C13.5129 12.7904 13.3645 12.9727 13.2211 13.1452C13.1172 13.2733 13.0134 13.3965 12.9095 13.5246C12.8551 13.5886 12.8501 13.5936 12.7858 13.564C11.3316 12.9777 10.1544 11.9922 9.29873 10.6323C9.24926 10.5535 9.24926 10.5387 9.3284 10.4451C9.57572 10.1495 9.78346 9.86863 9.96647 9.58778C10.1989 9.23795 10.2187 8.83392 10.0258 8.39047C9.68948 7.60705 9.41744 6.9616 9.17012 6.35063C8.88819 5.66082 8.43313 5.35041 7.76539 5.41446C7.6912 5.41939 7.617 5.41939 7.53787 5.41446H7.51313C6.93937 5.3849 6.45959 5.59677 6.0441 6.055C4.91636 7.29664 4.64926 8.75509 5.25765 10.386C5.60389 11.3172 6.1727 12.076 6.83055 12.8939ZM8.88819 9.00637C8.71012 9.2478 8.52217 9.50894 8.30453 9.74545C7.89894 10.1938 7.84948 10.6176 8.1512 11.1201C9.17507 12.8249 10.6342 14.0567 12.489 14.7712C12.9787 14.9584 13.3794 14.8648 13.7207 14.4805C13.9927 14.175 14.2647 13.8498 14.5467 13.4901C14.6258 13.3916 14.6407 13.3965 14.7198 13.431C15.4518 13.7857 16.1047 14.0961 16.7082 14.3721C16.8121 14.4164 16.8269 14.4558 16.8071 14.5938C16.6785 15.4413 16.0207 16.0719 15.1303 16.2099C15.0017 16.2296 14.8632 16.2395 14.7346 16.2542C14.6753 16.2592 14.6159 16.2641 14.5516 16.269C13.8789 16.2641 13.2508 16.0227 12.6424 15.7911C12.5682 15.7615 12.489 15.732 12.4149 15.7024C10.6441 15.0372 9.12066 13.8251 7.6269 11.8986C7.04324 11.1497 6.60303 10.4894 6.35571 9.71096C5.9798 8.54814 6.20238 7.60213 7.0383 6.81871C7.15206 6.71524 7.52303 6.62655 7.76539 6.62655C7.84453 6.62655 7.90389 6.6364 7.94346 6.65611C7.97313 6.67089 8.00776 6.75958 8.0226 6.79407C8.30453 7.45924 8.60625 8.16875 8.89808 8.87826C8.90797 8.91768 8.89808 8.98666 8.88819 9.00637Z" fill="#121110"/>
</g>
<defs>
<clipPath id="clip0">
<rect width="23" height="23" fill="white"/>
</clipPath>
</defs>
</svg>
