<svg width="563" height="421" viewBox="0 0 563 421" fill="none" xmlns="http://www.w3.org/2000/svg">
<path d="M182.843 212.85C183.228 212.85 183.554 212.553 183.583 212.169C185.329 190.342 190.211 176.512 197.668 172.159C201.337 169.997 205.776 170.115 210.806 172.425C211.191 172.603 211.605 172.425 211.783 172.07C211.96 171.685 211.783 171.27 211.428 171.093C205.924 168.546 201.042 168.487 196.929 170.885C188.909 175.565 183.938 189.424 182.133 212.05C182.104 212.465 182.4 212.82 182.814 212.85C182.814 212.85 182.814 212.85 182.843 212.85Z" fill="#1A1E22"/>
<path d="M65.8128 226.887C66.2567 230.47 71.3462 270.628 69.7187 270.746C78.2408 270.125 86.7924 269.473 95.2257 268.2C98.8062 267.667 102.387 266.985 105.997 266.6C110.524 266.097 115.081 266.038 119.608 265.534C127.746 264.646 135.706 262.454 143.577 260.233C144.316 247.292 144.316 234.35 143.665 221.408C143.517 218.595 139.404 188.476 138.872 184.775C138.842 184.567 138.665 184.449 138.457 184.478C134.907 185.219 131.326 185.722 127.716 186.048C123.721 186.403 66.2271 190.076 62.2323 191.201C62.2323 191.201 62.9129 205.298 63.3272 208.229C64.2149 214.449 65.0435 220.668 65.8128 226.887Z" fill="white"/>
<path d="M69.7481 271.487C69.7776 271.487 69.7777 271.487 69.8073 271.487C78.211 270.865 86.9105 270.214 95.3734 268.91C96.4682 268.733 97.5631 268.555 98.658 268.377C101.084 267.992 103.629 267.578 106.115 267.282C108.393 267.045 110.701 266.897 112.98 266.749C115.199 266.6 117.477 266.482 119.726 266.216C127.952 265.327 136.031 263.076 143.813 260.885C144.109 260.796 144.346 260.529 144.346 260.204C145.056 247.292 145.085 234.202 144.434 221.29C144.286 218.447 140.114 188.062 139.641 184.597C139.611 184.301 139.434 184.034 139.197 183.857C138.96 183.679 138.635 183.62 138.339 183.679C134.847 184.39 131.237 184.923 127.686 185.249C126.769 185.337 122.893 185.604 117.507 185.959C99.2202 187.203 65.2207 189.543 62.0545 190.431C61.729 190.52 61.4923 190.846 61.5219 191.172C61.5515 191.734 62.2025 205.357 62.6168 208.289C63.4749 214.449 64.3034 220.727 65.1024 226.946L65.1615 227.331C68.8307 256.443 69.6593 268.496 69.245 270.184C69.0971 270.332 69.0083 270.539 69.0083 270.776C69.0379 271.191 69.3634 271.487 69.7481 271.487ZM142.896 259.641C135.321 261.773 127.479 263.935 119.549 264.764C117.33 265.001 115.051 265.149 112.861 265.268C110.583 265.416 108.245 265.564 105.937 265.801C103.422 266.067 100.877 266.482 98.4212 266.897C97.3264 267.074 96.2315 267.252 95.1663 267.43C87.0881 268.674 78.8027 269.295 70.7837 269.888C70.9317 268.081 70.7542 263.402 69.3634 250.253C68.89 245.692 68.0022 237.963 66.6411 227.154L66.5819 226.769C65.8125 220.549 64.9544 214.271 64.0963 208.111C63.7412 205.594 63.179 194.548 63.031 191.764C68.4757 190.846 101.41 188.595 117.596 187.47C122.981 187.114 126.858 186.848 127.805 186.759C131.296 186.463 134.788 185.959 138.22 185.249C138.901 190.194 142.807 218.713 142.925 221.408C143.606 234.113 143.576 246.966 142.896 259.641Z" fill="#1A1E22"/>
<path d="M87.1766 196.591C87.2062 196.591 87.2654 196.591 87.295 196.591C87.7093 196.531 87.9756 196.146 87.8868 195.732C87.2062 192.03 86.8511 188.387 86.7919 184.834V184.271C86.6736 178.822 86.5552 172.632 89.8102 168.042C90.9346 166.443 92.4141 165.288 93.9824 164.814C99.9893 162.948 104.457 170.589 105.316 172.129C108.393 177.845 108.866 185.307 109.31 191.912C109.37 192.918 109.429 193.896 109.517 194.843C109.547 195.258 109.902 195.554 110.316 195.525C110.731 195.495 111.027 195.14 110.997 194.725C110.938 193.777 110.849 192.8 110.79 191.823C110.346 185.071 109.873 177.43 106.618 171.418C103.925 166.413 99.072 161.675 93.5682 163.392C91.6744 163.985 89.9286 165.317 88.6266 167.183C85.1053 172.188 85.2237 178.614 85.342 184.301V184.863C85.4012 188.476 85.7859 192.237 86.4664 195.998C86.5256 196.354 86.8215 196.591 87.1766 196.591Z" fill="#1A1E22"/>
<path d="M154.94 402.71C154.674 407.419 151.567 411.861 147.246 413.697C142.897 415.533 137.511 414.585 134.079 411.357C127.865 405.523 130.853 395.898 137.6 391.93C145.826 387.103 155.502 393.233 154.94 402.71Z" fill="#1A1E22"/>
<path d="M87.4433 415.356C87.2657 415.445 87.0586 415.504 86.881 415.593C78.862 418.584 68.2983 413.283 69.5411 403.362C70.5471 395.484 78.9212 390.628 85.9637 393.767C93.8644 397.261 96.2612 411.476 87.4433 415.356Z" fill="#1A1E22"/>
<path d="M170.178 406.235C170.356 406.235 170.533 406.175 170.681 406.027C172.368 404.487 173.197 402.059 172.782 399.808C172.398 397.557 170.77 395.573 168.669 394.685C168.285 394.537 167.87 394.714 167.693 395.099C167.545 395.484 167.722 395.899 168.107 396.077C169.734 396.758 171.007 398.327 171.303 400.075C171.599 401.822 170.948 403.747 169.646 404.932C169.35 405.198 169.32 405.672 169.586 405.968C169.764 406.146 169.971 406.235 170.178 406.235Z" fill="#1A1E22"/>
<path d="M178.76 416.126C178.937 416.126 179.115 416.067 179.263 415.919C181.304 413.964 183.879 411.536 184.826 408.367C185.21 407.094 185.358 405.642 185.269 403.865C185.003 397.942 182.37 392.345 178.256 388.91C177.931 388.643 177.487 388.703 177.221 388.999C176.954 389.325 177.014 389.769 177.31 390.035C181.127 393.234 183.553 398.416 183.79 403.925C183.849 405.554 183.731 406.827 183.405 407.952C182.577 410.766 180.269 412.928 178.256 414.882C177.961 415.178 177.961 415.623 178.227 415.919C178.375 416.067 178.552 416.126 178.76 416.126Z" fill="#1A1E22"/>
<path d="M97.4753 409.018C97.6824 409.018 97.8895 408.929 98.0375 408.752C99.9609 406.471 99.7241 402.651 97.5344 400.607C97.2385 400.341 96.7651 400.341 96.4988 400.637C96.2325 400.933 96.2325 401.407 96.5284 401.674C98.1558 403.184 98.3334 406.086 96.9131 407.774C96.6467 408.1 96.6763 408.544 97.0018 408.811C97.1498 408.959 97.3273 409.018 97.4753 409.018Z" fill="#1A1E22"/>
<path d="M104.429 418.583C104.547 418.583 104.695 418.554 104.813 418.495L105.316 418.198C107.388 417.014 109.755 415.652 110.702 413.253C113.483 406.293 110.554 401.407 109.163 399.63C108.246 398.445 106.766 397.083 105.671 397.231C105.257 397.29 104.991 397.646 105.05 398.06C105.109 398.445 105.464 398.742 105.849 398.712C106.204 398.771 107.506 399.63 108.66 401.525C109.814 403.421 111.442 407.389 109.311 412.72C108.542 414.615 106.529 415.8 104.576 416.925L104.073 417.221C103.718 417.429 103.6 417.873 103.807 418.228C103.925 418.435 104.162 418.583 104.429 418.583Z" fill="#1A1E22"/>
<path d="M239.716 249.513C242.32 249.513 244.924 249.483 247.528 249.454C247.942 249.454 248.268 249.098 248.268 248.713C248.268 248.299 247.942 247.973 247.528 247.973C233.975 248.239 220.245 247.825 206.723 246.759C206.308 246.729 205.953 247.025 205.924 247.44C205.894 247.854 206.19 248.21 206.604 248.239C217.553 249.069 228.679 249.513 239.716 249.513Z" fill="#1A1E22"/>
<path d="M215.54 242.553H215.569L230.394 241.931C230.809 241.902 231.134 241.576 231.105 241.161C231.075 240.747 230.749 240.45 230.335 240.45L215.51 241.072C215.096 241.102 214.771 241.428 214.8 241.842C214.8 242.257 215.126 242.553 215.54 242.553Z" fill="#1A1E22"/>
<path d="M51.6681 229.167C53.6507 247.41 56.9352 265.564 59.5392 283.718C60.1901 288.308 60.8707 292.928 61.788 297.489C62.7941 302.346 64.0961 307.114 65.4572 311.881C66.1674 314.399 66.1379 315.11 68.7714 315.139C71.2274 315.169 73.6538 315.139 76.1098 315.139C86.0226 315.05 95.9354 314.725 105.819 314.132C106.026 314.132 100.847 281.882 100.196 278.95C99.1016 273.975 98.5394 268.881 96.9711 264.054C93.8345 254.34 86.3481 225.821 86.3481 225.821C86.3481 225.821 81.88 226.147 80.43 226.295C70.8723 227.242 61.285 228.22 51.6681 229.167Z" fill="#FFDB00"/>
<path d="M71.3758 315.879C72.7665 315.879 74.1573 315.879 75.5185 315.85H76.1398C86.0231 315.761 96.0246 315.435 105.878 314.843L106.204 314.813L106.411 314.547C106.648 314.221 106.648 314.221 105.849 308.802C105.405 305.87 104.754 301.812 104.044 297.4C102.771 289.522 101.262 280.312 100.937 278.772C100.552 277.084 100.256 275.337 99.9306 273.649C99.3388 270.391 98.7174 267.015 97.6817 263.787C94.5747 254.221 87.1475 225.88 87.0883 225.584L86.9404 224.992L86.319 225.051C86.1414 225.051 81.8212 225.377 80.3713 225.525L50.84 228.486L50.9288 229.226C52.2308 241.309 54.1542 253.57 56.0183 265.416C56.9652 271.457 57.9417 277.676 58.8294 283.807C59.4804 288.338 60.161 293.046 61.1079 297.607C62.114 302.523 63.4752 307.469 64.7771 312.03C64.8363 312.237 64.8955 312.415 64.9547 312.622C65.5761 314.873 65.9608 315.791 68.8014 315.82C69.6596 315.879 70.5177 315.879 71.3758 315.879ZM105.05 313.421C95.4624 313.984 85.7567 314.31 76.1398 314.369H75.5185C73.3288 314.399 71.0503 314.399 68.831 314.369C66.9668 314.34 66.9372 314.221 66.375 312.237C66.3158 312.059 66.2566 311.852 66.1975 311.645C64.8955 307.084 63.5639 302.197 62.5579 297.311C61.6406 292.78 60.9599 288.101 60.309 283.599C59.4212 277.439 58.4448 271.22 57.4979 265.179C55.6929 253.6 53.7991 241.606 52.4971 229.789L80.5488 226.976C81.6437 226.857 84.5731 226.65 85.8455 226.532C86.9404 230.707 93.4503 255.376 96.3205 264.231C97.3266 267.37 97.948 270.687 98.5102 273.886C98.8061 275.574 99.1316 277.321 99.5163 279.039C100.108 281.852 104.428 308.713 105.05 313.421Z" fill="#1A1E22"/>
<path d="M63.0903 235.001C63.1791 235.001 63.2974 234.972 63.3862 234.942C63.7709 234.764 63.9188 234.32 63.7413 233.965C60.9006 227.775 57.9711 221.378 57.7344 214.034C57.7048 212.82 57.7344 211.221 58.3262 209.918C58.918 208.644 60.0129 207.785 61.1373 207.696C62.4689 207.608 63.8597 208.526 65.3688 210.51C70.1624 216.818 72.9735 224.636 73.3286 232.543C73.3582 232.958 73.6837 233.254 74.098 233.254C74.5122 233.224 74.8081 232.899 74.8081 232.484C74.453 224.281 71.5236 216.166 66.5524 209.621C64.7178 207.193 62.9127 206.097 61.0485 206.216C59.3915 206.334 57.7936 207.519 56.9651 209.266C56.2253 210.865 56.1661 212.672 56.2253 214.064C56.4916 221.704 59.4802 228.249 62.3801 234.557C62.5577 234.853 62.824 235.001 63.0903 235.001Z" fill="#1A1E22"/>
<path d="M179.677 323.491C166.45 324.202 124.402 322.988 124.402 322.988C124.639 321.122 124.935 319.789 125.201 317.953C126.503 308.476 127.184 298.881 127.509 289.316C127.983 275.811 127.776 262.277 127.865 248.743C127.894 245.367 127.569 209.356 127.569 209.356C149.022 207.904 170.771 211.014 192.017 207.519C184.856 283.955 179.884 322.455 179.677 323.491Z" fill="#FFDB00"/>
<path d="M167.071 324.439C172.22 324.439 176.688 324.379 179.677 324.231L180.239 324.202L180.357 323.639C180.594 322.484 185.595 283.689 192.667 207.608L192.756 206.66L191.809 206.808C179.351 208.852 166.42 208.615 153.963 208.378C145.263 208.2 136.268 208.052 127.45 208.644L126.74 208.704V209.414C126.74 209.77 127.065 245.456 127.035 248.773C127.006 252.652 127.006 256.621 127.006 260.441C127.006 269.918 127.006 279.691 126.68 289.315C126.296 300.036 125.556 309.365 124.372 317.864C124.254 318.693 124.136 319.434 124.017 320.144C123.869 321.003 123.721 321.892 123.603 322.928L123.485 323.728L124.313 323.757C124.698 323.728 149.672 324.439 167.071 324.439ZM179.026 322.78C166.42 323.372 131.089 322.425 125.23 322.277C125.319 321.625 125.438 321.003 125.526 320.352C125.645 319.641 125.763 318.901 125.881 318.042C127.065 309.483 127.834 300.095 128.189 289.345C128.515 279.691 128.515 269.888 128.515 260.411C128.515 256.591 128.515 252.652 128.545 248.773C128.574 245.693 128.308 215.13 128.249 210.096C136.771 209.563 145.5 209.711 153.933 209.888C166.154 210.125 178.789 210.362 191.099 208.467C184.559 279.128 179.736 317.657 179.026 322.78Z" fill="#1A1E22"/>
<path d="M149.287 214.479C149.702 214.479 150.027 214.153 150.027 213.738C150.086 210.451 150.323 207.164 150.767 203.906C151.181 200.737 151.921 196.651 153.756 193.097C155.62 189.484 158.401 186.907 161.567 185.782C165.118 184.538 169.143 185.397 171.391 187.885C173.729 190.461 174.055 194.281 174.084 197.302C174.143 202.603 173.404 207.875 171.924 212.998C171.806 213.383 172.042 213.798 172.427 213.916C172.812 214.034 173.226 213.798 173.344 213.413C174.854 208.171 175.623 202.751 175.564 197.302C175.534 194.015 175.149 189.839 172.486 186.907C169.853 184.005 165.148 182.968 161.064 184.39C157.514 185.634 154.466 188.477 152.424 192.416C150.471 196.177 149.731 200.441 149.287 203.699C148.844 206.986 148.577 210.362 148.548 213.679C148.548 214.153 148.873 214.479 149.287 214.479Z" fill="#1A1E22"/>
<path d="M81.5551 258.96C84.7805 257.538 88.3017 256.946 91.7934 256.502C98.0962 255.673 104.458 255.288 110.82 255.288C116.768 255.288 123.13 255.317 128.989 256.354C132.184 267.696 133.93 279.868 134.936 291.596C135.854 302.257 135.646 312.948 135.794 323.609C131.178 323.55 126.562 323.432 121.946 323.343C117.419 323.254 90.166 323.905 81.8215 322.277C81.7623 321.862 80.8746 259.256 81.5551 258.96Z" fill="white"/>
<path d="M135.824 324.349C136.031 324.349 136.209 324.261 136.357 324.142C136.505 323.994 136.564 323.816 136.564 323.609C136.534 321.003 136.505 318.338 136.505 315.791C136.446 307.854 136.416 299.651 135.706 291.536C134.522 277.765 132.569 266.215 129.729 256.146C129.64 255.88 129.433 255.673 129.137 255.613C123.041 254.547 116.265 254.518 110.82 254.518C104.458 254.518 98.0372 254.932 91.7048 255.761C87.6805 256.294 84.3664 256.916 81.2594 258.279C80.6676 258.545 80.5788 258.575 80.5492 268.91C80.5492 274.211 80.5788 281.497 80.6676 290.588C80.7859 304.774 81.0522 322.069 81.0818 322.395C81.141 322.721 81.3777 322.957 81.6736 323.017C88.3315 324.32 106.589 324.172 116.383 324.112C118.958 324.083 120.97 324.083 121.917 324.112L123.071 324.142C127.243 324.201 131.563 324.29 135.824 324.349C135.795 324.349 135.795 324.349 135.824 324.349ZM128.427 256.976C131.149 266.837 133.043 278.18 134.226 291.625C134.907 299.651 134.966 307.824 135.025 315.761C135.025 318.071 135.055 320.47 135.084 322.839C131.09 322.78 127.065 322.691 123.13 322.602L121.976 322.572C120.999 322.543 119.076 322.572 116.413 322.572C106.944 322.632 89.5151 322.75 82.5614 321.595C82.443 315.613 81.7328 264.172 82.2062 259.434C85.0765 258.249 88.1539 257.657 91.9119 257.183C98.1555 256.383 104.517 255.969 110.82 255.969C116.058 255.998 122.568 255.998 128.427 256.976Z" fill="#1A1E22"/>
<path d="M96.8833 263.372C96.9425 263.372 96.9721 263.372 97.0313 263.372C97.4456 263.283 97.7119 262.899 97.6231 262.514C97.4456 261.625 97.2384 260.825 97.0313 260.085C96.5578 258.279 96.114 256.739 96.5282 254.577C97.1496 251.082 98.8067 248.269 100.996 246.847C104.222 244.774 108.897 245.9 111.471 249.335C113.868 252.563 114.519 257.449 113.217 262.099C113.099 262.484 113.336 262.899 113.72 263.017C114.105 263.135 114.519 262.899 114.638 262.514C116.088 257.42 115.318 252.059 112.655 248.446C109.637 244.389 104.044 243.116 100.197 245.603C97.6527 247.262 95.7885 250.431 95.0783 254.31C94.6344 256.798 95.1079 258.575 95.6109 260.47C95.8181 261.21 96.0252 261.98 96.1732 262.81C96.2323 263.106 96.5578 263.372 96.8833 263.372Z" fill="#1A1E22"/>
<path d="M76.6726 393.855C93.5983 393.855 110.731 393.322 127.598 392.286C129.787 392.138 132.066 392.079 134.463 392.019C146.595 391.723 160.325 391.368 167.308 380.055C172.723 371.289 174.38 360.035 175.949 349.137C176.57 344.873 177.162 340.875 177.961 337.084C181.157 321.803 193.555 242.761 198.201 213.027C199.266 206.275 199.946 201.803 200.006 201.537C200.124 200.944 200.242 200.293 200.39 199.612C201.16 195.554 202.136 190.461 205.421 188.24C208.084 186.433 211.901 186.877 214.623 187.529C218.145 188.388 221.459 190.046 223.5 191.379L223.767 191.556C224.092 191.793 224.566 191.705 224.802 191.349C225.039 191.023 224.95 190.55 224.595 190.313C224.477 190.253 224.388 190.165 224.27 190.105L223.826 189.809C223.796 189.78 223.737 189.75 223.708 189.75C221.133 188.151 217.937 186.818 214.978 186.078C210.658 185.012 207.048 185.337 204.592 186.996C200.775 189.572 199.769 194.962 198.94 199.316C198.822 199.967 198.704 200.619 198.556 201.211C198.526 201.418 197.993 204.705 196.721 212.761C192.075 242.494 179.677 321.477 176.481 336.728C175.682 340.578 175.09 344.606 174.469 348.871C172.901 359.621 171.303 370.726 166.036 379.226C159.467 389.857 146.151 390.183 134.404 390.479C131.977 390.539 129.699 390.598 127.479 390.746C109.281 391.871 90.8168 392.404 72.5891 392.315C72.1748 392.315 71.8493 392.641 71.8493 393.056C71.8493 393.47 72.1748 393.796 72.5891 393.796C73.9502 393.855 75.3114 393.855 76.6726 393.855Z" fill="#1A1E22"/>
<path d="M55.338 284.695C81.7031 284.695 150.738 279.513 183.672 276.759C184.086 276.729 184.382 276.374 184.352 275.959C184.323 275.544 183.968 275.248 183.553 275.278C150.649 278.032 81.6735 283.215 55.3676 283.215C55.2788 283.215 55.19 283.215 55.1013 283.215C54.687 283.215 54.3615 283.54 54.3615 283.955C54.3615 284.37 54.687 284.695 55.1013 284.695C55.1604 284.695 55.2492 284.695 55.338 284.695Z" fill="#1A1E22"/>
<path d="M137.185 324.675C137.54 324.675 137.866 324.409 137.925 324.053C138.517 319.966 139.109 315.82 139.7 311.674C143.37 286.176 147.157 259.848 151.3 235.061C151.359 234.646 151.093 234.261 150.679 234.202C150.264 234.143 149.88 234.409 149.82 234.824C145.648 259.611 141.89 285.969 138.221 311.467C137.629 315.643 137.037 319.759 136.445 323.846C136.386 324.261 136.682 324.616 137.067 324.675C137.096 324.675 137.156 324.675 137.185 324.675Z" fill="#1A1E22"/>
<path d="M99.4573 325.653C99.5165 325.653 99.5461 325.653 99.6052 325.653C100.02 325.564 100.256 325.179 100.197 324.794C98.0666 314.103 96.5574 302.138 94.93 289.463C92.977 274.034 90.9649 258.101 87.7099 244.745C87.6212 244.36 87.2069 244.093 86.8222 244.212C86.4376 244.301 86.1712 244.715 86.2896 245.1C89.5149 258.368 91.5271 274.271 93.4801 289.641C95.0779 302.346 96.6166 314.34 98.7471 325.06C98.8063 325.416 99.1318 325.653 99.4573 325.653Z" fill="#1A1E22"/>
<path d="M89.7223 325.949C103.482 325.949 128.072 325.505 150.56 325.09C161.361 324.883 171.54 324.705 178.435 324.616C178.849 324.616 179.174 324.261 179.174 323.876C179.174 323.461 178.849 323.165 178.435 323.136C171.54 323.224 161.331 323.402 150.531 323.609C121.798 324.142 82.443 324.853 79.336 324.231C71.3762 322.602 63.949 316.235 59.4513 307.203C51.9057 292.01 48.0293 272.109 47.8814 248.032C93.8354 244.715 139.079 240.481 186.809 225.762C187.193 225.644 187.43 225.229 187.312 224.844C187.193 224.459 186.779 224.222 186.394 224.34C138.576 239.089 93.214 243.294 47.112 246.611C46.7273 246.64 46.4315 246.966 46.4315 247.351C46.4906 271.961 50.4557 292.336 58.1493 307.854C62.8246 317.301 70.666 323.965 79.0697 325.682C80.0166 325.86 83.9226 325.949 89.7223 325.949Z" fill="#1A1E22"/>
<path d="M189.915 224.784C190.004 224.784 190.093 224.784 190.211 224.784C191.069 224.725 191.809 224.429 192.342 223.896C192.637 223.6 192.637 223.155 192.342 222.859C192.046 222.563 191.602 222.563 191.306 222.859C191.01 223.126 190.625 223.274 190.122 223.333C189.264 223.392 188.376 223.007 187.518 222.593C184.974 221.319 182.458 220.312 179.351 219.365C175.948 218.328 173.019 217.292 171.273 214.922C170.8 214.271 170.237 213.264 170.237 212.109C170.237 211.457 170.593 210.776 171.155 210.243C171.687 209.71 172.398 209.414 173.049 209.444C173.463 209.444 173.788 209.148 173.818 208.733C173.818 208.318 173.522 207.993 173.108 207.963C172.072 207.933 170.977 208.378 170.149 209.177C169.291 209.977 168.817 211.043 168.788 212.109C168.758 213.679 169.498 215.011 170.09 215.811C172.279 218.772 176.126 219.927 178.937 220.786C181.955 221.704 184.382 222.681 186.867 223.925C187.725 224.34 188.791 224.784 189.915 224.784Z" fill="#1A1E22"/>
<path d="M188.524 216.789C191.187 215.456 193.614 216.019 195.952 217.648C200.331 220.757 205.036 222.208 210.185 223.452C210.185 223.452 203.379 232.1 202.639 233.018C201.041 235.032 200.597 234.202 198.526 232.929C194.709 230.619 190.773 228.872 187.903 225.348C185.595 222.534 184.559 218.743 188.524 216.789ZM191.335 222.949C191.395 223.008 191.483 223.067 191.572 223.126C192.489 223.748 193.969 223.896 194.975 223.393C195.478 223.126 195.922 222.653 195.952 222.06C196.129 219.839 192.253 218.743 190.98 220.343C190.27 221.231 190.536 222.268 191.335 222.949Z" fill="white"/>
<path d="M201.012 235.002C201.663 235.002 202.343 234.587 203.231 233.521C203.971 232.603 210.51 224.281 210.776 223.926C210.924 223.718 210.984 223.452 210.895 223.215C210.806 222.978 210.629 222.8 210.362 222.741C204.947 221.408 200.479 219.957 196.366 217.055C193.555 215.071 190.892 214.775 188.199 216.137C186.542 216.966 185.565 218.121 185.24 219.572C184.678 222.089 186.305 224.577 187.341 225.821C189.678 228.694 192.756 230.47 195.715 232.158C196.514 232.603 197.342 233.077 198.141 233.58C198.437 233.758 198.733 233.935 198.97 234.113C199.739 234.617 200.361 235.002 201.012 235.002ZM208.912 223.896C207.137 226.147 202.669 231.833 202.077 232.573C201.455 233.343 201.16 233.491 201.012 233.491C200.775 233.491 200.331 233.195 199.798 232.869C199.532 232.692 199.266 232.514 198.94 232.307C198.112 231.803 197.283 231.329 196.484 230.855C193.496 229.138 190.685 227.539 188.524 224.873C187.074 223.096 186.423 221.26 186.719 219.868C186.927 218.861 187.666 218.032 188.879 217.44C191.069 216.344 193.2 216.611 195.537 218.24C199.532 221.083 203.823 222.623 208.912 223.896ZM193.555 224.429C194.176 224.429 194.768 224.311 195.301 224.044C196.1 223.659 196.632 222.919 196.691 222.119C196.78 220.846 195.952 219.72 194.502 219.158C193.2 218.654 191.365 218.654 190.389 219.868C189.501 220.994 189.678 222.474 190.832 223.481C190.921 223.57 191.01 223.629 191.128 223.689C191.809 224.192 192.697 224.429 193.555 224.429ZM192.845 220.342C193.2 220.342 193.584 220.401 193.969 220.55C194.59 220.786 195.271 221.319 195.212 222.03C195.182 222.297 194.975 222.593 194.65 222.741C193.91 223.096 192.697 223.008 191.986 222.504C191.927 222.474 191.868 222.415 191.809 222.386C191.602 222.208 190.951 221.556 191.543 220.816C191.809 220.49 192.282 220.342 192.845 220.342Z" fill="#1A1E22"/>
<path d="M191.809 223.689C191.898 223.689 191.987 223.659 192.075 223.629C193.111 223.244 193.762 222.326 193.88 221.142C194.206 218.003 190.063 216.463 188.495 215.87C187.637 215.545 186.749 215.278 185.92 215.041C184.53 214.626 183.198 214.241 181.955 213.59C180.594 212.879 179.322 211.783 178.138 210.747C177.783 210.451 177.428 210.155 177.103 209.858C176.185 209.088 175.061 208.141 173.729 207.934C173.315 207.874 172.96 208.141 172.871 208.555C172.812 208.97 173.078 209.325 173.492 209.414C174.41 209.562 175.327 210.332 176.156 211.013C176.511 211.31 176.836 211.606 177.191 211.902C178.464 212.998 179.766 214.153 181.304 214.952C182.695 215.693 184.145 216.107 185.565 216.522C186.394 216.759 187.222 216.996 188.051 217.321C190.034 218.062 192.667 219.246 192.49 221.053C192.43 221.497 192.253 222.06 191.631 222.297C191.247 222.445 191.069 222.859 191.217 223.244C191.217 223.511 191.513 223.689 191.809 223.689Z" fill="#1A1E22"/>
<path d="M126.888 209.888C127.835 209.888 128.752 209.533 129.344 208.496C129.551 208.141 129.403 207.697 129.048 207.489C128.693 207.282 128.249 207.43 128.042 207.785C127.332 209.029 125.379 208.23 123.722 207.371C122.36 206.66 120.999 206.127 119.668 205.594C118.869 205.268 118.011 204.942 117.182 204.587C112.3 202.425 108.512 199.582 105.967 196.088C104.399 193.955 103.719 192.001 103.896 190.253C103.985 189.335 104.606 188.358 105.553 187.588C106.441 186.848 107.506 186.492 108.364 186.581C108.778 186.64 109.134 186.344 109.193 185.93C109.252 185.515 108.956 185.16 108.542 185.1C107.299 184.952 105.879 185.456 104.636 186.433C103.393 187.44 102.565 188.802 102.446 190.105C102.239 192.238 103.008 194.548 104.813 196.976C107.536 200.678 111.501 203.699 116.62 205.949C117.478 206.334 118.336 206.66 119.165 206.986C120.526 207.519 121.798 208.022 123.071 208.704C123.781 209.059 125.408 209.888 126.888 209.888Z" fill="#1A1E22"/>
<path d="M124.846 201.389C126.918 200.797 129.196 201.182 131.267 201.833C137.422 203.728 142.867 208.467 146.595 213.531C146.684 213.62 146.743 213.738 146.743 213.857C146.714 214.005 146.595 214.094 146.477 214.153C144.258 215.574 142.068 216.404 139.73 217.588C139.375 217.766 135.469 219.898 135.469 219.898C134.315 216.7 131.889 213.916 128.811 212.287C127.273 211.458 125.556 210.925 124.047 210.007C122.568 209.089 121.236 207.638 121.118 205.95C120.94 203.876 122.745 202.011 124.846 201.389ZM126.592 207.756C126.651 207.815 126.71 207.904 126.799 207.963C127.598 208.733 129.048 209.118 130.113 208.793C130.676 208.644 131.149 208.23 131.297 207.697C131.83 205.594 128.19 203.906 126.681 205.209C125.823 205.95 125.941 206.986 126.592 207.756Z" fill="white"/>
<path d="M135.469 220.698C135.587 220.698 135.706 220.668 135.824 220.609C137.185 219.868 139.789 218.447 140.085 218.299C140.884 217.884 141.653 217.529 142.423 217.173C143.873 216.492 145.382 215.811 146.891 214.834C147.039 214.745 147.424 214.508 147.483 214.005C147.542 213.56 147.305 213.264 147.216 213.116C142.867 207.252 137.156 202.899 131.504 201.152C129.758 200.619 127.154 199.967 124.668 200.708C122.449 201.359 120.2 203.462 120.407 206.068C120.526 207.815 121.739 209.503 123.692 210.717C124.609 211.28 125.556 211.695 126.503 212.109C127.184 212.405 127.864 212.702 128.486 213.027C131.386 214.567 133.694 217.203 134.818 220.224C134.877 220.431 135.055 220.579 135.262 220.668C135.291 220.668 135.38 220.698 135.469 220.698ZM145.796 213.738C144.465 214.567 143.163 215.16 141.772 215.811C141.002 216.167 140.204 216.552 139.375 216.966C139.109 217.114 136.978 218.269 135.824 218.891C134.493 215.841 132.096 213.264 129.137 211.695C128.456 211.339 127.746 211.014 127.065 210.717C126.148 210.303 125.26 209.918 124.432 209.444C123.692 209 121.976 207.756 121.857 205.949C121.739 204.173 123.396 202.603 125.053 202.099C126.651 201.626 128.574 201.774 131.06 202.544C136.327 204.202 141.683 208.259 145.796 213.738ZM129.285 209.651C129.64 209.651 129.965 209.622 130.291 209.533C131.149 209.296 131.8 208.674 131.977 207.904C132.273 206.719 131.652 205.505 130.379 204.735C129.166 203.995 127.332 203.669 126.148 204.706C125.053 205.653 124.994 207.134 126 208.289C126.089 208.378 126.148 208.467 126.237 208.556C127.065 209.207 128.219 209.651 129.285 209.651ZM128.071 205.505C128.574 205.505 129.137 205.653 129.64 205.979C129.906 206.157 130.764 206.749 130.557 207.549C130.498 207.786 130.232 208.022 129.876 208.111C129.077 208.348 127.894 208.052 127.272 207.46C127.213 207.401 127.184 207.371 127.124 207.312C126.947 207.104 126.444 206.423 127.124 205.831C127.361 205.594 127.716 205.505 128.071 205.505Z" fill="#1A1E22"/>
<path d="M128.692 208.882C128.959 208.882 129.195 208.733 129.343 208.497C129.758 207.786 129.817 206.957 129.55 206.157C128.959 204.41 127.035 203.462 125.526 202.692C125.171 202.514 124.816 202.337 124.52 202.159C122.242 200.856 120.703 199.346 119.431 197.095C118.957 196.236 118.484 195.348 118.04 194.489C117.093 192.623 116.116 190.698 114.726 189.01C113.128 187.055 111.116 185.693 109.163 185.219C108.956 185.16 108.748 185.13 108.571 185.101C108.157 185.042 107.802 185.338 107.742 185.723C107.683 186.108 107.979 186.493 108.364 186.552C108.512 186.582 108.689 186.611 108.837 186.641C110.465 187.026 112.211 188.21 113.601 189.928C114.874 191.498 115.791 193.275 116.738 195.14C117.182 196.029 117.655 196.947 118.158 197.806C119.578 200.293 121.324 202.011 123.81 203.432C124.135 203.61 124.491 203.788 124.875 203.995C126.236 204.676 127.775 205.446 128.189 206.631C128.337 207.045 128.308 207.401 128.101 207.756C127.893 208.112 128.041 208.556 128.396 208.763C128.456 208.852 128.574 208.882 128.692 208.882Z" fill="#1A1E22"/>
<path d="M310.289 401.229C310.615 400.163 311.236 399.127 311.709 397.972C312.923 394.921 313.514 391.457 313.485 388.169C313.455 385.948 312.538 381.95 314.225 380.144C315.852 378.367 319.936 378.456 321.888 379.522C323.723 380.529 323.575 381.565 323.634 383.461C323.812 389.235 324.226 394.981 324.581 400.756C324.64 401.851 324.7 403.006 324.197 403.984C323.516 405.287 322.036 405.879 320.646 406.294C317.539 407.241 312.42 408.159 310.615 404.576C309.934 403.302 309.993 402.236 310.289 401.229Z" fill="white"/>
<path d="M315.675 407.863C317.184 407.863 318.9 407.567 320.823 406.975C322.362 406.501 324.019 405.82 324.818 404.309C325.44 403.125 325.351 401.792 325.292 400.696L325.144 398.238C324.848 393.381 324.522 388.376 324.345 383.431C324.345 383.253 324.345 383.105 324.345 382.957C324.315 381.299 324.286 379.995 322.244 378.87C321.149 378.278 319.521 377.952 317.924 378.011C316.089 378.1 314.58 378.663 313.692 379.64C312.183 381.269 312.449 384.142 312.656 386.422C312.716 387.073 312.775 387.666 312.775 388.169C312.804 391.427 312.183 394.833 311.059 397.705C310.881 398.179 310.644 398.623 310.437 399.067C310.141 399.689 309.816 400.341 309.609 401.022C309.194 402.384 309.283 403.598 309.934 404.872C310.911 406.856 312.893 407.863 315.675 407.863ZM318.308 379.492C319.521 379.492 320.735 379.759 321.534 380.173C322.836 380.884 322.836 381.447 322.865 382.987C322.865 383.135 322.865 383.312 322.865 383.46C323.013 388.406 323.339 393.441 323.664 398.327L323.812 400.785C323.871 401.91 323.901 402.858 323.516 403.599C322.954 404.635 321.622 405.168 320.38 405.553C317.628 406.382 312.804 407.33 311.236 404.191C310.763 403.273 310.703 402.444 310.999 401.437C311.177 400.874 311.443 400.311 311.739 399.689C311.976 399.215 312.183 398.742 312.39 398.238C313.603 395.188 314.254 391.604 314.225 388.14C314.225 387.577 314.166 386.955 314.106 386.274C313.929 384.26 313.722 381.772 314.757 380.617C315.497 379.818 316.917 379.492 318.308 379.492Z" fill="#1A1E22"/>
<path d="M311.058 400.992C311.502 400.045 311.916 399.245 312.123 398.209C312.271 397.527 312.39 396.787 312.212 396.106C312.035 395.425 311.443 394.803 310.762 394.773C310.733 396.817 309.786 398.682 308.839 400.489C307.744 402.621 305.081 403.865 303.128 405.139C299.37 407.537 293.955 411.535 294.014 416.54C294.014 417.162 293.896 419.472 294.458 419.857C295.168 420.331 298.689 418.969 299.518 418.761C305.022 417.399 331.268 406.649 331.239 406.471C331.061 404.043 330.41 401.703 328.99 399.689C328.339 398.801 327.57 397.883 326.741 397.142C326.504 396.935 324.344 394.684 324.344 394.684C323.634 395.662 322.835 396.55 322.125 397.498C321.474 398.357 320.941 399.304 320.202 400.134C319.107 401.348 317.805 402.503 316.296 403.273C314.934 403.984 313.041 404.694 311.502 404.102C310.17 403.569 310.585 401.999 311.058 400.992Z" fill="#1A1E22"/>
<path d="M294.932 420.657C295.73 420.657 296.944 420.331 298.778 419.709C299.163 419.59 299.518 419.472 299.696 419.413C302.862 418.613 312.331 414.911 317.716 412.779C321.03 411.476 324.522 410.054 327.333 408.87C328.605 408.337 329.641 407.893 330.381 407.596C331.742 407.004 332.008 406.886 331.949 406.353C331.742 403.539 330.943 401.14 329.552 399.215C329.049 398.505 328.221 397.468 327.185 396.55C327.037 396.402 325.854 395.217 324.818 394.122C324.67 393.974 324.463 393.885 324.226 393.885C324.019 393.885 323.812 394.003 323.693 394.181C323.309 394.714 322.895 395.217 322.48 395.721C322.155 396.135 321.8 396.55 321.474 396.994C321.208 397.35 320.971 397.705 320.734 398.031C320.35 398.594 319.995 399.097 319.58 399.571C318.397 400.874 317.154 401.881 315.882 402.532C314.136 403.45 312.686 403.717 311.68 403.332C311.413 403.243 311.325 403.095 311.295 402.977C311.147 402.621 311.265 401.97 311.621 401.229L311.798 400.844C312.183 400.045 312.538 399.275 312.745 398.297C312.893 397.557 313.041 396.698 312.834 395.839C312.538 394.773 311.65 394.003 310.674 393.974C310.467 393.974 310.289 394.033 310.141 394.181C309.993 394.329 309.904 394.507 309.904 394.714C309.875 396.609 308.928 398.445 308.07 400.104C307.271 401.644 305.495 402.71 303.809 403.747C303.394 403.983 303.01 404.22 302.625 404.457C298.542 407.093 293.097 411.18 293.186 416.511C293.186 416.599 293.186 416.718 293.186 416.866C293.156 418.82 293.274 419.975 293.985 420.42C294.281 420.597 294.547 420.657 294.932 420.657ZM330.47 405.997C327.126 407.478 304.43 416.747 299.341 418.021C299.104 418.08 298.778 418.199 298.334 418.347C297.565 418.613 295.523 419.265 294.902 419.205C294.784 418.909 294.724 418.139 294.754 416.925C294.754 416.747 294.754 416.629 294.754 416.511C294.695 411.95 299.725 408.189 303.513 405.731C303.868 405.494 304.253 405.257 304.637 405.02C306.442 403.924 308.454 402.71 309.46 400.785C310.23 399.334 311.058 397.735 311.354 395.958C311.413 396.047 311.443 396.135 311.473 396.254C311.621 396.787 311.502 397.409 311.384 398.001C311.206 398.801 310.91 399.482 310.555 400.252L310.378 400.637C309.993 401.437 309.638 402.621 310.023 403.569C310.23 404.102 310.674 404.516 311.236 404.724C312.656 405.286 314.491 404.99 316.651 403.865C318.071 403.125 319.462 402.029 320.764 400.578C321.267 400.015 321.652 399.452 322.036 398.89C322.273 398.534 322.48 398.238 322.717 397.912C323.042 397.498 323.368 397.083 323.693 396.669C323.93 396.372 324.167 396.076 324.404 395.78C325.084 396.491 326.061 397.498 326.238 397.646C326.948 398.297 327.718 399.156 328.369 400.074C329.552 401.673 330.233 403.658 330.47 405.997Z" fill="#1A1E22"/>
<path d="M513.072 284.517C513.072 284.488 513.042 284.458 513.042 284.399C512.184 280.875 515.321 277.647 518.842 278.476C522.748 279.364 526.772 280.223 529.288 280.786C529.524 280.845 529.761 280.904 529.998 280.993C538.165 284.251 545.474 288.13 545.829 297.755C545.858 298.199 545.858 298.673 545.681 299.058C545.296 299.917 544.29 300.243 543.373 300.332C541.331 300.539 539.23 299.887 537.632 298.614C532.099 294.142 529.495 289.582 521.624 288.989C520.144 288.871 518.517 288.486 516.86 288.13C514.995 287.775 513.516 286.383 513.072 284.517Z" fill="white"/>
<path d="M542.632 301.131C542.898 301.131 543.165 301.131 543.431 301.102C544.881 300.953 545.917 300.361 546.331 299.384C546.568 298.821 546.568 298.288 546.538 297.755C546.153 287.508 538.282 283.54 530.234 280.341C529.967 280.223 529.701 280.164 529.405 280.075C528.281 279.808 526.86 279.512 525.263 279.157C523.31 278.742 521.12 278.239 518.96 277.765C517.036 277.321 515.083 277.913 513.722 279.305C512.332 280.697 511.799 282.681 512.272 284.606L512.302 284.724C512.805 286.827 514.521 288.486 516.652 288.93C517.007 288.989 517.362 289.078 517.717 289.167C519.049 289.463 520.291 289.729 521.505 289.818C527.216 290.233 529.967 292.809 533.43 296.037C534.554 297.104 535.738 298.199 537.128 299.295C538.697 300.48 540.65 301.131 542.632 301.131ZM517.776 279.098C518.072 279.098 518.398 279.127 518.693 279.216C520.854 279.72 523.073 280.193 525.026 280.608C526.594 280.963 528.014 281.26 529.139 281.526C529.346 281.585 529.553 281.645 529.731 281.704C537.306 284.724 544.733 288.456 545.088 297.814C545.088 298.199 545.118 298.525 544.999 298.792C544.733 299.413 543.727 299.591 543.313 299.621C541.449 299.798 539.555 299.236 538.105 298.051C536.773 296.985 535.619 295.919 534.495 294.853C530.944 291.566 527.896 288.722 521.682 288.249C520.587 288.16 519.374 287.923 518.102 287.627C517.747 287.538 517.391 287.479 517.007 287.39C515.439 287.064 514.196 285.85 513.811 284.31L513.781 284.191C513.426 282.77 513.841 281.319 514.847 280.282C515.616 279.542 516.681 279.098 517.776 279.098Z" fill="#1A1E22"/>
<path d="M560.861 307.765C561.423 309.157 561.689 310.549 562.193 311.94C562.252 312.088 562.281 312.266 562.193 312.385C562.133 312.473 562.015 312.503 561.897 312.503C552.96 314.161 544.29 307.261 538.609 301.22C537.366 299.887 536.212 298.377 534.792 297.251C533.874 296.541 532.336 295.919 532.306 294.527C532.247 291.684 537.07 295.386 537.869 295.86C539.733 296.955 542.16 297.37 542.574 294.586C542.722 293.579 542.337 292.572 541.923 291.625C540.177 287.864 535.857 285.257 532.513 283.096C530.886 282.029 529.495 281.644 528.607 279.927C538.135 280.963 543.403 278.742 545.503 280.726C547.693 282.799 549.35 285.909 550.948 288.426C552.783 291.299 554.499 294.26 556.097 297.311C557.872 300.746 559.47 304.211 560.861 307.765Z" fill="#1A1E22"/>
<path d="M559.174 313.51C560.121 313.51 561.098 313.421 562.044 313.244C562.192 313.214 562.547 313.155 562.784 312.829C563.139 312.385 562.962 311.852 562.903 311.704C562.695 311.141 562.547 310.549 562.37 309.986C562.133 309.186 561.897 308.328 561.571 307.498C560.151 303.945 558.553 300.42 556.777 297.015C555.209 293.964 553.463 290.973 551.599 288.071C551.244 287.538 550.889 286.946 550.534 286.353C549.202 284.162 547.811 281.911 546.036 280.223C544.675 278.95 542.544 279.098 539.289 279.305C536.537 279.483 533.105 279.69 528.696 279.216C528.43 279.187 528.163 279.305 528.015 279.542C527.867 279.779 527.838 280.045 527.956 280.312C528.726 281.793 529.82 282.415 530.974 283.096C531.33 283.303 531.714 283.51 532.099 283.777L532.809 284.251C535.886 286.235 539.704 288.722 541.242 292.01C541.597 292.78 541.953 293.698 541.834 294.527C541.745 295.208 541.479 295.682 541.094 295.86C540.473 296.156 539.378 295.919 538.254 295.267C538.165 295.208 537.958 295.09 537.751 294.942C535.709 293.579 533.608 292.276 532.365 292.957C531.981 293.165 531.566 293.609 531.566 294.586C531.596 296.037 532.809 296.837 533.697 297.429C533.934 297.577 534.141 297.725 534.348 297.873C535.295 298.614 536.153 299.591 536.981 300.509C537.336 300.924 537.721 301.338 538.106 301.753C543.314 307.291 551.007 313.51 559.174 313.51ZM561.393 311.852C552.96 313.184 544.675 306.551 539.171 300.717C538.816 300.332 538.431 299.917 538.076 299.502C537.218 298.525 536.301 297.488 535.265 296.659C535.028 296.482 534.792 296.304 534.525 296.156C533.638 295.593 533.075 295.149 533.075 294.527C533.075 294.349 533.105 294.26 533.105 294.231C533.283 294.172 534.081 294.201 536.952 296.156C537.218 296.334 537.396 296.452 537.544 296.541C539.141 297.488 540.71 297.725 541.775 297.192C542.367 296.896 543.136 296.245 543.343 294.734C543.521 293.52 543.077 292.336 542.633 291.358C540.917 287.686 536.893 285.08 533.667 282.977L532.957 282.503C532.543 282.237 532.129 282 531.744 281.793C531.182 281.467 530.708 281.2 530.294 280.845C534.052 281.111 537.1 280.934 539.408 280.786C542.278 280.608 544.142 280.49 545.03 281.319C546.657 282.859 547.989 285.05 549.291 287.153C549.676 287.775 550.031 288.338 550.386 288.9C552.22 291.743 553.937 294.705 555.505 297.725C557.251 301.072 558.849 304.566 560.239 308.091C560.535 308.861 560.772 309.631 561.009 310.43C561.068 310.874 561.216 311.348 561.393 311.852Z" fill="#1A1E22"/>
<path d="M198.97 161.497C204.769 151.458 218.085 147.874 229.773 148.407C230.336 153.797 231.578 155.367 232.644 160.638C229.063 159.898 223.293 160.727 221.577 161.171C217.049 162.385 212.137 164.577 209.474 168.634C208.231 170.53 207.462 181.813 205.391 181.931C205.036 181.961 204.681 181.665 204.533 181.339C204.355 181.013 204.355 180.628 204.326 180.243C204.118 177.193 203.941 174.143 203.734 171.092C203.497 173.609 203.231 176.127 203.024 178.674C202.935 179.74 202.994 182.76 201.011 181.28C200.508 180.895 200.42 177.104 200.42 175.831C200.42 174.409 200.39 173.017 200.39 171.596C200.39 173.58 200.035 175.327 199.621 177.222C199.414 178.17 198.555 181.487 197.046 179.473C196.455 178.703 196.277 176.452 196.159 175.505C195.951 173.876 195.981 172.218 196.129 170.589C196.454 167.124 197.461 164.103 198.97 161.497Z" fill="white"/>
<path d="M205.361 182.702C205.391 182.702 205.42 182.702 205.45 182.702C207.196 182.613 207.876 179.414 208.853 174.232C209.238 172.099 209.711 169.701 210.125 169.079C212.256 165.851 216.191 163.422 221.813 161.912C223.471 161.468 229.063 160.668 232.525 161.379C232.762 161.438 233.028 161.349 233.206 161.172C233.383 160.994 233.472 160.757 233.413 160.49C232.969 158.269 232.466 156.67 232.052 155.278C231.43 153.205 230.868 151.428 230.572 148.319C230.543 147.963 230.247 147.667 229.862 147.667C218.706 147.164 204.562 150.421 198.378 161.142C196.75 163.926 195.774 167.124 195.419 170.589C195.241 172.484 195.241 174.143 195.448 175.683C195.478 175.801 195.478 175.949 195.508 176.127C195.685 177.756 195.922 179.266 196.484 180.007C197.165 180.925 197.845 180.984 198.289 180.895C198.91 180.747 199.443 180.184 199.857 179.207C200.035 181.487 200.39 181.754 200.627 181.932C201.366 182.465 202.017 182.613 202.58 182.346C203.231 182.05 203.527 181.31 203.645 180.54C203.675 180.895 203.734 181.31 203.911 181.724C204.178 182.317 204.74 182.702 205.361 182.702ZM229.122 159.602C225.956 159.602 222.672 160.135 221.399 160.461C215.422 162.09 211.191 164.696 208.882 168.249C208.32 169.079 207.965 170.974 207.403 173.936C206.959 176.305 206.131 180.717 205.361 181.191C205.332 181.162 205.272 181.102 205.213 181.013C205.124 180.806 205.095 180.51 205.065 180.214L204.473 171.063C204.444 170.678 204.118 170.382 203.734 170.382C203.349 170.382 203.024 170.678 202.994 171.063C202.905 171.892 202.816 172.751 202.757 173.58C202.58 175.239 202.432 176.956 202.284 178.644C202.284 178.763 202.254 178.911 202.254 179.059C202.195 180.155 202.077 180.806 201.899 180.984C201.84 180.984 201.722 180.925 201.514 180.806C201.337 180.362 201.159 178.585 201.13 175.89L201.1 171.655C201.1 171.241 200.775 170.915 200.36 170.915C199.946 170.915 199.621 171.241 199.621 171.655C199.621 173.462 199.325 175.061 198.851 177.104C198.555 178.467 198.112 179.266 197.904 179.414C197.845 179.385 197.756 179.325 197.579 179.089C197.194 178.585 196.987 176.719 196.898 175.92C196.869 175.742 196.869 175.594 196.839 175.475C196.662 174.054 196.662 172.484 196.81 170.708C197.135 167.45 198.052 164.459 199.561 161.853C205.302 151.932 218.44 148.763 229.063 149.089C229.418 151.961 229.951 153.768 230.543 155.693C230.898 156.907 231.282 158.121 231.667 159.72C230.898 159.632 230.01 159.602 229.122 159.602Z" fill="#212121"/>
<path d="M208.793 183.857C210.036 180.451 212.285 177.519 215.244 175.18C220.422 171.093 226.932 168.842 233.383 167.865C234.803 167.658 236.253 167.51 237.703 167.391C238.828 172.692 240.218 174.114 241.875 179.267C238.236 178.911 232.584 180.362 230.927 180.984C226.548 182.702 221.902 185.367 219.683 189.721C218.647 191.764 219.091 203.047 217.049 203.373C216.694 203.432 216.309 203.195 216.132 202.87C215.925 202.544 215.865 202.189 215.806 201.804C215.274 198.783 214.771 195.792 214.238 192.771C214.268 195.318 214.268 197.835 214.327 200.382C214.356 201.448 214.741 204.469 212.611 203.195C212.048 202.87 211.575 199.109 211.457 197.835C211.309 196.443 211.131 195.022 210.983 193.63C211.22 195.584 211.013 197.361 210.806 199.316C210.687 200.264 210.184 203.669 208.468 201.833C208.024 201.359 208.113 200.027 208.054 199.464C207.699 195.732 207.403 191.734 207.817 188.003C207.994 186.582 208.32 185.19 208.793 183.857Z" fill="white"/>
<path d="M213.498 204.291C213.765 204.291 214.001 204.232 214.238 204.084C214.859 203.699 215.066 202.958 215.096 202.159C215.155 202.514 215.244 202.929 215.481 203.284C215.865 203.906 216.516 204.232 217.138 204.113C218.854 203.817 219.209 200.589 219.623 195.318C219.801 193.156 219.978 190.727 220.334 190.046C222.109 186.611 225.749 183.798 231.193 181.665C232.791 181.043 238.265 179.652 241.787 179.977C242.023 180.007 242.29 179.888 242.438 179.711C242.586 179.503 242.645 179.267 242.556 179.03C241.875 176.897 241.224 175.357 240.633 173.995C239.774 172.011 239.064 170.293 238.413 167.243C238.325 166.888 238.029 166.651 237.644 166.651C236.194 166.739 234.714 166.888 233.265 167.124C225.926 168.22 219.535 170.826 214.771 174.587C211.604 177.105 209.356 180.125 208.083 183.59C207.58 184.982 207.225 186.463 207.077 187.944C206.633 191.882 206.959 195.999 207.314 199.553C207.314 199.671 207.343 199.819 207.343 199.997C207.373 200.797 207.403 201.833 207.935 202.396C208.734 203.225 209.385 203.225 209.829 203.077C210.421 202.87 210.894 202.248 211.19 201.241C211.604 203.491 211.989 203.728 212.226 203.847C212.699 204.143 213.114 204.291 213.498 204.291ZM214.238 192.09C214.208 192.09 214.179 192.09 214.179 192.09C213.794 192.119 213.498 192.445 213.498 192.83C213.498 193.659 213.528 194.518 213.528 195.347C213.528 197.006 213.557 198.753 213.587 200.441C213.587 200.56 213.587 200.708 213.617 200.856C213.676 201.952 213.617 202.603 213.498 202.81C213.439 202.81 213.321 202.781 213.114 202.662C212.877 202.248 212.522 200.5 212.226 197.805L211.752 193.63C211.693 193.215 211.338 192.919 210.924 192.978C210.51 193.037 210.214 193.393 210.273 193.807C210.48 195.614 210.332 197.243 210.095 199.316C209.947 200.708 209.592 201.537 209.385 201.715C209.326 201.685 209.208 201.626 209.03 201.418C208.882 201.211 208.852 200.323 208.823 199.997C208.823 199.79 208.823 199.612 208.793 199.464C208.468 195.999 208.142 191.942 208.557 188.151C208.705 186.789 209.03 185.426 209.503 184.153C210.658 180.955 212.758 178.141 215.717 175.802C220.274 172.189 226.429 169.701 233.501 168.635C234.685 168.457 235.928 168.309 237.111 168.22C237.762 171.034 238.502 172.781 239.301 174.617C239.804 175.772 240.307 176.957 240.84 178.497C237.082 178.437 232.259 179.711 230.661 180.333C224.89 182.583 220.985 185.634 219.032 189.395C218.558 190.283 218.41 192.179 218.173 195.229C217.996 197.628 217.641 202.1 216.931 202.662C216.901 202.633 216.812 202.603 216.783 202.514C216.664 202.307 216.605 202.011 216.546 201.744L214.978 192.712C214.889 192.327 214.593 192.09 214.238 192.09Z" fill="#212121"/>
<path d="M337.393 47.9244C344.525 42.268 347.01 31.3993 343.015 23.1664C339.021 14.9335 328.99 10.1951 320.142 12.357C315.881 13.3935 312.241 16.0589 310.525 20.1753C308.868 24.0845 309.016 28.5859 309.993 32.6728C311.176 37.5592 313.662 42.2384 317.124 45.8514C318.87 47.6579 321.651 49.3163 323.811 49.6421C323.841 49.6421 323.87 49.6421 323.9 49.6421C323.841 49.6421 325.143 56.72 325.232 57.49C325.853 63.1761 324.078 65.486 319.728 68.1217C318.958 68.566 315.23 81.4484 320.823 82.8699C326.415 84.2914 332.274 83.403 337.896 82.1592C341.447 81.3596 345.087 80.7081 348.401 79.1088C351.064 77.8354 353.017 63.1761 353.017 63.1761C353.017 63.1761 347.454 61.8138 344.347 61.5769C339.465 61.2215 335.529 49.3755 337.393 47.9244Z" fill="white"/>
<path d="M327.007 84.3211C330.854 84.3211 334.641 83.64 338.074 82.87C338.518 82.7811 338.932 82.6923 339.376 82.5738C342.512 81.8927 345.738 81.1819 348.726 79.7604C349.584 79.3458 350.916 77.9836 352.425 70.8168C353.254 66.9964 353.727 63.3242 353.727 63.265C353.786 62.88 353.55 62.5246 353.165 62.4358C352.928 62.3765 347.513 61.0439 344.376 60.8366C341.92 60.6589 339.553 56.7793 338.37 53.2552C337.423 50.4121 337.541 48.7241 337.807 48.4872C345.205 42.6234 347.75 31.3402 343.637 22.8111C339.494 14.282 329.078 9.36597 319.935 11.5871C315.2 12.7421 311.501 15.7628 309.785 19.8496C307.832 24.4695 308.394 29.4448 309.223 32.7913C310.466 37.8851 313.07 42.6827 316.561 46.2957C318.366 48.1614 321.059 49.731 323.219 50.2344C323.308 50.8267 323.486 51.804 323.781 53.4328C324.077 55.1801 324.432 57.1643 324.492 57.5197C325.113 62.9688 323.397 64.9826 319.343 67.4407C318.337 68.033 316.561 74.6667 317.212 78.9312C317.686 82.1296 319.343 83.1958 320.645 83.5511C322.746 84.0842 324.876 84.3211 327.007 84.3211ZM352.188 63.7388C351.005 72.2975 349.2 77.8947 348.075 78.4278C345.264 79.79 342.098 80.4712 339.05 81.1227C338.606 81.2116 338.192 81.3004 337.748 81.4189C332.599 82.5738 326.563 83.5511 321 82.1296C320.053 81.8927 319.373 81.2116 318.988 80.0566C317.686 76.3843 319.609 69.6322 320.201 68.6549C324.551 65.9895 326.652 63.5019 325.942 57.3716C325.912 56.9866 325.616 55.4763 325.231 53.1959C324.995 51.804 324.699 50.1456 324.61 49.6718C324.61 49.6421 324.61 49.5829 324.61 49.5533C324.58 49.1387 324.196 48.8425 323.811 48.8722C321.917 48.5464 319.284 47.0064 317.627 45.2888C314.313 41.8534 311.827 37.2928 310.673 32.4655C309.933 29.3264 309.401 24.6768 311.176 20.4419C312.744 16.7401 315.97 14.1043 320.29 13.0678C328.782 10.9948 338.458 15.5555 342.305 23.4923C346.152 31.429 343.785 41.8831 336.89 47.3618C335.499 48.4576 336.387 51.8929 336.831 53.3144C337.837 56.5424 340.5 62.0804 344.258 62.3469C346.685 62.495 350.65 63.3834 352.188 63.7388Z" fill="#1A1E22"/>
<path d="M317.449 35.9005C316.591 35.7228 314.816 34.864 314.55 36.2559C314.461 36.7297 314.609 37.1739 314.816 37.6182C315.674 39.5135 317.982 42.8008 320.379 41.4089C321.533 40.7277 322.213 39.3654 322.184 38.0328C322.154 37.6182 322.006 37.1739 321.681 36.9074C321.415 36.7297 321.119 36.6409 320.793 36.5816C319.669 36.3743 318.574 36.1374 317.449 35.9005Z" fill="#1A1E22"/>
<path d="M375.18 123.472C370.535 124.42 366.007 126.226 362.013 128.418C353.816 132.919 347.721 141.419 342.424 149.03C334.642 160.283 328.96 173.018 323.456 185.485C317.597 198.782 312.804 212.553 309.105 226.62C304.518 244.064 303.187 262.217 303.572 280.194C303.779 289.167 304.666 298.081 305.613 306.995C308.484 333.382 310.229 359.946 312.39 386.422C312.449 387.192 318.574 387.873 319.491 387.844C321.622 387.755 323.93 387.459 326.031 386.985C327.688 365.899 331.387 345.346 334.997 324.557C336.624 315.198 337.364 305.692 337.305 296.186C337.275 291.684 336.624 288.249 338.311 283.984C339.82 280.223 342.01 276.758 344.229 273.382C352.396 260.826 360.918 248.506 370.091 236.689C380.743 222.978 390.36 207.193 397.285 191.231C403.469 176.927 408.677 160.964 407.434 145.209C407.197 142.07 406.694 138.872 405.363 136.029C400.48 125.545 385.685 121.31 375.18 123.472Z" fill="#FFDB00"/>
<path d="M319.462 388.584C319.492 388.584 319.521 388.584 319.551 388.584C321.652 388.495 324.019 388.199 326.238 387.695L326.771 387.577L326.8 387.044C328.369 367.202 331.831 347.419 335.145 328.258L335.766 324.675C337.364 315.405 338.163 305.81 338.074 296.156C338.074 295.179 338.045 294.26 337.986 293.372C337.867 290.203 337.749 287.449 339.021 284.251C340.442 280.697 342.424 277.528 344.88 273.767C353.994 259.759 362.427 247.765 370.713 237.133C381.839 222.8 391.278 207.015 397.995 191.527C408.5 167.242 408.855 153.442 408.204 145.15C407.997 142.425 407.553 138.871 406.044 135.703C403.706 130.727 398.942 126.67 392.61 124.33C386.899 122.198 380.507 121.636 375.003 122.761C370.565 123.679 365.949 125.397 361.628 127.766C353.58 132.178 347.662 140.145 341.803 148.615C333.843 160.105 327.955 173.432 322.747 185.189C316.917 198.368 312.094 212.227 308.366 226.413C304.164 242.375 302.359 259.966 302.832 280.193C303.039 289.433 303.957 298.525 304.874 307.054C306.916 325.978 308.425 345.287 309.875 363.974C310.437 371.348 311.029 378.989 311.65 386.481C311.709 387.192 312.331 387.666 315.497 388.169C317.124 388.406 318.841 388.584 319.462 388.584ZM325.38 386.363C323.427 386.777 321.356 387.014 319.521 387.103C318.545 387.133 314.165 386.54 313.159 386.096C312.538 378.692 311.976 371.141 311.384 363.855C309.934 345.168 308.425 325.83 306.383 306.906C305.466 298.407 304.548 289.374 304.341 280.164C303.897 260.085 305.673 242.612 309.845 226.798C313.544 212.672 318.367 198.901 324.137 185.781C329.316 174.083 335.175 160.816 343.046 149.444C348.816 141.122 354.616 133.304 362.368 129.069C366.54 126.788 371.038 125.1 375.329 124.212C385.745 122.05 400.037 126.433 404.712 136.354C406.103 139.316 406.517 142.662 406.724 145.268C407.375 153.383 407.02 166.976 396.634 190.934C389.976 206.304 380.596 221.971 369.559 236.245C361.273 246.936 352.781 258.96 343.667 272.997C341.714 276.018 339.258 279.779 337.69 283.747C336.299 287.242 336.417 290.144 336.536 293.49C336.565 294.379 336.595 295.267 336.625 296.245C336.713 305.81 335.944 315.317 334.346 324.497L333.725 328.081C330.411 347.005 326.978 366.639 325.38 386.363Z" fill="#1A1E22"/>
<path d="M507.302 275.041C501.147 273.797 494.963 272.109 488.956 271.072C479.132 269.355 468.982 267.223 459.01 266.66C455.252 266.423 451.494 266.216 447.736 265.831C444.836 265.534 437.202 265.771 434.983 263.461C433.592 261.981 434.628 260.352 434.983 258.249C435.782 253.363 436.285 248.387 436.817 243.442C437.883 233.55 438.682 223.659 439.155 213.709C439.51 206.512 439.717 199.316 439.096 192.149C437.823 177.164 432.852 162.386 423.975 150.274C415.098 138.161 402.197 128.832 387.608 125.219C381.809 123.768 375.565 123.265 369.973 125.279C358.817 129.306 353.284 141.952 353.106 153.028C352.899 167.154 356.479 181.014 360.119 194.637C367.783 223.363 375.95 252.474 391.514 277.795C393.171 280.49 394.917 283.126 397.107 285.376C405.629 294.054 419.034 295.06 431.166 295.534C460.49 295.149 490.199 293.106 519.108 288.249C519.345 284.814 519.996 280.135 520.233 276.699C515.972 276.581 511.652 275.9 507.302 275.041Z" fill="#FFDB00"/>
<path d="M431.166 296.304C463.715 295.889 492.536 293.491 519.256 289.019L519.819 288.93L519.848 288.338C519.966 286.65 520.203 284.577 520.41 282.592C520.617 280.579 520.854 278.506 520.973 276.788L521.032 276.018L520.262 275.988C516.593 275.87 512.539 275.337 507.45 274.3C504.905 273.767 502.331 273.175 499.815 272.612C496.265 271.783 492.625 270.954 489.074 270.332C487.299 270.006 485.494 269.68 483.689 269.355C475.61 267.874 467.236 266.363 459.04 265.89C455.578 265.682 451.672 265.445 447.795 265.06C447.174 265.001 446.375 264.972 445.428 264.912C442.292 264.764 437.054 264.527 435.515 262.898C434.805 262.129 434.953 261.359 435.338 259.907C435.456 259.404 435.604 258.9 435.693 258.338C436.403 254.014 436.876 249.572 437.32 245.278L437.498 243.501C438.563 233.639 439.362 223.629 439.836 213.738C440.191 206.838 440.398 199.434 439.776 192.06C438.415 176.186 433.148 161.586 424.508 149.799C424.271 149.474 423.798 149.385 423.472 149.651C423.147 149.888 423.058 150.362 423.324 150.688C431.787 162.238 436.965 176.601 438.297 192.178C438.918 199.434 438.682 206.778 438.356 213.649C437.853 223.511 437.084 233.491 436.018 243.323L435.841 245.1C435.367 249.365 434.894 253.777 434.213 258.071C434.125 258.575 434.006 259.049 433.888 259.522C433.503 261.003 433.118 262.513 434.42 263.905C436.373 265.978 441.552 266.215 445.339 266.393C446.257 266.423 447.056 266.482 447.618 266.541C451.524 266.926 455.43 267.163 458.921 267.37C467.029 267.844 475.344 269.355 483.393 270.806C485.198 271.131 487.003 271.457 488.808 271.783C492.329 272.405 495.969 273.234 499.49 274.063C502.005 274.656 504.579 275.248 507.154 275.781C511.977 276.758 515.883 277.291 519.434 277.469C519.315 279.009 519.108 280.756 518.931 282.474C518.724 284.251 518.546 286.087 518.398 287.686C491.915 292.099 463.39 294.438 431.166 294.853C418.649 294.349 405.747 293.194 397.61 284.902C395.568 282.829 393.941 280.43 392.106 277.439C377.074 252.978 369.026 225.406 360.799 194.459C360.119 191.912 359.35 188.95 358.61 186.048C358.521 185.663 358.107 185.426 357.722 185.515C357.337 185.604 357.071 186.018 357.189 186.403C357.929 189.306 358.699 192.267 359.379 194.844C367.635 225.88 375.713 253.57 390.863 278.209C392.757 281.289 394.444 283.777 396.574 285.939C405.067 294.586 418.323 295.801 431.166 296.304Z" fill="#1A1E22"/>
<path d="M285.995 153.827C296.943 149.77 307.241 143.965 316.414 136.739C320.734 133.334 324.67 129.958 327.569 125.338C330.528 120.659 335.529 117.904 340.264 115.209C344.791 112.633 348.312 113.906 352.307 117.282C357.485 121.636 361.746 126.966 366.51 131.764C377.459 142.87 390.804 151.221 404.002 159.484C405.984 160.727 407.967 161.971 410.245 162.504C412.731 163.097 414.832 162.741 417.081 161.586C420.602 159.78 421.164 157.144 420.158 153.294C418.56 147.193 416.518 141.241 414.092 135.436C406.724 117.845 395.746 101.794 382.134 88.4376C377.133 83.5215 341.595 53.2552 336.683 61.5177C335.707 63.1761 335.677 65.2196 335.618 67.1445C335.5 71.1129 335.026 75.4367 333.014 79.0497C331.061 82.5739 325.409 86.4534 323.397 81.2412C320.497 73.6006 323.131 64.6273 323.397 64.5088C320.882 65.6638 318.189 67.0261 316.147 68.9214C313.928 70.9352 312.242 73.5413 310.377 75.8809C303.66 84.4692 296.766 92.9094 289.753 101.231C283.332 108.813 275.845 114.884 267.797 120.777C251.492 132.771 233.59 143.047 214.327 149.326C216.28 154.745 217.907 157.647 219.89 163.097C219.89 163.097 232.111 163.067 238.265 163.067C244.243 162.8 250.25 162.327 256.168 161.468C266.199 159.987 276.467 157.351 285.995 153.827Z" fill="white"/>
<path d="M219.358 163.867H219.89C220.009 163.867 232.17 163.837 238.266 163.837H238.295C245.249 163.512 250.96 163.008 256.286 162.209C266.347 160.728 276.704 158.062 286.232 154.538C297.269 150.451 307.567 144.647 316.858 137.332C320.912 134.134 325.114 130.61 328.191 125.753C330.973 121.37 335.648 118.704 340.205 116.098L340.619 115.861C344.407 113.699 347.543 114.262 351.804 117.875C355.148 120.718 358.196 124.005 361.125 127.204C362.694 128.892 364.292 130.639 365.949 132.327C377.016 143.551 390.509 151.991 403.588 160.165C405.482 161.35 407.642 162.712 410.039 163.275C412.583 163.897 414.862 163.6 417.377 162.297C419.774 161.054 422.348 158.892 420.839 153.176C419.241 147.105 417.199 141.064 414.743 135.2C407.464 117.757 396.338 101.409 382.608 87.9641C379.472 84.8842 348.993 58.142 338.814 59.4747C337.542 59.6524 336.595 60.215 336.003 61.2219C334.968 62.9692 334.908 64.983 334.849 66.9376V67.2041C334.731 70.6691 334.376 75.1113 332.334 78.7539C331.121 80.9158 328.369 83.2554 326.327 83.1073C325.321 83.0481 324.581 82.3669 324.078 81.0639C321.504 74.2821 323.486 66.0196 323.989 65.0126C323.989 65.0126 323.901 65.1903 323.694 65.2792L323.072 63.9169C320.764 64.9534 317.835 66.4045 315.615 68.448C313.899 70.0176 312.508 71.8833 311.147 73.6898C310.703 74.2821 310.23 74.904 309.786 75.4963C303.099 84.0254 296.174 92.5544 289.161 100.817C282.504 108.695 274.751 114.825 267.324 120.244C249.362 133.453 231.46 143.018 214.061 148.675L213.321 148.911L213.587 149.622C214.564 152.347 215.481 154.479 216.369 156.552C217.257 158.596 218.144 160.698 219.121 163.393L219.358 163.867ZM238.236 162.327C232.851 162.327 222.79 162.357 220.393 162.357C219.476 159.839 218.618 157.855 217.789 155.93C216.99 154.064 216.162 152.169 215.304 149.8C232.585 144.055 250.398 134.489 268.241 121.399C275.727 115.921 283.569 109.731 290.316 101.735C297.328 93.4429 304.282 84.9138 310.97 76.3551C311.443 75.7628 311.917 75.1409 312.36 74.519C313.692 72.7421 315.053 70.9356 316.651 69.4549C318.249 67.9741 320.32 66.8192 322.184 65.9011C321.977 66.7599 321.681 68.1814 321.504 69.9583C321.208 72.9198 321.178 77.3324 322.747 81.4785C323.634 83.8181 325.143 84.4104 326.268 84.4696C328.99 84.6769 332.245 81.9523 333.695 79.3462C335.855 75.4371 336.27 70.7579 336.388 67.1153V66.8488C336.447 65.1015 336.506 63.2654 337.335 61.8439C337.69 61.2516 338.252 60.9258 339.051 60.8073C347.958 59.6524 377.134 84.4992 381.632 88.8822C395.214 102.209 406.221 118.379 413.441 135.644C415.868 141.449 417.88 147.431 419.448 153.413C420.454 157.233 419.685 159.336 416.756 160.846C414.566 161.972 412.613 162.238 410.453 161.705C408.293 161.172 406.34 159.958 404.446 158.773C391.456 150.659 378.022 142.248 367.073 131.172C365.446 129.514 363.848 127.766 362.28 126.078C359.32 122.85 356.243 119.504 352.811 116.631C349.319 113.67 345.354 111.389 339.939 114.469L339.524 114.706C334.82 117.372 329.967 120.155 327.008 124.835C324.049 129.484 319.965 132.919 316 136.029C306.857 143.255 296.677 148.971 285.788 153.028C276.319 156.522 266.081 159.158 256.139 160.639C250.812 161.498 245.131 162.001 238.236 162.327Z" fill="#1A1E22"/>
<path d="M330.529 110.056C318.574 124.331 303.66 137.657 288.362 148.348C273.508 158.743 249.628 164.133 230.335 167.42C230.957 170.589 232.436 179.681 233.058 182.85C269.927 185.93 325.054 186.492 356.716 167.124C369.026 159.602 384.472 148.2 388.26 133.393C390.035 126.404 369.499 110.678 366.037 104.459L330.529 110.056Z" fill="white"/>
<path d="M270.046 185.219C279.485 185.219 288.451 184.863 296.884 184.153C322.628 181.961 342.898 176.453 357.101 167.776C375.536 156.492 385.981 145.328 388.97 133.57C389.059 133.185 388.822 132.771 388.437 132.682C388.053 132.593 387.638 132.83 387.55 133.215C384.65 144.558 374.441 155.456 356.332 166.502C339.376 176.867 304.312 188.003 233.679 182.168C233.354 180.48 232.88 177.726 232.436 175.031C231.993 172.425 231.519 169.76 231.194 168.042C243.296 165.94 252.913 163.778 261.405 161.231C272.975 157.766 281.941 153.768 288.777 148.97C304.815 137.746 319.462 124.479 331.091 110.56C331.357 110.234 331.298 109.79 331.002 109.523C330.677 109.257 330.233 109.316 329.967 109.612C318.397 123.442 303.868 136.621 287.948 147.786C272.62 158.506 247.646 163.748 230.217 166.739C230.01 166.769 229.833 166.887 229.744 167.035C229.625 167.213 229.596 167.391 229.625 167.598C229.951 169.168 230.483 172.307 230.987 175.298C231.49 178.319 232.052 181.428 232.348 183.027C232.407 183.353 232.673 183.59 232.999 183.62C245.989 184.686 258.387 185.219 270.046 185.219Z" fill="#1A1E22"/>
<path d="M467.266 146.779C468.539 136.118 463.124 124.953 454.01 119.326C446.612 114.765 437.38 113.729 430.219 108.842C421.874 103.156 417.613 93.2056 414.536 83.5512C411.163 72.8898 407.908 63.3242 400.865 54.3213C396.989 49.346 392.462 44.8742 387.431 41.0835C379.442 35.0421 370.002 29.0303 363.581 21.2119C357.338 13.6305 351.508 6.73027 342.069 2.7915C333.872 -0.584592 324.344 -1.11766 316.237 2.40651C310.466 4.89415 305.554 9.54368 302.921 15.2593C302.092 17.0659 299.991 21.4489 301.471 23.2257C302.24 24.1438 305.17 24.1438 306.235 24.2919C308.01 24.5584 328.576 27.2237 328.724 26.4241C329.434 22.8704 331.15 19.5239 333.665 16.9178C333.606 17.6878 333.577 18.4874 333.517 19.2574C332.127 45.4073 334.168 71.7349 339.583 97.3221C344.525 120.718 354.615 139.523 373.435 154.775C385.064 164.192 398.912 171.359 413.678 174.025C434.154 177.726 464.278 171.922 467.266 146.779Z" fill="#1A1E22"/>
<path d="M63.4456 157.707C63.564 157.707 63.6823 157.677 63.8007 157.618C64.1558 157.41 64.2742 156.966 64.067 156.611C62.5579 153.916 60.8121 150.866 58.0306 148.911C56.6102 147.904 55.1603 147.43 53.7991 147.46C53.6512 147.312 53.5032 147.164 53.3553 147.016C50.6034 144.469 46.875 142.958 43.117 142.929C42.7028 142.929 42.3773 143.254 42.3773 143.669C42.3773 144.084 42.7028 144.409 43.117 144.409C46.4016 144.439 49.6269 145.683 52.0829 147.874C50.8697 148.437 49.9524 149.533 49.7749 150.747C49.6269 151.724 50.0412 152.79 50.8401 153.501C51.5503 154.153 52.438 154.39 53.2961 154.182C54.9236 153.768 55.693 151.932 55.4562 150.481C55.3675 150.007 55.2195 149.562 54.9828 149.089C55.8409 149.296 56.6102 149.74 57.1725 150.125C59.6876 151.902 61.3151 154.804 62.765 157.351C62.9426 157.558 63.1793 157.707 63.4456 157.707ZM53.237 149.029C53.6808 149.592 53.9471 150.155 54.0359 150.688C54.1542 151.487 53.7696 152.524 52.9706 152.731C52.4676 152.85 52.0533 152.524 51.8758 152.405C51.4615 152.02 51.2248 151.458 51.284 150.954C51.4319 149.977 52.3197 149.266 53.237 149.029Z" fill="#1A1E22"/>
<path d="M21.3975 214.093C21.4567 214.093 21.4863 214.093 21.5455 214.093C23.2617 214.064 24.7413 213.619 25.8065 212.79C26.0137 212.82 26.2208 212.849 26.4279 212.879C30.1563 213.353 34.0327 212.376 37.1101 210.214C37.4356 209.977 37.5244 209.503 37.2876 209.177C37.0509 208.851 36.5775 208.763 36.252 208.999C33.5888 210.895 30.2155 211.783 26.9606 211.457C27.6116 210.302 27.7299 208.881 27.1381 207.785C26.6646 206.897 25.7177 206.304 24.6525 206.186C23.7056 206.097 22.8475 206.423 22.2853 207.074C21.1904 208.378 21.6639 210.302 22.6995 211.339C23.025 211.665 23.4393 211.961 23.8831 212.198C23.0842 212.524 22.1965 212.612 21.4863 212.612C18.4089 212.672 15.3907 211.25 12.7276 210.036C12.3429 209.858 11.9286 210.036 11.7511 210.391C11.5735 210.776 11.7511 211.191 12.1062 211.369C14.9173 212.672 18.0538 214.093 21.3975 214.093ZM24.3566 207.637C24.4158 207.637 24.475 207.637 24.5342 207.637C25.0964 207.696 25.629 208.022 25.8657 208.466C26.3096 209.325 26.0137 210.421 25.3923 211.161C24.7117 210.954 24.1791 210.658 23.7944 210.273C23.2322 209.71 22.9362 208.614 23.4689 207.993C23.7056 207.696 24.0903 207.637 24.3566 207.637Z" fill="#1A1E22"/>
<path d="M104.221 139.286C104.369 139.286 104.488 139.257 104.606 139.168C104.961 138.96 105.05 138.487 104.843 138.131C102.12 133.837 99.8124 129.957 99.0726 125.604C98.9247 124.716 98.8655 123.946 98.9247 123.294C99.2502 123.59 99.6053 123.827 99.9899 124.035C101.085 124.568 102.476 124.449 103.57 123.798C104.458 123.235 104.991 122.376 104.991 121.428C104.991 120.629 104.636 119.859 103.985 119.267C103.245 118.615 102.268 118.289 101.351 118.378C100.315 118.497 99.3389 119.089 98.6288 119.977C98.5104 119.592 98.4216 119.237 98.3625 118.97C97.4747 114.202 99.8716 108.931 104.044 106.443C104.399 106.236 104.517 105.792 104.31 105.436C104.103 105.081 103.659 104.963 103.304 105.17C98.6288 107.954 95.936 113.877 96.9125 119.237C97.0901 120.155 97.3564 120.984 97.741 121.695C97.3859 122.85 97.3564 124.183 97.6523 125.871C98.4512 130.491 100.848 134.518 103.63 138.96C103.748 139.168 103.985 139.286 104.221 139.286ZM101.677 119.859C102.12 119.859 102.623 120.037 102.979 120.362C103.156 120.54 103.482 120.895 103.482 121.399C103.482 121.991 103.038 122.346 102.771 122.524C102.12 122.909 101.233 122.998 100.611 122.702C100.079 122.435 99.6644 122.05 99.3389 121.576C99.7532 120.747 100.523 119.977 101.499 119.859C101.558 119.859 101.617 119.859 101.677 119.859Z" fill="#1A1E22"/>
<path d="M150.234 123.087C150.411 123.087 150.589 123.028 150.737 122.91C151.033 122.643 151.062 122.169 150.796 121.873C149.76 120.718 149.317 119.06 149.613 117.549C149.82 116.542 150.352 115.624 151.122 114.914C151.329 115.299 151.595 115.654 151.95 115.921C152.838 116.631 154.081 116.483 154.88 115.98C155.619 115.506 155.945 114.706 155.767 113.936C155.619 113.374 155.235 112.9 154.673 112.633C153.992 112.307 153.015 112.278 152.157 112.574C152.157 112.337 152.187 112.13 152.217 111.952C152.601 109.257 154.051 106.77 156.152 105.052C156.478 104.785 156.507 104.341 156.27 104.015C156.004 103.69 155.56 103.66 155.235 103.897C152.838 105.822 151.21 108.694 150.767 111.745C150.678 112.337 150.648 112.87 150.707 113.374C149.435 114.321 148.518 115.713 148.192 117.283C147.778 119.267 148.37 121.399 149.731 122.88C149.849 123.028 150.027 123.087 150.234 123.087ZM153.371 113.847C153.607 113.847 153.844 113.877 154.022 113.966C154.229 114.055 154.288 114.203 154.317 114.292C154.347 114.44 154.258 114.588 154.081 114.736C153.755 114.943 153.193 115.032 152.897 114.766C152.66 114.588 152.512 114.351 152.394 114.084C152.424 114.084 152.424 114.055 152.453 114.055C152.69 113.907 153.045 113.847 153.371 113.847Z" fill="#1A1E22"/>
<path d="M83.1231 153.916C83.5078 153.59 83.9516 153.383 84.4251 153.383C85.4311 153.383 86.1709 154.182 86.4964 155.071C86.9994 156.404 85.9934 158.062 84.6026 158.21C83.2119 158.358 81.8507 156.966 82.117 155.574C82.265 154.952 82.6201 154.33 83.1231 153.916Z" fill="#1A1E22"/>
<path d="M127.746 86.098C128.13 85.7722 128.574 85.5649 129.048 85.5649C130.054 85.5649 130.793 86.3645 131.119 87.253C131.622 88.5856 130.616 90.2441 129.225 90.3921C127.834 90.5698 126.473 89.1483 126.74 87.7564C126.887 87.1641 127.272 86.5422 127.746 86.098Z" fill="#1A1E22"/>
<path d="M124.757 124.805C125.142 124.479 125.586 124.271 126.059 124.271C127.065 124.271 127.805 125.071 128.131 125.96C128.634 127.292 127.628 128.951 126.237 129.099C124.846 129.276 123.485 127.855 123.751 126.463C123.87 125.871 124.254 125.249 124.757 124.805Z" fill="#1A1E22"/>
<path d="M46.4014 129.425C46.7861 129.099 47.2299 128.891 47.7034 128.891C48.7095 128.891 49.4492 129.691 49.7747 130.58C50.2778 131.912 49.2717 133.571 47.8809 133.719C46.4902 133.896 45.129 132.475 45.3953 131.083C45.5433 130.491 45.8984 129.869 46.4014 129.425Z" fill="#1A1E22"/>
<path d="M181.571 111.537C181.956 111.211 182.399 111.004 182.873 111.004C183.879 111.004 184.619 111.804 184.944 112.692C185.447 114.025 184.441 115.683 183.05 115.831C181.66 116.009 180.298 114.587 180.565 113.196C180.713 112.574 181.097 111.952 181.571 111.537Z" fill="#1A1E22"/>
<path d="M30.3633 232.277C30.748 231.951 31.1919 231.744 31.6653 231.744C32.6714 231.744 33.4112 232.543 33.7366 233.432C34.2397 234.764 33.2336 236.423 31.8429 236.571C30.4521 236.749 29.0909 235.327 29.3573 233.935C29.5052 233.313 29.8603 232.691 30.3633 232.277Z" fill="#1A1E22"/>
<path d="M1.03953 189.128C1.42421 188.802 1.86808 188.595 2.34154 188.595C3.34764 188.595 4.08741 189.395 4.41291 190.283C4.91596 191.616 3.90986 193.274 2.51908 193.422C1.1283 193.6 -0.232891 192.178 0.0334282 190.786C0.181383 190.165 0.536482 189.543 1.03953 189.128Z" fill="#1A1E22"/>
<path d="M68.2095 106.414C68.8901 105.822 69.689 105.466 70.5175 105.437C72.293 105.437 73.6245 106.828 74.1868 108.398C75.0449 110.738 73.2991 113.669 70.8431 113.936C68.3871 114.232 65.9902 111.715 66.4637 109.286C66.6708 108.28 67.3218 107.184 68.2095 106.414Z" fill="#FFDB00"/>
<path d="M6.2477 150.066C6.92827 149.473 7.72721 149.118 8.55573 149.089C10.3311 149.089 11.6626 150.48 12.2249 152.05C13.083 154.39 11.3372 157.321 8.88121 157.588C6.42524 157.884 4.02844 155.367 4.50188 152.938C4.70901 151.902 5.36 150.806 6.2477 150.066Z" fill="#FFDB00"/>
<path d="M118.691 154.953C119.372 154.36 120.171 154.005 120.999 153.975C122.774 153.975 124.106 155.367 124.668 156.937C125.526 159.276 123.781 162.208 121.325 162.475C118.869 162.741 116.472 160.254 116.945 157.825C117.152 156.789 117.803 155.693 118.691 154.953Z" fill="#FFDB00"/>
<path d="M186.394 142.011C187.074 141.419 187.873 141.063 188.702 141.034C190.477 141.034 191.809 142.426 192.371 143.995C193.229 146.335 191.483 149.267 189.027 149.533C186.571 149.829 184.174 147.312 184.648 144.884C184.855 143.877 185.535 142.781 186.394 142.011Z" fill="#FFDB00"/>
<path d="M43.975 183.235C44.2413 183.235 44.5076 183.087 44.6259 182.82C44.8035 182.465 44.6555 182.02 44.3005 181.813C37.3763 178.259 30.1562 175.268 22.8473 172.988C22.4626 172.869 22.0484 173.077 21.93 173.462C21.8117 173.847 22.0188 174.261 22.4035 174.38C29.6531 176.63 36.7845 179.562 43.6199 183.116C43.7383 183.205 43.8566 183.235 43.975 183.235Z" fill="#1A1E22"/>
<path d="M151.891 161.794C152.128 161.794 152.335 161.675 152.483 161.497C158.076 153.738 162.337 145.091 165.177 135.851C165.296 135.466 165.089 135.051 164.674 134.933C164.29 134.815 163.875 135.022 163.757 135.436C160.976 144.528 156.774 153.028 151.3 160.639C151.063 160.964 151.122 161.438 151.477 161.675C151.595 161.764 151.743 161.794 151.891 161.794Z" fill="#1A1E22"/>
</svg>
