<svg width="515" height="426" viewBox="0 0 515 426" fill="none" xmlns="http://www.w3.org/2000/svg">
<g clip-path="url(#clip0)">
<path d="M512.914 376.616C512.914 376.616 257.211 230.619 249.831 226.15C249.831 226.15 287.052 230.04 342.371 229.558C353.922 234.605 514.198 291.673 514.198 291.673C513.588 320.063 513.524 348.227 512.914 376.616Z" fill="#FFBD00"/>
<path d="M512.914 377.42C513.043 377.42 513.203 377.388 513.299 377.323C513.556 377.195 513.684 376.938 513.717 376.648C514.037 362.47 514.198 348.098 514.358 334.177C514.519 320.288 514.679 305.916 515 291.705C515 291.352 514.807 291.062 514.455 290.934C512.85 290.355 354.083 233.834 342.692 228.818C342.595 228.786 342.467 228.754 342.371 228.754C287.726 229.236 250.28 225.378 249.927 225.346C249.542 225.314 249.189 225.539 249.093 225.892C248.965 226.246 249.125 226.632 249.446 226.825C256.73 231.262 509.994 375.844 512.529 377.291C512.658 377.356 512.786 377.42 512.914 377.42ZM513.396 292.252C513.075 306.27 512.914 320.416 512.754 334.145C512.593 347.584 512.433 361.505 512.144 375.234C494.336 365.074 282.432 244.058 253.393 227.275C264.046 228.207 297.32 230.747 342.21 230.361C354.532 235.634 503.128 288.587 513.396 292.252Z" fill="#212121"/>
<path d="M403.337 376.616C403.337 376.616 257.211 321.477 249.863 317.008C249.125 289.037 249.863 258.622 249.863 229.558C261.383 234.605 404.62 291.673 404.62 291.673C404.01 320.063 403.946 348.227 403.337 376.616Z" fill="#FFBD00"/>
<path d="M403.337 377.42C403.497 377.42 403.658 377.388 403.786 377.291C404.011 377.13 404.139 376.905 404.139 376.648C404.46 362.47 404.62 348.066 404.781 334.177C404.941 320.288 405.101 305.916 405.422 291.737C405.422 291.416 405.23 291.094 404.909 290.966C403.465 290.387 261.575 233.834 250.184 228.85C249.928 228.754 249.639 228.754 249.414 228.915C249.19 229.075 249.061 229.3 249.061 229.59C249.061 239.235 248.965 249.234 248.901 258.879C248.74 278.298 248.58 298.361 249.061 317.072C249.061 317.362 249.222 317.587 249.446 317.748C256.794 322.217 397.112 375.169 403.08 377.42C403.144 377.388 403.24 377.42 403.337 377.42ZM403.786 292.22C403.497 306.238 403.337 320.416 403.144 334.145C402.984 347.68 402.823 361.634 402.535 375.459C389.443 370.507 260.901 321.927 250.601 316.526C250.12 298.007 250.281 278.105 250.441 258.847C250.505 249.588 250.601 240.039 250.601 230.779C267.544 237.917 394.577 288.555 403.786 292.22Z" fill="#212121"/>
<path d="M403.336 376.616C433.755 377.227 482.335 377.002 512.722 377.612C514.005 349.32 514.198 321.541 514.198 292.734C483.49 292.091 435.552 292.348 404.844 291.705C404.139 320.062 404.074 348.227 403.336 376.616Z" fill="#FFBD00"/>
<path d="M512.722 378.416C513.139 378.416 513.492 378.095 513.524 377.645C514.872 347.905 515 318.23 515 292.702C515 292.252 514.647 291.898 514.23 291.898C498.86 291.577 478.87 291.48 459.521 291.384C440.205 291.287 420.214 291.191 404.877 290.869C404.427 290.869 404.074 291.223 404.042 291.641C403.689 305.82 403.465 320.191 403.272 334.112C403.08 348.002 402.887 362.373 402.502 376.552C402.502 376.777 402.566 376.97 402.727 377.13C402.887 377.291 403.08 377.388 403.304 377.388C418.514 377.677 438.6 377.773 458.013 377.87C477.426 377.998 497.512 378.095 512.722 378.416ZM513.396 293.506C513.396 318.583 513.267 347.648 511.952 376.777C496.839 376.487 477.105 376.391 458.013 376.294C438.953 376.198 419.22 376.101 404.139 375.812C404.492 361.891 404.684 347.777 404.877 334.145C405.069 320.513 405.262 306.43 405.615 292.509C420.856 292.831 440.493 292.927 459.489 293.023C478.517 293.088 498.154 293.184 513.396 293.506Z" fill="#212121"/>
<path d="M485.993 340.929C483.844 348.227 478.004 354.078 470.078 355.525C460.933 357.197 450.826 355.204 444.055 348.838C437.285 342.472 434.782 331.38 439.563 323.374C443.382 317.008 450.954 313.6 458.334 313.247C471.843 312.636 485.673 317.973 486.828 332.987C487.02 335.72 486.731 338.421 485.993 340.929Z" fill="white"/>
<path d="M463.757 356.907C465.875 356.907 468.057 356.715 470.206 356.329C478.1 354.882 484.453 349.095 486.763 341.186C487.533 338.517 487.822 335.752 487.63 332.955C487.084 325.818 483.619 320.159 477.619 316.59C472.581 313.6 465.714 312.153 458.302 312.475C449.959 312.861 442.515 316.88 438.889 322.988C434.14 330.93 436.162 342.536 443.51 349.448C448.644 354.271 455.928 356.907 463.757 356.907ZM460.612 313.986C478.196 313.986 485.287 323.663 485.993 333.019C486.186 335.624 485.929 338.196 485.191 340.671C483.041 348.002 477.169 353.371 469.886 354.689C460.356 356.425 450.633 353.95 444.537 348.195C437.734 341.797 435.809 331.058 440.205 323.728C443.574 318.069 450.537 314.34 458.334 313.986C459.136 314.018 459.874 313.986 460.612 313.986Z" fill="#212121"/>
<path d="M464.334 330.351C466.324 330.351 468.313 330.254 470.271 330.094C470.72 330.061 471.041 329.676 471.009 329.226C470.976 328.775 470.591 328.454 470.142 328.486C465.265 328.936 460.131 328.808 455.35 328.132C454.901 328.068 454.516 328.39 454.452 328.808C454.387 329.258 454.708 329.644 455.125 329.708C458.109 330.126 461.222 330.351 464.334 330.351Z" fill="#212121"/>
<path d="M452.077 339.514C459.393 339.449 466.901 339.417 474.442 339.449C474.891 339.449 475.244 339.096 475.244 338.646C475.244 338.196 474.891 337.842 474.442 337.842C466.901 337.81 459.361 337.842 452.077 337.906C451.628 337.906 451.275 338.26 451.275 338.71C451.275 339.16 451.628 339.514 452.077 339.514Z" fill="#212121"/>
<path d="M354.596 284.15C354.596 284.15 323.118 271.354 313.203 265.342C312.209 227.725 312.818 190.237 312.818 151.206C328.348 157.99 356.296 169.95 356.296 169.95C355.494 208.113 355.398 245.987 354.596 284.15Z" fill="white"/>
<path d="M354.596 284.954C354.756 284.954 354.917 284.922 355.045 284.825C355.27 284.665 355.398 284.439 355.398 284.182C355.815 265.085 356.04 245.762 356.264 227.082C356.489 208.403 356.714 189.08 357.131 170.014C357.131 169.693 356.938 169.371 356.65 169.243C356.361 169.114 328.541 157.218 313.171 150.499C312.915 150.402 312.626 150.402 312.401 150.563C312.177 150.724 312.048 150.949 312.048 151.238C312.048 162.169 311.984 173.101 311.952 183.646C311.824 211.746 311.695 238.271 312.433 265.374C312.433 265.663 312.594 265.888 312.818 266.049C322.669 272.029 353.024 284.375 354.307 284.89C354.403 284.922 354.5 284.954 354.596 284.954ZM355.494 170.497C355.077 189.401 354.853 208.531 354.66 227.05C354.436 245.376 354.211 264.281 353.826 282.993C348.307 280.71 323.054 270.261 314.006 264.924C313.3 237.981 313.428 211.585 313.556 183.678C313.588 173.487 313.653 163.005 313.653 152.492C327.996 158.729 351.772 168.889 355.494 170.497Z" fill="#212121"/>
<path d="M354.596 284.15C388.929 284.954 424.546 284.664 458.879 285.5C460.355 247.466 460.548 210.074 460.548 171.364C425.894 170.496 390.983 170.818 356.329 169.982C355.494 208.113 355.398 245.987 354.596 284.15Z" fill="white"/>
<path d="M458.879 286.304C459.297 286.304 459.649 285.95 459.682 285.532C461.222 245.569 461.35 205.637 461.35 171.364C461.35 170.914 460.997 170.561 460.58 170.561C443.253 170.143 425.541 169.982 408.438 169.853C391.336 169.725 373.656 169.596 356.329 169.146C356.104 169.146 355.911 169.21 355.751 169.371C355.591 169.532 355.494 169.725 355.494 169.95C355.077 189.015 354.853 208.338 354.628 227.05C354.403 245.73 354.179 265.052 353.762 284.15C353.762 284.6 354.115 284.954 354.532 284.986C371.698 285.404 389.507 285.532 406.706 285.661C423.904 285.757 441.681 285.886 458.879 286.304C458.847 286.304 458.847 286.304 458.879 286.304ZM459.746 172.136C459.746 205.991 459.617 245.312 458.109 284.664C441.167 284.279 423.68 284.15 406.77 284.021C389.86 283.893 372.34 283.764 355.43 283.378C355.815 264.538 356.04 245.504 356.264 227.082C356.489 208.66 356.714 189.626 357.099 170.818C374.169 171.236 391.592 171.364 408.406 171.493C425.252 171.589 442.643 171.718 459.746 172.136Z" fill="#212121"/>
<path d="M460.548 171.364C445.948 165.288 431.348 159.244 416.717 153.167C417.134 153.038 339.836 151.817 312.818 151.206C323.215 156.254 345.9 164.902 356.296 169.95L460.548 171.364Z" fill="white"/>
<path d="M460.548 172.168C460.933 172.168 461.254 171.911 461.318 171.525C461.382 171.139 461.19 170.754 460.837 170.625L417.005 152.428C416.749 152.363 416.364 152.331 415.85 152.331C415.273 152.299 414.438 152.299 413.38 152.267C411.23 152.235 408.149 152.17 404.331 152.074C396.726 151.945 386.33 151.752 375.067 151.56C352.221 151.174 326.327 150.724 312.818 150.402C312.818 150.402 312.818 150.402 312.786 150.402C312.401 150.402 312.08 150.659 312.016 151.013C311.92 151.367 312.112 151.752 312.433 151.913C317.663 154.453 326.07 157.925 334.22 161.301C342.338 164.677 350.745 168.149 355.911 170.657C356.008 170.722 356.136 170.722 356.264 170.754L460.548 172.168C460.516 172.168 460.548 172.168 460.548 172.168ZM416.524 153.939L456.376 170.496L356.489 169.178C351.259 166.638 342.916 163.198 334.862 159.854C328.348 157.154 321.674 154.389 316.637 152.106C330.819 152.395 354.211 152.813 375.067 153.167C395.507 153.521 414.823 153.874 416.524 153.939Z" fill="#212121"/>
<path d="M447.392 186.411C435.103 188.951 422.3 188.983 410.043 186.443C408.984 186.218 407.732 186.058 406.994 186.829C406.449 187.376 406.417 188.212 406.385 188.983C406.064 197.825 405.775 209.078 405.454 217.951C417.711 218.755 432.407 217.919 444.665 218.659C445.563 207.984 446.494 197.31 447.392 186.604V186.411Z" fill="#FFBD00"/>
<path d="M444.665 219.462C445.082 219.462 445.435 219.141 445.467 218.723L448.194 186.668C448.194 186.636 448.194 186.636 448.194 186.604V186.379C448.194 186.122 448.098 185.897 447.906 185.768C447.713 185.607 447.488 185.543 447.232 185.607C435.135 188.115 422.3 188.147 410.203 185.64C409.337 185.447 407.54 185.093 406.417 186.25C405.647 187.054 405.615 188.179 405.583 188.951C405.422 193.388 405.262 198.5 405.133 203.419C404.973 208.37 404.812 213.482 404.684 217.887C404.684 218.305 405.005 218.691 405.422 218.723C411.711 219.141 418.738 219.141 425.541 219.109C431.99 219.109 438.697 219.077 444.665 219.43C444.633 219.462 444.665 219.462 444.665 219.462ZM446.526 187.408L443.927 217.823C438.087 217.501 431.702 217.533 425.477 217.533C418.995 217.533 412.289 217.565 406.256 217.212C406.385 212.968 406.545 208.177 406.673 203.515C406.834 198.564 406.994 193.452 407.123 189.048C407.155 188.372 407.187 187.762 407.508 187.408C407.957 186.958 408.887 187.054 409.818 187.247C421.851 189.691 434.525 189.755 446.526 187.408Z" fill="#212121"/>
<path d="M429.519 199.915C431.798 199.915 434.044 199.722 436.258 199.368C436.707 199.304 436.996 198.886 436.932 198.436C436.867 197.986 436.45 197.696 436.001 197.761C430.514 198.693 424.803 198.404 419.444 196.989C419.027 196.86 418.578 197.118 418.449 197.568C418.321 197.986 418.578 198.436 419.027 198.564C422.428 199.465 425.958 199.915 429.519 199.915Z" fill="#212121"/>
<path d="M430.322 206.602C431.124 206.602 431.926 206.57 432.728 206.538C433.177 206.506 433.498 206.12 433.466 205.702C433.434 205.252 433.049 204.93 432.632 204.962C428.428 205.22 424.225 204.77 420.15 203.676C419.733 203.548 419.283 203.805 419.155 204.255C419.027 204.673 419.283 205.123 419.733 205.252C423.198 206.152 426.76 206.602 430.322 206.602Z" fill="#212121"/>
<path d="M330.659 274.859C331.076 274.859 331.461 274.505 331.461 274.087C332.039 255.472 332.648 236.535 333.226 217.598C333.804 198.757 334.381 179.917 334.991 161.398C369.902 158.633 405.454 158.697 435.167 161.623C435.616 161.655 436.001 161.334 436.033 160.916C436.066 160.465 435.745 160.08 435.328 160.047C405.326 157.09 369.388 157.025 334.157 159.855C333.739 159.887 333.419 160.208 333.419 160.626C332.841 179.37 332.231 198.468 331.654 217.533C331.076 236.47 330.466 255.407 329.889 274.023C329.825 274.473 330.178 274.859 330.659 274.859C330.627 274.859 330.627 274.859 330.659 274.859Z" fill="#212121"/>
<path d="M140.574 105.294C139.804 94.3951 136.211 83.9139 133.708 73.2398C131.205 62.5656 129.857 51.1842 133.483 40.8638C138.585 26.3637 153.281 16.4612 168.555 14.7893C175.71 14.0177 183.347 14.9179 189.283 18.969C194.962 22.8271 198.524 29.0965 201.155 35.4302C207.059 49.5767 209.241 65.2663 207.444 80.5059C206.642 87.2576 204.974 94.1379 200.706 99.4106C196.438 104.683 189.09 107.898 182.705 105.648C179.913 118.09 183.411 131.754 191.818 141.303C199.102 142.525 209.466 144.808 208.535 152.17C207.605 159.501 195.797 169.885 190.149 174.676C178.116 184.868 161.431 190.398 146.158 186.475C131.462 182.714 119.397 170.111 116.284 155.225C115.258 150.241 115.322 144.518 118.723 140.725C121.418 137.702 125.558 136.545 129.344 135.098C141.312 130.629 141.344 116.547 140.574 105.294Z" fill="white"/>
<path d="M156.329 188.565C160.693 188.565 165.153 187.922 169.581 186.668C177.154 184.514 184.437 180.592 190.662 175.319C202.535 165.256 208.631 157.732 209.305 152.299C210.396 143.779 197.882 141.528 192.203 140.596C184.277 131.465 180.908 118.573 183.282 106.709C189.379 108.413 196.663 105.712 201.315 99.925C205.005 95.3274 207.219 89.1866 208.246 80.6023C210.075 65.1699 207.893 49.448 201.893 35.1087C198.524 27.0067 194.641 21.6375 189.732 18.2938C182.769 13.5676 174.33 13.3104 168.458 13.9534C152.061 15.7539 137.686 26.428 132.713 40.5744C128.734 51.8915 130.723 64.0767 132.905 73.4005C133.611 76.3905 134.414 79.4127 135.184 82.3385C137.141 89.7975 139.195 97.5459 139.74 105.326C140.638 117.994 139.933 130.276 129.023 134.359C128.477 134.552 127.932 134.777 127.386 134.97C124.017 136.191 120.52 137.445 118.081 140.21C115.963 142.621 113.749 147.219 115.482 155.418C118.659 170.657 130.884 183.453 145.933 187.311C149.27 188.147 152.767 188.565 156.329 188.565ZM182.705 104.876C182.576 104.876 182.448 104.908 182.32 104.973C182.127 105.069 181.967 105.262 181.935 105.487C179.079 118.187 182.641 132.108 191.24 141.85C191.368 141.978 191.529 142.075 191.721 142.107C206.738 144.615 208.182 148.73 207.765 152.074C207.155 157.025 201.059 164.42 189.668 174.065C176.993 184.804 160.404 189.273 146.382 185.704C131.911 182.006 120.135 169.693 117.119 155.064C116.413 151.656 115.771 145.322 119.365 141.239C121.514 138.796 124.819 137.606 127.996 136.449C128.542 136.256 129.119 136.031 129.665 135.838C135.216 133.748 138.906 129.407 140.542 122.881C141.986 117.222 141.794 110.76 141.409 105.166C140.863 97.2243 138.777 89.4438 136.788 81.8884C136.018 78.9626 135.216 75.9726 134.51 72.9825C132.36 63.8517 130.403 51.988 134.253 41.0567C139.002 27.5211 152.832 17.2328 168.651 15.5288C174.234 14.9179 182.288 15.1108 188.833 19.5798C193.486 22.7628 197.176 27.8748 200.417 35.6874C206.289 49.7696 208.439 65.202 206.642 80.3773C205.647 88.6722 203.561 94.5558 200.064 98.8962C195.604 104.426 188.577 106.87 182.929 104.876C182.865 104.908 182.769 104.876 182.705 104.876Z" fill="#212121"/>
<path d="M20.9211 190.655C33.4672 172.522 51.5323 157.668 71.7151 148.827C88.4647 141.496 109.995 137.767 127.836 136.481C127.836 136.481 124.755 170.304 160.533 171.332C198.748 172.425 198.748 142.686 198.748 142.686C222.268 148.795 244.12 159.919 264.206 173.904C283.17 187.086 299.727 204.384 309.353 225.378C322.252 253.607 321.707 287.976 306.369 315.176C298.508 329.097 286.764 340.704 272.709 348.355C244.024 364.013 197.401 368.353 166.469 354.786C162.618 353.082 150.971 347.198 150.971 347.198C142.05 350.51 132.777 352.889 123.343 354.175C102.102 357.036 72.7098 354.207 53.3291 345.076C39.6921 338.646 28.1086 328.486 19.7659 315.947C-4.20322 280.035 -3.62567 226.118 20.9211 190.655Z" fill="#FFBD00"/>
<path d="M213.348 304.791C213.412 304.791 213.476 304.791 213.541 304.759C223.712 302.026 236.13 290.452 239.05 280.903C242.034 271.258 240.237 260.166 234.397 251.935C234.141 251.581 233.627 251.485 233.274 251.742C232.921 251.999 232.825 252.514 233.082 252.867C238.633 260.68 240.333 271.258 237.51 280.421C234.718 289.519 222.846 300.579 213.124 303.183C212.706 303.312 212.45 303.73 212.546 304.18C212.674 304.566 212.995 304.791 213.348 304.791Z" fill="#212121"/>
<path d="M176.801 332.537C185.4 327.361 196.566 328.004 206.289 330.865C209.722 331.862 242.9 345.944 242.9 338.164C242.9 334.498 233.787 331.958 230.964 330.672C225.958 328.357 220.824 326.268 215.626 324.435L216.91 324.853C226.375 327.714 235.873 330.544 245.339 333.405C247.296 333.984 249.382 334.595 251.371 334.145C253.361 333.695 255.158 331.765 254.612 329.869C254.259 328.615 253.104 327.714 251.917 327.104C245.307 323.728 226.119 317.265 226.119 317.265L225.926 316.847C236.675 320.673 247.392 324.467 258.142 328.293C260.612 329.161 264.014 329.804 265.425 327.65C267.03 325.207 264.206 322.345 261.671 320.834C231.028 302.412 192.62 296.239 157.356 304.051C157.42 316.333 163.934 328.583 174.715 334.434C174.426 334.177 177.089 332.794 176.801 332.537Z" fill="white"/>
<path d="M238.857 341.282C240.43 341.282 241.681 341.025 242.515 340.446C243.285 339.9 243.702 339.096 243.702 338.131C243.702 334.659 237.831 332.441 233.563 330.801C232.953 330.576 232.408 330.351 231.926 330.158L245.114 334.113C246.975 334.659 249.318 335.366 251.564 334.852C252.976 334.531 254.291 333.598 254.997 332.409C255.543 331.476 255.671 330.512 255.414 329.579C255.19 328.84 254.773 328.229 254.291 327.714L257.917 329.001C261.896 330.415 264.816 330.062 266.131 328.036C266.677 327.2 266.869 326.236 266.645 325.239C266.067 322.635 263.019 320.641 262.121 320.095C247.007 310.996 229.456 304.662 211.391 301.769C193.326 298.875 174.619 299.357 157.195 303.215C156.842 303.312 156.554 303.633 156.554 304.019C156.618 317.072 163.581 329.258 174.33 335.109C174.683 335.302 175.132 335.206 175.357 334.852C175.389 334.788 175.453 334.723 175.453 334.627C175.646 334.466 175.966 334.241 176.191 334.113C176.833 333.662 177.25 333.373 177.474 333.019C187.197 327.361 199.55 329.676 206.064 331.573C206.61 331.733 208.021 332.248 209.786 332.955C221.434 337.392 232.729 341.282 238.857 341.282ZM215.594 323.599C215.273 323.599 214.952 323.824 214.824 324.146C214.696 324.564 214.888 325.014 215.305 325.175C220.471 327.007 225.605 329.097 230.579 331.412C231.156 331.669 231.991 331.991 232.953 332.344C236.13 333.566 242.066 335.817 242.066 338.164C242.066 338.614 241.906 338.935 241.585 339.16C237.702 341.861 217.84 334.338 210.364 331.508C208.471 330.801 207.091 330.287 206.513 330.094C194.705 326.653 184.02 327.264 176.383 331.862C176.223 331.958 176.095 332.119 176.031 332.312C175.838 332.473 175.517 332.698 175.293 332.826C174.972 333.052 174.715 333.212 174.49 333.405C164.768 327.811 158.415 316.687 158.158 304.694C175.164 300.997 193.454 300.547 211.102 303.376C228.942 306.238 246.302 312.507 261.254 321.509C262.762 322.41 264.687 324.049 265.04 325.625C265.169 326.203 265.073 326.718 264.752 327.2C263.564 329.033 260.259 328.197 258.398 327.522L226.215 316.076C225.926 315.979 225.573 316.044 225.349 316.301C225.124 316.526 225.06 316.88 225.188 317.169L225.381 317.587C225.477 317.78 225.637 317.941 225.862 318.037C226.055 318.101 245.082 324.499 251.564 327.811C252.27 328.165 253.521 328.936 253.842 330.094C254.035 330.737 253.81 331.315 253.585 331.669C253.104 332.473 252.173 333.148 251.179 333.373C249.318 333.791 247.328 333.18 245.531 332.666L217.102 324.114L215.851 323.696C215.787 323.599 215.69 323.599 215.594 323.599ZM175.26 333.823C175.26 333.823 175.26 333.855 175.26 333.823C175.26 333.855 175.26 333.823 175.26 333.823ZM176.223 333.084C176.223 333.116 176.255 333.116 176.287 333.116C176.255 333.116 176.223 333.084 176.223 333.084Z" fill="#212121"/>
<path d="M71.715 148.827C51.5321 157.668 33.499 172.522 20.9208 190.655C-10.4284 235.859 -5.6474 305.08 38.7292 338.839C62.0246 356.554 94.8178 361.473 123.311 357.647C144.553 354.786 164.864 342.922 182.512 330.769C180.876 319.162 173.624 308.424 163.998 301.737C151.933 304.437 138.97 306.109 126.616 306.302C114.263 306.495 101.556 304.116 91.1277 297.461C80.6994 290.805 72.8701 279.424 72.3888 267.046C71.9396 254.668 79.9293 241.904 91.8978 238.689L71.715 148.827Z" fill="#FFBD00"/>
<path d="M212.193 363.691C220.568 363.691 228.974 362.92 237.06 361.441C252.141 358.644 265.746 353.435 277.554 346.008C290.229 338.003 300.144 327.779 307.043 315.626C322.188 288.844 323.343 254.153 310.059 225.089C301.203 205.669 285.48 187.761 264.655 173.293C242.9 158.183 220.792 147.637 198.941 141.946C198.716 141.882 198.459 141.946 198.235 142.075C198.042 142.236 197.914 142.461 197.914 142.718C197.914 142.814 197.786 153.489 189.539 161.526C182.993 167.892 173.239 170.914 160.5 170.561C149.847 170.271 141.665 166.96 136.21 160.787C127.418 150.852 128.573 136.738 128.606 136.577C128.638 136.352 128.541 136.095 128.381 135.934C128.22 135.773 127.996 135.677 127.739 135.709C115.193 136.609 91.1918 139.439 71.3619 148.119C51.0507 157.025 32.8893 171.975 20.2469 190.237C4.87717 212.421 -2.27826 241.196 0.609589 269.168C3.62576 298.393 17.0061 323.374 38.2158 339.514C49.3821 348.002 63.0834 353.95 78.8703 357.133C93.085 359.994 108.487 360.476 123.407 358.483C133.611 357.1 143.526 353.692 152.831 349.32C164.479 355.782 178.341 360.283 192.908 362.373C199.262 363.241 205.711 363.691 212.193 363.691ZM199.486 143.747C220.856 149.437 242.451 159.79 263.725 174.58C284.325 188.919 299.855 206.602 308.583 225.732C321.642 254.314 320.519 288.458 305.631 314.79C298.892 326.718 289.17 336.749 276.688 344.594C265.073 351.924 251.628 357.036 236.739 359.801C208.278 365.106 177.699 360.83 154.596 348.355C165.089 343.243 174.715 337.038 182.929 331.347C183.186 331.187 183.314 330.865 183.282 330.576C181.646 319.13 174.619 308.07 164.447 300.997C164.254 300.868 164.03 300.836 163.805 300.868C151.323 303.666 138.456 305.241 126.584 305.434C112.915 305.659 100.818 302.637 91.5127 296.721C80.603 289.744 73.5759 278.363 73.1588 266.949C72.9342 261.001 74.699 254.925 78.1323 249.813C81.6298 244.572 86.6033 240.875 92.0903 239.428C92.5074 239.299 92.7641 238.881 92.6678 238.431C92.5395 238.013 92.1223 237.756 91.6731 237.853C85.8011 239.428 80.5389 243.35 76.8167 248.912C73.223 254.314 71.3619 260.744 71.5865 267.013C72.0357 278.941 79.3516 290.837 90.6784 298.103C100.208 304.212 112.658 307.299 126.616 307.074C138.488 306.881 151.355 305.305 163.837 302.572C173.367 309.292 179.977 319.645 181.646 330.351C173.207 336.17 163.324 342.504 152.607 347.584C152.543 347.616 152.478 347.616 152.446 347.648C143.205 352.021 133.322 355.461 123.215 356.811C91.5769 361.055 60.1635 354.078 39.2105 338.164C18.3538 322.281 5.19806 297.718 2.21393 268.943C-0.641815 241.357 6.41733 212.968 21.5625 191.105C34.0444 173.068 51.9812 158.311 72.0037 149.534C86.122 143.361 106.112 138.924 126.937 137.317C126.809 140.757 127.001 152.749 134.991 161.783C140.767 168.31 149.334 171.782 160.436 172.104C173.624 172.49 183.796 169.275 190.662 162.619C198.01 155.546 199.262 146.737 199.486 143.747Z" fill="#212121"/>
<path d="M186.844 93.3341C188.962 93.3341 191.079 92.466 192.523 90.9227C192.844 90.6012 192.812 90.0868 192.491 89.7975C192.17 89.476 191.657 89.5081 191.368 89.8296C189.924 91.3407 187.71 92.048 185.657 91.5979C183.635 91.18 181.838 89.6367 181.132 87.6755C180.972 87.2575 180.523 87.0325 180.106 87.1932C179.688 87.354 179.464 87.8041 179.624 88.2221C180.523 90.6977 182.769 92.6267 185.336 93.1733C185.817 93.2698 186.33 93.3341 186.844 93.3341Z" fill="#212121"/>
<path d="M176.224 46.6188C174.747 50.9592 174.074 55.5889 174.234 60.1865C170.544 55.5246 167.753 50.1233 166.02 44.3361C162.298 61.8905 151.869 77.7731 137.526 87.6113C126.264 77.966 119.172 61.2475 120.071 46.008C120.969 30.7684 129.216 16.204 141.505 8.06986C153.827 -0.0643328 169.902 -1.51113 183.379 4.27604C192.01 7.9734 199.294 14.275 207.124 19.5799C214.953 24.8848 223.937 29.2895 233.21 28.4536C232.184 37.8738 228.911 47.3583 222.75 54.2708C216.621 61.2154 207.444 65.4593 198.492 64.2376C189.572 63.048 177.796 55.9426 176.224 46.6188Z" fill="#212121"/>
<path d="M137.526 88.4472C137.686 88.4472 137.847 88.415 137.975 88.3186C151.773 78.8341 161.912 64.0125 166.148 47.3261C167.913 52.1488 170.48 56.7464 173.592 60.7009C173.817 60.9581 174.17 61.0867 174.49 60.9581C174.811 60.8295 175.036 60.508 175.004 60.1865C174.875 56.6178 175.293 52.9847 176.191 49.5124C179.304 57.518 189.539 63.8517 198.363 65.0413C207.123 66.2309 216.685 62.3085 223.327 54.8173C229.071 48.355 232.825 39.0312 233.98 28.55C234.012 28.3249 233.916 28.0677 233.756 27.907C233.595 27.7462 233.338 27.6498 233.114 27.6819C225.509 28.3892 217.391 25.6242 207.572 18.969C205.39 17.4901 203.176 15.8825 201.059 14.3393C195.604 10.3847 189.956 6.26938 183.667 3.5687C169.934 -2.31492 153.602 -0.83598 141.056 7.45896C128.509 15.7218 120.167 30.5112 119.236 46.0079C118.338 61.4404 125.461 78.4482 136.98 88.2864C137.141 88.3829 137.333 88.4472 137.526 88.4472ZM166.019 43.5645H165.987C165.634 43.5645 165.313 43.8538 165.249 44.2075C161.623 61.4082 151.548 76.8407 137.59 86.6467C126.713 77.0658 120.006 60.8617 120.873 46.1044C121.739 31.0899 129.825 16.7827 141.954 8.8093C154.083 0.835868 169.806 -0.610924 183.058 5.07979C189.154 7.68402 194.737 11.735 200.128 15.6575C202.246 17.2007 204.46 18.8082 206.674 20.3193C216.428 26.9103 224.579 29.8039 232.28 29.3859C231.06 39.1276 227.466 47.7762 222.14 53.7885C215.851 60.8938 206.834 64.6233 198.588 63.4981C194.128 62.8872 189.058 60.7974 185.047 57.8716C180.523 54.5922 177.667 50.5734 176.993 46.5545C176.929 46.2008 176.64 45.9115 176.255 45.8793C175.902 45.8472 175.549 46.0722 175.421 46.4259C174.17 50.059 173.496 53.9492 173.367 57.8395C170.447 53.7242 168.169 49.0623 166.725 44.2075C166.661 43.7895 166.372 43.5645 166.019 43.5645Z" fill="#212121"/>
<path d="M301.331 148.505C301.427 148.505 301.556 148.473 301.652 148.441C302.069 148.248 302.23 147.798 302.069 147.38C298.475 139.149 289.17 133.941 280.41 135.227C279.255 135.388 278.196 135.645 277.266 136.031C272.196 130.79 263.789 128.989 257.147 132.14C256.762 132.333 256.57 132.815 256.762 133.201C256.955 133.587 257.436 133.78 257.821 133.587C263.693 130.79 271.073 132.269 275.726 136.738C275.052 137.124 274.442 137.574 273.929 138.088C271.939 140.017 271.201 142.847 272.068 145.129C272.581 146.48 273.736 147.541 275.148 148.055C276.399 148.473 277.651 148.376 278.678 147.766C280.122 146.898 280.988 145.097 280.924 143.168C280.86 141.721 280.314 140.21 279.287 138.57C279.031 138.152 278.742 137.735 278.421 137.349C279.095 137.124 279.865 136.963 280.667 136.834C288.753 135.645 297.32 140.467 300.625 148.055C300.754 148.312 301.042 148.505 301.331 148.505ZM276.881 137.927C277.266 138.378 277.619 138.892 277.94 139.374C278.838 140.757 279.287 142.011 279.351 143.168C279.416 144.486 278.806 145.772 277.875 146.319C277.266 146.705 276.496 146.737 275.693 146.48C274.731 146.158 273.929 145.386 273.576 144.518C272.934 142.847 273.544 140.66 275.052 139.213C275.565 138.699 276.175 138.281 276.881 137.927Z" fill="#212121"/>
<path d="M467.928 158.44C468.217 158.44 468.505 158.279 468.634 158.022C471.939 151.817 479.094 147.959 485.8 148.312C485.48 149.052 485.223 149.791 485.094 150.563C484.581 153.424 485.672 156.157 487.822 157.379C489.009 158.054 490.581 158.151 491.993 157.668C493.373 157.186 494.432 156.254 494.913 155.032C495.587 153.392 495.234 151.367 493.983 149.888C493.052 148.795 491.672 147.959 489.747 147.38C489.266 147.219 488.784 147.123 488.303 147.026C488.752 146.383 489.298 145.74 489.908 145.097C496.068 138.667 506.336 136.642 513.748 140.371C514.133 140.564 514.615 140.403 514.839 140.017C515.032 139.632 514.871 139.149 514.486 138.924C506.465 134.905 495.394 137.059 488.752 143.972C487.854 144.904 487.116 145.837 486.538 146.769C479.03 146.062 470.848 150.306 467.126 157.25C466.901 157.636 467.061 158.118 467.446 158.343C467.671 158.408 467.799 158.44 467.928 158.44ZM487.501 148.505C488.143 148.602 488.752 148.762 489.362 148.955C490.966 149.438 492.089 150.113 492.827 150.981C493.694 152.01 493.951 153.36 493.501 154.453C493.18 155.225 492.442 155.868 491.512 156.189C490.517 156.543 489.426 156.479 488.624 156.029C487.084 155.161 486.282 153.039 486.667 150.884C486.827 150.048 487.084 149.277 487.501 148.505Z" fill="#212121"/>
<path d="M342.948 116.74C343.205 116.74 343.461 116.611 343.622 116.386C348.21 109.795 349.686 100.954 347.44 93.1734C348.467 91.9517 349.301 90.4728 349.911 88.8009C352.735 81.0847 349.494 71.7609 342.531 67.517C342.146 67.2919 341.664 67.4205 341.44 67.7742C341.215 68.16 341.344 68.6423 341.697 68.8673C347.889 72.6611 350.906 81.3419 348.403 88.2222C347.986 89.3796 347.44 90.4085 346.831 91.3087C345.9 88.9295 344.681 87.1934 343.108 86.0038C340.606 84.139 337.14 84.0747 335.087 85.8752C333.964 86.8397 333.29 88.3186 333.258 89.9905C333.226 91.8231 333.931 93.6557 335.183 94.8453C337.429 96.9673 341.119 97.3852 344.167 95.842C344.873 95.4883 345.547 95.0382 346.157 94.4916C347.889 101.565 346.478 109.474 342.338 115.454C342.082 115.808 342.178 116.322 342.531 116.579C342.627 116.676 342.788 116.74 342.948 116.74ZM345.611 92.7876C344.937 93.4628 344.199 94.0094 343.397 94.4273C340.991 95.6491 337.974 95.3597 336.242 93.6879C335.311 92.8198 334.798 91.4373 334.83 90.0548C334.862 88.8331 335.311 87.8042 336.113 87.1291C337.397 86.0038 339.964 85.7144 342.146 87.322C343.654 88.4473 344.777 90.2477 345.611 92.7876Z" fill="#212121"/>
<path d="M388.191 104.073C388.608 104.073 388.961 103.751 388.993 103.333C390.469 85.1678 393.036 66.9061 396.63 49.0301C396.726 48.58 396.437 48.1621 395.988 48.0978C395.539 48.0013 395.122 48.2907 395.058 48.7408C391.464 66.6489 388.897 84.9749 387.389 103.205C387.357 103.655 387.678 104.04 388.127 104.073C388.159 104.073 388.159 104.073 388.191 104.073Z" fill="#212121"/>
<path d="M324.209 76.8728C324.337 76.8728 324.466 76.8407 324.562 76.7764C324.947 76.5835 325.108 76.1012 324.915 75.6833C319.749 65.2985 313.749 55.2353 307.042 45.815C306.786 45.4614 306.272 45.3649 305.919 45.6221C305.566 45.8793 305.47 46.3937 305.727 46.7474C312.369 56.1355 318.337 66.1023 323.471 76.4227C323.632 76.7121 323.92 76.8728 324.209 76.8728Z" fill="#212121"/>
<path d="M292.282 108.702C292.475 108.702 292.699 108.638 292.86 108.477C293.181 108.156 293.181 107.641 292.86 107.352C286.731 101.275 279.608 96.4528 271.747 92.9805C271.329 92.7876 270.88 92.9805 270.688 93.3984C270.495 93.8164 270.688 94.2665 271.105 94.4594C278.806 97.8353 285.737 102.561 291.737 108.509C291.865 108.638 292.058 108.702 292.282 108.702Z" fill="#212121"/>
<path d="M464.559 121.466C464.783 121.466 465.008 121.37 465.169 121.177C472.035 113.268 480.25 106.709 489.523 101.758C489.908 101.565 490.068 101.05 489.844 100.665C489.619 100.279 489.138 100.118 488.753 100.343C479.319 105.391 470.976 112.046 463.949 120.116C463.66 120.437 463.693 120.952 464.013 121.241C464.174 121.402 464.366 121.466 464.559 121.466Z" fill="#212121"/>
<path d="M412.064 127.093C412.481 127.093 412.834 126.771 412.866 126.353C413.315 120.277 416.332 111.724 421.915 107.32C423.487 106.098 425.156 105.262 426.888 104.844C426.76 107.191 427.049 109.506 427.787 111.467C428.653 113.75 430.867 115.679 433.306 116.258C435.167 116.676 436.9 116.258 438.151 115.068C440.14 113.171 440.397 109.667 438.696 107.095C437.317 105.005 434.878 103.59 431.862 103.108C430.771 102.915 429.712 102.883 428.685 102.947C429.134 100.118 430.225 97.3208 431.83 95.0702C433.402 92.8518 436.162 90.2476 440.269 90.3762C440.718 90.3762 441.071 90.0547 441.103 89.6046C441.103 89.1545 440.782 88.8008 440.333 88.7686C436.547 88.6722 433.081 90.5691 430.546 94.1378C428.717 96.7099 427.53 99.9572 427.081 103.172C424.931 103.59 422.877 104.555 420.952 106.066C414.952 110.792 411.775 119.601 411.294 126.257C411.262 126.707 411.583 127.093 412.032 127.125C412.032 127.093 412.064 127.093 412.064 127.093ZM429.584 104.523C430.258 104.523 430.931 104.587 431.605 104.683C434.14 105.101 436.226 106.291 437.349 107.963C438.6 109.86 438.472 112.496 437.06 113.879C436.194 114.682 435.006 114.972 433.659 114.65C431.766 114.2 429.937 112.657 429.295 110.888C428.589 109.024 428.332 106.805 428.525 104.555C428.878 104.523 429.231 104.523 429.584 104.523Z" fill="#212121"/>
<path d="M444.665 77.5481C444.954 77.5481 445.242 77.3873 445.403 77.098C449.606 68.3208 456.088 60.7974 464.11 55.3961C464.463 55.1389 464.559 54.6566 464.334 54.2708C464.078 53.9171 463.596 53.8207 463.211 54.0458C454.965 59.6079 448.291 67.3562 443.959 76.3906C443.766 76.7765 443.927 77.2587 444.344 77.4516C444.44 77.5481 444.569 77.5481 444.665 77.5481Z" fill="#212121"/>
<path d="M511.855 197.278C512.08 197.278 512.304 197.182 512.465 196.989C512.753 196.667 512.721 196.153 512.4 195.864C505.79 190.044 497.319 186.7 488.56 186.411C488.11 186.411 487.757 186.733 487.725 187.183C487.725 187.633 488.046 187.987 488.495 188.019C496.87 188.308 504.988 191.523 511.31 197.085C511.47 197.214 511.662 197.278 511.855 197.278Z" fill="#212121"/>
<path d="M217.391 191.877C217.423 191.877 217.455 191.877 217.519 191.877C217.776 191.845 218 191.684 218.097 191.459L222.396 183.325C222.589 182.939 222.461 182.457 222.076 182.231C221.69 182.039 221.209 182.167 220.985 182.553L217.198 189.723C214.952 187.343 212.931 184.771 211.198 182.006C210.973 181.621 210.46 181.524 210.107 181.749C209.722 181.974 209.626 182.489 209.85 182.842C211.84 186.025 214.182 188.983 216.845 191.62C216.974 191.812 217.166 191.877 217.391 191.877Z" fill="#212121"/>
<path d="M217.776 209.689C218.803 209.689 219.862 209.11 220.568 208.113C221.145 207.309 221.434 206.345 221.723 205.541C221.851 205.123 221.627 204.673 221.209 204.544C220.792 204.416 220.343 204.641 220.215 205.059C219.99 205.798 219.733 206.602 219.284 207.181C218.963 207.631 218.418 208.081 217.776 208.081C217.551 208.081 217.263 208.017 217.006 207.888C216.364 207.567 215.819 206.988 215.241 206.377C214.503 205.605 213.765 204.769 212.674 204.384C212.257 204.223 211.808 204.448 211.647 204.866C211.487 205.284 211.712 205.734 212.129 205.895C212.867 206.184 213.444 206.827 214.086 207.502C214.728 208.21 215.402 208.917 216.332 209.367C216.781 209.56 217.295 209.689 217.776 209.689Z" fill="#212121"/>
<path d="M216.877 237.853C217.166 237.853 217.423 237.692 217.583 237.435C218.546 235.763 219.541 234.059 220.535 232.419C220.76 232.034 220.664 231.551 220.279 231.326C219.894 231.101 219.412 231.198 219.188 231.583C218.386 232.869 217.615 234.188 216.845 235.474L214.022 231.005C213.797 230.619 213.284 230.522 212.931 230.748C212.546 230.973 212.449 231.487 212.674 231.841L216.204 237.435C216.332 237.692 216.589 237.853 216.877 237.853Z" fill="#212121"/>
<path d="M216.364 269.939C216.621 269.939 216.846 269.811 217.006 269.618L221.627 263.605C221.883 263.252 221.819 262.737 221.466 262.48C221.113 262.223 220.6 262.287 220.343 262.641L216.428 267.721L213.476 262.802C213.252 262.416 212.77 262.287 212.385 262.512C212 262.737 211.872 263.22 212.097 263.605L215.626 269.553C215.755 269.778 216.011 269.939 216.268 269.939C216.332 269.939 216.332 269.939 216.364 269.939Z" fill="#212121"/>
<path d="M182.352 209.785C182.384 209.785 182.384 209.785 182.416 209.785C182.673 209.753 182.897 209.624 183.026 209.431C184.341 207.374 185.946 205.541 187.774 203.933C188.095 203.644 188.127 203.13 187.839 202.808C187.55 202.487 187.036 202.454 186.716 202.744C185.047 204.223 183.539 205.862 182.255 207.695L178.565 203.322C178.277 202.969 177.763 202.937 177.442 203.226C177.089 203.515 177.057 204.03 177.346 204.351L181.742 209.528C181.903 209.688 182.127 209.785 182.352 209.785Z" fill="#212121"/>
<path d="M181.678 239.717C181.87 239.717 182.095 239.621 182.223 239.492L188.769 233.094C189.09 232.773 189.09 232.291 188.769 231.969C188.448 231.648 187.967 231.648 187.646 231.969L181.902 237.563C181.004 235.795 179.817 234.155 178.405 232.741C178.084 232.419 177.571 232.419 177.282 232.741C176.961 233.062 176.961 233.577 177.282 233.866C178.822 235.377 180.073 237.242 180.94 239.235C181.036 239.492 181.261 239.653 181.517 239.717C181.549 239.717 181.614 239.717 181.678 239.717Z" fill="#212121"/>
<path d="M184.47 268.718C184.983 268.718 185.529 268.46 186.074 267.914C187.678 266.371 189.026 264.57 190.117 262.641C190.342 262.255 190.213 261.773 189.828 261.548C189.443 261.323 188.962 261.452 188.737 261.837C187.71 263.638 186.427 265.31 184.951 266.756C184.694 267.014 184.534 267.078 184.47 267.11C184.438 267.078 184.309 266.917 184.277 266.885L181.774 263.509C181.518 263.156 181.004 263.059 180.651 263.348C180.298 263.606 180.234 264.12 180.491 264.474L182.994 267.85C183.186 268.107 183.443 268.493 183.924 268.653C184.117 268.685 184.277 268.718 184.47 268.718Z" fill="#212121"/>
<path d="M151.195 205.637C151.355 205.637 151.548 205.573 151.676 205.477L155.527 202.422C155.88 202.133 155.944 201.651 155.655 201.297C155.366 200.943 154.885 200.879 154.532 201.168L151.259 203.74L147.922 200.011C147.633 199.689 147.12 199.657 146.799 199.947C146.478 200.236 146.446 200.75 146.735 201.072L150.553 205.38C150.746 205.541 150.97 205.637 151.195 205.637Z" fill="#212121"/>
<path d="M146.992 230.554C147.216 230.554 147.473 230.458 147.601 230.265L152.928 223.771C153.217 223.417 153.153 222.935 152.832 222.645C152.479 222.356 151.997 222.42 151.709 222.742L147.088 228.368L143.847 223.031C143.623 222.645 143.109 222.517 142.756 222.774C142.371 222.999 142.243 223.513 142.5 223.867L146.318 230.169C146.446 230.394 146.703 230.522 146.96 230.554C146.96 230.554 146.96 230.554 146.992 230.554Z" fill="#212121"/>
<path d="M147.184 254.089C148.147 254.089 149.077 253.381 149.751 252.063C150.104 251.356 150.553 250.584 151.035 250.584C151.484 250.584 151.837 250.198 151.805 249.748C151.805 249.298 151.452 248.977 151.002 248.977C151.002 248.977 151.002 248.977 150.97 248.977C149.494 249.009 148.724 250.456 148.275 251.324C147.954 251.967 147.409 252.578 147.024 252.481C146.831 252.417 146.639 252.192 146.446 251.999L142.788 248.141C142.467 247.819 141.986 247.819 141.665 248.109C141.344 248.43 141.344 248.912 141.633 249.234L145.291 253.092C145.58 253.414 145.997 253.832 146.574 253.992C146.799 254.089 146.992 254.089 147.184 254.089Z" fill="#212121"/>
<path d="M143.654 281.578H143.686C143.943 281.578 144.2 281.417 144.328 281.192C145.387 279.456 146.863 278.041 148.66 277.077C149.045 276.852 149.205 276.37 148.981 275.984C148.756 275.598 148.275 275.437 147.89 275.662C146.189 276.563 144.713 277.849 143.59 279.392C141.986 277.334 140.253 275.341 138.392 273.508C138.071 273.187 137.558 273.187 137.269 273.508C136.948 273.83 136.948 274.344 137.269 274.633C139.323 276.691 141.248 278.91 142.981 281.257C143.141 281.449 143.398 281.578 143.654 281.578Z" fill="#212121"/>
<path d="M104.829 286.24C104.861 286.24 104.861 286.24 104.893 286.24C105.471 286.208 105.888 285.822 106.113 285.629L110.252 281.771C110.573 281.482 110.605 280.967 110.284 280.646C109.995 280.324 109.482 280.292 109.161 280.613L105.022 284.472C104.99 284.504 104.893 284.568 104.829 284.632C104.797 284.6 104.701 284.536 104.605 284.375L100.498 279.456C100.209 279.102 99.6953 279.07 99.3745 279.36C99.0215 279.649 98.9894 280.163 99.2782 280.485L103.385 285.404C103.578 285.629 104.059 286.24 104.829 286.24Z" fill="#212121"/>
<path d="M185.657 292.059C185.721 292.059 185.753 292.059 185.817 292.059C186.042 292.027 186.234 291.898 186.363 291.705C187.614 289.648 189.379 287.879 191.433 286.593C191.818 286.368 191.914 285.854 191.689 285.5C191.465 285.114 190.951 285.018 190.598 285.243C188.609 286.497 186.844 288.169 185.529 290.13C184.149 289.005 182.865 287.719 181.742 286.368C181.453 286.015 180.94 285.983 180.619 286.272C180.266 286.561 180.234 287.076 180.523 287.397C181.935 289.101 183.507 290.612 185.24 291.963C185.336 291.995 185.496 292.059 185.657 292.059Z" fill="#212121"/>
<path d="M108.808 257.368C109.578 257.368 110.091 256.725 110.284 256.468L113.878 251.838C114.134 251.485 114.07 250.97 113.717 250.713C113.364 250.456 112.851 250.52 112.594 250.874L109.032 255.504C108.936 255.6 108.872 255.697 108.84 255.729C108.808 255.697 108.776 255.632 108.744 255.6L105.471 251.067C105.214 250.713 104.701 250.617 104.348 250.874C103.995 251.131 103.898 251.645 104.155 251.999L107.428 256.532C107.621 256.79 107.973 257.272 108.615 257.368C108.679 257.368 108.744 257.368 108.808 257.368Z" fill="#212121"/>
<path d="M114.006 226.053C115.065 226.053 116.092 225.507 117.182 224.349C117.311 224.221 117.407 224.092 117.535 223.996C118.145 223.353 118.723 222.71 119.429 222.485C119.846 222.356 120.07 221.906 119.942 221.488C119.814 221.07 119.364 220.845 118.947 220.973C117.856 221.327 117.054 222.163 116.38 222.903C116.284 223.031 116.156 223.128 116.059 223.256C115.225 224.124 114.487 224.51 113.845 224.446C113.043 224.349 112.498 223.513 111.888 222.581C111.278 221.681 110.637 220.62 109.514 220.105C109.129 219.912 108.647 220.073 108.455 220.491C108.262 220.877 108.423 221.359 108.84 221.552C109.514 221.874 110.027 222.645 110.54 223.449C111.278 224.574 112.081 225.828 113.621 226.021C113.749 226.021 113.878 226.053 114.006 226.053Z" fill="#212121"/>
<path d="M120.488 199.336C120.648 199.336 120.808 199.272 120.969 199.175C123.183 197.536 125.044 195.349 126.295 192.906C126.488 192.52 126.327 192.038 125.942 191.813C125.557 191.62 125.076 191.781 124.851 192.166C123.825 194.192 122.349 195.992 120.584 197.439C119.429 196.089 118.562 194.481 118.081 192.745C117.953 192.327 117.536 192.07 117.086 192.199C116.669 192.327 116.413 192.777 116.541 193.195C117.151 195.414 118.306 197.439 119.91 199.111C120.07 199.24 120.263 199.336 120.488 199.336Z" fill="#212121"/>
<path d="M102.968 177.313C103 177.313 103.032 177.313 103.064 177.313L111.985 176.187C112.434 176.123 112.723 175.737 112.69 175.287C112.626 174.837 112.241 174.548 111.792 174.58L104.059 175.576L105.31 170.914C105.567 170.754 105.728 170.464 105.695 170.143L105.631 169.5C105.599 169.114 105.278 168.825 104.893 168.793C104.508 168.76 104.155 169.018 104.059 169.371L102.198 176.316C102.134 176.573 102.198 176.862 102.358 177.055C102.519 177.216 102.743 177.313 102.968 177.313Z" fill="#212121"/>
<path d="M88.7214 160.337H88.7534C91.898 160.176 95.0105 159.662 97.9946 158.761C98.4117 158.633 98.6684 158.183 98.54 157.765C98.4117 157.347 97.9625 157.09 97.5453 157.218C95.0104 157.99 92.4114 158.472 89.7803 158.665C90.4541 156.318 91.4488 154.099 92.7964 152.042C93.0531 151.656 92.9248 151.174 92.5718 150.917C92.1868 150.659 91.7055 150.788 91.4488 151.142C89.8123 153.649 88.6572 156.414 87.9513 159.34C87.8871 159.597 87.9513 159.855 88.1117 160.047C88.24 160.24 88.4647 160.337 88.7214 160.337Z" fill="#212121"/>
<path d="M69.6934 184.514C70.4314 184.514 71.2015 184.482 71.9395 184.45C72.3887 184.418 72.7096 184.032 72.6775 183.614C72.6454 183.164 72.2924 182.842 71.8432 182.875C69.0516 183.035 66.228 182.875 63.4685 182.392L64.6236 177.923C64.7199 177.505 64.4631 177.055 64.046 176.959C63.6289 176.83 63.1797 177.12 63.0834 177.538L61.7037 182.842C61.6395 183.067 61.6716 183.293 61.7999 183.485C61.9283 183.678 62.1208 183.807 62.3133 183.839C64.7519 184.289 67.2226 184.514 69.6934 184.514Z" fill="#212121"/>
<path d="M89.6196 207.888C90.0368 207.888 90.3897 207.534 90.4218 207.116C90.4539 206.666 90.1009 206.313 89.6517 206.28L84.261 206.088C84.0364 206.088 83.9401 206.055 83.876 206.055C83.876 205.991 83.908 205.895 83.9401 205.734L85.352 200.14C85.4803 200.108 85.6087 200.011 85.6728 199.915C85.9616 199.593 85.9616 199.079 85.6408 198.789L85.3199 198.5C85.1274 198.307 84.8065 198.243 84.5498 198.307C84.2931 198.404 84.0685 198.596 84.0043 198.886L82.3678 205.316C82.2716 205.637 82.1111 206.313 82.4962 206.891C82.9454 207.631 83.8439 207.663 84.1968 207.663L89.6196 207.888Z" fill="#212121"/>
<path d="M63.0196 233.062C63.0516 233.062 63.0516 233.062 63.0837 233.062C65.8111 232.869 68.4744 232.291 71.0414 231.326C71.4585 231.165 71.6831 230.715 71.5227 230.297C71.3622 229.879 70.913 229.654 70.4959 229.815C68.4744 230.554 66.3566 231.069 64.2068 231.326L65.9074 226.503C66.1641 226.375 66.3566 226.085 66.3245 225.764L66.2924 225.185C66.2924 224.799 66.0037 224.478 65.6186 224.414C65.2336 224.349 64.8806 224.574 64.7523 224.928L62.2494 231.969C62.1532 232.226 62.2174 232.516 62.3778 232.708C62.5382 232.934 62.7629 233.062 63.0196 233.062Z" fill="#212121"/>
<path d="M40.0127 211.907C40.0448 211.907 40.0769 211.907 40.109 211.907C42.8685 211.521 45.6601 211.425 48.4196 211.585C48.8688 211.618 49.2538 211.264 49.2538 210.846C49.2859 210.396 48.9329 210.01 48.5158 210.01C46.0451 209.849 43.5423 209.914 41.0716 210.203C41.6171 208.274 42.4834 206.441 43.6707 204.802C43.9274 204.448 43.8632 203.934 43.4781 203.676C43.1252 203.419 42.6118 203.483 42.3551 203.869C40.8149 205.959 39.756 208.435 39.2105 210.975C39.1464 211.232 39.2426 211.489 39.4031 211.682C39.5956 211.811 39.7881 211.907 40.0127 211.907Z" fill="#212121"/>
<path d="M57.0191 260.423C57.5004 260.423 57.9817 260.165 58.431 259.651C59.7144 258.236 60.7092 256.532 61.2867 254.732C61.4151 254.314 61.1905 253.864 60.7733 253.735C60.3562 253.607 59.907 253.832 59.7786 254.25C59.2652 255.857 58.3989 257.336 57.2758 258.558C57.2116 258.654 57.1475 258.687 57.0833 258.719C57.0512 258.687 57.0191 258.622 56.987 258.526L53.2649 250.392C53.0724 249.974 52.5911 249.813 52.206 250.006C51.7889 250.199 51.6285 250.681 51.821 251.067L55.5431 259.201C55.6715 259.49 55.9603 260.133 56.6341 260.326C56.7624 260.423 56.8908 260.423 57.0191 260.423Z" fill="#212121"/>
<path d="M59.6825 291.931C59.8429 291.931 59.9713 291.898 60.1317 291.802C60.3563 291.641 60.5168 291.384 60.4847 291.095L60.228 282.253C60.228 281.803 59.8429 281.481 59.4258 281.481H59.3937C58.9445 281.481 58.5915 281.867 58.6236 282.317L58.8482 289.809C56.6022 288.619 54.4202 287.269 52.3988 285.725C52.0458 285.468 51.5324 285.532 51.2757 285.886C51.019 286.24 51.0832 286.754 51.4361 287.011C53.9068 288.876 56.5701 290.516 59.3296 291.866C59.4579 291.898 59.5542 291.931 59.6825 291.931Z" fill="#212121"/>
<path d="M82.689 314.597C82.9778 314.597 83.5553 314.565 83.9404 314.05C84.165 313.761 84.4217 313.15 83.7799 312.218L80.7317 307.813C80.475 307.459 79.9936 307.363 79.6086 307.62C79.2556 307.877 79.1594 308.36 79.4161 308.745L82.336 312.989L75.0843 312.861C74.6351 312.861 74.2821 313.214 74.2821 313.665C74.2821 314.115 74.6351 314.468 75.0843 314.468L82.6248 314.597C82.6248 314.597 82.6569 314.597 82.689 314.597Z" fill="#212121"/>
<path d="M107.107 323.471C107.172 323.471 107.236 323.471 107.268 323.438L114.776 321.799C115.161 321.702 115.899 321.541 116.284 320.898C116.766 320.063 116.381 319.066 115.322 318.23L109.803 313.922C109.45 313.664 108.936 313.697 108.68 314.05C108.391 314.404 108.455 314.918 108.808 315.176L114.327 319.484C114.68 319.773 114.84 319.998 114.873 320.095C114.84 320.127 114.712 320.159 114.423 320.223L106.915 321.863C106.498 321.959 106.209 322.377 106.305 322.827C106.401 323.213 106.722 323.471 107.107 323.471Z" fill="#212121"/>
<path d="M142.339 319.709C142.499 319.709 142.628 319.677 142.756 319.58L149.174 315.594C149.43 315.433 149.559 315.176 149.559 314.886C149.559 314.597 149.398 314.34 149.141 314.211L142.981 310.739C142.596 310.514 142.114 310.675 141.89 311.06C141.665 311.446 141.825 311.928 142.211 312.154L147.184 314.951L141.922 318.23C141.537 318.455 141.44 318.97 141.665 319.323C141.826 319.58 142.082 319.709 142.339 319.709Z" fill="#212121"/>
<path d="M144.232 338.26C144.425 338.26 144.617 338.196 144.745 338.067L151.323 332.312C151.548 332.119 151.644 331.798 151.58 331.508C151.516 331.219 151.291 330.994 151.003 330.93L145.066 329.354C144.649 329.258 144.2 329.483 144.072 329.933C143.943 330.351 144.2 330.801 144.649 330.93L149.109 332.119L143.655 336.878C143.334 337.167 143.302 337.681 143.59 338.003C143.783 338.164 144.007 338.26 144.232 338.26Z" fill="#212121"/>
<path d="M111.439 347.777C111.535 347.777 111.664 347.745 111.76 347.712C114.872 346.33 117.824 344.658 120.584 342.665C120.841 342.504 120.937 342.182 120.905 341.893C120.873 341.604 120.648 341.346 120.359 341.25C117.343 340.221 114.359 339.064 111.439 337.81C111.022 337.649 110.573 337.81 110.38 338.228C110.22 338.646 110.38 339.096 110.797 339.289C113.268 340.35 115.803 341.346 118.338 342.247C116.06 343.79 113.621 345.14 111.086 346.233C110.669 346.426 110.508 346.876 110.669 347.294C110.861 347.584 111.15 347.777 111.439 347.777Z" fill="#212121"/>
<path d="M76.4318 345.719C76.4639 345.719 76.4639 345.719 76.496 345.719L87.4698 345.012C87.7907 344.98 88.0474 344.787 88.1758 344.497C88.3041 344.208 88.24 343.887 88.0154 343.662L81.6941 336.717C81.4053 336.396 80.8919 336.363 80.5711 336.653C80.2502 336.942 80.2181 337.456 80.5069 337.778L85.705 343.469L76.3997 344.047C75.9505 344.08 75.6296 344.465 75.6617 344.915C75.6617 345.398 76.0147 345.719 76.4318 345.719Z" fill="#212121"/>
<path d="M53.2971 333.502C53.5217 333.502 53.7143 333.405 53.8747 333.277C54.0672 333.084 54.1635 332.762 54.0672 332.473L51.8211 324.757C51.6928 324.339 51.2436 324.081 50.8264 324.21C50.4093 324.339 50.1526 324.789 50.2809 325.207L52.1099 331.508C49.2863 330.672 46.4947 329.708 43.7994 328.615C43.3822 328.454 42.933 328.647 42.7405 329.065C42.58 329.483 42.7726 329.933 43.1897 330.126C46.3984 331.412 49.7355 332.537 53.0725 333.469C53.1688 333.502 53.2329 333.502 53.2971 333.502Z" fill="#212121"/>
<path d="M33.0819 309.774C33.1782 309.774 33.2424 309.774 33.3387 309.742C33.5633 309.678 33.7558 309.485 33.852 309.26L36.3869 302.122C36.5474 301.705 36.3228 301.254 35.9056 301.094C35.4885 300.933 35.0393 301.158 34.8788 301.576L32.6969 307.717C30.4508 306.109 28.333 304.341 26.3757 302.412C26.0549 302.09 25.5415 302.09 25.2527 302.412C24.9318 302.733 24.9318 303.248 25.2527 303.537C27.5309 305.788 30.0016 307.813 32.6327 309.614C32.7611 309.71 32.9215 309.774 33.0819 309.774Z" fill="#212121"/>
<path d="M21.7554 282.414C22.8463 282.414 23.7127 281.482 24.0656 281.128L28.5258 276.402C28.8466 276.08 28.8146 275.566 28.4937 275.276C28.1728 274.987 27.6594 274.987 27.3706 275.309L22.9105 280.035C22.365 280.613 21.9479 280.903 21.6591 280.806C21.274 280.71 21.0494 279.842 20.9853 279.552L19.1242 272.222C19.0279 271.804 18.5787 271.547 18.1616 271.643C17.7444 271.74 17.4878 272.19 17.584 272.608L19.4451 279.938C19.6055 280.549 19.9584 281.996 21.2419 282.35C21.4024 282.414 21.5628 282.414 21.7554 282.414Z" fill="#212121"/>
<path d="M23.5202 244.058C23.6165 244.058 23.6806 244.058 23.7769 244.026C26.761 243.061 29.4884 241.582 31.9271 239.653C32.28 239.364 32.3442 238.882 32.0554 238.528C31.7667 238.174 31.2853 238.11 30.9324 238.399C28.8467 240.071 26.5685 241.357 24.0657 242.257L22.0763 235.441C21.9479 235.023 21.4987 234.766 21.0815 234.895C20.6644 235.023 20.4077 235.474 20.5361 235.892L22.7501 243.511C22.8143 243.704 22.9426 243.897 23.1351 243.994C23.2635 244.026 23.3919 244.058 23.5202 244.058Z" fill="#212121"/>
<path d="M258.751 196.217C259.04 196.217 259.297 196.057 259.425 195.832C259.586 195.574 259.586 195.253 259.425 194.996L253.553 185.415C253.329 185.029 252.815 184.932 252.462 185.157C252.077 185.382 251.981 185.897 252.205 186.251L257.275 194.513L250.858 194.16C250.409 194.128 250.024 194.481 250.024 194.931C249.991 195.381 250.344 195.767 250.794 195.767L258.719 196.185C258.719 196.217 258.751 196.217 258.751 196.217Z" fill="#212121"/>
<path d="M250.601 226.439C250.826 226.439 251.018 226.343 251.179 226.214C251.371 226.021 251.468 225.732 251.371 225.442C250.633 222.71 250.12 219.912 249.799 217.083C249.735 216.633 249.35 216.312 248.901 216.376C248.451 216.44 248.131 216.826 248.195 217.276C248.451 219.687 248.901 222.131 249.478 224.51C246.719 223.706 243.991 222.677 241.392 221.424C241.007 221.231 240.526 221.391 240.333 221.809C240.141 222.195 240.301 222.677 240.718 222.87C243.831 224.349 247.072 225.539 250.377 226.407C250.441 226.407 250.537 226.439 250.601 226.439Z" fill="#212121"/>
<path d="M286.635 221.841C286.796 221.841 286.988 221.777 287.117 221.681C287.309 221.52 287.438 221.295 287.438 221.038L287.566 211.682C287.566 211.232 287.213 210.878 286.764 210.878C286.315 210.878 285.962 211.232 285.962 211.682L285.865 219.977C283.555 219.237 281.309 218.273 279.191 217.115C278.806 216.89 278.325 217.051 278.1 217.437C277.876 217.823 278.036 218.305 278.421 218.53C280.956 219.912 283.651 221.005 286.443 221.841C286.507 221.809 286.571 221.841 286.635 221.841Z" fill="#212121"/>
<path d="M296.486 258.558C296.614 258.558 296.743 258.558 296.871 258.526C297.834 258.333 298.379 257.465 298.668 256.982L301.748 251.967C301.973 251.581 301.877 251.099 301.492 250.874C301.107 250.649 300.625 250.745 300.401 251.131L297.32 256.146C297.16 256.404 296.839 256.918 296.582 256.95C296.293 257.015 295.812 256.661 295.555 256.468L287.566 250.552C287.213 250.295 286.699 250.359 286.443 250.713C286.186 251.067 286.25 251.581 286.603 251.838L294.561 257.754C294.946 258.043 295.652 258.558 296.486 258.558Z" fill="#212121"/>
<path d="M251.596 289.037C251.756 289.037 251.949 288.973 252.077 288.876C254.708 286.883 257.147 284.6 259.361 282.125C259.65 281.803 259.618 281.289 259.297 280.999C258.976 280.71 258.463 280.742 258.174 281.064C256.249 283.218 254.131 285.211 251.885 287.012L249.318 281.932C249.125 281.546 248.644 281.385 248.227 281.578C247.842 281.771 247.681 282.253 247.874 282.671L250.89 288.651C250.986 288.876 251.179 289.005 251.436 289.069C251.468 289.037 251.532 289.037 251.596 289.037Z" fill="#212121"/>
<path d="M291.577 292.734C291.769 292.734 291.962 292.67 292.122 292.541C293.791 291.095 295.17 289.391 296.326 287.494C296.55 287.108 296.422 286.626 296.037 286.401C295.652 286.175 295.17 286.304 294.946 286.69C294.079 288.137 293.021 289.487 291.833 290.677L287.469 282.51C287.245 282.125 286.764 281.964 286.378 282.189C285.993 282.414 285.833 282.896 286.058 283.282L290.935 292.348C291.063 292.574 291.256 292.702 291.512 292.766C291.48 292.734 291.545 292.734 291.577 292.734Z" fill="#212121"/>
<path d="M265.201 321.059C265.297 321.059 265.394 321.059 265.458 321.027C267.832 320.191 270.303 319.677 272.806 319.42C273.255 319.388 273.576 319.002 273.544 318.552C273.512 318.101 273.094 317.78 272.677 317.812C270.431 318.037 268.217 318.455 266.067 319.13L266.324 312.539C266.356 312.089 266.003 311.736 265.554 311.703C265.105 311.671 264.752 312.025 264.72 312.475L264.399 320.223C264.399 320.481 264.495 320.738 264.72 320.899C264.88 320.995 265.041 321.059 265.201 321.059Z" fill="#212121"/>
<path d="M196.695 344.176C197.08 344.176 197.433 343.887 197.497 343.469C197.561 343.019 197.24 342.633 196.823 342.568L188.096 341.379C187.807 341.347 187.646 341.314 187.582 341.25C187.582 341.25 187.582 341.057 187.903 340.543L188.064 340.318C191.497 335.141 191.401 335.013 191.112 334.498C190.951 334.209 190.663 334.048 190.342 334.08C189.893 334.08 189.54 334.466 189.572 334.916C189.219 335.688 187.486 338.292 186.716 339.45L186.555 339.675C185.721 340.961 185.946 341.765 186.299 342.247C186.748 342.826 187.454 342.922 187.871 342.986L196.599 344.176C196.631 344.176 196.663 344.176 196.695 344.176Z" fill="#212121"/>
<path d="M256.698 257.561C258.013 257.561 259.168 256.404 259.746 255.15C259.874 254.893 259.971 254.603 260.099 254.346C260.42 253.542 260.741 252.771 261.318 252.353C261.671 252.096 261.767 251.613 261.511 251.227C261.254 250.874 260.773 250.777 260.388 251.035C259.393 251.71 258.976 252.803 258.591 253.735C258.495 253.992 258.398 254.25 258.27 254.475C257.885 255.343 257.083 256.114 256.441 255.889C256.12 255.793 255.863 255.471 255.51 255.086L250.184 248.688C249.895 248.334 249.382 248.302 249.061 248.591C248.708 248.88 248.676 249.395 248.965 249.716L254.291 256.114C254.676 256.565 255.157 257.175 255.96 257.433C256.216 257.529 256.473 257.561 256.698 257.561Z" fill="#212121"/>
<path d="M306.914 402.851C306.914 402.851 283.49 393.334 276.142 388.866C275.404 360.894 275.853 333.019 275.853 303.987C287.405 309.035 308.197 317.941 308.197 317.941C307.588 346.298 307.556 374.462 306.914 402.851Z" fill="white"/>
<path d="M306.914 403.655C307.074 403.655 307.235 403.623 307.363 403.526C307.588 403.365 307.716 403.14 307.716 402.883C308.037 388.673 308.197 374.301 308.358 360.412C308.518 346.523 308.679 332.151 309 317.973C309 317.651 308.807 317.33 308.518 317.201C308.326 317.105 287.597 308.263 276.206 303.247C275.95 303.151 275.661 303.151 275.436 303.312C275.212 303.473 275.083 303.698 275.083 303.987C275.083 312.121 275.051 320.223 275.019 328.1C274.923 348.998 274.827 368.739 275.372 388.898C275.372 389.187 275.533 389.412 275.757 389.573C283.105 394.01 305.695 403.237 306.657 403.623C306.721 403.623 306.818 403.655 306.914 403.655ZM307.395 318.455C307.106 332.473 306.946 346.651 306.753 360.38C306.593 373.883 306.433 387.869 306.144 401.662C301.555 399.765 283.586 392.306 276.944 388.415C276.431 368.417 276.495 348.837 276.591 328.1C276.623 320.641 276.656 312.925 276.656 305.209C287.244 309.838 304.283 317.137 307.395 318.455Z" fill="#212121"/>
<path d="M306.914 402.851C332.455 403.462 358.927 403.237 384.469 403.848C385.56 375.555 385.72 347.776 385.72 318.969C359.954 318.326 333.996 318.583 308.197 317.94C307.588 346.298 307.556 374.462 306.914 402.851Z" fill="white"/>
<path d="M384.469 404.652C384.886 404.652 385.239 404.298 385.271 403.88C386.426 374.172 386.522 344.465 386.522 318.969C386.522 318.519 386.17 318.166 385.752 318.166C372.853 317.844 359.698 317.748 346.991 317.651C334.284 317.555 321.129 317.458 308.262 317.137C308.037 317.137 307.845 317.201 307.684 317.362C307.524 317.523 307.427 317.715 307.427 317.94C307.107 332.119 306.946 346.491 306.786 360.38C306.625 374.269 306.465 388.64 306.144 402.851C306.144 403.301 306.497 403.655 306.914 403.687C319.685 403.976 332.905 404.073 345.707 404.169C358.478 404.234 371.698 404.362 384.469 404.652ZM384.918 319.741C384.918 344.819 384.822 373.883 383.699 403.012C371.185 402.723 358.222 402.626 345.707 402.53C333.193 402.433 320.262 402.337 307.748 402.047C308.037 388.126 308.197 374.012 308.358 360.38C308.518 346.748 308.679 332.666 308.968 318.744C321.61 319.034 334.477 319.13 346.927 319.227C359.409 319.355 372.276 319.452 384.918 319.741Z" fill="#212121"/>
<path d="M385.72 318.969C374.843 314.468 363.997 309.967 353.12 305.434C353.44 305.337 295.94 304.437 275.854 303.987C283.587 307.749 300.464 314.179 308.197 317.941L385.72 318.969Z" fill="white"/>
<path d="M385.72 319.774C386.105 319.774 386.426 319.516 386.49 319.131C386.554 318.745 386.362 318.359 386.009 318.23L353.408 304.695C353.184 304.631 352.863 304.598 352.478 304.598C352.061 304.598 351.419 304.566 350.617 304.566C349.012 304.534 346.734 304.47 343.878 304.438C338.231 304.341 330.498 304.213 322.123 304.052C305.117 303.763 285.865 303.409 275.821 303.184C275.821 303.184 275.821 303.184 275.789 303.184C275.404 303.184 275.083 303.441 275.019 303.795C274.923 304.148 275.115 304.534 275.436 304.695C279.319 306.592 285.576 309.164 291.64 311.672C297.673 314.179 303.93 316.752 307.78 318.616C307.877 318.681 308.005 318.681 308.133 318.713L385.72 319.774ZM352.927 306.238L381.549 318.102L308.39 317.137C304.475 315.24 298.314 312.701 292.346 310.225C287.886 308.392 283.33 306.495 279.704 304.888C290.325 305.113 307.139 305.402 322.155 305.659C337.236 305.917 351.483 306.174 352.927 306.238Z" fill="#212121"/>
<path d="M305.406 303.891C316.861 308.938 327.322 313.279 339.772 317.555C338.873 346.137 339.162 375.812 338.264 404.394C342.916 404.523 348.596 404.394 353.248 404.523C353.794 376.616 353.473 347.23 354.436 317.908C342.531 313.439 332.616 308.745 320.712 304.276C320.744 304.309 310.797 303.987 305.406 303.891Z" fill="#FFBD00"/>
<path d="M353.28 405.359C353.473 405.359 353.697 405.295 353.826 405.134C353.986 404.973 354.082 404.78 354.082 404.555C354.307 393.077 354.371 381.632 354.467 369.511C354.596 352.664 354.692 335.206 355.27 317.973C355.27 317.619 355.077 317.33 354.756 317.201C348.82 314.983 343.269 312.636 337.91 310.385C332.552 308.135 326.969 305.788 321.032 303.569C320.936 303.537 320.872 303.537 320.776 303.505C320.68 303.505 310.765 303.183 305.438 303.087C305.053 303.087 304.732 303.344 304.636 303.73C304.54 304.116 304.732 304.469 305.085 304.63C314.775 308.906 325.589 313.504 338.969 318.134C338.552 332.248 338.392 346.844 338.231 360.991C338.071 375.298 337.91 390.12 337.493 404.395C337.493 404.62 337.557 404.813 337.718 404.973C337.878 405.134 338.071 405.23 338.295 405.23C340.638 405.295 343.269 405.295 345.804 405.295C348.339 405.295 350.938 405.295 353.28 405.359ZM353.633 318.487C353.088 335.559 352.959 352.824 352.863 369.511C352.799 381.342 352.703 392.563 352.478 403.752C350.36 403.719 348.018 403.719 345.772 403.719C343.526 403.719 341.215 403.719 339.098 403.687C339.515 389.637 339.675 375.105 339.836 361.055C339.996 346.748 340.156 331.926 340.574 317.651C340.574 317.298 340.349 316.976 340.028 316.88C328.124 312.796 318.273 308.713 309.417 304.855C314.166 304.984 319.653 305.145 320.551 305.177C326.423 307.395 331.942 309.71 337.269 311.928C342.499 314.05 347.889 316.301 353.633 318.487Z" fill="#212121"/>
<path d="M324.37 340.993C326.423 340.993 328.445 340.896 330.466 340.703C330.915 340.671 331.236 340.253 331.172 339.835C331.14 339.385 330.723 339.064 330.306 339.128C325.3 339.61 320.038 339.482 315.128 338.71C314.679 338.646 314.294 338.935 314.198 339.385C314.134 339.835 314.422 340.221 314.872 340.318C317.952 340.736 321.161 340.993 324.37 340.993Z" fill="#212121"/>
<path d="M326.07 347.391C326.647 347.391 327.257 347.391 327.835 347.359C328.284 347.359 328.637 346.973 328.637 346.555C328.637 346.105 328.284 345.751 327.835 345.751C324.658 345.816 321.513 345.719 318.433 345.43C317.984 345.398 317.599 345.719 317.567 346.169C317.534 346.619 317.855 347.005 318.305 347.037C320.839 347.294 323.439 347.391 326.07 347.391Z" fill="#212121"/>
<path d="M331.044 353.821C331.493 353.821 331.846 353.467 331.846 353.017C331.846 352.567 331.493 352.214 331.076 352.214L313.331 351.86C312.882 351.86 312.529 352.214 312.529 352.631C312.529 353.082 312.882 353.435 313.299 353.435L331.044 353.821Z" fill="#212121"/>
</g>
<defs>
<clipPath id="clip0">
<rect width="515" height="426" fill="white" transform="matrix(-1 0 0 1 515 0)"/>
</clipPath>
</defs>
</svg>
