<?xml version="1.0" encoding="UTF-8" ?>
<!DOCTYPE svg PUBLIC "-//W3C//DTD SVG 1.1//EN" "http://www.w3.org/Graphics/SVG/1.1/DTD/svg11.dtd">
<svg width="1767pt" height="1767pt" viewBox="0 0 1767 1767" version="1.1" xmlns="http://www.w3.org/2000/svg">
<path fill="#e2e2e2" opacity="1.00" d=" M 850.42 34.49 C 997.47 29.03 1145.80 62.41 1276.08 130.88 C 1383.30 186.82 1478.22 266.10 1552.48 361.53 C 1631.65 462.89 1687.19 582.53 1713.68 708.38 C 1744.48 853.33 1736.32 1006.30 1690.25 1147.14 C 1650.25 1270.41 1581.52 1384.24 1490.99 1476.98 C 1405.28 1565.21 1300.06 1634.37 1185.10 1678.12 C 1045.55 1731.60 891.73 1747.24 744.28 1722.77 C 610.99 1701.05 483.15 1646.83 374.85 1566.15 C 281.30 1496.68 202.29 1407.72 144.46 1306.55 C 71.84 1180.16 32.66 1034.78 32.02 889.00 C 31.00 749.24 65.37 609.39 130.95 485.97 C 189.54 375.11 273.15 277.61 373.71 202.70 C 510.70 100.03 679.37 40.71 850.42 34.49 M 596.46 529.45 C 578.01 553.63 556.03 575.94 530.85 592.79 C 525.98 602.29 530.05 613.50 530.45 623.59 C 542.71 641.55 558.32 657.22 575.66 670.33 C 593.01 689.28 610.85 707.84 629.89 725.11 C 635.84 730.66 638.24 739.30 645.32 743.73 C 664.66 756.39 677.57 776.16 694.89 791.14 C 702.14 797.39 705.55 806.91 713.08 812.90 C 732.59 828.96 750.23 847.13 769.33 863.66 C 773.94 867.35 772.51 873.89 772.72 879.05 C 771.68 886.54 774.49 895.66 768.67 901.65 C 713.05 958.04 658.18 1015.16 601.20 1070.21 C 584.78 1090.66 565.16 1108.17 546.01 1125.99 C 539.53 1131.77 529.27 1134.40 526.17 1143.23 C 526.51 1154.52 529.12 1166.53 536.64 1175.35 C 552.38 1195.48 572.68 1211.32 589.86 1230.12 C 597.24 1241.99 614.37 1240.16 625.90 1236.91 C 638.10 1227.99 652.83 1220.99 659.80 1206.80 C 693.86 1164.47 735.91 1129.53 772.72 1089.72 C 804.16 1059.17 835.54 1028.53 865.47 996.48 C 872.88 988.89 883.73 994.78 892.62 995.28 C 902.49 995.33 907.42 1005.25 913.86 1011.14 C 956.01 1050.30 994.65 1093.05 1036.54 1132.47 C 1050.27 1151.11 1071.35 1162.31 1085.23 1180.79 C 1102.25 1200.37 1122.68 1216.68 1139.94 1236.05 C 1149.11 1242.09 1160.53 1235.75 1170.68 1237.56 C 1189.14 1211.67 1215.24 1192.74 1237.40 1170.41 C 1239.38 1161.45 1242.02 1151.65 1240.42 1142.61 C 1217.20 1119.85 1192.99 1097.99 1171.09 1073.90 C 1113.39 1018.94 1059.25 960.38 1001.43 905.55 C 993.71 895.65 989.53 881.42 992.29 869.21 C 1032.90 831.51 1071.95 792.31 1110.67 752.66 C 1141.41 724.09 1168.46 691.64 1199.41 663.41 C 1213.43 657.16 1222.81 645.52 1231.03 633.03 C 1243.17 625.08 1237.43 609.28 1237.52 597.33 C 1216.09 578.95 1199.02 555.30 1177.83 536.18 C 1168.82 524.01 1152.19 529.40 1139.91 530.98 C 1118.26 560.12 1087.54 580.61 1063.99 608.01 C 1057.63 614.64 1049.95 619.92 1043.99 626.96 C 1029.97 645.52 1010.18 658.52 995.20 676.19 C 964.33 707.31 933.00 738.02 900.96 767.94 C 891.65 777.11 877.75 770.72 866.38 771.59 C 852.97 757.77 842.97 740.40 827.11 728.89 C 817.70 722.38 811.12 712.89 803.08 704.93 C 772.56 675.45 741.99 646.01 712.29 615.71 C 683.50 589.83 659.23 559.44 631.05 532.93 C 621.38 524.31 607.90 530.75 596.46 529.45 Z" />
</svg>
