<svg width="19" height="18" viewBox="0 0 19 18" fill="none" xmlns="http://www.w3.org/2000/svg">
<path d="M-0.450133 0.00301582C-0.239817 0.00301582 -0.0266187 0.00301582 0.183698 0.00301582C1.05666 0.00860068 1.7654 0.659236 1.8259 1.50813C1.83742 1.68964 1.872 1.86836 1.88928 2.04987C1.89792 2.13922 1.9469 2.15318 2.02757 2.1476C2.64412 2.09454 3.26066 2.04149 3.87721 1.98843C4.95184 1.89628 6.02936 1.80413 7.10399 1.71477C7.9683 1.64217 8.8355 1.56398 9.69982 1.49138C10.7572 1.40202 11.8145 1.31546 12.869 1.2261C13.9004 1.13953 14.9347 1.05018 15.9661 0.963611C16.6921 0.902177 17.4182 0.829574 18.1471 0.773726C18.6196 0.737424 19.0805 1.12836 18.9855 1.74549C18.8961 2.34307 18.8212 2.94344 18.7434 3.54381C18.6311 4.40667 18.5245 5.26953 18.415 6.13239C18.3026 7.00922 18.196 7.88604 18.0808 8.76286C18.0376 9.0784 18.0174 9.40791 17.9079 9.70391C17.6659 10.3545 17.1416 10.6813 16.4386 10.7399C15.459 10.8237 14.4766 10.9019 13.497 10.9828C12.4167 11.0722 11.3363 11.1643 10.2559 11.2565C9.41459 11.3291 8.57333 11.4017 7.73206 11.4743C6.66607 11.5637 5.60008 11.653 4.53409 11.7452C4.17972 11.7759 3.82535 11.8066 3.47386 11.8373C3.24338 11.8569 3.0417 11.7954 2.85155 11.667C2.72767 11.5832 2.58073 11.5274 2.45109 11.4464C1.76828 11.0275 1.41391 10.4132 1.31019 9.64527C1.10564 8.12898 0.895318 6.61269 0.687883 5.09361C0.532306 3.95988 0.376729 2.82616 0.224033 1.69243C0.209628 1.59191 0.166412 1.56119 0.0655749 1.56119C-0.35794 1.56398 -0.778574 1.56678 -1.20209 1.56119C-1.59391 1.55281 -1.90507 1.29312 -1.98573 0.918932C-2.05488 0.586633 -1.86761 0.22641 -1.53341 0.0812038C-1.42681 0.0365249 -1.30293 0.0113931 -1.18768 0.00580825C-0.942794 -0.00536146 -0.695023 0.00301582 -0.450133 0.00301582ZM3.955 10.2261C4.18548 10.2065 4.49952 10.1842 4.81643 10.1563C5.88242 10.0641 6.94841 9.97198 8.0144 9.88262C9.05158 9.79606 10.0888 9.70949 11.1288 9.62293C12.4195 9.51402 13.7102 9.40232 15.001 9.29342C15.4014 9.25991 15.8048 9.2264 16.2052 9.1901C16.332 9.17893 16.4184 9.1538 16.4357 8.99184C16.5452 8.048 16.6691 7.10695 16.7901 6.1659C16.9457 4.95678 17.0984 3.74766 17.2539 2.53854C17.2655 2.4408 17.2395 2.41567 17.1416 2.42405C16.2196 2.50503 15.2948 2.58043 14.3729 2.65861C13.1023 2.76752 11.8289 2.87642 10.5584 2.98533C9.13801 3.1054 7.71765 3.22268 6.29729 3.34276C5.00082 3.45166 3.70723 3.56336 2.41075 3.67506C2.10248 3.70298 2.10824 3.64155 2.15722 3.99339C2.2667 4.77807 2.37618 5.55995 2.48566 6.34462C2.61243 7.26612 2.73631 8.19041 2.86308 9.11191C2.89189 9.31297 2.90917 9.5224 2.96968 9.71508C3.08492 10.0725 3.39607 10.2373 3.955 10.2261Z" fill="white"/>
<path d="M13.4333 12.5273C14.943 12.5246 16.251 13.7784 16.2539 15.236C16.2597 16.7327 14.9689 17.9949 13.4276 17.9977C11.915 18.0005 10.6157 16.7439 10.6128 15.2723C10.6099 13.7811 11.8949 12.5301 13.4333 12.5273ZM12.2175 15.2583C12.2147 15.8866 12.7765 16.4395 13.4247 16.4423C14.0701 16.4451 14.6434 15.895 14.6492 15.2695C14.652 14.644 14.0845 14.0883 13.4391 14.0883C12.7851 14.0855 12.2233 14.6273 12.2175 15.2583Z" fill="white"/>
<path d="M2.94047 15.25C2.94912 13.7616 4.23983 12.519 5.76967 12.5274C7.29951 12.5358 8.5931 13.7979 8.58157 15.2723C8.57005 16.7523 7.26782 18.0033 5.74662 17.9978C4.21966 17.9922 2.93183 16.73 2.94047 15.25ZM5.76679 14.0884C5.11567 14.0856 4.55098 14.6273 4.54522 15.2556C4.53946 15.8839 5.10414 16.4368 5.7495 16.4396C6.39486 16.4424 6.96819 15.8951 6.97395 15.2696C6.97683 14.644 6.40926 14.0884 5.76679 14.0884Z" fill="white"/>
</svg>
