<svg width="391" height="368" viewBox="0 0 391 368" fill="none" xmlns="http://www.w3.org/2000/svg">
<path d="M65.547 166.391C65.913 171.856 69.1382 177.001 73.8274 179.813C78.5165 182.626 84.5095 183.083 89.6332 181.117C95.6948 178.784 100.338 173.022 101.116 166.574C101.894 160.126 98.6455 153.334 93.0414 150.065C81.2156 143.136 64.6321 152.534 65.547 166.391Z" fill="#FEC729"/>
<path d="M83.1143 182.9C79.7518 182.9 76.3894 182.031 73.553 180.316C68.658 177.366 65.3642 172.061 64.9982 166.436C64.5636 159.942 67.8574 153.883 73.8046 150.201C80.0034 146.383 87.4832 146.131 93.3389 149.584C99.0574 152.945 102.488 159.965 101.688 166.665C100.91 173.228 96.1524 179.241 89.8621 181.665C87.7119 182.488 85.4017 182.9 83.1143 182.9ZM84.2809 148.304C80.9184 148.304 77.4873 149.264 74.3765 151.185C68.7952 154.637 65.7073 160.308 66.119 166.368C66.4621 171.604 69.5272 176.589 74.1249 179.333C78.6081 182.031 84.4639 182.511 89.4275 180.59C95.3289 178.327 99.7894 172.656 100.544 166.528C101.299 160.263 98.0967 153.7 92.7442 150.567C90.1823 149.058 87.2545 148.304 84.2809 148.304Z" fill="#212121"/>
<path d="M158.415 245.758C147.801 214.66 136.73 182.762 115.389 157.746C112.621 154.499 109.167 151.161 104.913 151.23C100.086 151.298 96.541 155.666 93.9334 159.736C82.8396 176.84 74.6965 195.658 66.5991 214.386C63.9 220.628 61.3381 226.573 59.1422 233.021L8.61377 314.196C58.9363 314.036 64.9064 329.973 113.491 331.62C124.31 331.986 135.129 330.797 145.857 329.379C156.516 327.961 167.13 326.086 177.743 324.326C195.768 321.33 213.587 315.979 231.909 315.271L158.415 245.758Z" fill="white"/>
<path d="M82.5194 181.802C84.9669 179.973 88.032 179.813 91.0285 180.339C93.8191 180.819 95.649 181.962 97.2959 184.226C98.5769 185.964 99.2631 188.045 100.407 189.874C101.688 191.909 104.478 192.549 106.789 191.109C109.007 189.737 110.174 187.45 112.095 185.735C116.693 181.642 118.592 181.528 124.928 181.39C127.535 181.322 132.156 183.906 133.848 185.186C128.862 176.2 122.068 165.636 115.343 157.77C112.576 154.523 109.122 151.184 104.867 151.253C100.041 151.322 96.4953 155.689 93.8877 159.759C88.947 167.396 84.5781 175.377 80.5522 183.54C81.1927 182.9 81.8332 182.328 82.5194 181.802Z" fill="white"/>
<path d="M158.415 246.33C158.186 246.33 157.958 246.17 157.866 245.942C152.925 231.467 147.321 215.072 140.391 199.706C132.819 182.923 124.493 169.317 114.932 158.136C112.256 155.003 108.985 151.825 105.005 151.825C104.959 151.825 104.936 151.825 104.89 151.825C100.247 151.894 96.8386 156.261 94.3683 160.057C83.2744 177.183 75.0398 196.208 67.0797 214.615V214.638C64.3806 220.88 61.8187 226.78 59.6686 233.205C59.5771 233.502 59.234 233.663 58.9366 233.571C58.6392 233.48 58.4791 233.137 58.5706 232.839C60.7436 226.368 63.3055 220.446 66.0275 214.181V214.158C74.0105 195.705 82.2451 176.635 93.3847 159.439C95.9923 155.392 99.675 150.75 104.845 150.682C104.89 150.682 104.936 150.682 104.982 150.682C109.442 150.682 112.942 154.066 115.778 157.404C125.408 168.677 133.78 182.351 141.397 199.249C148.351 214.661 153.955 231.102 158.918 245.599C159.01 245.896 158.85 246.216 158.552 246.33C158.53 246.307 158.484 246.33 158.415 246.33Z" fill="#212121"/>
<path d="M142.174 254.882C146.475 245.759 149.471 238.259 154.297 228.906C159.01 219.806 166.535 201.467 179.71 208.99C188.082 213.769 193.549 223.784 198.627 231.605C209.286 248.022 216.537 266.384 223.056 284.768C224.497 288.838 231.909 314.608 231.909 314.608L142.174 254.882Z" fill="white"/>
<path d="M160.84 236.887C162.83 236.727 164.797 236.407 166.581 235.561C168.708 234.532 169.966 231.65 172.345 231.262C174.678 230.873 176.508 232.497 178.064 234.051C179.688 235.652 182.113 235.629 184.24 234.852C186.298 234.097 188.151 232.84 190.21 232.062C192.474 231.216 193.641 231.742 195.997 232.222C196.523 232.336 199.68 233.891 200.183 234.051C195.013 226.163 188.243 213.884 179.711 209.013C166.535 201.49 159.01 219.806 154.298 228.929C153.932 229.638 153.589 230.324 153.246 230.987C154.801 234.006 157.088 237.184 160.84 236.887Z" fill="white"/>
<path d="M231.909 315.66C231.657 315.66 231.428 315.5 231.36 315.249C231.291 314.997 223.948 288.975 222.53 284.974C216.217 267.207 208.897 248.48 198.147 231.925C197.438 230.85 196.751 229.752 196.019 228.586C191.559 221.544 186.504 213.54 179.413 209.493C176.462 207.801 173.717 207.367 171.018 208.19C164.27 210.225 159.558 219.691 156.104 226.597C155.647 227.512 155.212 228.381 154.801 229.181C151.735 235.126 149.448 240.248 147.001 245.644C145.651 248.663 144.233 251.795 142.677 255.134C142.54 255.408 142.197 255.545 141.923 255.408C141.648 255.271 141.511 254.928 141.648 254.654C143.204 251.338 144.622 248.205 145.971 245.187C148.419 239.745 150.706 234.623 153.794 228.655C154.206 227.855 154.64 227.009 155.098 226.094C158.643 219.005 163.493 209.287 170.698 207.115C173.672 206.223 176.782 206.681 179.985 208.51C187.327 212.717 192.451 220.835 197.003 227.992C197.735 229.158 198.421 230.233 199.107 231.307C209.927 247.954 217.269 266.75 223.605 284.585C225.046 288.61 232.16 313.854 232.457 314.928C232.549 315.226 232.366 315.546 232.069 315.637C232.023 315.66 231.977 315.66 231.909 315.66Z" fill="#212121"/>
<path d="M8.61377 314.197C18.6783 289.342 28.9487 254.882 42.9704 234.555C45.6009 230.736 48.3686 226.986 51.7311 224.105C55.0935 221.224 59.1422 219.28 63.2138 219.532C67.8114 219.806 72.0202 222.824 75.0853 226.872C78.1504 230.896 80.2091 235.881 82.039 240.888C85.5616 250.561 88.3751 260.622 90.4337 270.934L8.61377 314.197Z" fill="white"/>
<path d="M47.9799 248.297C50.0843 248.892 55.3682 247.703 58.2961 244.753C60.8808 242.146 65.7301 239.22 69.6644 238.991C74.0333 238.716 75.7489 242.306 77.5102 245.188C78.9055 247.451 82.0163 247.611 84.3037 247.451C83.5946 245.233 82.8398 243.038 82.0392 240.889C80.2093 235.881 78.1506 230.919 75.0855 226.872C72.0204 222.847 67.8345 219.806 63.214 219.532C59.1424 219.303 55.0937 221.247 51.7313 224.105C48.3688 226.986 45.6011 230.736 42.9706 234.555C41.8726 236.155 40.706 238.03 39.5166 240.111C40.7518 243.93 44.2058 247.223 47.9799 248.297Z" fill="white"/>
<path d="M8.61397 314.768C8.54535 314.768 8.47673 314.768 8.43098 314.745C8.13362 314.63 7.9735 314.31 8.08787 314.013C16.2996 290.941 31.6937 249.897 42.4902 234.233C44.9148 230.712 47.797 226.71 51.3653 223.692C55.1852 220.422 59.4169 218.753 63.2597 218.982C67.6744 219.233 72.0433 221.909 75.543 226.527C78.6996 230.666 80.7811 235.788 82.5653 240.682C86.1107 250.354 88.9242 260.506 90.9829 270.819C91.0515 271.139 90.8456 271.436 90.5254 271.482C90.2052 271.551 89.9078 271.345 89.8621 271.025C87.8263 260.758 85.0128 250.674 81.4902 241.047C79.7289 236.223 77.6703 231.215 74.628 227.191C71.3342 222.846 67.2626 220.308 63.1911 220.079C59.6456 219.873 55.7113 221.451 52.0973 224.515C48.6433 227.465 45.8069 231.398 43.428 234.851C32.7002 250.4 17.3289 291.353 9.14007 314.356C9.07145 314.63 8.84271 314.768 8.61397 314.768Z" fill="#212121"/>
<path d="M49.8328 248.96C48.0029 248.96 46.173 248.434 44.5261 247.405C41.9185 245.781 40.0428 243.106 39.3795 240.042C39.3108 239.745 39.5167 239.425 39.8141 239.356C40.1114 239.287 40.4317 239.493 40.5003 239.791C41.095 242.534 42.7877 244.958 45.1437 246.422C47.2023 247.702 49.5583 248.114 51.8 247.588C54.5906 246.902 56.9009 245.073 59.3255 243.129C60.1718 242.443 61.0639 241.757 61.956 241.117C63.3056 240.156 65.41 238.922 67.8575 238.419C70.1906 237.961 72.295 238.327 73.9419 239.539C75.1771 240.431 76.0235 241.711 76.8698 242.946C77.3044 243.586 77.7619 244.272 78.2651 244.867C79.5689 246.422 81.7648 247.519 83.2516 246.49C83.5032 246.307 83.8692 246.376 84.0522 246.627C84.2352 246.879 84.1666 247.245 83.915 247.428C81.8334 248.845 79.0657 247.588 77.3959 245.598C76.8698 244.958 76.3894 244.272 75.932 243.586C75.1085 242.374 74.3537 241.254 73.2786 240.477C70.2135 238.236 65.7759 239.836 62.6422 242.054C61.773 242.672 60.9038 243.38 60.0575 244.044C57.6328 245.987 55.1167 247.977 52.0974 248.708C51.3196 248.868 50.5877 248.96 49.8328 248.96Z" fill="#212121"/>
<path d="M161.388 237.504C160.176 237.504 158.987 237.298 157.912 236.886C155.487 235.949 153.977 234.28 152.879 231.353C152.765 231.056 152.925 230.735 153.222 230.621C153.52 230.507 153.84 230.667 153.954 230.964C154.938 233.594 156.219 235.011 158.323 235.834C160.679 236.749 163.653 236.52 165.757 235.24C166.535 234.76 167.198 234.165 167.885 233.525C168.365 233.091 168.868 232.633 169.394 232.222C170.195 231.604 172.322 230.255 174.61 230.827C175.982 231.17 176.897 232.062 177.789 232.931C178.59 233.708 179.344 234.44 180.374 234.737C182.204 235.24 183.942 234.257 185.772 233.182C186.458 232.793 187.19 232.382 187.899 232.039C192.2 230.095 198.467 231.376 201.075 234.714C201.258 234.966 201.235 235.331 200.983 235.514C200.732 235.697 200.366 235.674 200.183 235.423C197.918 232.496 192.177 231.376 188.38 233.068C187.716 233.365 187.007 233.777 186.344 234.142C184.377 235.263 182.364 236.429 180.054 235.789C178.75 235.423 177.835 234.554 176.988 233.708C176.165 232.908 175.387 232.153 174.335 231.902C172.528 231.467 170.767 232.588 170.081 233.113C169.577 233.502 169.12 233.914 168.639 234.348C167.93 234.988 167.221 235.652 166.329 236.177C164.934 237.046 163.15 237.504 161.388 237.504Z" fill="#212121"/>
<path d="M104.112 192.366C102.786 192.366 101.505 191.771 100.315 190.582C99.2174 189.485 98.5541 188.136 97.9136 186.809C97.2731 185.506 96.6784 184.271 95.6948 183.311C93.659 181.322 90.3423 180.315 87.2772 180.727C83.503 181.253 81.147 183.082 79.6373 186.695C79.523 186.992 79.1799 187.13 78.8825 186.992C78.5851 186.878 78.4479 186.535 78.5851 186.238C80.2549 182.282 82.9769 180.155 87.1171 179.584C90.5711 179.104 94.1623 180.201 96.4954 182.465C97.6162 183.562 98.2796 184.934 98.9429 186.283C99.5605 187.587 100.155 188.799 101.116 189.736C102.122 190.742 103.129 191.2 104.181 191.177C106.514 191.131 108.893 188.593 110.975 186.352C112.37 184.866 113.697 183.448 114.978 182.739C117.951 181.116 121.451 180.476 124.882 180.887C129.525 181.459 133.025 182.328 136.044 188.273C136.182 188.547 136.067 188.89 135.793 189.05C135.518 189.187 135.175 189.073 135.015 188.799C132.247 183.334 129.297 182.602 124.745 182.03C121.565 181.642 118.294 182.236 115.549 183.745C114.429 184.363 113.17 185.712 111.844 187.13C109.602 189.53 107.063 192.252 104.227 192.32C104.181 192.366 104.135 192.366 104.112 192.366Z" fill="#212121"/>
<path d="M55.2991 166.596C55.0475 166.596 54.8187 166.436 54.7501 166.184C53.1032 160.582 53.7437 154.431 56.4885 149.263C59.2334 144.119 63.9912 140.14 69.5495 138.379C69.8469 138.288 70.1671 138.448 70.2586 138.745C70.3501 139.042 70.19 139.362 69.8926 139.454C64.6088 141.123 60.1026 144.896 57.495 149.789C54.8874 154.683 54.2926 160.536 55.8481 165.841C55.9396 166.139 55.7566 166.459 55.4592 166.55C55.3906 166.596 55.3448 166.596 55.2991 166.596Z" fill="#212121"/>
<path d="M43.9995 190.56C43.8165 190.56 43.6335 190.469 43.5191 190.286C37.2745 180.339 37.3203 167.008 43.5877 157.084C43.7479 156.81 44.1138 156.741 44.3655 156.901C44.6399 157.062 44.7086 157.427 44.5485 157.679C41.5977 162.344 40.0423 167.854 40.0194 173.662C40.0194 179.447 41.552 184.981 44.4798 189.668C44.6399 189.943 44.5713 190.286 44.2968 190.446C44.2053 190.515 44.091 190.56 43.9995 190.56Z" fill="#212121"/>
<path d="M41.7579 141.627C41.735 141.627 41.7121 141.627 41.6892 141.627C41.369 141.604 41.1403 141.307 41.186 141.009C41.9637 133.258 47.7279 126.261 55.2077 124.02C55.5051 123.928 55.8253 124.111 55.9168 124.408C56.0083 124.706 55.8253 125.026 55.5279 125.117C48.4828 127.244 43.0617 133.829 42.3297 141.124C42.284 141.398 42.0552 141.627 41.7579 141.627Z" fill="#212121"/>
<path d="M97.7076 126.078C97.5704 126.078 97.4331 126.032 97.3188 125.918C93.8419 122.671 89.3129 120.659 84.578 120.247C79.8202 119.858 75.0396 121.093 71.0824 123.746C70.8308 123.929 70.4648 123.86 70.2818 123.586C70.0988 123.334 70.1674 122.968 70.4419 122.785C74.6279 119.996 79.683 118.692 84.6695 119.104C89.6789 119.515 94.4367 121.642 98.1194 125.072C98.3481 125.278 98.371 125.643 98.1422 125.872C98.005 126.009 97.8449 126.078 97.7076 126.078Z" fill="#212121"/>
<path d="M25.1286 174.439C24.8998 174.439 24.6711 174.302 24.6025 174.073C20.6682 163.486 20.3937 151.71 23.8248 140.849C27.2558 130.01 34.4611 120.041 44.0682 112.769C44.3198 112.587 44.6858 112.632 44.8687 112.884C45.0517 113.135 45.006 113.501 44.7544 113.684C35.3303 120.818 28.2852 130.605 24.9227 141.192C21.5602 151.779 21.8119 163.326 25.6775 173.662C25.7919 173.959 25.6318 174.279 25.3344 174.393C25.2658 174.439 25.1972 174.439 25.1286 174.439Z" fill="#212121"/>
<path d="M115.115 331.85C106.56 331.85 97.8677 331.164 88.8783 329.449C80.415 327.848 71.7458 325.493 63.351 323.229C42.8103 317.696 21.5833 311.956 0.676541 315.912C0.356306 315.981 0.0589456 315.775 0.0131978 315.455C-0.0554239 315.135 0.150441 314.837 0.470676 314.792C21.629 310.79 42.9933 316.552 63.6484 322.132C72.0202 324.395 80.6894 326.728 89.107 328.328C114.52 333.176 137.531 329.677 161.892 325.996C166.65 325.264 171.59 324.533 176.577 323.847C184.606 322.749 192.108 321.171 199.382 319.639C214.41 316.484 228.592 313.511 245.199 314.975C245.519 314.997 245.748 315.272 245.725 315.592C245.702 315.912 245.404 316.141 245.107 316.118C228.684 314.677 214.57 317.65 199.634 320.76C192.337 322.292 184.811 323.87 176.737 324.967C171.773 325.653 166.833 326.408 162.075 327.116C146.177 329.54 130.898 331.85 115.115 331.85Z" fill="#212121"/>
<path d="M191.628 368C191.468 368 191.285 367.931 191.193 367.794C190.987 367.543 191.033 367.2 191.285 366.994C209.675 352.108 226.007 334.958 241.813 318.358L242.957 317.169C250.185 309.577 257.001 303.518 263.772 298.647C272.144 292.633 280.47 288.38 289.254 285.636C309.863 279.165 331.044 279.417 347.353 286.322C363.434 293.114 377.364 308.914 389.945 334.615C390.082 334.89 389.967 335.233 389.693 335.37C389.418 335.507 389.075 335.393 388.938 335.119C376.472 309.691 362.725 294.074 346.919 287.374C330.861 280.583 309.954 280.332 289.597 286.711C269.079 293.136 253.639 307.611 243.78 317.946L242.637 319.135C226.808 335.759 210.43 352.931 191.994 367.863C191.879 367.954 191.742 368 191.628 368Z" fill="#212121"/>
<path d="M222.325 119.902C220.495 117.181 219.374 113.98 219.099 110.71C218.802 107.075 219.9 103.508 220.266 99.9404C220.495 97.7224 220.929 92.7833 217.75 92.2803C216.858 92.1431 215.966 92.4632 215.165 92.8748C209.904 95.6416 208.989 101.312 208.738 106.754C208.44 112.608 209.515 118.485 211.391 123.995C211.597 124.59 211.871 125.253 212.466 125.413C212.878 125.528 213.312 125.345 213.701 125.185C214.502 124.864 222.439 120.063 222.325 119.902Z" fill="white"/>
<path d="M212.74 126.031C212.603 126.031 212.466 126.008 212.306 125.985C211.345 125.733 211.002 124.681 210.842 124.201C208.783 118.119 207.891 112.242 208.166 106.732C208.463 100.947 209.469 95.23 214.913 92.3718C216.011 91.8001 216.995 91.5715 217.864 91.7087C221.661 92.3032 221.089 97.8825 220.861 99.9862C220.723 101.221 220.518 102.479 220.312 103.69C219.923 105.977 219.511 108.355 219.694 110.665C219.969 113.82 221.044 116.907 222.828 119.582C222.919 119.72 222.942 119.902 222.896 120.063C222.828 120.314 222.782 120.474 218.596 123.012C216.675 124.178 214.41 125.528 213.953 125.71C213.632 125.848 213.198 126.031 212.74 126.031ZM217.315 92.8062C216.766 92.8062 216.149 92.9892 215.417 93.3779C210.476 95.9617 209.561 101.358 209.286 106.8C209.012 112.174 209.904 117.89 211.917 123.835C212.077 124.316 212.283 124.796 212.603 124.887C212.832 124.956 213.129 124.819 213.472 124.681C214.136 124.407 220.06 120.84 221.57 119.788C219.831 117.067 218.779 113.957 218.528 110.756C218.322 108.287 218.733 105.863 219.145 103.485C219.351 102.296 219.557 101.061 219.694 99.8718C219.991 97.0364 220.106 93.2178 217.658 92.8291C217.544 92.8062 217.43 92.8062 217.315 92.8062Z" fill="#212121"/>
<path d="M279.258 61.96C253.593 49.841 235.5 45.9537 213.724 36.853C212.718 36.4415 210.659 35.5497 210.339 34.6808C210.11 34.0177 211.117 33.4917 211.803 33.4917C212.695 33.4917 213.747 33.9262 214.662 34.0863C215.943 34.3149 217.201 34.7265 218.482 35.0238C221.021 35.6411 223.56 36.2814 226.099 36.8988C224.955 36.4872 220.403 34.818 221.044 33.6975C222.096 31.8454 226.328 33.446 227.037 33.6061C225.87 33.0116 222.348 32.5314 222.256 30.9536C222.165 29.1929 224.269 29.4444 225.367 29.8103C242.362 35.3668 259.541 42.0436 277.428 50.3897L279.258 61.96Z" fill="white"/>
<path d="M279.258 62.5312C279.166 62.5312 279.098 62.5083 279.006 62.4855C263.932 55.3741 251.42 51.0753 239.343 46.9366C230.674 43.964 222.485 41.1515 213.495 37.4014C211.78 36.6926 210.156 35.8923 209.79 34.8862C209.652 34.5203 209.721 34.1544 209.95 33.8115C210.339 33.2398 211.185 32.9197 211.803 32.9197C212.443 32.8968 213.106 33.1026 213.747 33.2855C214.113 33.377 214.433 33.4685 214.753 33.5371C215.623 33.6971 216.515 33.9258 217.361 34.1544C217.773 34.2688 218.184 34.3831 218.619 34.4746L221.044 35.0691C220.701 34.7718 220.563 34.5203 220.495 34.3145C220.38 34.0172 220.403 33.6971 220.563 33.4227C220.952 32.7367 221.615 32.4166 222.393 32.3023C222.004 31.9593 221.73 31.5477 221.707 30.9989C221.661 30.13 222.05 29.6727 222.37 29.4212C223.377 28.6437 225.069 29.1239 225.573 29.284C243.46 35.1377 260.524 41.8832 277.702 49.8863C277.885 49.9778 278 50.1378 278.023 50.3207L279.852 61.891C279.875 62.0968 279.807 62.3026 279.624 62.4398C279.509 62.4855 279.372 62.5312 279.258 62.5312ZM211.825 34.0401C211.368 34.0401 210.888 34.3374 210.865 34.4746C210.979 34.7718 211.597 35.3435 213.93 36.3039C222.874 40.031 231.062 42.8435 239.709 45.8161C251.557 49.8863 263.818 54.0936 278.526 60.9535L276.925 50.7552C259.861 42.8207 242.957 36.1438 225.207 30.3358C224.452 30.0843 223.468 29.9928 223.057 30.2901C222.965 30.3587 222.828 30.5187 222.851 30.9075C222.896 31.6392 224.726 32.2108 225.824 32.5538C226.419 32.7367 226.945 32.8968 227.311 33.0797C227.563 33.2169 227.7 33.5142 227.586 33.7886C227.494 34.063 227.197 34.223 226.922 34.1544C226.831 34.1316 226.671 34.0858 226.465 34.0172C225.435 33.6971 222.347 32.7596 221.593 33.9258C221.684 34.0858 222.325 34.909 226.305 36.3496C226.602 36.4639 226.739 36.7612 226.648 37.0584C226.556 37.3557 226.259 37.5158 225.962 37.4472L218.344 35.5721C217.933 35.4578 217.498 35.3435 217.064 35.2291C216.24 35.0005 215.394 34.7718 214.57 34.6346C214.204 34.566 213.815 34.4746 213.449 34.3602C212.901 34.2002 212.306 34.0401 211.825 34.0401Z" fill="#212121"/>
<path d="M311.121 63.7435C298.106 53.6138 261.462 41.3348 250.208 37.5619C247.006 36.4872 243.803 35.5039 240.555 34.5664L239.503 47.1885C247.692 50.2525 257.024 54.4141 264.687 58.5986C266.86 59.7877 296.024 74.6963 298.129 75.9768L311.121 63.7435Z" fill="#FEC729"/>
<path d="M298.129 76.5717C298.037 76.5717 297.923 76.5488 297.831 76.4802C296.55 75.7028 285.045 69.7805 275.804 65.0243C270.131 62.0975 265.236 59.5822 264.412 59.1249C257.161 55.1462 248.012 50.9846 239.297 47.7376C239.068 47.6461 238.908 47.4175 238.931 47.1659L239.983 34.5439C240.006 34.3838 240.097 34.2238 240.235 34.1094C240.372 34.018 240.555 33.9722 240.715 34.0408C243.94 34.9555 247.211 35.9845 250.391 37.0363C282.185 47.669 302.726 56.5182 311.464 63.3094C311.601 63.4008 311.67 63.5609 311.693 63.7438C311.693 63.9039 311.624 64.0639 311.51 64.1783L298.517 76.4116C298.426 76.5031 298.289 76.5717 298.129 76.5717ZM240.12 46.823C248.744 50.0699 257.779 54.1858 264.961 58.1188C265.785 58.5761 270.68 61.0914 276.33 63.9954C284.999 68.4542 295.635 73.9421 298.06 75.2683L310.252 63.7896C301.331 57.1355 281.087 48.4922 250.048 38.111C247.097 37.1278 244.078 36.1903 241.081 35.3213L240.12 46.823Z" fill="#212121"/>
<path d="M241.401 33.9043C242.225 34.3159 243.025 34.7503 243.849 35.1619C243.025 39.6665 241.401 43.9882 239.045 47.944C239.137 47.7611 237.444 47.1895 237.33 47.1209C236.666 46.7321 236.735 46.9151 236.804 46.1834C236.918 44.9257 238.016 43.3251 238.474 42.1361C239.549 39.4379 240.532 36.694 241.401 33.9043Z" fill="#212121"/>
<path d="M239.068 48.5151C238.977 48.5151 238.862 48.4923 238.771 48.4237C238.702 48.3779 238.634 48.3094 238.588 48.2408C238.336 48.1036 237.696 47.852 237.467 47.7606C237.193 47.6462 237.124 47.6234 237.055 47.5776C236.941 47.509 236.872 47.4633 236.804 47.4404C236.278 47.1661 236.163 46.9374 236.232 46.32C236.232 46.2514 236.255 46.1828 236.255 46.1142C236.323 45.1767 236.849 44.1477 237.353 43.1645C237.581 42.7072 237.81 42.2727 237.97 41.884C239.022 39.1858 240.006 36.4419 240.898 33.6751C240.944 33.515 241.058 33.3778 241.218 33.3321C241.379 33.2635 241.539 33.2635 241.699 33.355L244.146 34.6126C244.375 34.7269 244.489 34.9785 244.444 35.23C243.597 39.8032 241.95 44.1706 239.571 48.195C239.457 48.4237 239.251 48.5151 239.068 48.5151ZM237.604 46.6173C237.65 46.6401 237.742 46.6859 237.879 46.7316C238.313 46.8917 238.634 47.0289 238.885 47.1432C240.967 43.5075 242.431 39.5974 243.231 35.4815L241.767 34.7269C240.944 37.2879 240.006 39.8489 239.022 42.3642C238.862 42.7986 238.611 43.256 238.359 43.7361C237.925 44.5822 237.444 45.5197 237.376 46.2514C237.376 46.3429 237.353 46.4115 237.353 46.4801C237.421 46.5029 237.513 46.5487 237.604 46.6173Z" fill="#212121"/>
<path d="M299.661 95.2057C292.524 78.8336 281.842 65.4113 276.81 48.2617C250.254 63.3762 235.042 67.9951 207.617 81.4403C215.92 98.407 222.53 114.779 232.618 130.74C258.717 121.616 278.503 112.973 299.661 95.2057Z" fill="white"/>
<path d="M232.641 131.312C232.458 131.312 232.275 131.22 232.16 131.037C224.841 119.467 219.442 107.874 213.724 95.6408C211.597 91.0904 209.401 86.38 207.113 81.6925C206.976 81.4181 207.09 81.0751 207.365 80.9379C217.956 75.7473 226.625 71.9058 234.997 68.2015C247.966 62.4621 260.227 57.0429 276.513 47.7593C276.673 47.6678 276.856 47.6678 277.016 47.7364C277.176 47.805 277.29 47.9422 277.359 48.1023C280.356 58.2776 285.251 66.9667 290.42 76.1589C293.805 82.1498 297.305 88.3694 300.187 94.9776C300.279 95.2063 300.233 95.4807 300.027 95.6408C279.303 113.019 259.7 121.868 232.801 131.289C232.755 131.312 232.686 131.312 232.641 131.312ZM208.394 81.7153C210.613 86.2428 212.717 90.7703 214.753 95.1606C220.38 107.234 225.71 118.667 232.869 130.054C267.661 117.844 283.558 107.92 298.975 95.0462C296.139 88.6437 292.73 82.5843 289.436 76.7305C284.564 68.0872 279.532 59.1466 276.467 49.1312C260.432 58.209 248.309 63.5826 235.454 69.2533C227.242 72.889 218.71 76.6619 208.394 81.7153Z" fill="#212121"/>
<path d="M234.859 108.857C234.631 108.857 234.425 108.719 234.333 108.491C231.748 102.18 234.173 94.2681 239.892 90.4952C242.385 88.8489 245.267 88.0257 248.057 87.2254C249.041 86.951 250.07 86.6537 251.054 86.3336C255.652 84.8245 258.579 82.5836 259.769 79.6796C260.73 77.3244 260.478 74.6262 260.089 72.0652C260.043 71.6993 259.975 71.3564 259.906 70.9905C259.517 68.681 259.128 66.303 259.494 63.9249C259.906 61.2724 261.622 58.2312 264.55 57.4767C264.847 57.3852 265.167 57.5681 265.259 57.8883C265.35 58.1855 265.167 58.5056 264.847 58.5971C262.422 59.2374 260.981 61.8441 260.615 64.1307C260.272 66.3258 260.661 68.6353 261.027 70.8533C261.096 71.2192 261.141 71.5622 261.21 71.928C261.645 74.6491 261.896 77.5302 260.821 80.1369C259.517 83.361 256.338 85.8077 251.397 87.4312C250.391 87.7513 249.361 88.0486 248.355 88.3458C245.633 89.1233 242.842 89.9236 240.486 91.4785C235.225 94.9541 232.961 102.248 235.362 108.079C235.477 108.376 235.34 108.697 235.042 108.834C234.996 108.834 234.928 108.857 234.859 108.857Z" fill="#212121"/>
<path d="M232.572 86.6546C232.366 86.6546 232.16 86.5403 232.069 86.3573L227.608 77.9655C227.471 77.6911 227.563 77.3481 227.837 77.188C228.112 77.0508 228.455 77.1423 228.615 77.4167L233.075 85.8085C233.213 86.0829 233.121 86.4259 232.847 86.586C232.755 86.6317 232.664 86.6546 232.572 86.6546Z" fill="#212121"/>
<path d="M227.448 85.6479C227.425 85.6479 227.38 85.6479 227.357 85.6479C227.037 85.6021 226.831 85.3049 226.876 84.9847C227.311 82.4237 227.357 79.817 227.014 77.256C226.991 77.0731 227.059 76.8673 227.22 76.7529C227.38 76.6386 227.586 76.5929 227.769 76.6386L234.882 78.9481C235.18 79.0396 235.34 79.3597 235.248 79.6569C235.157 79.9542 234.837 80.1143 234.539 80.0228L228.249 77.9877C228.478 80.3658 228.386 82.7896 227.997 85.1677C227.952 85.4649 227.723 85.6479 227.448 85.6479Z" fill="#212121"/>
<path d="M269.834 75.4724C269.605 75.4724 269.399 75.3352 269.308 75.1065L265.716 66.326C265.602 66.0287 265.739 65.7086 266.037 65.5714C266.334 65.457 266.654 65.5942 266.791 65.8915L270.383 74.6721C270.497 74.9693 270.36 75.2894 270.062 75.4266C269.971 75.4495 269.902 75.4724 269.834 75.4724Z" fill="#212121"/>
<path d="M264.87 73.8267C264.824 73.8267 264.779 73.8267 264.733 73.8038C264.435 73.7123 264.252 73.4151 264.321 73.0949C264.984 70.6254 265.282 68.0873 265.213 65.5491C265.213 65.3434 265.305 65.1604 265.465 65.069C265.625 64.9546 265.831 64.9318 266.014 65.0232L272.876 68.0416C273.173 68.1788 273.288 68.4989 273.173 68.7961C273.036 69.0934 272.716 69.2077 272.418 69.0934L266.38 66.4409C266.357 68.7961 266.059 71.1285 265.442 73.4151C265.373 73.6437 265.122 73.8267 264.87 73.8267Z" fill="#212121"/>
<path d="M243.78 107.487C243.757 107.487 243.757 107.487 243.734 107.487C243.414 107.464 243.185 107.19 243.208 106.869C243.391 104.171 243.185 101.45 242.636 98.7976C242.591 98.5918 242.682 98.3632 242.842 98.226C243.025 98.0888 243.254 98.0659 243.46 98.1802C245.473 99.2321 247.394 100.467 249.201 101.862L250.07 98.3403C250.116 98.1574 250.253 97.9973 250.436 97.9287C250.619 97.8601 250.825 97.9058 250.962 98.0202L255.171 101.221C255.423 101.404 255.469 101.77 255.286 102.022C255.103 102.273 254.737 102.319 254.485 102.136L250.962 99.4607L250.093 103.005C250.047 103.188 249.91 103.348 249.727 103.417C249.544 103.485 249.338 103.439 249.178 103.325C247.554 101.999 245.816 100.787 243.986 99.758C244.375 102.136 244.512 104.537 244.352 106.938C244.329 107.235 244.077 107.487 243.78 107.487Z" fill="#212121"/>
<path d="M246.365 76.0436C246.662 75.2662 247.875 75.0146 248.447 75.6549C249.019 76.2723 248.698 77.4613 247.875 77.69C247.074 77.9186 246.159 77.0954 246.296 76.2723C246.388 75.8378 246.205 76.4552 246.365 76.0436Z" fill="#212121"/>
<path d="M247.6 78.3074C247.166 78.3074 246.731 78.1245 246.365 77.8044C245.907 77.3928 245.679 76.7983 245.747 76.2495C245.747 76.1809 245.747 76.0894 245.77 75.998C245.793 75.9065 245.839 75.8379 245.885 75.7693C246.113 75.2434 246.617 74.8775 247.234 74.7403C247.875 74.626 248.492 74.8089 248.904 75.2434C249.316 75.6778 249.453 76.3181 249.27 76.9583C249.087 77.5986 248.652 78.0559 248.08 78.2388C247.897 78.2845 247.737 78.3074 247.6 78.3074ZM246.868 76.3181C246.868 76.341 246.868 76.3638 246.868 76.3867C246.822 76.6153 246.96 76.844 247.12 76.9583C247.257 77.0955 247.509 77.2099 247.715 77.1413C247.943 77.0727 248.081 76.844 248.126 76.6611C248.172 76.4781 248.172 76.2038 248.012 76.0437C247.852 75.8836 247.6 75.8608 247.394 75.8836C247.211 75.9294 246.96 76.0437 246.891 76.2495C246.891 76.2724 246.891 76.2952 246.868 76.3181Z" fill="#212121"/>
<path d="M237.398 117.133C237.696 116.356 238.908 116.104 239.48 116.745C240.052 117.362 239.731 118.551 238.908 118.78C238.107 119.009 237.192 118.185 237.33 117.362C237.421 116.928 237.261 117.545 237.398 117.133Z" fill="#212121"/>
<path d="M238.633 119.397C238.199 119.397 237.764 119.214 237.398 118.894C236.941 118.483 236.712 117.888 236.781 117.339C236.781 117.271 236.781 117.179 236.803 117.088C236.826 116.996 236.872 116.928 236.918 116.859C237.147 116.333 237.65 115.967 238.267 115.83C238.908 115.716 239.525 115.899 239.937 116.333C240.349 116.768 240.486 117.408 240.303 118.048C240.12 118.688 239.685 119.146 239.114 119.329C238.931 119.374 238.771 119.397 238.633 119.397ZM237.924 117.408C237.924 117.431 237.924 117.454 237.924 117.477C237.878 117.705 238.016 117.934 238.176 118.048C238.313 118.185 238.565 118.3 238.771 118.231C238.999 118.163 239.137 117.934 239.182 117.751C239.228 117.568 239.228 117.294 239.068 117.134C238.908 116.973 238.656 116.951 238.45 116.973C238.267 117.019 238.016 117.134 237.947 117.339C237.924 117.362 237.924 117.385 237.924 117.408Z" fill="#212121"/>
<path d="M314.163 280.719C311.189 280.742 308.239 280.742 305.265 280.765C305.448 276.123 305.654 271.458 305.837 266.816C308.536 267.274 313.934 266.908 314.712 270.041C314.986 271.115 314.346 280.696 314.163 280.719Z" fill="#FEC729"/>
<path d="M305.265 281.336C305.105 281.336 304.968 281.268 304.853 281.154C304.739 281.039 304.693 280.879 304.693 280.742L305.265 266.794C305.265 266.634 305.357 266.474 305.471 266.382C305.608 266.268 305.768 266.245 305.929 266.268C306.478 266.359 307.164 266.428 307.919 266.496C310.709 266.748 314.552 267.068 315.261 269.926C315.444 270.635 315.284 273.882 315.17 275.734C314.872 280.719 314.712 280.948 314.621 281.085C314.506 281.222 314.346 281.314 314.186 281.314C314.186 281.314 314.186 281.314 314.163 281.314L305.265 281.336ZM306.409 267.457L305.883 280.193L313.706 280.147C313.797 279.37 313.957 277.541 314.072 275.414C314.255 272.236 314.255 270.498 314.186 270.178C313.66 268.097 310.435 267.823 307.85 267.594C307.324 267.548 306.844 267.503 306.409 267.457Z" fill="#212121"/>
<path d="M286.371 285.225C285.868 281.841 290.877 280.698 292.913 279.783C296.116 278.343 304.144 274.798 305.151 274.844C306.111 274.89 308.124 276.605 310.778 277.199C313.843 277.885 314.895 277.68 314.895 277.68C314.255 282.504 315.81 287.581 315.673 288.701L286.371 285.225Z" fill="white"/>
<path d="M315.673 289.272C315.65 289.272 315.627 289.272 315.604 289.272L286.303 285.796C286.051 285.773 285.845 285.567 285.8 285.316C285.319 282.046 289.002 280.674 291.426 279.759C291.884 279.576 292.319 279.416 292.662 279.279C297.74 276.993 304.007 274.271 305.151 274.271H305.174C305.723 274.294 306.34 274.637 307.209 275.095C308.216 275.643 309.451 276.307 310.892 276.627C313.729 277.267 314.781 277.107 314.781 277.107C314.964 277.084 315.147 277.13 315.261 277.267C315.398 277.381 315.444 277.564 315.421 277.747C315.009 280.926 315.558 284.218 315.924 286.391C316.13 287.557 316.245 288.311 316.199 288.746C316.199 289.043 315.97 289.272 315.673 289.272ZM286.92 284.698L315.078 288.037C315.032 287.648 314.941 287.122 314.849 286.573C314.483 284.47 313.957 281.36 314.255 278.25C313.591 278.227 312.47 278.113 310.663 277.724C309.062 277.358 307.758 276.65 306.683 276.078C306.066 275.735 305.425 275.392 305.128 275.392C304.556 275.392 300.622 276.924 293.142 280.285C292.776 280.445 292.319 280.628 291.838 280.811C289.276 281.772 286.966 282.823 286.92 284.698Z" fill="#212121"/>
<path d="M315.673 286.572C315.673 286.572 316.839 288.882 316.931 290.071C306.82 289.774 297.374 288.333 286.257 285.589L286.348 284.286C286.348 284.126 286.486 284.011 286.623 284.034C289.116 284.423 308.993 287.35 315.673 286.572Z" fill="#212121"/>
<path d="M316.931 290.642C307.049 290.345 297.557 288.95 286.12 286.137C285.845 286.069 285.662 285.817 285.685 285.543L285.777 284.239C285.799 284.011 285.914 283.782 286.097 283.645C286.28 283.508 286.486 283.439 286.714 283.485C288.979 283.828 308.971 286.778 315.604 286.023C315.833 286 316.084 286.114 316.176 286.343C316.29 286.595 317.388 288.79 317.503 290.047C317.526 290.207 317.457 290.367 317.343 290.482C317.251 290.573 317.091 290.642 316.931 290.642ZM286.874 285.154C297.74 287.806 306.843 289.156 316.245 289.499C316.039 288.744 315.627 287.784 315.33 287.189C308.49 287.784 290.351 285.177 286.897 284.674L286.874 285.154Z" fill="#212121"/>
<path d="M341.863 261.123C340.582 263.798 339.324 266.473 338.043 269.148C333.926 266.953 329.832 264.758 325.714 262.563C327.293 260.345 329.306 255.315 332.485 255.978C333.56 256.229 341.932 260.962 341.863 261.123Z" fill="#FEC729"/>
<path d="M338.043 269.721C337.952 269.721 337.86 269.698 337.769 269.653L325.44 263.067C325.303 262.999 325.188 262.861 325.142 262.701C325.097 262.541 325.142 262.381 325.234 262.244C325.554 261.787 325.92 261.192 326.286 260.552C327.727 258.128 329.671 254.835 332.576 255.43C333.286 255.59 336.145 257.122 337.769 258.037C342.138 260.46 342.275 260.712 342.344 260.849C342.412 261.009 342.435 261.192 342.367 261.352C342.367 261.352 342.367 261.352 342.367 261.375L338.547 269.401C338.478 269.538 338.364 269.653 338.203 269.698C338.158 269.721 338.089 269.721 338.043 269.721ZM326.538 262.358L337.792 268.349L341.154 261.284C340.491 260.872 338.913 259.934 337.037 258.906C334.246 257.373 332.668 256.596 332.371 256.55C330.289 256.116 328.619 258.905 327.293 261.146C327.018 261.581 326.766 261.992 326.538 262.358Z" fill="#212121"/>
<path d="M342.687 287.718C339.347 287.878 338.73 282.893 338.043 280.836C336.946 277.566 336.008 274.273 335.23 270.957C335.001 269.974 334.384 268.556 334.544 267.573C334.681 266.636 336.465 265.744 337.311 263.206C338.272 260.302 338.318 257.764 338.318 257.764C341.978 259.364 349.618 259.707 349.458 259.639L342.687 287.718Z" fill="white"/>
<path d="M342.527 288.289C339.439 288.289 338.478 284.654 337.838 282.253C337.723 281.795 337.609 281.338 337.494 281.018C336.396 277.748 335.459 274.41 334.658 271.094C334.589 270.842 334.498 270.545 334.406 270.225C334.132 269.333 333.835 268.327 333.949 267.481C334.04 266.932 334.429 266.475 334.91 265.926C335.504 265.24 336.259 264.394 336.717 263.022C337.632 260.255 337.7 257.786 337.7 257.763C337.7 257.58 337.792 257.397 337.975 257.283C338.135 257.191 338.341 257.169 338.524 257.237C341.886 258.723 348.611 259.066 349.343 259.066C349.457 259.044 349.572 259.066 349.686 259.112C349.961 259.227 350.098 259.547 350.006 259.821L343.259 287.832C343.19 288.084 342.984 288.266 342.733 288.266C342.641 288.289 342.572 288.289 342.527 288.289ZM338.798 258.586C338.707 259.592 338.478 261.399 337.815 263.388C337.289 264.989 336.419 265.972 335.779 266.681C335.436 267.07 335.116 267.435 335.093 267.641C335.001 268.236 335.276 269.105 335.504 269.882C335.596 270.202 335.71 270.522 335.779 270.82C336.557 274.112 337.517 277.405 338.592 280.652C338.707 281.018 338.844 281.475 338.958 281.955C339.645 284.562 340.422 286.895 342.252 287.123L348.725 260.21C348.565 260.21 348.382 260.187 348.176 260.164C347.513 260.118 346.438 260.027 345.157 259.89C343.259 259.684 340.72 259.272 338.798 258.586Z" fill="#212121"/>
<path d="M346.941 258.746C346.941 258.746 349.366 257.831 350.578 257.854C349.274 267.869 346.895 277.107 343.03 287.877L341.726 287.648C341.566 287.625 341.474 287.488 341.497 287.351C342.138 284.904 347.055 265.468 346.941 258.746Z" fill="#212121"/>
<path d="M343.03 288.426C343.007 288.426 342.961 288.426 342.938 288.426L341.634 288.198C341.406 288.152 341.2 288.015 341.063 287.832C340.948 287.649 340.902 287.42 340.948 287.191C341.52 284.973 346.461 265.4 346.369 258.746C346.369 258.495 346.507 258.289 346.735 258.197C346.987 258.106 349.274 257.26 350.532 257.26H350.555C350.715 257.26 350.875 257.328 350.99 257.466C351.104 257.58 351.15 257.763 351.127 257.923C349.846 267.71 347.513 276.993 343.556 288.06C343.487 288.289 343.281 288.426 343.03 288.426ZM342.161 287.123L342.664 287.214C346.415 276.696 348.657 267.778 349.915 258.472C349.137 258.609 348.153 258.906 347.513 259.135C347.422 266.017 343.007 283.762 342.161 287.123Z" fill="#212121"/>
<path d="M330.129 144.826C337.609 165.817 334.841 189.003 330.221 210.795C325.6 232.586 316.885 258.562 316.153 273.791C312.699 273.791 307.003 271.893 304.121 270.749C303.046 243.562 297.259 222.731 296.184 195.543C295.795 186.031 305.608 171.511 308.81 162.57C312.013 153.584 320.636 145.604 330.129 144.826Z" fill="white"/>
<path d="M316.13 274.339C312.585 274.339 306.775 272.395 303.916 271.252C303.71 271.161 303.573 270.978 303.55 270.749C303.001 257.189 301.262 245.002 299.593 233.203C297.9 221.381 296.162 209.171 295.613 195.543C295.361 189.049 299.684 180.36 303.527 172.677C305.425 168.881 307.21 165.291 308.262 162.341C311.739 152.6 320.911 144.986 330.061 144.254C330.335 144.231 330.564 144.391 330.655 144.643C334.132 154.407 335.642 165.154 335.276 177.524C334.979 187.174 333.56 197.784 330.77 210.909C329.077 218.912 326.813 227.555 324.617 235.901C320.797 250.467 317.183 264.255 316.725 273.813C316.702 274.087 316.451 274.339 316.13 274.339C316.153 274.339 316.153 274.339 316.13 274.339ZM304.693 270.337C307.438 271.412 312.356 273.013 315.627 273.173C316.199 263.523 319.767 249.941 323.542 235.581C325.737 227.258 327.979 218.637 329.695 210.657C332.462 197.601 333.881 187.059 334.178 177.478C334.544 165.428 333.103 154.933 329.763 145.42C321.186 146.335 312.654 153.538 309.383 162.73C308.308 165.748 306.5 169.361 304.579 173.203C300.805 180.748 296.55 189.3 296.779 195.497C297.328 209.056 299.067 221.244 300.736 233.043C302.406 244.75 304.122 256.869 304.693 270.337Z" fill="#212121"/>
<path d="M308.742 180.041C304.877 190.857 303.527 199.683 304.877 210.979C306.501 224.493 312.425 237.824 323.061 246.536C324.022 247.313 334.704 254.15 334.704 254.127C333.675 258.609 332.211 263.045 330.038 267.641C330.038 267.641 318.99 262.107 315.696 260.667C296.962 252.435 276.581 239.264 268.873 219.348C266.105 212.214 265.465 204.394 265.831 196.733C266.586 181.162 271.481 163.966 280.836 151.367C288.384 158.776 301.4 157.564 311.876 156.055L308.742 180.041Z" fill="white"/>
<path d="M330.038 268.213C329.946 268.213 329.855 268.19 329.786 268.145C329.672 268.099 318.715 262.588 315.467 261.17C304.602 256.391 295.292 250.904 287.79 244.821C278.434 237.253 271.892 228.746 268.347 219.554C265.854 213.083 264.847 205.629 265.282 196.711C266.128 179.493 271.641 162.846 280.401 151.047C280.493 150.91 280.653 150.842 280.813 150.819C280.973 150.796 281.133 150.865 281.248 150.979C288.224 157.839 300.05 157.198 311.807 155.506C312.127 155.461 312.402 155.689 312.448 155.987C312.493 156.307 312.265 156.581 311.967 156.627C300.187 158.342 288.316 158.959 280.927 152.237C272.51 163.83 267.249 180.019 266.425 196.757C265.991 205.492 266.974 212.809 269.422 219.12C272.922 228.129 279.349 236.475 288.522 243.929C295.933 249.943 305.174 255.408 315.947 260.141C318.83 261.399 327.659 265.812 329.832 266.887C332.165 262.702 333.149 258.472 334.086 254.379C333.789 254.196 333.377 253.922 332.737 253.533C331.708 252.893 330.358 252.001 328.963 251.109C326.424 249.463 323.267 247.405 322.741 246.971C317.571 242.74 313.317 237.298 310.115 230.804C307.141 224.768 305.197 218.114 304.35 211.048C303.024 200.095 304.122 191.36 308.239 179.836C308.353 179.539 308.674 179.379 308.971 179.493C309.268 179.607 309.428 179.927 309.314 180.225C305.265 191.543 304.19 200.141 305.494 210.911C306.34 217.862 308.239 224.379 311.167 230.301C314.301 236.635 318.441 241.963 323.496 246.102C324.365 246.811 334.407 253.259 335.047 253.625C335.093 253.647 335.116 253.67 335.139 253.693C335.299 253.83 335.39 254.059 335.322 254.265C334.315 258.724 333.263 263.32 330.587 267.939C330.427 268.122 330.221 268.213 330.038 268.213Z" fill="#212121"/>
<path d="M308.651 60.0859C310.298 61.7094 312.654 62.3497 314.712 63.3786C320.431 66.2598 323.954 72.5708 325.44 78.5617C326.859 84.2782 327.11 90.2463 328.231 95.9856C329.489 102.457 330.427 109.019 331.296 115.559C333.057 128.638 334.201 141.809 334.407 155.026C315.673 161.657 294.446 161.268 275.69 154.683C274.843 142.678 274.889 130.651 274.043 118.646C271.504 124.477 266.815 129.416 261.92 133.394C256.613 137.716 250.505 141.238 243.666 142.289C236.461 143.387 228.775 142.084 222.439 138.471C216.744 135.224 213.678 130.605 210.934 124.797C214.159 124.477 223.011 119.057 223.217 119.652C225.321 125.689 231.817 127.609 237.422 126.192C243.049 124.774 247.715 120.772 251.077 116.039C254.44 111.329 256.636 105.887 258.809 100.536C260.844 95.574 262.72 89.9947 265.762 85.5359C270.429 78.676 275.85 74.7202 281.66 69.9183C284.084 67.929 285.823 65.7796 287.561 63.1729C290.581 64.7963 293.806 65.368 297.214 64.9793C306.775 63.9732 308.834 60.1088 308.651 60.0859Z" fill="#FEC729"/>
<path d="M305.86 160.399C305.586 160.399 305.311 160.399 305.037 160.399C294.903 160.307 284.976 158.569 275.484 155.254C275.278 155.185 275.118 154.979 275.095 154.751C274.683 148.737 274.477 142.632 274.271 136.709C274.088 131.519 273.928 126.168 273.585 120.863C271.229 125.299 267.409 129.667 262.262 133.851C255.972 138.973 249.911 141.923 243.735 142.86C236.346 144.004 228.455 142.586 222.142 138.973C215.92 135.429 212.832 130.193 210.407 125.048C210.339 124.888 210.339 124.682 210.43 124.522C210.522 124.362 210.682 124.247 210.865 124.225C212.626 124.042 216.377 122.144 219.122 120.772C222.256 119.194 222.919 118.897 223.377 119.08C223.537 119.148 223.674 119.286 223.743 119.446C225.756 125.231 232.092 126.923 237.261 125.619C242.179 124.385 246.914 120.863 250.597 115.696C253.868 111.099 256.064 105.726 258.191 100.512L258.282 100.307C258.671 99.3463 259.083 98.3402 259.449 97.357C261.096 93.1725 262.811 88.8508 265.282 85.1922C269.399 79.1327 274.088 75.3141 279.075 71.2668C279.807 70.6723 280.539 70.0778 281.294 69.4604C283.421 67.6997 285.159 65.7332 287.081 62.8521C287.241 62.6006 287.561 62.532 287.835 62.6692C290.695 64.2012 293.828 64.7957 297.168 64.4299C305.586 63.5152 307.827 60.4283 308.079 60.0167C308.079 59.971 308.102 59.9024 308.125 59.8567C308.216 59.628 308.445 59.5137 308.674 59.5137C308.811 59.5137 308.948 59.5823 309.04 59.6737C310.138 60.7484 311.556 61.3658 313.065 62.0061C313.683 62.2805 314.346 62.5549 314.964 62.875C322.352 66.6021 325.143 74.994 325.989 78.4239C326.813 81.7623 327.27 85.2151 327.682 88.5535C328.002 90.9774 328.299 93.4926 328.78 95.8936C330.061 102.525 331.021 109.224 331.845 115.513C333.743 129.735 334.773 142.655 334.956 155.048C334.956 155.3 334.796 155.505 334.567 155.597C325.532 158.775 315.879 160.399 305.86 160.399ZM276.216 154.293C285.479 157.495 295.178 159.164 305.037 159.255C315.078 159.347 324.754 157.792 333.812 154.636C333.606 142.426 332.6 129.667 330.724 115.65C329.878 109.407 328.94 102.708 327.659 96.0993C327.179 93.6527 326.858 91.1374 326.561 88.6907C326.149 85.3752 325.715 81.9681 324.891 78.6983C324.068 75.4284 321.414 67.4025 314.461 63.904C313.866 63.6067 313.248 63.3323 312.631 63.0808C311.304 62.5091 309.955 61.9375 308.788 61C307.69 62.4177 304.35 64.7957 297.282 65.5732C293.897 65.939 290.695 65.3902 287.744 63.9268C285.868 66.6707 284.13 68.6144 282.025 70.3522C281.271 70.9696 280.539 71.5641 279.807 72.1586C274.889 76.1602 270.245 79.9331 266.242 85.8325C263.841 89.3767 262.148 93.6527 260.524 97.7686C260.135 98.7518 259.746 99.7579 259.335 100.741L259.243 100.947C257.093 106.206 254.874 111.648 251.535 116.359C247.692 121.755 242.728 125.436 237.559 126.74C234.539 127.494 231.428 127.312 228.775 126.237C225.962 125.093 223.903 123.013 222.828 120.246C222.187 120.497 220.861 121.161 219.648 121.778C217.018 123.104 213.838 124.705 211.78 125.208C214.41 130.627 217.338 134.88 222.736 137.944C228.844 141.443 236.461 142.792 243.597 141.694C249.545 140.78 255.423 137.921 261.576 132.937C267.363 128.249 271.366 123.356 273.516 118.417C273.631 118.165 273.882 118.028 274.134 118.074C274.386 118.119 274.591 118.325 274.614 118.6C275.026 124.613 275.232 130.719 275.438 136.641C275.621 142.449 275.827 148.417 276.216 154.293Z" fill="#212121"/>
<path d="M289.482 76.2047C294.034 79.1773 295.841 85.0081 295.155 89.7871C296.711 89.2383 300.782 88.8496 301.651 87.5234C302.566 86.1514 300.965 82.4243 300.393 81.0752C298.358 76.2047 293.394 71.3114 287.058 71.1056C279.418 70.854 274.66 73.2778 270.657 78.9943C271.504 77.7824 275.667 75.8617 277.199 75.2672C280.241 74.0553 283.855 73.8952 286.966 74.9928C287.881 75.29 288.728 75.7016 289.482 76.2047Z" fill="#212121"/>
<path d="M295.155 90.3367C295.018 90.3367 294.903 90.2909 294.789 90.1995C294.629 90.0623 294.56 89.8793 294.583 89.6735C295.178 85.5119 293.76 79.6811 289.162 76.6628C288.43 76.1826 287.629 75.7938 286.783 75.4966C283.878 74.4676 280.378 74.5819 277.405 75.7481C275.232 76.617 271.755 78.3777 271.114 79.2923C270.931 79.5439 270.565 79.6125 270.314 79.4295C270.062 79.2466 269.994 78.8808 270.177 78.6292C274.34 72.6841 279.395 70.2603 287.08 70.5118C293.783 70.7405 298.861 75.8624 300.919 80.8472L300.965 80.9616C302.063 83.5683 303.046 86.4266 302.109 87.8214C301.377 88.9418 299.158 89.422 297.191 89.8336C296.459 89.9937 295.75 90.1537 295.315 90.2909C295.292 90.3367 295.224 90.3367 295.155 90.3367ZM289.802 75.7252C294.492 78.8122 296.184 84.5744 295.818 88.9876C296.161 88.8961 296.573 88.8275 296.985 88.736C298.472 88.4159 300.69 87.9357 301.171 87.204C301.651 86.4952 301.217 84.5515 299.913 81.4189L299.867 81.3046C297.946 76.6628 293.234 71.8838 287.035 71.678C281.202 71.4722 277.085 72.8441 273.653 76.2512C275.323 75.3823 276.947 74.7191 276.97 74.7191C280.173 73.4386 283.992 73.3243 287.149 74.4448C288.11 74.7649 288.979 75.1993 289.802 75.7252Z" fill="#212121"/>
<path d="M328.367 81.2362C326.972 81.7393 323.61 81.8308 322.146 81.8994C322.443 81.8765 323.953 70.3291 313.293 62.5547C325.142 64.9556 330.563 80.4588 328.367 81.2362Z" fill="#212121"/>
<path d="M322.146 82.4944C321.849 82.4944 321.597 82.2658 321.574 81.9456C321.574 81.8084 321.597 81.6941 321.666 81.6026C321.78 81.1453 322.123 78.4471 321.139 74.7657C320.27 71.4959 318.166 66.8312 312.974 63.0354C312.768 62.8754 312.676 62.5781 312.791 62.3494C312.905 62.0979 313.157 61.9607 313.431 62.0293C323.77 64.1101 329.122 75.6346 329.42 79.6819C329.534 81.1453 329.031 81.6484 328.573 81.8084C327.201 82.3115 324.136 82.4258 322.489 82.4944L322.169 82.5173C322.169 82.4944 322.146 82.4944 322.146 82.4944ZM322.1 81.3511C322.077 81.3511 322.054 81.3511 322.032 81.3511C322.054 81.3511 322.077 81.3511 322.1 81.3511ZM315.856 63.9272C322.855 70.4212 323.198 78.6529 322.878 81.3054C324.433 81.2368 327.041 81.0996 328.162 80.7109C328.253 80.5965 328.459 79.7962 327.864 77.7612C326.538 73.348 322.352 66.5568 315.856 63.9272Z" fill="#212121"/>
<path d="M343.167 148.507C344.448 146.243 343.762 143.385 343.762 140.939C343.648 126.487 343.396 112.036 341.086 97.7446C340.422 93.6516 339.553 89.4214 337.128 86.0601C333.72 81.2811 327.659 79.8862 321.78 79.6576C315.902 79.4289 310.114 80.1149 304.556 81.9899C299.501 83.682 294.469 85.6028 290.054 88.5525C285.616 91.5022 281.774 95.5724 279.944 100.58C278.022 105.793 278.411 111.51 278.892 117.044C279.829 127.608 281.065 138.149 282.62 148.644C283.1 151.983 284.198 153.904 286.943 155.847C289.688 157.791 293.028 158.728 296.321 159.369C305.014 161.084 314.049 160.489 322.581 158.225C327.659 156.876 332.805 155.413 337.449 152.92C339.416 151.869 342.023 150.542 343.167 148.507Z" fill="white"/>
<path d="M306.615 160.947C303.046 160.947 299.546 160.627 296.184 159.964C293.302 159.392 289.619 158.478 286.577 156.351C283.786 154.385 282.551 152.327 282.025 148.76C280.47 138.287 279.234 127.654 278.297 117.113C277.771 111.259 277.473 105.589 279.372 100.398C281.568 94.4528 286.188 90.4283 289.688 88.096C294.24 85.0548 299.432 83.1112 304.327 81.4648C309.68 79.6584 315.535 78.8581 321.757 79.1096C329.397 79.384 334.566 81.5563 337.563 85.7408C340.102 89.3079 340.994 93.7668 341.612 97.6769C343.853 111.648 344.151 125.551 344.288 140.962C344.288 141.557 344.334 142.151 344.379 142.814C344.517 144.872 344.677 146.976 343.625 148.828C342.412 150.932 339.896 152.281 337.86 153.379L337.654 153.493C332.897 156.031 327.636 157.54 322.672 158.844C317.32 160.238 311.876 160.947 306.615 160.947ZM319.721 80.1843C314.392 80.1843 309.359 80.9618 304.739 82.5395C299.912 84.163 294.812 86.0838 290.351 89.0564C286.989 91.2972 282.551 95.1387 280.47 100.81C278.64 105.771 278.937 111.305 279.44 117.022C280.355 127.54 281.613 138.15 283.169 148.6C283.649 151.847 284.724 153.63 287.24 155.414C290.1 157.426 293.622 158.318 296.39 158.844C304.533 160.444 313.522 160.055 322.398 157.723C327.315 156.42 332.508 154.956 337.151 152.464L337.357 152.35C339.256 151.321 341.635 150.063 342.664 148.234C343.556 146.679 343.396 144.735 343.281 142.86C343.236 142.22 343.19 141.58 343.19 140.939C343.053 125.573 342.778 111.739 340.537 97.8369C339.919 94.064 339.073 89.7423 336.671 86.381C333.903 82.5167 329.031 80.5045 321.757 80.2301C321.071 80.1843 320.385 80.1843 319.721 80.1843Z" fill="#212121"/>
<path d="M343.282 148.507C344.38 146.243 343.808 143.385 343.785 140.938C343.67 126.487 343.282 113.361 341.292 99.0701C340.583 93.9939 340.697 89.4435 337.083 85.442C333.789 81.8291 329.031 79.6111 324.136 79.4053C316.542 79.0852 309.543 80.0456 302.818 83.5898C295.429 87.4542 291.381 92.6677 288.888 100.579C287.241 105.793 287.561 111.509 287.995 117.043C288.796 127.607 289.871 138.148 291.198 148.667C291.632 152.005 292.524 158.796 292.524 158.796C300.919 161.494 318.212 160.511 325.554 158.27C329.923 156.944 334.338 155.458 338.341 152.965C340.056 151.868 342.275 150.542 343.282 148.507Z" fill="white"/>
<path d="M306.546 160.993C301.239 160.993 296.024 160.513 292.341 159.324C292.135 159.255 291.975 159.072 291.953 158.866C291.953 158.798 291.038 152.006 290.626 148.714C289.299 138.241 288.224 127.608 287.423 117.067C286.989 111.236 286.714 105.565 288.338 100.398C290.969 92.0974 295.201 86.9296 302.543 83.0653C308.765 79.7954 315.627 78.4463 324.159 78.8122C329.237 79.0409 334.109 81.3046 337.517 85.0546C340.651 88.5074 341.086 92.3946 341.566 96.4876C341.658 97.288 341.749 98.134 341.863 98.98C343.785 112.791 344.242 125.253 344.357 140.916C344.357 141.511 344.402 142.105 344.448 142.769C344.585 144.804 344.7 146.907 343.808 148.759C342.778 150.863 340.582 152.235 338.844 153.31L338.661 153.424C334.567 155.985 330.038 157.471 325.737 158.798C321.62 160.055 313.957 160.993 306.546 160.993ZM293.05 158.34C301.765 160.97 318.555 159.781 325.394 157.7C329.603 156.397 334.063 154.933 338.043 152.464L338.226 152.349C339.85 151.343 341.886 150.063 342.778 148.256C343.533 146.701 343.419 144.735 343.304 142.837C343.259 142.197 343.213 141.557 343.213 140.939C343.099 125.322 342.641 112.883 340.743 99.163C340.628 98.3169 340.537 97.4709 340.445 96.6477C339.988 92.5547 339.576 89.0333 336.694 85.8549C333.492 82.3336 328.917 80.207 324.136 80.0012C315.833 79.6354 309.154 80.9387 303.115 84.1171C296.07 87.8214 291.975 92.8062 289.459 100.764C287.881 105.726 288.155 111.282 288.59 117.021C289.391 127.54 290.466 138.15 291.792 148.599C292.135 151.412 292.867 156.9 293.05 158.34Z" fill="#212121"/>
<path d="M341.772 106.458C341.314 102.936 340.445 99.3005 338.73 96.3965C336.328 92.2806 332.05 90.2456 327.91 90.0626C321.734 89.7882 312.333 91.023 306.843 93.9956C300.759 97.3112 297.694 101.336 296.985 108.035C296.504 112.631 297.328 118.325 297.671 123.081C298.334 132.182 299.203 141.26 300.301 150.292C300.644 153.15 301.925 160.216 301.925 160.216C308.925 161.336 321.757 159.918 328.459 158.569C332.21 157.815 340.148 156.626 343.419 154.476C344.837 153.539 343.396 118.76 341.772 106.458Z" fill="white"/>
<path d="M308.216 161.176C305.86 161.176 303.664 161.061 301.857 160.764C301.628 160.718 301.422 160.535 301.376 160.307C301.331 160.009 300.073 153.195 299.73 150.36C298.632 141.351 297.74 132.204 297.099 123.127C297.008 121.96 296.916 120.771 296.779 119.514C296.413 115.581 296.047 111.511 296.413 107.989C297.122 101.335 300.141 96.9906 306.569 93.515C310.778 91.2284 319.47 89.1247 327.933 89.5134C332.714 89.7421 336.923 92.2116 339.233 96.1446C340.742 98.7513 341.772 102.113 342.344 106.434C343.098 112.174 343.899 123.561 344.311 134.742C344.517 140.185 344.608 144.872 344.562 148.348C344.494 154.476 344.082 154.75 343.739 154.979C340.88 156.854 334.681 157.997 330.586 158.775C329.832 158.912 329.145 159.049 328.574 159.163C323.518 160.124 315.101 161.176 308.216 161.176ZM302.429 159.689C309.428 160.673 321.963 159.278 328.368 157.997C328.962 157.883 329.649 157.746 330.403 157.609C334.361 156.877 340.354 155.756 343.053 154.041C344.128 151.618 342.87 119.125 341.223 106.549C340.674 102.387 339.713 99.1629 338.249 96.6934C336.145 93.1034 332.279 90.8397 327.887 90.6339C319.698 90.268 311.075 92.3488 307.118 94.4982C301.01 97.8138 298.243 101.77 297.557 108.081C297.191 111.488 297.557 115.512 297.922 119.399C298.037 120.657 298.151 121.869 298.243 123.035C298.906 132.09 299.775 141.236 300.873 150.223C301.148 152.624 302.131 158.157 302.429 159.689Z" fill="#212121"/>
<path d="M343.442 137.076C343.167 135.132 342.916 133.006 342.138 131.131C340.445 126.946 335.802 126.512 331.89 126.397C325.806 126.237 315.101 127.632 309.68 129.461C303.824 131.428 298.838 134.446 299.249 141.192C299.57 146.405 300.279 151.596 300.942 156.786C301.102 157.93 301.239 159.096 301.4 160.239C307.804 161.908 335.322 158.867 343.465 154.5C344.334 154.019 344.082 151.481 344.082 150.727C344.082 148.143 343.922 145.582 343.808 143.021C343.716 141.009 343.693 139.019 343.442 137.076Z" fill="white"/>
<path d="M307.118 161.245C304.533 161.245 302.498 161.085 301.262 160.765C301.034 160.696 300.873 160.513 300.851 160.284C300.69 159.141 300.553 157.975 300.393 156.832L300.256 155.734C299.638 150.978 298.998 146.062 298.7 141.191C298.243 133.691 304.236 130.673 309.52 128.889C314.827 127.106 325.509 125.619 331.913 125.802C334.978 125.894 340.72 126.054 342.664 130.902C343.396 132.731 343.693 134.72 343.945 136.618L343.991 136.984C344.22 138.539 344.265 140.139 344.311 141.671C344.334 142.083 344.334 142.517 344.357 142.929C344.38 143.592 344.425 144.255 344.448 144.918C344.54 146.816 344.631 148.76 344.631 150.681C344.631 150.795 344.631 150.955 344.654 151.138C344.723 152.784 344.7 154.431 343.739 154.957C340.011 156.946 331.822 158.89 321.849 160.147C316.222 160.879 311.029 161.245 307.118 161.245ZM301.926 159.736C303.092 159.987 304.876 160.101 307.027 160.101C317.297 160.101 336.488 157.563 343.19 153.973C343.373 153.859 343.602 153.31 343.51 151.207C343.51 151.001 343.488 150.818 343.488 150.703C343.488 148.806 343.396 146.862 343.305 145.01C343.282 144.347 343.236 143.684 343.213 143.02C343.19 142.609 343.19 142.174 343.167 141.74C343.122 140.231 343.053 138.653 342.847 137.167L342.801 136.801C342.55 134.972 342.275 133.051 341.589 131.359C340.034 127.517 335.756 127.083 331.868 126.991C325.577 126.808 315.078 128.249 309.863 130.01C304.671 131.77 299.41 134.469 299.821 141.145C300.119 145.97 300.759 150.864 301.377 155.62L301.514 156.717C301.651 157.7 301.788 158.707 301.926 159.736Z" fill="#212121"/>
<path d="M305.357 140.917C304.35 140.917 303.321 140.917 302.315 140.894C301.994 140.894 301.743 140.619 301.766 140.322C301.766 140.002 302.017 139.773 302.337 139.773C302.337 139.773 302.337 139.773 302.36 139.773C315.376 140.025 328.185 138.607 340.468 135.52C340.766 135.452 341.086 135.635 341.154 135.932C341.223 136.229 341.04 136.549 340.743 136.618C329.306 139.476 317.411 140.917 305.357 140.917Z" fill="#212121"/>
<path d="M211.299 127.083C211.002 126.214 210.705 125.345 210.407 124.476C214.181 121.778 218.344 119.537 222.828 118.279C222.988 118.828 223.903 120.543 223.926 120.68C224.132 121.435 221.158 122.144 219.237 123.104C216.606 124.43 213.907 125.665 211.299 127.083Z" fill="#212121"/>
<path d="M211.299 127.655C211.231 127.655 211.162 127.632 211.093 127.609C210.933 127.54 210.819 127.426 210.75 127.266L209.858 124.659C209.767 124.43 209.858 124.156 210.064 124.019C214.25 121.023 218.482 118.92 222.668 117.731C222.965 117.639 223.285 117.822 223.377 118.119C223.468 118.44 223.926 119.354 224.177 119.857C224.406 120.337 224.452 120.429 224.475 120.52C224.749 121.526 223.422 122.03 221.615 122.738C220.883 123.013 220.129 123.31 219.511 123.63C218.642 124.065 217.773 124.499 216.903 124.911C215.142 125.78 213.312 126.648 211.574 127.609C211.482 127.632 211.391 127.655 211.299 127.655ZM211.093 124.682L211.62 126.237C213.198 125.391 214.822 124.613 216.4 123.836C217.269 123.424 218.139 122.99 219.008 122.555C219.694 122.212 220.472 121.915 221.227 121.618C221.959 121.344 223.011 120.932 223.354 120.658C223.308 120.566 223.239 120.429 223.194 120.315C222.942 119.789 222.691 119.308 222.53 118.92C218.71 120.109 214.89 122.03 211.093 124.682Z" fill="#212121"/>
<path d="M219.054 110.756C218.253 106.137 222.713 103.69 225.481 100.878C226.579 99.7571 225.801 98.4766 224.315 98.6367C222.439 98.8425 220.952 100.283 219.625 101.472C218.939 102.089 218.253 103.324 217.292 103.507C216.423 103.644 219.054 110.756 219.054 110.756Z" fill="white"/>
<path d="M219.054 111.328C218.779 111.328 218.527 111.123 218.482 110.848C217.796 106.915 220.632 104.423 223.148 102.228C223.834 101.633 224.475 101.061 225.047 100.467C225.367 100.147 225.481 99.8039 225.344 99.5523C225.207 99.2779 224.818 99.1407 224.337 99.1865C222.759 99.3694 221.387 100.604 220.174 101.702L219.969 101.885C219.786 102.045 219.58 102.273 219.374 102.525C218.825 103.165 218.207 103.897 217.338 104.057C216.789 104.148 216.286 103.874 215.966 103.302C215.6 102.639 215.531 101.587 216.126 100.901C216.332 100.673 216.698 100.65 216.926 100.856C217.155 101.061 217.178 101.427 216.972 101.656C216.743 101.908 216.789 102.433 216.949 102.731C217.018 102.845 217.086 102.914 217.132 102.914C217.59 102.845 218.07 102.273 218.482 101.77C218.71 101.496 218.939 101.244 219.168 101.016L219.374 100.833C220.7 99.6209 222.233 98.249 224.177 98.0432C225.161 97.9288 225.984 98.3176 226.35 99.0493C226.693 99.7581 226.488 100.581 225.824 101.244C225.207 101.862 224.52 102.479 223.857 103.051C221.364 105.246 218.985 107.304 219.557 110.619C219.603 110.94 219.397 111.237 219.099 111.283C219.122 111.328 219.076 111.328 219.054 111.328Z" fill="#212121"/>
<path d="M308.65 60.0845C306.271 57.7522 305.791 54.5052 305.379 51.4411C304.968 48.2628 304.899 45.2216 304.83 41.9746L292.25 46.8451C293.256 54.2537 289.917 59.6501 287.561 63.1714C287.561 63.1714 294.102 65.7782 299.089 64.7263C306.203 63.2629 308.65 60.0845 308.65 60.0845Z" fill="white"/>
<path d="M296.504 65.5724C292.067 65.5724 287.584 63.8117 287.378 63.7203C287.218 63.6517 287.103 63.5145 287.035 63.3544C286.989 63.1944 287.012 63.0114 287.103 62.8742C289.07 59.9474 292.73 54.4824 291.701 46.9366C291.655 46.6851 291.815 46.4107 292.067 46.3192L304.647 41.4487C304.83 41.3801 305.013 41.403 305.174 41.5173C305.334 41.6317 305.425 41.7917 305.425 41.9747V42.4549C305.494 45.496 305.562 48.4 305.951 51.3955C306.317 54.2309 306.752 57.455 309.039 59.7187C309.245 59.9245 309.268 60.2446 309.085 60.4733C308.971 60.6105 306.432 63.8118 299.203 65.3438C298.357 65.5038 297.419 65.5724 296.504 65.5724ZM288.453 62.8971C290.214 63.5145 295.155 65.0008 298.998 64.1776C304.396 63.0343 307.026 60.9306 307.873 60.0846C305.631 57.5922 305.196 54.2309 304.83 51.5098C304.442 48.5601 304.373 45.7476 304.304 42.7978L292.89 47.2339C293.714 54.4824 290.511 59.7873 288.453 62.8971Z" fill="#212121"/>
<path d="M276.947 54.3916C277.496 56.5867 278.091 57.7072 280.79 56.1065C286.257 52.8596 286.234 45.0622 288.522 38.1567C286.852 44.5821 284.359 55.2834 287.652 56.884C288.59 57.3413 290.191 56.1523 290.718 55.2834C293.737 50.2757 293.645 43.8275 294.217 38.0652C293.119 43.5302 293.531 49.2925 295.43 54.5974C295.841 55.7407 296.345 56.9069 297.237 57.7758C298.129 58.6447 299.524 59.1477 300.713 58.759C302.246 58.256 302.841 56.5639 303.184 55.0547C304.533 48.9037 304.305 42.4326 302.475 36.3274C303.092 42.1125 305.586 47.7376 309.497 52.2422C310.229 53.0882 311.281 53.9571 312.356 53.6141C313.408 53.2712 313.66 51.9907 313.706 50.9388C313.889 45.3824 312.539 39.7573 309.817 34.7725C311.83 39.3915 315.764 43.233 320.545 45.3138C321.254 45.6339 322.101 45.9083 322.81 45.5882C324.205 44.9936 323.793 43.0043 323.038 41.7009C320.934 37.9966 317.137 34.2009 314.049 31.2283C306.684 24.0941 296.756 21.0529 287.767 26.9066C279.075 32.5545 277.085 43.1186 276.787 52.7452C276.764 53.294 276.81 53.8657 276.947 54.3916Z" fill="#212121"/>
<path d="M299.821 59.4218C298.655 59.4218 297.534 58.8502 296.825 58.1413C295.841 57.181 295.315 55.9462 294.88 54.7572C294.263 53.0422 293.805 51.2587 293.508 49.4751C293.051 51.6016 292.341 53.6596 291.221 55.5346C290.649 56.495 288.773 58.027 287.424 57.3639C285.983 56.655 285.342 54.6657 285.525 51.1672C284.564 53.4081 283.238 55.3059 281.11 56.5636C279.761 57.3639 278.823 57.5697 278.068 57.2724C277.107 56.8837 276.741 55.7404 276.421 54.5056C276.261 53.9111 276.215 53.2937 276.215 52.6764C276.467 44.3531 277.908 32.6 287.469 26.3804C291.815 23.545 296.71 22.5846 301.651 23.5907C306.112 24.5054 310.549 26.9749 314.461 30.7707C317.96 34.1777 321.506 37.8134 323.542 41.3805C324.09 42.3409 324.548 43.7586 324.182 44.8562C323.999 45.4278 323.61 45.8394 323.038 46.0909C322.123 46.4797 321.094 46.1367 320.316 45.8165C317.457 44.5818 314.895 42.7296 312.836 40.443C313.889 43.8501 314.369 47.3714 314.255 50.9157C314.186 53.1337 313.271 53.8883 312.516 54.1169C311.761 54.3684 310.526 54.2998 309.039 52.5849C307.232 50.5041 305.723 48.1946 304.556 45.7251C304.671 48.8806 304.373 52.0361 303.71 55.123C303.39 56.5864 302.749 58.6215 300.873 59.2389C300.507 59.3761 300.164 59.4218 299.821 59.4218ZM294.171 44.9476C294.263 48.126 294.858 51.3273 295.933 54.3684C296.322 55.4431 296.779 56.5407 297.58 57.3182C298.266 57.9813 299.432 58.5072 300.462 58.1642C301.468 57.8212 302.131 56.7694 302.543 54.8715C303.458 50.6641 303.641 46.3196 303.069 42.0665C302.475 40.1915 302.04 38.2707 301.834 36.35C301.811 36.0527 301.994 35.7783 302.292 35.7326C302.589 35.664 302.863 35.8469 302.955 36.1213C303.504 37.9963 303.916 39.8942 304.19 41.815C305.38 45.4507 307.324 48.8806 309.863 51.8303C310.343 52.402 311.304 53.2937 312.127 53.0422C312.859 52.8135 313.042 51.7388 313.088 50.8928C313.248 46.0909 312.265 41.2891 310.206 36.8759C309.863 36.2585 309.543 35.6411 309.268 35.0009C309.154 34.7265 309.268 34.3835 309.543 34.2692C309.817 34.132 310.16 34.2463 310.297 34.4978C310.641 35.1152 310.938 35.7326 311.235 36.35C313.34 40.0314 316.725 43.0269 320.751 44.7647C321.323 45.0162 322.055 45.2678 322.558 45.0391C322.81 44.9248 322.97 44.7647 323.061 44.4903C323.29 43.8043 322.97 42.7068 322.512 41.9522C320.545 38.4994 317.068 34.9323 313.614 31.5939C305.517 23.7737 295.956 22.173 288.041 27.3408C278.937 33.2631 277.565 44.6504 277.313 52.7221C277.29 53.248 277.359 53.7739 277.473 54.2541C277.748 55.3288 278.022 56.0605 278.434 56.2435C278.8 56.4035 279.509 56.1749 280.47 55.6261C284.198 53.4081 285.273 48.7663 286.394 43.8729C286.852 41.9293 287.309 39.9171 287.95 37.9963C288.041 37.6991 288.361 37.539 288.659 37.6305C288.956 37.722 289.139 38.0192 289.048 38.3165C288.27 41.2891 287.195 45.7022 286.76 49.4065C286.188 54.437 287.035 55.9919 287.858 56.3807C288.384 56.6322 289.711 55.7633 290.168 54.9858C291.953 52.0361 292.616 48.5147 292.982 44.9248C292.913 42.5924 293.119 40.2372 293.6 37.9277C293.668 37.6305 293.943 37.4247 294.24 37.4704C294.537 37.5162 294.743 37.7906 294.72 38.0878C294.606 39.1396 294.537 40.2601 294.446 41.3348C294.4 42.5238 294.309 43.7357 294.171 44.9476Z" fill="#212121"/>
<path d="M313.134 27.6156C314.804 20.6186 310.481 12.684 303.458 9.32273C296.436 5.96143 287.424 7.28766 281.934 12.2039C276.444 17.1201 274.157 23.614 276.742 30.5196C288.27 34.3382 302.086 32.669 313.134 27.6156Z" fill="white"/>
<path d="M290.466 33.1946C285.594 33.1946 280.859 32.4858 276.558 31.0681C276.398 31.0223 276.261 30.8851 276.192 30.7251C273.631 23.8881 275.529 17.1655 281.545 11.792C287.263 6.66999 296.573 5.41236 303.71 8.8194C311.007 12.3179 315.398 20.6411 313.706 27.7754C313.66 27.9354 313.546 28.0955 313.385 28.1641C306.043 31.4797 298.083 33.1946 290.466 33.1946ZM277.176 30.062C287.812 33.5147 301.033 32.44 312.653 27.2266C314.072 20.664 309.954 13.0725 303.207 9.84837C296.482 6.62426 287.698 7.8133 282.3 12.638C276.764 17.6 274.934 23.7738 277.176 30.062Z" fill="#212121"/>
<path d="M298.425 15.6344C300.804 15.2685 302.886 13.8508 303.938 11.1298C304.807 8.84316 304.304 6.07636 302.68 4.22421C300.827 2.1434 297.831 1.38882 295.04 1.61748C293.027 1.80041 290.992 2.46353 289.482 3.81262C286.028 6.87668 287.309 11.084 290.694 13.5536C292.959 15.2228 295.864 16.0231 298.425 15.6344Z" fill="#FEC729"/>
<path d="M297.122 16.2967C294.835 16.2967 292.387 15.4735 290.374 14.0101C288.247 12.4552 286.989 10.3515 286.874 8.225C286.783 6.41858 287.561 4.72649 289.116 3.35453C290.992 1.68531 293.348 1.15939 295.018 1.02219C298.311 0.747801 301.331 1.77677 303.138 3.81185C304.899 5.8012 305.448 8.81952 304.487 11.289C303.458 14.0101 301.331 15.7251 298.517 16.1595C298.06 16.2738 297.579 16.2967 297.122 16.2967ZM296.047 2.14263C295.727 2.14263 295.406 2.1655 295.086 2.18836C293.599 2.32556 291.495 2.78288 289.848 4.24631C288.567 5.38961 287.927 6.73871 287.995 8.20213C288.087 9.98568 289.185 11.7692 291.015 13.1183C293.211 14.719 295.932 15.4735 298.311 15.1077C300.004 14.8562 302.246 13.9186 303.367 10.9461C304.167 8.84238 303.71 6.30425 302.223 4.63503C300.85 3.03441 298.586 2.14263 296.047 2.14263Z" fill="#212121"/>
<path d="M276.581 26.5409C278.526 26.6323 280.996 27.8214 282.208 28.1643C285.571 29.1247 289.07 29.6506 292.57 29.7878C299.249 30.0622 306.317 28.9189 312.082 25.4204C313.706 24.4372 316.085 25.0088 316.611 27.0439C317.8 31.6857 309.68 33.3549 306.821 33.9952C301.765 35.1156 296.596 36.0303 291.358 36.0303C287.561 36.0303 273.379 34.4296 273.882 28.7817C274.042 26.9753 275.163 26.4723 276.581 26.5409Z" fill="white"/>
<path d="M291.335 36.6252C289.574 36.6252 286.211 36.305 283.032 35.6419C278.823 34.7502 275.941 33.4697 274.454 31.8462C273.608 30.9087 273.219 29.8797 273.31 28.7593C273.471 26.8842 274.66 25.8781 276.604 25.9696C278.068 26.0382 279.738 26.6556 281.088 27.1586C281.591 27.3416 282.048 27.5245 282.369 27.6159C285.639 28.5535 289.093 29.0794 292.593 29.2394C297.786 29.4452 305.311 28.8736 311.784 24.9635C312.791 24.3461 314.118 24.2546 315.193 24.6891C316.199 25.1007 316.885 25.901 317.16 26.93C317.434 28.0275 317.297 29.0336 316.725 29.9711C314.987 32.8065 309.703 33.9727 307.164 34.5444L306.935 34.5901C302.383 35.5733 296.985 36.6252 291.335 36.6252ZM276.33 27.09C275.117 27.09 274.546 27.6159 274.431 28.8278C274.363 29.6282 274.637 30.3599 275.278 31.0459C278.32 34.3843 288.247 35.459 291.335 35.459C296.871 35.459 302.2 34.43 306.684 33.4239L306.912 33.3782C309.108 32.898 314.255 31.7547 315.742 29.3309C316.153 28.6678 316.245 27.9589 316.062 27.1815C315.879 26.4955 315.444 25.9696 314.781 25.7181C314.026 25.3979 313.111 25.4894 312.402 25.901C305.7 29.9483 297.9 30.5657 292.57 30.337C288.979 30.1998 285.434 29.6282 282.071 28.6907C281.705 28.5763 281.225 28.4163 280.699 28.2105C279.441 27.7303 277.862 27.1586 276.559 27.09C276.467 27.09 276.398 27.09 276.33 27.09Z" fill="#212121"/>
<path d="M338.181 140.871C338.181 141.306 338.181 141.74 338.364 142.129C338.547 142.518 338.936 142.838 339.347 142.838C340.125 142.838 340.537 141.923 340.56 141.169C340.628 139.454 339.576 138.127 338.775 136.664C339.164 137.327 338.204 139.934 338.181 140.871Z" fill="#212121"/>
<path d="M339.37 143.409C338.73 143.409 338.135 142.997 337.838 142.357C337.609 141.854 337.586 141.305 337.586 140.848C337.586 140.436 337.746 139.842 337.906 139.133C338.066 138.47 338.387 137.212 338.272 136.915C338.135 136.641 338.226 136.298 338.501 136.138C338.775 135.978 339.118 136.092 339.279 136.366C339.439 136.641 339.599 136.938 339.759 137.212C340.468 138.401 341.177 139.636 341.131 141.168C341.131 142.266 340.491 143.409 339.37 143.409ZM338.752 140.871C338.752 141.214 338.752 141.58 338.89 141.877C339.004 142.106 339.187 142.266 339.37 142.266C339.713 142.266 339.988 141.671 340.011 141.145C340.033 140.231 339.69 139.407 339.233 138.584C339.164 138.836 339.118 139.11 339.027 139.43C338.913 140.002 338.752 140.596 338.752 140.871Z" fill="#212121"/>
</svg>
