<svg width="941" height="941" viewBox="0 0 941 941" fill="none" xmlns="http://www.w3.org/2000/svg">
<g clip-path="url(#clip0)">
<path d="M726.852 119.36C726.227 119.36 725.602 118.985 725.352 118.297C725.039 117.485 725.477 116.609 726.29 116.297L938.874 42.8299C939.687 42.5173 940.562 42.9549 940.875 43.7678C941.188 44.5806 940.75 45.4559 939.937 45.7686L727.352 119.235C727.165 119.298 726.977 119.36 726.852 119.36Z" fill="#DBDBDB"/>
<path d="M736.419 227.966C735.668 227.966 734.981 227.404 734.855 226.653C734.73 225.778 735.293 225.028 736.168 224.84L936.186 194.14C937.061 194.015 937.811 194.578 937.999 195.453C938.124 196.329 937.561 197.079 936.686 197.267L736.669 227.966C736.606 227.966 736.481 227.966 736.419 227.966Z" fill="#DBDBDB"/>
<path d="M931.746 361.519C931.684 361.519 931.559 361.519 931.496 361.519L716.536 324.004C715.66 323.879 715.098 323.066 715.285 322.191C715.41 321.316 716.223 320.753 717.098 320.94L932.059 358.455C932.934 358.58 933.497 359.393 933.309 360.269C933.122 360.956 932.497 361.519 931.746 361.519Z" fill="#DBDBDB"/>
<path d="M936.499 508.952C936.311 508.952 936.123 508.89 935.936 508.827L726.29 428.42C725.477 428.108 725.102 427.232 725.414 426.42C725.727 425.607 726.602 425.232 727.415 425.544L937.061 505.951C937.874 506.264 938.249 507.139 937.937 507.952C937.686 508.577 937.124 508.952 936.499 508.952Z" fill="#DBDBDB"/>
<path d="M929.933 667.891C929.683 667.891 929.433 667.829 929.245 667.704L720.662 560.099C719.912 559.723 719.599 558.786 719.974 557.973C720.35 557.222 721.287 556.91 722.1 557.285L930.683 664.89C931.434 665.265 931.746 666.203 931.371 667.016C930.996 667.579 930.496 667.891 929.933 667.891Z" fill="#DBDBDB"/>
<path d="M886.166 342.199C885.29 342.199 884.603 341.511 884.603 340.636C884.603 340.011 883.915 279.362 885.415 234.594C885.415 233.906 885.916 233.343 886.541 233.156C893.356 231.343 900.234 230.592 906.924 229.905C913.489 229.217 920.242 228.466 926.807 226.716C927.62 226.466 928.495 226.966 928.745 227.841C928.995 228.654 928.495 229.529 927.62 229.779C920.804 231.593 913.927 232.343 907.237 233.031C901.047 233.656 894.732 234.344 888.479 235.907C886.979 280.425 887.666 340.011 887.666 340.636C887.729 341.511 887.041 342.199 886.166 342.199Z" fill="#DBDBDB"/>
<path d="M794.067 328.569C793.191 328.569 792.503 327.819 792.503 327.006C792.691 316.689 792.066 305.56 791.441 294.806C790.628 280.612 789.877 267.295 790.753 255.227C790.815 254.727 790.753 254.227 790.753 253.727C790.69 252.289 790.628 250.663 791.628 249.162C793.004 246.974 795.692 246.161 797.443 245.598C810.573 241.409 848.338 237.158 849.964 236.97C850.464 236.907 850.902 237.095 851.214 237.408C851.527 237.72 851.715 238.22 851.652 238.658C851.402 240.909 851.464 244.098 851.527 247.162C851.59 250.35 851.652 253.602 851.339 256.04C851.277 256.915 850.464 257.541 849.589 257.416C848.713 257.353 848.088 256.54 848.213 255.665C848.463 253.414 848.401 250.225 848.338 247.162C848.276 244.786 848.276 242.285 848.338 240.221C840.398 241.159 809.51 244.911 798.318 248.475C796.568 249.037 794.879 249.663 794.192 250.788C793.754 251.476 793.816 252.414 793.816 253.539C793.816 254.164 793.879 254.79 793.816 255.415C792.941 267.232 793.691 280.55 794.504 294.618C795.129 305.435 795.755 316.627 795.567 327.068C795.63 327.881 794.942 328.569 794.067 328.569Z" fill="#DBDBDB"/>
<path d="M743.046 319.565C742.171 319.565 741.483 318.815 741.483 317.94C741.483 317.627 742.108 286.865 739.983 263.793C739.92 262.98 740.483 262.23 741.296 262.105L775.934 256.165C776.81 256.04 777.623 256.603 777.748 257.415C777.873 258.291 777.31 259.104 776.497 259.229L743.296 264.918C745.235 287.928 744.672 317.627 744.672 317.94C744.609 318.877 743.922 319.565 743.046 319.565Z" fill="#DBDBDB"/>
<path d="M836.333 337.322C835.458 337.322 834.77 336.634 834.77 335.759C834.77 335.259 834.333 287.427 832.457 266.544C832.394 265.731 832.957 264.981 833.77 264.856C839.585 263.855 847.213 262.792 854.653 261.792C862.031 260.792 869.659 259.729 875.411 258.728C876.287 258.603 877.1 259.166 877.225 259.979C877.35 260.854 876.787 261.667 875.974 261.792C870.159 262.792 862.531 263.855 855.091 264.856C848.276 265.794 841.273 266.794 835.708 267.669C837.459 289.366 837.897 335.259 837.897 335.696C837.897 336.634 837.209 337.322 836.333 337.322Z" fill="#DBDBDB"/>
<path d="M897.983 576.168C888.979 576.168 879.163 574.542 873.223 568.477C871.285 566.539 870.472 564.538 870.722 562.662C870.972 560.662 872.41 558.848 875.036 557.348C883.227 552.471 901.984 550.783 906.674 551.158L907.237 551.22C914.239 551.72 927.369 552.596 931.371 559.098C932.872 561.474 933.122 563.788 932.246 565.914C930.621 569.665 925.306 572.479 916.428 574.292C912.989 574.917 905.798 576.168 897.983 576.168ZM905.423 554.222C900.046 554.222 883.665 555.847 876.599 560.036C875.411 560.724 873.973 561.85 873.848 563.1C873.723 564.038 874.286 565.101 875.474 566.351C883.352 574.417 901.484 574.104 915.802 571.228C923.305 569.728 928.245 567.289 929.37 564.663C929.871 563.538 929.683 562.225 928.745 560.787C925.556 555.66 913.051 554.784 907.049 554.347L906.486 554.284C906.174 554.221 905.798 554.222 905.423 554.222Z" fill="#DBDBDB"/>
<path d="M874.348 634.691C873.536 634.691 872.785 634.003 872.785 633.19C872.723 631.252 872.535 623.749 872.223 614.308C871.66 594.55 870.909 567.414 870.784 564.538C870.784 563.662 871.41 562.975 872.285 562.912H872.348C873.16 562.912 873.848 563.6 873.911 564.413C874.036 567.289 874.786 594.362 875.349 614.182C875.599 623.624 875.849 631.127 875.912 633.065C875.974 633.94 875.286 634.628 874.348 634.691C874.411 634.691 874.348 634.691 874.348 634.691Z" fill="#DBDBDB"/>
<path d="M930.433 654.199C929.558 654.199 928.87 653.449 928.87 652.636C928.87 652.011 929.745 592.049 928.933 560.599C928.933 559.724 929.62 559.036 930.433 558.974C931.309 558.974 931.996 559.661 932.059 560.474C932.872 591.987 931.996 652.011 931.996 652.636C931.996 653.511 931.309 654.199 930.433 654.199Z" fill="#DBDBDB"/>
<path d="M845.962 545.156C838.772 545.156 830.956 543.843 826.204 539.028C824.641 537.403 823.953 535.777 824.141 534.151C824.391 532.463 825.579 530.963 827.705 529.712C834.208 525.836 849.088 524.523 852.84 524.773H853.278C858.842 525.148 869.284 525.898 872.535 531.15C874.036 533.589 873.786 535.59 873.223 536.778C871.91 539.841 867.658 542.092 860.531 543.593C857.842 544.218 852.152 545.156 845.962 545.156ZM851.777 527.899C847.588 527.899 834.77 529.212 829.268 532.463C828.018 533.214 827.33 533.964 827.267 534.589C827.142 535.339 827.893 536.277 828.455 536.84C834.583 543.093 848.713 542.842 859.905 540.592C865.658 539.404 869.472 537.59 870.347 535.652C870.472 535.339 870.847 534.464 869.847 532.901C867.408 529.024 857.342 528.274 853.028 528.024H852.59C852.402 527.899 852.09 527.899 851.777 527.899Z" fill="#DBDBDB"/>
<path d="M827.705 601.678C826.892 601.678 826.142 600.99 826.142 600.178C826.142 599.74 824.891 553.847 824.266 535.714C824.266 534.839 824.891 534.151 825.767 534.089H825.829C826.642 534.089 827.33 534.777 827.392 535.589C828.018 553.722 829.268 599.615 829.331 600.053C829.331 600.928 828.643 601.678 827.705 601.678C827.768 601.678 827.768 601.678 827.705 601.678Z" fill="#DBDBDB"/>
<path d="M871.972 548.72C871.097 548.72 870.409 548.032 870.409 547.219L870.034 532.651C870.034 531.775 870.722 531.088 871.535 531.025C872.41 530.963 873.098 531.713 873.16 532.526L873.535 547.094C873.535 547.969 872.848 548.657 871.972 548.72Z" fill="#DBDBDB"/>
<path d="M761.741 516.644C754.551 516.644 746.735 515.331 741.983 510.517C740.42 508.891 739.732 507.265 739.92 505.64C740.17 503.952 741.358 502.451 743.484 501.2C749.986 497.324 764.867 496.011 768.619 496.261H769.056C774.621 496.636 785.063 497.386 788.314 502.639C789.815 505.077 789.565 507.078 789.002 508.266C787.689 511.33 783.437 513.58 776.309 515.081C773.558 515.644 767.931 516.644 761.741 516.644ZM767.493 499.387C763.304 499.387 750.486 500.7 745.047 503.952C743.796 504.702 743.109 505.452 743.046 506.077C742.921 506.828 743.671 507.766 744.234 508.328C750.361 514.581 764.492 514.331 775.684 512.08C781.436 510.892 785.25 509.079 786.126 507.14C786.251 506.828 786.626 505.952 785.626 504.389C783.187 500.513 773.121 499.762 768.806 499.512H768.369C768.119 499.387 767.868 499.387 767.493 499.387Z" fill="#DBDBDB"/>
<path d="M741.921 561.037C741.921 561.037 740.67 525.523 739.982 507.203C739.982 506.328 740.608 505.64 741.483 505.577C742.358 505.515 743.046 506.202 743.109 507.078C743.734 525.46 745.047 560.912 745.047 560.912L741.921 561.037Z" fill="#DBDBDB"/>
<path d="M787.814 534.902C786.939 534.902 786.251 534.214 786.251 533.401C786.126 529.775 786.063 523.272 786.001 517.02C785.938 511.642 785.876 506.578 785.813 504.077C785.813 503.201 786.501 502.514 787.314 502.451C788.127 502.451 788.877 503.139 788.939 503.952C789.002 506.453 789.064 511.58 789.127 516.957C789.19 523.209 789.315 529.65 789.377 533.276C789.377 534.214 788.689 534.902 787.814 534.902Z" fill="#DBDBDB"/>
<path d="M787.126 553.659C782.374 553.659 777.122 552.784 773.996 549.532C772.87 548.344 772.37 547.156 772.495 545.906C772.683 544.655 773.496 543.53 775.059 542.655C779.373 540.091 789.127 539.216 791.565 539.403H791.816C795.505 539.653 802.445 540.154 804.696 543.78C805.821 545.593 805.571 547.031 805.196 547.907C804.258 550.033 801.382 551.658 796.63 552.596C794.879 553.034 791.19 553.659 787.126 553.659ZM790.753 542.53C787.876 542.53 779.873 543.467 776.622 545.406C775.872 545.843 775.622 546.219 775.559 546.406C775.559 546.531 775.684 546.906 776.184 547.407C779.998 551.283 788.877 551.095 795.942 549.657C800.069 548.845 801.882 547.594 802.257 546.781C802.32 546.656 802.445 546.281 802.007 545.531C800.569 543.28 794.066 542.78 791.565 542.655H791.315C791.19 542.53 791.003 542.53 790.753 542.53Z" fill="#DBDBDB"/>
<path d="M773.808 581.796C773.808 581.796 772.996 558.912 772.558 547.032C772.558 546.157 773.183 545.469 774.058 545.406H774.121C774.934 545.406 775.622 546.094 775.684 546.907C776.122 558.724 776.935 581.608 776.935 581.608L773.808 581.796Z" fill="#DBDBDB"/>
<path d="M804.883 589.549C804.071 589.549 803.32 588.861 803.32 588.048C803.32 587.798 802.507 561.037 802.07 545.031C802.07 544.155 802.758 543.468 803.57 543.405C804.446 543.342 805.134 544.093 805.196 544.906C805.634 560.85 806.447 587.61 806.447 587.923C806.447 588.798 805.759 589.486 804.883 589.549Z" fill="#DBDBDB"/>
<path d="M920.054 492.322C919.179 492.322 918.491 491.634 918.491 490.759V394.47C918.491 393.595 919.179 392.907 920.054 392.907C920.93 392.907 921.617 393.595 921.617 394.47V490.759C921.617 491.572 920.93 492.322 920.054 492.322Z" fill="#DBDBDB"/>
<path d="M877.287 471.626C877.225 471.626 877.225 471.626 877.287 471.626C876.349 471.626 875.724 470.876 875.724 470L877.537 411.852C877.537 410.977 878.288 410.289 879.163 410.352C880.038 410.352 880.726 411.102 880.664 411.977L878.85 470.126C878.788 471.001 878.1 471.626 877.287 471.626Z" fill="#DBDBDB"/>
<path d="M835.521 458.558C834.645 458.558 833.958 457.808 833.958 456.933L835.771 372.524C835.771 371.649 836.458 371.023 837.334 371.023C837.334 371.023 837.334 371.023 837.396 371.023C838.272 371.023 838.959 371.774 838.897 372.649L837.084 457.058C837.084 457.871 836.396 458.558 835.521 458.558Z" fill="#DBDBDB"/>
<path d="M799.381 444.49C798.506 444.49 797.818 443.802 797.818 442.989L796.818 395.158C796.818 394.283 797.505 393.595 798.318 393.595C798.318 393.595 798.318 393.595 798.381 393.595C799.256 393.595 799.944 394.283 799.944 395.095L800.944 442.927C801.007 443.74 800.319 444.428 799.381 444.49C799.444 444.49 799.444 444.49 799.381 444.49Z" fill="#DBDBDB"/>
<path d="M758.177 435.987C757.302 435.987 756.614 435.299 756.614 434.424L756.239 355.642C756.239 354.767 756.927 354.079 757.802 354.079C758.677 354.079 759.365 354.767 759.365 355.642L759.74 434.424C759.74 435.299 759.052 435.987 758.177 435.987C758.24 435.987 758.177 435.987 758.177 435.987Z" fill="#DBDBDB"/>
<path d="M726.852 419.105C725.977 419.105 725.289 418.417 725.289 417.542V385.654C725.289 384.779 725.977 384.091 726.852 384.091C727.728 384.091 728.415 384.779 728.415 385.654V417.542C728.415 418.417 727.665 419.105 726.852 419.105Z" fill="#DBDBDB"/>
<path d="M763.617 214.211C763.617 214.211 763.554 214.211 763.492 214.211C762.617 214.148 761.991 213.398 762.054 212.585C762.304 208.521 762.241 204.519 762.179 200.643C762.116 196.704 762.054 192.64 762.304 188.451C762.366 187.763 762.804 187.2 763.429 187.012C786.939 180.572 810.948 175.633 834.145 170.944C852.902 167.13 872.285 163.19 891.48 158.376C891.918 158.251 892.418 158.376 892.793 158.689C893.169 159.001 893.419 159.439 893.419 159.939C893.419 162.378 893.356 168.943 893.356 175.32C893.294 181.698 893.294 188.263 893.294 190.701C893.294 191.577 892.606 192.265 891.73 192.265C890.855 192.265 890.167 191.577 890.167 190.701C890.167 188.263 890.23 181.698 890.23 175.32C890.292 170.256 890.292 165.066 890.292 161.94C871.66 166.504 852.902 170.318 834.77 174.07C811.949 178.697 788.377 183.511 765.368 189.826C765.18 193.515 765.243 197.141 765.305 200.705C765.368 204.644 765.43 208.709 765.18 212.898C765.118 213.586 764.43 214.211 763.617 214.211Z" fill="#DBDBDB"/>
<path d="M805.571 142.119C805.509 142.119 805.509 142.119 805.571 142.119C804.696 142.119 804.008 141.369 804.008 140.494C804.07 137.743 804.008 135.554 803.945 133.428C803.883 131.24 803.82 128.989 803.883 126.175C803.883 125.488 804.321 124.925 805.008 124.737L847.776 111.857C848.276 111.732 848.776 111.795 849.151 112.107C849.526 112.42 849.776 112.858 849.776 113.358V127.926C849.776 128.802 849.089 129.489 848.213 129.489C847.338 129.489 846.65 128.802 846.65 127.926V115.484L807.009 127.426C807.009 129.677 807.072 131.553 807.134 133.366C807.197 135.554 807.259 137.805 807.197 140.619C807.072 141.432 806.384 142.119 805.571 142.119Z" fill="#DBDBDB"/>
<path d="M782.124 179.634C782.124 179.634 782.062 179.634 781.999 179.634C781.124 179.572 780.499 178.821 780.561 178.009C780.811 173.944 780.561 169.818 780.374 165.754C780.186 161.627 779.936 157.375 780.186 153.186C780.249 152.561 780.686 151.998 781.311 151.811C795.567 147.496 810.01 143.932 824.016 140.494C837.959 137.055 852.402 133.491 866.533 129.239C866.971 129.114 867.533 129.177 867.909 129.489C868.284 129.802 868.534 130.239 868.534 130.74C868.784 138.993 868.784 159.751 868.784 159.939C868.784 160.814 868.096 161.502 867.221 161.502C866.345 161.502 865.658 160.814 865.658 159.939C865.658 159.751 865.658 141.994 865.47 132.866C851.84 136.93 838.084 140.306 824.704 143.62C811.073 146.996 797.068 150.435 783.187 154.562C783.062 158.251 783.25 162.065 783.437 165.691C783.625 169.818 783.875 174.069 783.625 178.259C783.625 179.009 782.937 179.634 782.124 179.634Z" fill="#DBDBDB"/>
<path d="M773.621 39.4535C771.808 39.4535 770.308 39.3909 769.245 39.3284C761.679 38.8907 756.865 37.2026 755.051 34.2639C754.301 33.0759 753.738 31.1377 754.926 28.3866C757.49 22.4467 768.182 20.0707 773.934 18.8202L774.372 18.6952C778.186 17.8198 793.817 16.9445 801.195 19.9457C803.571 20.9461 805.009 22.2591 805.509 23.9473C805.947 25.5729 805.509 27.3862 804.134 29.2619C797.756 38.1404 782.312 39.4535 773.621 39.4535ZM785.876 21.0711C780.999 21.0711 776.623 21.4463 775.122 21.8214L774.684 21.9465C770.245 22.9469 759.803 25.1978 757.865 29.6996C757.052 31.5128 757.615 32.4507 757.803 32.7008C758.991 34.639 763.242 35.9521 769.495 36.2647C781.5 36.8899 796.255 34.9517 801.695 27.5112C802.258 26.7609 802.821 25.698 802.633 24.8852C802.383 24.0098 801.132 23.322 800.132 22.8844C796.631 21.5088 791.003 21.0711 785.876 21.0711Z" fill="#DBDBDB"/>
<path d="M801.944 85.5347C801.007 85.5347 800.381 84.7844 800.381 83.909C800.444 82.2834 800.631 75.6557 800.819 67.5275C801.257 51.4586 801.882 29.4498 802.007 27.0739C802.007 26.1985 802.82 25.5108 803.633 25.5733C804.508 25.5733 805.196 26.3236 805.133 27.1989C805.071 29.5124 804.446 51.5211 803.945 67.6525C803.695 75.7808 803.508 82.4084 803.508 84.0341C803.508 84.9094 802.82 85.5347 801.944 85.5347Z" fill="#DBDBDB"/>
<path d="M757.489 105.104C756.677 105.104 755.989 104.479 755.926 103.604C755.926 103.166 753.675 57.5228 754.301 31.3874C754.301 30.512 755.051 29.8242 755.926 29.8868C756.802 29.8868 757.489 30.6371 757.427 31.5124C756.739 57.5228 758.99 103.041 759.053 103.479C759.115 104.354 758.427 105.104 757.552 105.104C757.552 105.104 757.552 105.104 757.489 105.104Z" fill="#DBDBDB"/>
<path d="M1.56295 696.715C0.937705 696.715 0.37498 696.34 0.124881 695.778C-0.187744 694.965 0.124881 694.089 0.937705 693.714C110.169 647.133 229.841 597.926 298.806 571.29C299.619 570.978 300.495 571.353 300.807 572.166C301.12 572.979 300.745 573.854 299.932 574.167C231.029 600.74 111.357 649.947 2.1882 696.528C2.00063 696.653 1.75053 696.715 1.56295 696.715Z" fill="#DBDBDB"/>
<path d="M1.56324 531.838C0.875471 531.838 0.312746 531.4 0.0626468 530.775C-0.187453 529.962 0.250222 529.087 1.06305 528.774C52.396 511.892 97.8516 498.262 141.807 485.069C191.264 470.188 238.032 456.183 289.115 438.863C289.928 438.613 290.804 439.051 291.116 439.864C291.366 440.676 290.929 441.552 290.116 441.864C238.97 459.246 192.202 473.252 142.682 488.133C98.727 501.326 53.2714 514.956 2.00092 531.838C1.87587 531.838 1.75082 531.838 1.56324 531.838Z" fill="#DBDBDB"/>
<path d="M1.56313 377.838C0.812835 377.838 0.125061 377.275 1.11554e-05 376.525C-0.125039 375.65 0.437686 374.9 1.31303 374.712L289.428 327.443C290.303 327.318 291.053 327.881 291.241 328.756C291.366 329.631 290.803 330.382 289.928 330.569L1.81323 377.838C1.75071 377.838 1.62566 377.838 1.56313 377.838Z" fill="#DBDBDB"/>
<path d="M298.244 246.473C298.181 246.473 298.181 246.473 298.119 246.473C238.282 242.409 172.131 237.345 102.103 231.905C69.34 229.404 35.5141 226.778 1.43798 224.215C0.562635 224.152 -0.0626144 223.402 -8.94461e-05 222.526C0.0624355 221.651 0.812734 221.026 1.68808 221.088C35.7642 223.652 69.5901 226.278 102.353 228.779C172.381 234.156 238.47 239.283 298.306 243.347C299.182 243.41 299.807 244.16 299.744 245.035C299.744 245.848 299.057 246.473 298.244 246.473Z" fill="#DBDBDB"/>
<path d="M279.299 126.426C279.174 126.426 278.986 126.426 278.861 126.364C277.11 125.863 100.29 75.9684 1.12544 48.645C0.312618 48.3949 -0.187582 47.5821 0.0625179 46.7067C0.312618 45.8939 1.12544 45.3937 2.00079 45.6438C101.165 72.9672 277.986 122.862 279.736 123.362C280.549 123.612 281.049 124.488 280.799 125.301C280.612 125.988 279.987 126.426 279.299 126.426Z" fill="#DBDBDB"/>
<path d="M41.7665 219.463C41.704 219.463 41.704 219.463 41.6415 219.463C40.7661 219.4 40.1409 218.65 40.2034 217.775C40.2659 217.212 43.8924 158.626 45.0178 109.982L8.75337 95.9136C7.94055 95.601 7.5654 94.7256 7.87802 93.9128C8.19065 93.1 9.066 92.7248 9.87882 93.0374L47.2062 107.481C47.8314 107.731 48.2066 108.294 48.2066 108.981C47.1437 157.938 43.3922 217.4 43.3922 218.025C43.3297 218.838 42.6419 219.463 41.7665 219.463Z" fill="#DBDBDB"/>
<path d="M128.614 224.215C128.614 224.215 128.551 224.215 128.614 224.215C127.676 224.152 127.05 223.465 127.05 222.589C127.488 211.272 128.739 197.829 129.989 184.887C131.615 168.13 133.24 150.748 133.115 137.618C133.115 136.93 133.178 136.242 133.24 135.617C133.365 134.367 133.428 133.241 133.053 132.366C132.428 131.053 130.99 130.303 129.301 129.552C119.047 124.988 90.4734 118.86 82.8453 117.297C82.8453 119.611 82.6577 122.362 82.4702 124.988C82.2826 128.364 82.0325 131.803 82.1575 134.367C82.2201 135.242 81.5323 135.93 80.657 135.992C79.7816 135.992 79.0938 135.367 79.0313 134.492C78.9063 131.803 79.1564 128.239 79.4065 124.8C79.594 121.424 79.8441 117.985 79.7191 115.422C79.7191 114.921 79.9067 114.484 80.2818 114.171C80.657 113.858 81.1572 113.733 81.5948 113.858C83.0954 114.171 118.485 121.299 130.614 126.739C132.24 127.489 134.741 128.552 135.929 130.99C136.742 132.616 136.554 134.367 136.429 135.867C136.367 136.492 136.304 137.055 136.367 137.555C136.554 150.873 134.866 168.318 133.24 185.137C131.99 198.08 130.739 211.46 130.302 222.652C130.177 223.59 129.426 224.215 128.614 224.215Z" fill="#DBDBDB"/>
<path d="M172.131 224.215C172.068 224.215 172.006 224.215 171.943 224.215C171.068 224.09 170.505 223.277 170.63 222.464C170.693 222.026 177.008 176.696 180.322 151.248L149.372 142.87C148.559 142.62 148.059 141.807 148.246 140.931C148.497 140.119 149.309 139.618 150.185 139.806L182.51 148.559C183.26 148.747 183.761 149.497 183.636 150.248C180.322 175.383 173.819 222.339 173.757 222.839C173.569 223.652 172.944 224.215 172.131 224.215Z" fill="#DBDBDB"/>
<path d="M88.6602 224.215C88.5976 224.215 88.5976 224.215 88.5351 224.215C87.6598 224.152 87.0345 223.402 87.097 222.589C87.097 222.089 90.1608 171.694 93.0369 148.185C87.7848 146.684 81.2197 144.183 74.8422 141.744C68.0269 139.118 60.9616 136.43 55.647 134.992C54.8342 134.742 54.334 133.929 54.5216 133.053C54.7717 132.241 55.5845 131.74 56.4598 131.928C61.8995 133.429 69.0273 136.117 75.9676 138.743C82.7828 141.369 89.8481 144.058 95.1627 145.496C95.913 145.684 96.4132 146.434 96.2882 147.184C93.3495 169.943 90.2233 222.152 90.2233 222.714C90.2233 223.59 89.5355 224.215 88.6602 224.215Z" fill="#DBDBDB"/>
<path d="M159.251 284.614C153.061 284.614 147.371 283.613 144.682 283.051C137.555 281.613 133.303 279.299 131.99 276.235C131.49 274.985 131.177 273.047 132.678 270.608C135.929 265.356 146.371 264.606 151.935 264.231H152.373C156.124 263.981 170.943 265.294 177.508 269.17C179.634 270.421 180.822 271.921 181.072 273.609C181.259 275.235 180.572 276.861 179.009 278.486C174.257 283.301 166.441 284.614 159.251 284.614ZM153.498 267.357C153.186 267.357 152.873 267.357 152.686 267.357H152.248C147.934 267.67 137.867 268.357 135.429 272.234C134.428 273.797 134.803 274.672 134.929 274.985C135.804 276.923 139.555 278.736 145.37 279.924C156.562 282.238 170.693 282.425 176.82 276.173C177.445 275.548 178.133 274.672 178.008 273.922C177.946 273.234 177.195 272.484 176.007 271.796C170.443 268.67 157.688 267.357 153.498 267.357Z" fill="#DBDBDB"/>
<path d="M177.508 341.136C176.57 341.136 175.945 340.386 175.945 339.511C175.945 339.073 177.196 293.18 177.883 275.048C177.883 274.172 178.634 273.484 179.509 273.547C180.384 273.547 181.072 274.297 181.01 275.173C180.384 293.305 179.134 339.198 179.071 339.636C179.071 340.449 178.384 341.136 177.508 341.136Z" fill="#DBDBDB"/>
<path d="M133.303 345.513L130.177 345.451C130.177 345.451 131.427 297.057 132.115 271.984C132.115 271.109 132.803 270.421 133.741 270.483C134.616 270.483 135.304 271.234 135.241 272.109C134.616 297.057 133.303 345.513 133.303 345.513Z" fill="#DBDBDB"/>
<path d="M50.0199 292.742C42.2043 292.742 35.0139 291.492 31.575 290.804C22.6965 288.991 17.3819 286.177 15.7562 282.426C14.8184 280.3 15.131 278.049 16.6316 275.673C20.6957 269.17 33.7634 268.233 40.7662 267.795L41.3289 267.732C46.0183 267.42 64.7758 269.108 72.9665 273.922C75.5301 275.423 76.9681 277.236 77.2808 279.237C77.5309 281.175 76.6555 283.114 74.7798 285.052C68.8399 291.117 59.0235 292.742 50.0199 292.742ZM42.5794 270.796C42.1418 270.796 41.8291 270.796 41.5165 270.796L40.9538 270.859C34.9514 271.296 22.4464 272.172 19.2576 277.299C18.3198 278.799 18.1322 280.05 18.6324 281.175C19.7578 283.801 24.6973 286.177 32.2003 287.74C46.5185 290.679 64.6507 290.929 72.5289 282.863C73.7168 281.613 74.2796 280.55 74.1545 279.612C73.9669 278.362 72.5289 277.299 71.4034 276.548C64.4006 272.484 48.0191 270.796 42.5794 270.796Z" fill="#DBDBDB"/>
<path d="M75.1549 298.12C75.0924 298.12 75.0924 298.12 75.1549 298.12C74.217 298.12 73.5918 297.369 73.5918 296.494C73.7794 290.617 73.9044 285.302 74.092 281.05C74.092 280.175 74.8423 279.487 75.7176 279.55C76.593 279.55 77.2808 280.3 77.2182 281.175C77.0932 285.427 76.9056 290.742 76.718 296.619C76.6555 297.432 75.9677 298.12 75.1549 298.12Z" fill="#DBDBDB"/>
<path d="M15.0685 365.771C15.006 365.771 15.006 365.771 15.0685 365.771C14.1306 365.771 13.5054 365.021 13.5054 364.146C13.5054 363.583 15.131 308.561 15.9438 277.048C15.9438 276.173 16.6941 275.485 17.5695 275.548C18.4448 275.548 19.1326 276.298 19.0701 277.174C18.2573 308.624 16.6316 363.708 16.6316 364.271C16.5691 365.084 15.8813 365.771 15.0685 365.771Z" fill="#DBDBDB"/>
<path d="M95.9133 315.752C90.8487 315.752 86.2219 315.001 83.971 314.626C77.8436 313.501 74.3422 311.75 73.2792 309.249C72.9041 308.249 72.654 306.686 73.967 304.81C76.7181 300.808 85.3466 300.246 89.9734 299.996H90.3485C93.4123 299.808 105.605 300.808 110.982 303.684C112.858 304.685 113.92 305.935 114.108 307.311C114.296 308.686 113.67 309.999 112.295 311.25C108.356 314.751 101.853 315.752 95.9133 315.752ZM91.2239 302.997C90.9738 302.997 90.7237 302.997 90.5361 302.997H90.161C86.6596 303.247 78.4688 303.747 76.5305 306.498C75.9053 307.373 76.0929 307.811 76.1554 307.999C76.5931 309.062 79.0315 310.5 84.5337 311.5C93.6624 313.188 105.167 313.376 110.106 308.812C110.794 308.186 110.982 307.749 110.982 307.561C110.982 307.498 110.857 306.998 109.544 306.311C105.104 303.935 94.6628 302.997 91.2239 302.997Z" fill="#DBDBDB"/>
<path d="M110.919 352.016C110.919 352.016 110.857 352.016 110.919 352.016C109.981 351.954 109.356 351.266 109.356 350.39C109.356 350.078 110.419 321.566 110.919 308.186C110.982 307.311 111.67 306.686 112.545 306.686C113.42 306.748 114.108 307.436 114.046 308.311C113.545 321.692 112.482 350.203 112.482 350.515C112.482 351.391 111.732 352.016 110.919 352.016Z" fill="#DBDBDB"/>
<path d="M73.4669 357.331C73.4044 357.331 73.4044 357.331 73.4669 357.331C72.5291 357.331 71.9038 356.58 71.9038 355.705C71.9038 355.392 72.9667 324.192 73.4669 305.935C73.4669 305.06 74.2172 304.372 75.0926 304.435C75.9679 304.435 76.6557 305.185 76.5932 306.06C76.093 324.318 75.03 355.517 75.03 355.83C74.9675 356.643 74.2797 357.331 73.4669 357.331Z" fill="#DBDBDB"/>
<path d="M252.038 279.112C245.848 279.112 240.158 278.111 237.469 277.549C230.342 276.111 226.09 273.797 224.777 270.734C224.277 269.483 223.964 267.545 225.465 265.106C228.716 259.854 239.158 259.104 244.722 258.729H245.16C248.912 258.479 263.73 259.792 270.295 263.668C272.421 264.919 273.609 266.419 273.859 268.107C274.047 269.733 273.359 271.359 271.796 272.984C267.044 277.799 259.166 279.112 252.038 279.112ZM246.223 261.855C245.91 261.855 245.598 261.855 245.41 261.855H244.972C240.658 262.168 230.592 262.855 228.153 266.732C227.153 268.295 227.528 269.17 227.653 269.483C228.528 271.421 232.28 273.235 238.095 274.422C249.287 276.736 263.417 276.923 269.545 270.671C270.17 270.046 270.858 269.17 270.733 268.42C270.67 267.732 269.92 266.982 268.732 266.294C263.23 263.168 250.412 261.855 246.223 261.855Z" fill="#DBDBDB"/>
<path d="M271.858 323.505L268.732 323.379C268.732 323.379 269.982 287.928 270.67 269.546C270.67 268.67 271.42 268.045 272.233 268.045H272.296C273.171 268.045 273.859 268.795 273.796 269.671C273.109 288.053 271.858 323.505 271.858 323.505Z" fill="#DBDBDB"/>
<path d="M225.965 284.864C225.965 284.864 225.902 284.864 225.965 284.864C225.09 284.864 224.402 284.114 224.402 283.239C224.464 279.675 224.589 276.736 224.652 273.923C224.714 271.359 224.777 268.983 224.84 266.357C224.84 265.482 225.59 264.794 226.465 264.856C227.341 264.856 228.028 265.607 227.966 266.482C227.903 269.046 227.841 271.484 227.778 274.048C227.716 276.799 227.591 279.8 227.528 283.301C227.466 284.239 226.778 284.864 225.965 284.864Z" fill="#DBDBDB"/>
<path d="M221.213 301.808C217.149 301.808 213.523 301.183 211.772 300.808C207.02 299.808 204.144 298.245 203.206 296.119C202.831 295.181 202.581 293.743 203.706 291.992C205.957 288.366 212.835 287.865 216.586 287.615H216.836C219.275 287.428 229.029 288.303 233.343 290.867C234.844 291.742 235.719 292.867 235.907 294.118C236.094 295.368 235.594 296.556 234.406 297.744C231.217 300.933 225.965 301.808 221.213 301.808ZM217.587 290.679C217.337 290.679 217.149 290.679 217.024 290.679H216.774C214.335 290.867 207.77 291.304 206.332 293.555C205.832 294.305 206.02 294.681 206.082 294.806C206.457 295.618 208.271 296.806 212.397 297.682C219.463 299.12 228.404 299.307 232.155 295.431C232.655 294.931 232.78 294.556 232.78 294.43C232.78 294.305 232.53 293.93 231.717 293.43C228.466 291.617 220.463 290.679 217.587 290.679Z" fill="#DBDBDB"/>
<path d="M234.594 329.944L231.467 329.819C231.467 329.819 232.28 306.935 232.718 295.118C232.718 294.242 233.468 293.555 234.343 293.617C235.219 293.617 235.907 294.368 235.844 295.243C235.406 307.06 234.594 329.944 234.594 329.944Z" fill="#DBDBDB"/>
<path d="M203.519 337.697C203.456 337.697 203.456 337.697 203.519 337.697C202.581 337.697 201.956 336.947 201.956 336.072C201.956 335.821 202.768 309.061 203.206 293.054C203.206 292.179 203.894 291.491 204.832 291.554C205.707 291.554 206.395 292.304 206.332 293.179C205.895 309.186 205.082 335.946 205.082 336.197C205.019 337.009 204.332 337.697 203.519 337.697Z" fill="#DBDBDB"/>
<path d="M36.9523 509.516H36.8898C36.0144 509.453 35.3892 508.765 35.3892 507.89C36.2645 489.633 36.4521 471.063 36.7022 453.056C36.9523 435.048 37.1399 416.416 38.0152 398.096C38.0777 397.221 38.7655 396.596 39.6409 396.596C40.5162 396.658 41.1415 397.346 41.1415 398.221C40.2661 416.479 40.0785 435.048 39.8284 453.056C39.5783 471.063 39.3908 489.695 38.5154 508.015C38.4529 508.89 37.7651 509.516 36.9523 509.516Z" fill="#DBDBDB"/>
<path d="M73.1542 498.198C72.2788 498.198 71.5911 497.448 71.5911 496.573L73.3418 430.922C73.3418 430.046 74.0921 429.358 74.9674 429.421C75.8428 429.421 76.5305 430.171 76.468 431.047L74.7173 496.698C74.7173 497.573 74.0295 498.198 73.1542 498.198Z" fill="#DBDBDB"/>
<path d="M107.23 485.131C106.355 485.131 105.667 484.443 105.667 483.568V386.029C105.667 385.154 106.355 384.466 107.23 384.466C108.106 384.466 108.793 385.154 108.793 386.029V483.568C108.793 484.381 108.106 485.131 107.23 485.131Z" fill="#DBDBDB"/>
<path d="M150.06 458.87C149.247 458.87 148.559 458.245 148.497 457.37L146.684 416.103C146.621 415.228 147.309 414.54 148.184 414.478C149.06 414.415 149.747 415.103 149.81 415.978L151.623 457.245C151.686 458.12 150.998 458.808 150.123 458.87C150.06 458.87 150.06 458.87 150.06 458.87Z" fill="#DBDBDB"/>
<path d="M200.705 460.747C199.83 460.747 199.142 460.059 199.142 459.246L197.329 374.837C197.329 373.962 198.016 373.274 198.829 373.212C199.705 373.149 200.392 373.899 200.455 374.712L202.268 459.121C202.268 459.996 201.58 460.684 200.705 460.747Z" fill="#DBDBDB"/>
<path d="M231.092 440.05C231.03 440.05 231.03 440.05 230.967 440.05C230.092 439.987 229.466 439.237 229.529 438.362L231.405 408.35C231.467 407.474 232.218 406.849 233.093 406.912C233.968 406.974 234.593 407.724 234.531 408.6L232.655 438.612C232.593 439.425 231.905 440.05 231.092 440.05Z" fill="#DBDBDB"/>
<path d="M269.107 440.05C268.232 440.05 267.544 439.362 267.544 438.487L267.919 359.706C267.919 358.83 268.607 358.143 269.482 358.143C270.358 358.143 271.046 358.83 271.046 359.706L270.67 438.487C270.67 439.362 269.983 440.05 269.107 440.05Z" fill="#DBDBDB"/>
<path d="M48.4568 601.303C47.769 601.303 47.1438 600.865 46.9562 600.177C46.7061 599.364 47.1438 598.489 47.9566 598.239L155.374 564.913C155.875 564.788 156.375 564.85 156.75 565.163C157.125 565.476 157.375 565.913 157.375 566.414C157.375 566.539 157.5 578.231 158.688 583.233C158.876 584.046 158.376 584.921 157.5 585.109C156.687 585.296 155.812 584.796 155.625 583.921C154.687 579.919 154.374 572.228 154.249 568.539L48.8945 601.24C48.7694 601.303 48.5819 601.303 48.4568 601.303Z" fill="#DBDBDB"/>
<path d="M47.3315 636.379C46.7062 636.379 46.081 636.004 45.8309 635.316C45.5183 634.504 45.9559 633.628 46.7687 633.316C66.4641 626.5 97.7891 614.371 125.488 603.741C142.744 597.051 159.063 590.799 171.256 586.234C191.827 578.606 192.639 578.981 193.577 579.419C194.077 579.669 194.453 580.169 194.453 580.732C194.515 581.67 195.828 603.866 195.516 608.681C195.453 609.556 194.703 610.181 193.89 610.181C193.015 610.119 192.389 609.369 192.389 608.556C192.639 604.679 191.702 587.985 191.389 582.67C184.574 584.359 155.124 595.738 126.551 606.743C98.852 617.434 67.527 629.564 47.7691 636.379C47.7066 636.379 47.519 636.379 47.3315 636.379Z" fill="#DBDBDB"/>
<path d="M203.644 578.918H203.581C202.706 578.856 202.081 578.106 202.081 577.293C202.081 576.793 204.582 530.024 203.144 505.076L109.856 530.774L111.857 570.415C111.92 571.29 111.232 572.041 110.357 572.041C109.481 572.103 108.731 571.415 108.731 570.54L106.668 529.649C106.605 528.898 107.105 528.273 107.793 528.086L204.144 501.513C204.582 501.387 205.082 501.45 205.457 501.763C205.832 502.013 206.082 502.45 206.082 502.951C207.77 527.523 205.144 576.98 205.144 577.48C205.144 578.231 204.457 578.918 203.644 578.918Z" fill="#DBDBDB"/>
<path d="M173.632 87.4101C172.756 87.4101 172.069 86.6598 172.069 85.8469C172.069 85.4093 172.694 39.4534 174.57 13.6307C164.753 10.4419 154.687 8.69119 144.87 6.9405C138.993 5.9401 132.99 4.87717 126.988 3.50162C125.237 21.3838 123.924 58.1484 123.924 70.6534C123.924 71.5287 123.237 72.2165 122.361 72.2165C121.486 72.2165 120.798 71.5287 120.798 70.6534C120.798 57.6482 122.236 18.5701 124.049 1.37578C124.112 0.938103 124.362 0.500429 124.675 0.250329C125.05 0.000229523 125.487 -0.12482 125.925 0.00022953C132.428 1.56335 138.993 2.6888 145.37 3.81425C155.624 5.62747 166.254 7.50322 176.633 11.0046C177.321 11.2547 177.758 11.88 177.696 12.6303C175.758 38.1404 175.132 85.4093 175.132 85.9095C175.195 86.7848 174.507 87.4101 173.632 87.4101Z" fill="#DBDBDB"/>
<path d="M467.624 841.585C468.437 839.334 472.813 836.52 473.876 834.082C476.752 827.642 478.941 822.265 479.191 815.199C479.378 810.447 477.815 801.819 481.567 798.13C485.256 794.504 493.884 795.129 498.011 797.567C501.825 799.881 501.387 802.069 501.325 806.133C501.137 818.451 501.387 830.83 501.637 843.148C501.7 845.461 501.7 847.962 500.512 849.963C498.949 852.652 495.697 853.777 492.634 854.527C485.881 856.215 474.877 857.716 471.375 849.838C470.125 847.149 466.873 843.711 467.624 841.585Z" fill="white"/>
<path d="M483.067 857.467C476.502 857.467 471.875 855.091 469.875 850.526C469.499 849.714 468.937 848.776 468.311 847.838C466.873 845.587 465.373 843.211 466.123 841.085C466.686 839.585 468.061 838.209 469.624 836.708C470.75 835.583 472.063 834.332 472.438 833.395C475.127 827.517 477.378 822.015 477.628 815.137C477.69 814.074 477.628 812.761 477.565 811.386C477.378 806.446 477.127 800.319 480.441 797.005C482.38 795.067 485.631 794.004 489.57 794.004H489.632C493.071 794.004 496.51 794.879 498.824 796.255C503.075 798.818 503.013 801.632 502.888 805.196C502.888 805.509 502.888 805.884 502.888 806.196C502.7 816.763 502.888 827.517 503.075 837.959L503.138 843.211C503.2 845.524 503.2 848.401 501.762 850.839C499.886 854.028 496.26 855.278 492.946 856.154C489.32 857.029 486.006 857.467 483.067 857.467ZM490.008 797.068C486.819 797.068 483.943 797.943 482.692 799.193C480.316 801.569 480.504 806.947 480.691 811.261C480.754 812.699 480.816 814.074 480.754 815.262C480.504 822.765 478.128 828.518 475.314 834.708C474.626 836.146 473.188 837.584 471.813 838.959C470.687 840.085 469.374 841.335 469.124 842.148C468.874 842.836 470.187 844.962 471 846.212C471.625 847.213 472.313 848.276 472.751 849.276C475.814 856.154 486.256 854.591 492.196 853.09C494.885 852.402 497.823 851.402 499.074 849.213C500.012 847.65 500.012 845.649 500.012 843.211L499.949 837.959C499.761 827.517 499.574 816.763 499.761 806.134C499.761 805.759 499.761 805.446 499.761 805.071C499.824 801.757 499.886 800.506 497.198 798.881C495.01 797.63 492.446 797.068 490.008 797.068Z" fill="#1A1E22"/>
<path d="M471.438 838.021C472.751 836.521 473.939 835.208 474.877 833.457C475.502 832.269 476.065 831.018 476.065 829.705C476.065 828.392 475.252 827.017 473.876 826.704C472.876 830.331 470.062 833.332 467.436 836.208C464.247 839.584 458.558 840.71 454.181 842.21C445.802 844.961 433.423 849.901 431.109 858.967C430.796 860.093 429.421 864.157 430.359 865.095C431.484 866.22 438.925 865.22 440.675 865.22C451.93 865.032 507.327 863.406 508.077 859.905C510.891 846.212 501.387 830.331 501.387 830.331C499.574 831.769 496.385 835.02 494.572 836.396C492.884 837.709 491.383 839.147 489.57 840.335C486.881 842.085 483.755 843.586 480.566 844.336C477.628 845.024 473.564 845.524 470.938 843.836C468.499 842.273 470.062 839.647 471.438 838.021Z" fill="#1A1E22"/>
<path d="M433.423 867.158C431.234 867.158 429.921 866.908 429.233 866.157C427.92 864.844 428.483 862.218 429.421 859.154C429.483 858.904 429.546 858.654 429.609 858.529C432.047 848.9 444.552 843.711 453.743 840.71C454.556 840.459 455.431 840.147 456.369 839.897C459.996 838.834 464.06 837.583 466.373 835.145C468.812 832.581 471.5 829.643 472.438 826.329C472.688 825.516 473.501 825.016 474.314 825.203C476.252 825.704 477.628 827.517 477.69 829.705C477.69 831.393 477.002 832.894 476.315 834.207C475.439 835.895 474.376 837.146 473.251 838.459L472.688 839.084C471.5 840.459 471.188 841.46 471.25 841.96C471.25 842.085 471.313 842.273 471.75 842.585C473.439 843.711 476.377 843.773 480.191 842.898C482.942 842.21 485.818 840.96 488.757 839.084C489.82 838.396 490.758 837.646 491.696 836.771C492.321 836.27 492.946 835.708 493.634 835.207C494.509 834.52 495.822 833.332 497.135 832.144C498.386 830.956 499.574 829.893 500.512 829.142C500.887 828.892 501.325 828.767 501.762 828.83C502.2 828.892 502.575 829.205 502.825 829.58C503.2 830.268 512.579 846.149 509.703 860.217C509.39 861.843 509.015 863.656 478.503 865.407C462.247 866.345 445.427 866.783 440.801 866.845C440.425 866.845 439.738 866.908 438.925 866.97C436.549 867.033 434.798 867.158 433.423 867.158ZM431.547 863.906C432.922 864.219 436.924 863.844 438.487 863.719C439.425 863.656 440.113 863.594 440.613 863.594C461.559 863.281 501.95 861.405 506.577 859.092C508.452 848.775 503.075 836.958 500.887 832.706C500.324 833.207 499.761 833.769 499.136 834.332C497.823 835.583 496.448 836.833 495.447 837.583C494.822 838.021 494.259 838.521 493.634 839.084C492.634 839.959 491.571 840.835 490.32 841.647C487.131 843.711 483.943 845.149 480.816 845.837C476.127 846.962 472.438 846.712 470 845.149C468.624 844.273 468.249 843.148 468.124 842.398C467.874 840.835 468.624 839.021 470.25 837.083L470.812 836.458C471.875 835.207 472.751 834.207 473.501 832.831C474.001 831.831 474.501 830.768 474.501 829.83C474.501 829.768 474.501 829.705 474.501 829.643C473.063 832.644 470.687 835.145 468.562 837.396C465.685 840.46 461.184 841.773 457.182 843.023C456.307 843.273 455.431 843.523 454.681 843.836C446.178 846.649 434.673 851.339 432.61 859.467C432.547 859.655 432.485 859.905 432.422 860.217C431.797 861.968 431.547 863.281 431.547 863.906Z" fill="#1A1E22"/>
<path d="M661.013 766.306C661.076 766.243 661.138 766.181 661.201 766.118C666.578 760.491 675.957 762.429 678.583 769.745C681.459 777.811 684.585 786.064 686.461 791.253C686.649 791.754 686.774 792.254 686.899 792.817C690.463 811.261 691.838 828.956 674.894 840.648C674.144 841.211 673.268 841.711 672.33 841.899C670.392 842.211 668.579 840.773 667.391 839.21C664.702 835.771 663.389 831.207 663.89 826.83C665.515 811.699 670.83 801.758 662.827 786.877C661.326 784.126 660.201 780.687 658.888 777.31C657.324 773.559 658.2 769.245 661.013 766.306Z" fill="white"/>
<path d="M671.768 843.524C669.767 843.524 667.829 842.336 666.14 840.21C663.202 836.396 661.764 831.519 662.326 826.705C662.764 822.953 663.327 819.577 663.952 816.325C665.765 806.321 667.203 798.443 661.389 787.689C660.201 785.438 659.2 782.875 658.2 780.123C657.95 779.373 657.637 778.685 657.387 777.935C655.699 773.621 656.699 768.681 659.95 765.305L660.138 765.118C663.014 762.054 667.203 760.803 671.33 761.616C675.394 762.491 678.708 765.368 680.146 769.307C681.772 773.809 683.397 778.31 684.898 782.312C686.086 785.563 687.149 788.502 688.024 790.815C688.212 791.378 688.399 792.003 688.524 792.566C692.026 810.761 693.902 829.518 675.894 842.023C674.956 842.648 673.956 843.336 672.706 843.524C672.268 843.524 672.018 843.524 671.768 843.524ZM668.704 764.492C666.328 764.492 664.015 765.493 662.264 767.243L662.076 767.431C659.7 769.932 658.95 773.621 660.201 776.81C660.513 777.56 660.763 778.31 661.013 779.061C662.014 781.687 662.889 784.125 664.015 786.251C670.33 798.006 668.767 806.822 666.891 816.951C666.328 820.139 665.703 823.516 665.328 827.142C664.89 831.144 666.078 835.208 668.516 838.334C669.079 839.022 670.517 840.71 672.018 840.46C672.643 840.335 673.268 839.96 673.894 839.522C690.338 828.08 688.524 810.386 685.273 793.254C685.211 792.816 685.086 792.378 684.898 791.941C684.085 789.627 683.022 786.751 681.834 783.5C680.334 779.498 678.708 774.934 677.082 770.432C676.019 767.493 673.581 765.43 670.58 764.742C669.954 764.555 669.329 764.492 668.704 764.492Z" fill="#1A1E22"/>
<path d="M660.888 871.66C663.64 871.66 691.463 836.083 703.093 812.386C699.842 807.447 693.276 800.694 687.086 789.064C685.023 792.441 685.898 795.192 685.836 799.131C685.773 807.134 686.024 817.201 681.272 824.266C680.084 826.017 678.708 827.705 676.707 828.58C671.268 830.894 669.204 826.267 669.017 821.953C668.954 820.077 670.08 807.947 665.015 811.073C662.577 812.636 663.202 815.888 662.952 818.201C662.577 821.827 661.139 825.391 660.201 828.955C656.699 841.898 644.507 855.466 660.451 871.597C660.701 871.597 660.826 871.597 660.888 871.66Z" fill="#1A1E22"/>
<path d="M660.888 873.223C660.763 873.223 660.638 873.223 660.513 873.16L660.888 871.66L660.513 873.16C660.388 873.098 660.263 873.098 660.076 873.035C659.825 872.973 659.575 872.848 659.388 872.66C646.32 859.405 651.197 847.587 655.574 837.208C656.824 834.207 658.012 831.393 658.763 828.58C659.075 827.517 659.388 826.392 659.7 825.329C660.451 822.953 661.201 820.452 661.451 818.076C661.514 817.638 661.514 817.075 661.514 816.513C661.576 814.387 661.576 811.386 664.202 809.76C665.953 808.634 667.266 808.947 668.079 809.385C670.705 810.885 670.767 815.762 670.642 820.639C670.642 821.202 670.642 821.64 670.642 821.827C670.767 824.391 671.58 826.392 672.768 827.204C673.581 827.705 674.769 827.705 676.207 827.079C677.833 826.392 679.083 824.828 680.084 823.328C684.21 817.2 684.273 808.447 684.335 800.756V799.068C684.335 798.13 684.273 797.255 684.273 796.442C684.148 793.754 683.96 791.19 685.836 788.251C686.148 787.751 686.649 787.501 687.211 787.501C687.774 787.501 688.274 787.814 688.524 788.314C692.714 796.317 697.09 801.819 700.529 806.321C702.03 808.259 703.343 809.947 704.406 811.511C704.718 811.948 704.781 812.574 704.531 813.074C697.34 827.767 684.96 845.087 679.958 851.839C675.707 857.591 671.58 862.844 668.204 866.72C662.639 873.223 661.701 873.223 660.888 873.223ZM666.578 812.073C666.578 812.073 666.391 812.073 665.953 812.386C664.827 813.074 664.765 814.387 664.702 816.513C664.702 817.138 664.702 817.763 664.64 818.326C664.39 821.014 663.577 823.64 662.764 826.204C662.452 827.267 662.139 828.33 661.826 829.33C661.013 832.331 659.763 835.395 658.512 838.334C654.261 848.588 650.197 858.279 661.013 869.784C665.89 865.907 690.025 835.02 701.279 812.511C700.404 811.26 699.279 809.822 698.091 808.259C695.152 804.508 691.213 799.506 687.399 792.816C687.274 793.879 687.336 795.004 687.399 796.317C687.461 797.192 687.524 798.13 687.461 799.131V800.819C687.399 808.572 687.336 818.201 682.647 825.078C681.397 826.892 679.833 828.955 677.395 829.955C674.331 831.206 672.268 830.581 671.08 829.83C668.954 828.517 667.704 825.641 667.516 821.952C667.516 821.64 667.516 821.139 667.516 820.514C667.766 813.574 666.953 812.323 666.578 812.073Z" fill="#1A1E22"/>
<path d="M329.756 141.18L263.73 107.417L244.472 112.794C244.472 112.794 266.169 218.086 254.289 237.531L273.547 232.467C279.987 224.276 329.756 141.18 329.756 141.18Z" fill="white"/>
<path d="M254.289 239.157C253.789 239.157 253.351 238.907 253.038 238.532C252.663 238.032 252.601 237.344 252.976 236.781C256.227 231.467 258.728 215.21 252.288 168.129C248.411 139.743 242.972 113.42 242.972 113.169C242.784 112.357 243.284 111.544 244.097 111.356L263.355 105.979C263.73 105.854 264.168 105.917 264.48 106.104L330.507 139.868C330.882 140.055 331.194 140.43 331.319 140.806C331.444 141.243 331.382 141.681 331.132 142.056C329.069 145.432 281.3 225.277 274.797 233.53C274.609 233.78 274.297 233.968 273.984 234.093L254.726 239.157C254.539 239.157 254.414 239.157 254.289 239.157ZM246.286 113.92C248.849 126.487 265.356 211.021 257.04 235.218L272.609 231.091C279.549 221.775 321.003 152.685 327.568 141.806L263.605 109.105L246.286 113.92Z" fill="#1A1E22"/>
<path d="M244.472 112.857C266.169 124.174 287.865 135.491 309.561 146.808C291.116 177.07 272.734 207.332 254.289 237.594C251.975 241.471 195.203 214.46 183.761 207.77C190.263 199.517 243.972 112.419 244.472 112.857Z" fill="white"/>
<path d="M253.351 239.533C250.225 239.533 242.534 237.344 221.838 228.09C205.644 220.838 188.7 212.459 183.01 209.145C182.635 208.895 182.323 208.52 182.26 208.082C182.198 207.645 182.26 207.207 182.573 206.832C186.199 202.205 205.332 171.756 220.775 147.246C226.653 137.867 232.28 128.988 236.344 122.548C243.347 111.482 243.347 111.482 244.285 111.356C244.597 111.294 244.973 111.356 245.285 111.544L310.374 145.495C310.749 145.683 311.061 146.058 311.186 146.433C311.311 146.871 311.249 147.308 310.999 147.683L255.727 238.47C255.289 238.907 254.977 239.533 253.351 239.533ZM186.074 207.27C201.268 215.773 247.286 236.907 253.163 236.406L307.31 147.371L244.91 114.795C242.284 118.609 233.093 133.365 223.339 148.809C208.333 172.756 191.451 199.642 186.074 207.27ZM243.472 114.045C243.597 114.108 243.66 114.17 243.785 114.233H243.722C243.66 114.17 243.597 114.108 243.472 114.045Z" fill="#1A1E22"/>
<path d="M219.462 191.888C232.155 209.958 258.29 209.208 271.421 192.201C277.798 183.885 285.364 166.878 283.3 156.187C281.675 156.687 269.67 166.628 269.42 166.441C262.417 160.876 254.289 156.749 245.723 154.311C245.285 148.246 244.91 142.119 244.472 136.054C229.466 145.87 206.207 173.131 219.462 191.888Z" fill="#FEC729"/>
<path d="M261.917 181.322C261.604 181.322 261.292 181.259 261.042 181.072C260.979 181.072 257.665 178.758 254.789 177.132C254.039 176.695 253.789 175.757 254.226 175.007C254.664 174.256 255.602 174.006 256.352 174.444C259.353 176.132 262.667 178.445 262.792 178.508C263.48 179.008 263.668 179.946 263.167 180.696C262.917 181.072 262.417 181.322 261.917 181.322Z" fill="#1A1E22"/>
<path d="M243.034 169.192C242.722 169.192 242.409 169.129 242.159 168.942C238.908 166.816 235.594 164.502 235.594 164.502C234.906 164.002 234.719 163.064 235.219 162.314C235.719 161.626 236.657 161.439 237.407 161.939C237.47 161.939 240.721 164.19 243.91 166.378C244.66 166.878 244.848 167.816 244.348 168.567C244.035 169.004 243.535 169.192 243.034 169.192Z" fill="#1A1E22"/>
<path d="M243.285 193.702C239.783 193.702 236.469 192.576 233.968 190.576C231.155 188.262 229.717 184.948 229.904 181.197C229.967 180.322 230.655 179.634 231.53 179.696C232.405 179.759 233.093 180.447 233.03 181.322C232.905 184.136 233.968 186.512 235.969 188.2C238.595 190.326 242.534 191.138 246.286 190.263C247.099 190.075 247.974 190.576 248.162 191.451C248.349 192.264 247.849 193.139 246.974 193.327C245.786 193.514 244.535 193.702 243.285 193.702Z" fill="#1A1E22"/>
<path d="M544.217 507.702C545.155 521.208 548.281 536.214 549.594 545.03C558.097 601.177 568.977 630.814 594.174 681.709C613.745 721.225 632.189 756.927 659.013 792.503C667.203 786.814 678.583 780.811 687.899 777.247C675.769 752.237 663.014 710.408 655.824 676.832C645.882 630.314 640.005 611.119 636.754 562.974C634.816 534.025 634.753 504.764 628.313 476.44C621.873 448.179 608.117 420.23 584.358 403.598C570.665 394.032 556.159 387.467 540.34 382.215C482.38 362.957 468.374 437.174 465.185 478.316C462.372 514.705 465.873 551.532 467.061 587.922C468.812 642.318 467.811 694.339 469.562 748.736C469.687 752.112 473.189 811.136 473.439 811.073C483.443 810.073 495.948 810.636 505.952 809.635C520.27 711.221 545.843 607.179 544.217 507.702Z" fill="white"/>
<path d="M473.501 812.699C473.126 812.699 472.751 812.574 472.501 812.323C471.938 811.823 471.938 811.823 471.25 801.882C470.813 795.379 470.313 787.063 469.937 781.249C468.999 765.992 468.124 750.549 468.062 748.861C467.186 721.537 466.999 694.339 466.811 668.016C466.624 642.006 466.436 615.12 465.561 588.047C465.248 578.23 464.748 568.289 464.248 558.597C462.935 532.212 461.559 504.951 463.685 478.253C465.811 450.742 473.376 401.972 500.012 384.278C511.391 376.712 525.209 375.524 540.966 380.714C558.598 386.591 572.728 393.407 585.358 402.285C600.427 412.852 620.435 434.235 629.939 476.065C634.941 497.948 636.129 520.707 637.254 542.779C637.567 549.344 637.942 556.159 638.379 562.849C641.006 602.177 645.57 622.623 652.385 653.573C653.948 660.701 655.574 668.079 657.387 676.519C666.391 718.849 679.959 757.239 689.337 776.622C689.525 776.997 689.525 777.497 689.4 777.872C689.212 778.31 688.9 778.623 688.524 778.748C679.146 782.311 667.954 788.251 660.013 793.816C659.325 794.316 658.387 794.129 657.887 793.503C630.876 757.677 612.494 722.038 592.861 682.459C568.539 633.315 556.91 603.428 548.093 545.342C547.718 543.029 547.218 540.153 546.718 537.151C546.405 535.276 546.03 533.275 545.718 531.274C544.154 595.675 532.65 661.763 521.458 725.977C516.643 753.675 511.642 782.374 507.64 810.01C507.515 810.698 506.952 811.261 506.264 811.323C501.2 811.823 495.448 811.948 489.883 812.073C484.381 812.198 478.691 812.261 473.751 812.824C473.626 812.699 473.564 812.699 473.501 812.699ZM522.646 380.652C514.893 380.652 507.89 382.715 501.7 386.841C476.19 403.786 468.874 451.492 466.811 478.44C464.748 504.951 466.123 532.149 467.436 558.41C467.937 568.101 468.437 578.105 468.749 587.922C469.625 614.995 469.812 641.943 470 667.953C470.187 694.214 470.375 721.412 471.25 748.736C471.375 751.924 474.252 800.381 474.939 809.447C479.629 809.072 484.756 808.947 489.758 808.885C494.822 808.76 500.012 808.697 504.701 808.259C508.703 780.936 513.58 752.737 518.394 725.351C530.962 653.448 543.904 579.106 542.716 507.702C542.716 506.827 543.342 506.139 544.217 506.139C545.092 506.139 545.78 506.764 545.843 507.577C546.53 517.393 548.344 528.023 549.844 536.526C550.344 539.59 550.845 542.403 551.22 544.779C559.973 602.427 571.478 632.127 595.675 680.959C614.995 719.912 633.127 755.113 659.513 790.315C667.078 785.188 677.145 779.873 685.898 776.372C676.457 756.426 663.327 718.599 654.448 677.082C652.635 668.641 651.009 661.263 649.446 654.135C642.569 623.061 638.004 602.49 635.316 562.974C634.878 556.284 634.503 549.469 634.19 542.841C633.065 520.957 631.877 498.323 626.937 476.69C621.81 454.118 610.118 423.356 583.608 404.786C571.165 396.095 557.347 389.342 539.965 383.59C533.838 381.714 528.086 380.652 522.646 380.652Z" fill="#1A1E22"/>
<path d="M232.905 666.452L374.649 551.031C374.649 551.031 384.153 627.624 389.218 697.402C333.445 744.171 232.343 663.138 232.905 666.452Z" fill="white"/>
<path d="M346.388 713.596C334.008 713.596 320.253 711.033 305.247 705.906C276.548 696.089 251.1 679.645 238.908 671.767C236.344 670.079 233.906 668.516 232.968 668.016C232.78 668.016 232.53 668.016 232.343 667.891C231.842 667.703 231.467 667.203 231.342 666.703C231.217 666.078 231.53 665.39 232.03 665.077C232.093 665.015 232.218 664.952 232.28 664.952L373.586 549.844C374.024 549.469 374.649 549.406 375.15 549.594C375.65 549.781 376.025 550.281 376.087 550.844C376.212 551.594 385.654 628.313 390.656 697.34C390.718 697.84 390.468 698.34 390.093 698.653C378.338 708.594 363.645 713.596 346.388 713.596ZM235.844 666.078C236.97 666.765 238.47 667.766 240.658 669.141C252.788 676.957 277.923 693.276 306.31 702.905C340.823 714.659 368.147 712.596 387.592 696.715C383.09 635.44 375.15 568.414 373.461 554.033L235.844 666.078Z" fill="#1A1E22"/>
<path d="M531.712 728.541C531.712 728.541 546.155 609.619 554.846 551.158C484.443 550.783 448.429 551.033 374.587 551.033C381.965 617.059 381.214 670.018 392.969 728.979C433.548 734.606 531.712 728.541 531.712 728.541Z" fill="white"/>
<path d="M444.177 732.917C425.044 732.917 405.849 732.355 392.782 730.541C392.094 730.479 391.594 729.979 391.468 729.291C384.091 692.276 381.652 657.575 379.026 620.748C377.463 598.676 375.837 575.855 373.086 551.22C373.024 550.782 373.149 550.345 373.461 550.032C373.774 549.719 374.212 549.532 374.649 549.532C397.096 549.532 416.041 549.532 433.485 549.469C473.939 549.407 505.889 549.407 554.909 549.657C555.346 549.657 555.784 549.844 556.097 550.22C556.409 550.532 556.534 551.032 556.472 551.47C547.843 609.243 533.463 727.603 533.338 728.791C533.275 729.541 532.65 730.104 531.899 730.166C531.649 730.166 507.015 731.667 477.69 732.48C467.374 732.73 455.807 732.917 444.177 732.917ZM394.345 727.603C432.36 732.542 518.707 727.79 530.336 727.103C531.899 714.16 544.905 607.805 553.095 552.783C505.076 552.533 473.439 552.596 433.485 552.658C416.478 552.658 398.034 552.721 376.4 552.721C379.026 576.793 380.652 599.052 382.152 620.623C384.716 656.887 387.154 691.213 394.345 727.603Z" fill="#1A1E22"/>
<path d="M424.044 843.836C424.044 843.836 438.487 724.914 447.178 666.453C369.522 668.767 305.622 666.578 231.78 666.578C250.788 724.539 263.418 782.499 282.425 840.397C323.004 846.087 424.044 843.836 424.044 843.836Z" fill="white"/>
<path d="M379.026 845.837C346.638 845.837 304.872 845.149 282.238 842.023C281.675 841.96 281.175 841.522 280.987 840.96C271.483 811.948 263.418 782.499 255.664 753.988C247.911 725.539 239.846 696.09 230.404 667.141C230.279 666.64 230.342 666.14 230.654 665.765C230.967 665.39 231.405 665.14 231.905 665.14C256.227 665.14 279.674 665.39 302.433 665.64C350.14 666.14 395.22 666.578 447.241 665.015C447.741 665.015 448.179 665.202 448.429 665.515C448.741 665.89 448.866 666.328 448.804 666.765C440.176 724.538 425.795 842.898 425.67 844.086C425.607 844.836 424.919 845.462 424.169 845.462C423.606 845.462 404.161 845.837 379.026 845.837ZM283.613 839.084C321.628 844.086 410.601 842.585 422.669 842.335C424.294 829.143 437.237 723.1 445.428 668.141C394.095 669.641 349.514 669.204 302.371 668.704C280.362 668.454 257.54 668.266 234.031 668.203C243.222 696.527 251.1 725.289 258.728 753.175C266.294 781.311 274.234 810.448 283.613 839.084Z" fill="#1A1E22"/>
<path d="M375.65 730.541C354.516 730.541 333.383 730.353 312.625 730.165C292.054 729.978 270.795 729.79 250.162 729.79C249.287 729.79 248.599 729.102 248.599 728.227C248.599 727.352 249.287 726.664 250.162 726.664C270.858 726.664 292.116 726.852 312.687 727.039C354.141 727.414 396.971 727.852 438.05 726.664C438.05 726.664 438.05 726.664 438.112 726.664C438.925 726.664 439.675 727.352 439.675 728.165C439.675 729.04 439.05 729.728 438.175 729.79C417.604 730.353 396.658 730.541 375.65 730.541Z" fill="#1A1E22"/>
<path d="M376.338 784.625C357.643 784.625 338.948 784.437 320.503 784.25C302.308 784.062 283.488 783.874 265.168 783.874C264.293 783.874 263.605 783.187 263.605 782.311C263.605 781.436 264.293 780.748 265.168 780.748C283.488 780.748 302.308 780.936 320.503 781.123C357.205 781.498 395.095 781.936 431.485 780.748H431.547C432.36 780.748 433.11 781.436 433.11 782.249C433.11 783.124 432.485 783.812 431.61 783.874C413.477 784.437 394.908 784.625 376.338 784.625Z" fill="#1A1E22"/>
<path d="M330.069 845.399C329.381 845.399 328.694 844.899 328.568 844.148C315.751 787.313 308.623 732.291 301.058 674.018L300.307 668.016C300.182 667.14 300.807 666.39 301.683 666.265C302.558 666.14 303.308 666.765 303.433 667.641L304.184 673.643C311.749 731.854 318.877 786.813 331.695 843.461C331.882 844.273 331.382 845.149 330.507 845.336C330.319 845.399 330.194 845.399 330.069 845.399Z" fill="#1A1E22"/>
<path d="M378.213 845.836C377.401 845.836 376.65 845.149 376.65 844.336C376.4 837.27 375.837 826.641 375.15 814.261C372.899 774.558 369.522 714.597 372.023 669.891C372.086 669.016 372.774 668.328 373.649 668.391C374.524 668.453 375.15 669.203 375.15 670.016C372.649 714.534 376.025 774.433 378.276 814.011C378.964 826.391 379.589 837.083 379.777 844.148C379.839 845.086 379.151 845.836 378.213 845.836C378.276 845.836 378.213 845.836 378.213 845.836Z" fill="#1A1E22"/>
<path d="M374.65 552.658C373.837 552.658 373.149 552.033 373.086 551.22C371.961 537.965 376.275 521.333 383.966 508.891C391.156 497.261 402.223 488.445 414.415 484.694C415.228 484.444 416.104 484.881 416.354 485.757C416.604 486.57 416.166 487.445 415.291 487.695C403.849 491.259 393.344 499.575 386.592 510.517C379.214 522.459 375.15 538.34 376.15 550.97C376.213 551.846 375.587 552.596 374.712 552.658H374.65Z" fill="#1A1E22"/>
<path d="M554.909 552.783C554.033 552.783 553.346 552.095 553.346 551.22C552.908 526.898 568.227 502.263 589.86 492.572C590.673 492.197 591.548 492.572 591.923 493.385C592.299 494.197 591.923 495.073 591.111 495.448C570.602 504.639 555.972 528.086 556.472 551.158C556.472 552.033 555.784 552.721 554.909 552.783Z" fill="#1A1E22"/>
<path d="M584.733 487.006C587.296 486.881 590.485 487.257 591.548 489.883C592.423 492.134 590.923 494.822 588.86 495.885C586.859 496.948 584.483 496.76 582.232 496.635C555.534 494.634 528.711 494.322 501.95 494.009C483.943 493.822 465.998 493.759 447.991 493.634C440.988 493.572 412.227 494.822 406.787 491.946C405.787 491.446 404.786 490.695 404.286 489.57C403.536 487.819 404.411 485.631 405.849 484.568C407.287 483.505 409.163 483.255 410.851 483.318C418.542 483.693 426.107 483.38 433.86 483.568C482.942 485.006 535.776 485.568 584.733 487.006Z" fill="#1A1E22"/>
<path d="M584.671 498.261C583.795 498.261 582.92 498.199 582.107 498.136C555.659 496.135 528.648 495.823 502.575 495.51H501.95C486.756 495.322 471.313 495.26 456.369 495.197L447.991 495.135C446.678 495.135 444.615 495.135 441.989 495.197C426.232 495.51 410.476 495.573 406.099 493.259C404.474 492.384 403.473 491.383 402.911 490.07C401.973 487.757 402.848 484.818 404.974 483.193C406.474 482.067 408.475 481.504 411.039 481.629C415.291 481.817 419.605 481.817 423.731 481.817C427.045 481.817 430.547 481.817 433.985 481.88C458.433 482.567 484.318 483.068 509.328 483.568C534.338 484.068 560.223 484.568 584.671 485.256C589.047 485.068 591.861 486.381 592.924 489.132C594.112 492.196 592.111 495.76 589.548 497.073C587.984 498.073 586.296 498.261 584.671 498.261ZM447.678 492.071C447.803 492.071 447.929 492.071 448.054 492.071L456.369 492.134C471.313 492.196 486.757 492.259 502.013 492.446H502.638C528.773 492.759 555.847 493.071 582.42 495.072C584.358 495.197 586.546 495.385 588.172 494.51C589.547 493.822 590.673 491.884 590.11 490.445C589.61 489.07 587.797 488.445 584.858 488.57C584.796 488.57 584.796 488.57 584.733 488.57C560.223 487.882 534.4 487.382 509.328 486.882C484.318 486.381 458.433 485.881 433.985 485.193C430.609 485.068 427.17 485.131 423.856 485.131C419.667 485.131 415.29 485.131 410.976 484.943C409.163 484.881 407.85 485.131 406.975 485.819C406.099 486.506 405.474 487.944 405.912 489.007C406.162 489.57 406.725 490.133 407.662 490.633C411.727 492.759 432.172 492.384 442.051 492.196C444.365 492.071 446.303 492.071 447.678 492.071Z" fill="#1A1E22"/>
<path d="M424.044 843.836C429.671 807.072 438.487 724.914 447.178 666.453L554.846 551.157C554.846 551.157 537.339 673.769 527.835 757.802C472.126 804.571 424.044 843.836 424.044 843.836Z" fill="white"/>
<path d="M424.044 845.399C423.794 845.399 423.481 845.337 423.294 845.212C422.731 844.899 422.418 844.274 422.543 843.649C425.107 826.892 428.233 801.257 431.922 771.558C436.174 737.106 440.988 698.091 445.74 666.328C445.803 666.015 445.928 665.703 446.115 665.515L553.783 550.219C554.221 549.719 554.971 549.594 555.597 549.907C556.222 550.219 556.534 550.845 556.472 551.532C556.284 552.783 538.902 675.082 529.461 758.115C529.399 758.49 529.211 758.865 528.898 759.115C473.751 805.321 425.482 844.774 425.044 845.149C424.732 845.274 424.357 845.399 424.044 845.399ZM448.679 667.203C443.99 698.841 439.175 737.669 434.986 771.933C431.61 799.381 428.671 823.391 426.232 840.147C437.737 830.706 479.566 796.38 526.46 757.114C534.776 683.523 549.344 579.606 552.72 555.972L448.679 667.203Z" fill="#1A1E22"/>
<path d="M440.051 729.853C439.613 729.853 439.175 729.666 438.863 729.353C438.3 728.728 438.362 727.727 438.988 727.165C456.682 711.158 473.814 696.527 490.446 682.397C507.015 668.266 524.147 653.698 541.779 637.691C542.404 637.129 543.404 637.191 543.967 637.816C544.53 638.442 544.467 639.442 543.842 640.005C526.147 656.011 509.016 670.642 492.384 684.773C475.815 698.903 458.683 713.472 441.051 729.478C440.801 729.728 440.426 729.853 440.051 729.853Z" fill="#1A1E22"/>
<path d="M431.61 783.374C431.172 783.374 430.672 783.187 430.359 782.749C429.796 782.061 429.921 781.061 430.609 780.561C446.616 768.056 462.747 755.926 478.316 744.234C498.886 728.79 518.332 714.222 533.15 701.904C533.838 701.342 534.776 701.467 535.338 702.092C535.901 702.78 535.776 703.718 535.151 704.28C520.27 716.66 500.825 731.229 480.191 746.735C464.623 758.427 448.491 770.557 432.485 783.062C432.297 783.249 431.985 783.374 431.61 783.374Z" fill="#1A1E22"/>
<path d="M462.685 813.637C462.622 813.637 462.56 813.637 462.497 813.637C461.622 813.512 461.059 812.762 461.121 811.887C464.373 784.813 466.936 752.863 469.375 721.976C471.876 691.088 474.439 659.138 477.691 631.94C477.816 631.065 478.566 630.502 479.441 630.564C480.317 630.689 480.879 631.44 480.817 632.315C477.565 659.388 475.002 691.339 472.563 722.226C470.062 753.113 467.499 785.063 464.248 812.262C464.123 813.075 463.435 813.637 462.685 813.637Z" fill="#1A1E22"/>
<path d="M499.137 783.375C499.074 783.375 499.074 783.375 499.011 783.375C498.136 783.312 497.511 782.562 497.573 781.686C499.574 753.988 503.888 718.849 508.015 684.96C512.142 651.072 516.456 616.058 518.457 588.422C518.519 587.547 519.27 586.921 520.145 586.984C521.02 587.046 521.646 587.797 521.583 588.672C519.582 616.371 515.268 651.447 511.141 685.398C507.015 719.287 502.7 754.301 500.7 781.999C500.637 782.749 499.949 783.375 499.137 783.375Z" fill="#1A1E22"/>
<path d="M307.185 939.124C314.063 940.625 321.753 937.124 324.88 931.184C330.507 920.43 319.69 907.112 307.185 909.363C291.616 912.051 292.054 935.811 307.185 939.124Z" fill="#1A1E22"/>
<path d="M310.499 941C309.311 941 308.06 940.875 306.872 940.625C297.931 938.687 293.992 930.371 294.117 923.493C294.242 915.303 299.307 909.113 306.935 907.737C313.563 906.549 320.565 909.425 324.692 915.115C328.506 920.305 329.069 926.557 326.318 931.872C323.379 937.437 316.939 941 310.499 941ZM307.56 937.562C313.75 938.875 320.753 935.748 323.567 930.371C325.755 926.182 325.255 921.117 322.191 916.928C318.752 912.239 313 909.8 307.498 910.801C300.12 912.114 297.369 918.491 297.244 923.556C297.119 929.371 300.245 935.998 307.56 937.562Z" fill="#1A1E22"/>
<path d="M422.356 939.124C429.234 940.625 436.924 937.124 440.05 931.184C445.678 920.43 434.861 907.112 422.356 909.363C406.725 912.051 407.225 935.811 422.356 939.124Z" fill="#1A1E22"/>
<path d="M425.67 941C424.482 941 423.231 940.875 422.043 940.625C413.102 938.687 409.163 930.371 409.288 923.493C409.413 915.303 414.478 909.113 422.106 907.737C428.734 906.549 435.736 909.425 439.863 915.115C443.677 920.305 444.24 926.557 441.489 931.872C438.487 937.437 432.11 941 425.67 941ZM422.669 937.562C428.796 938.875 435.861 935.748 438.675 930.371C440.863 926.182 440.363 921.117 437.299 916.928C433.861 912.239 428.108 909.8 422.606 910.801C415.228 912.114 412.477 918.491 412.352 923.556C412.289 929.371 415.416 935.998 422.669 937.562Z" fill="#1A1E22"/>
<path d="M530.086 854.903C536.964 856.467 544.655 852.778 547.781 846.463C553.408 835.083 542.591 821.015 530.086 823.328C514.518 826.33 514.955 851.465 530.086 854.903Z" fill="#1A1E22"/>
<path d="M533.4 856.841C532.212 856.841 530.962 856.716 529.774 856.466C520.833 854.403 516.894 845.649 517.019 838.396C517.206 829.768 522.208 823.265 529.836 821.89C536.276 820.702 542.904 823.39 547.093 829.018C551.282 834.52 552.033 841.523 549.219 847.275C546.28 853.09 539.903 856.841 533.4 856.841ZM530.462 853.402C536.589 854.778 543.592 851.464 546.405 845.774C548.719 841.085 548.031 835.333 544.592 830.831C541.091 826.204 535.651 823.953 530.399 824.891C523.021 826.267 520.27 833.019 520.145 838.396C519.957 847.087 525.209 852.214 530.462 853.402Z" fill="#1A1E22"/>
<path d="M522.021 840.773C521.958 840.773 521.958 840.773 522.021 840.773C521.145 840.773 520.458 840.022 520.458 839.21C520.708 827.267 520.895 814.2 521.145 801.132C521.395 788.064 521.583 774.997 521.833 763.054C521.833 762.179 522.583 761.491 523.396 761.491C524.272 761.491 524.959 762.242 524.959 763.054C524.709 774.997 524.522 788.064 524.272 801.132C524.021 814.2 523.834 827.267 523.584 839.21C523.521 840.085 522.833 840.773 522.021 840.773Z" fill="#1A1E22"/>
<path d="M297.181 925.807C296.306 925.807 295.618 925.056 295.618 924.181C295.743 918.616 295.68 909.988 295.493 899.984C295.243 882.164 294.93 859.968 295.93 841.961C295.93 841.523 296.118 841.148 296.431 840.898C296.743 840.648 297.181 840.46 297.556 840.523C315.876 841.711 336.759 841.961 356.955 842.211C377.213 842.461 398.096 842.774 416.541 843.899C417.354 843.962 418.042 844.649 417.979 845.462C417.729 857.342 417.479 871.098 417.291 884.353C417.041 897.671 416.791 911.489 416.603 923.493C416.603 924.369 415.853 925.056 415.04 925.056C414.165 925.056 413.477 924.306 413.477 923.493C413.727 911.489 413.977 897.733 414.165 884.353C414.415 871.66 414.603 858.53 414.853 846.963C396.908 845.9 376.588 845.587 356.955 845.337C337.322 845.087 317.001 844.837 298.994 843.712C298.119 861.344 298.369 882.665 298.619 899.984C298.744 910.051 298.869 918.679 298.744 924.306C298.744 925.119 298.056 925.807 297.181 925.807Z" fill="#1A1E22"/>
<path d="M557.66 452.618C547.343 457.37 536.902 459.058 527.21 463.122C517.519 467.186 508.515 473.814 503.576 483.068C498.636 492.321 498.449 504.514 504.826 512.892C505.639 513.893 506.577 514.955 507.827 515.268C511.141 516.269 510.641 512.079 510.266 510.079C509.578 506.515 508.203 502.763 508.14 499.324C508.015 495.448 509.828 491.384 512.017 486.882C508.14 492.634 507.702 511.329 514.142 514.205C518.519 516.143 517.019 508.328 516.894 506.265C516.706 502.576 516.894 491.259 521.02 486.132C517.081 491.008 516.206 503.201 519.582 510.079C520.02 510.891 520.582 511.767 521.52 511.892C522.396 511.954 523.209 511.204 523.459 510.329C524.522 506.765 522.771 501.95 523.959 497.824C525.209 493.322 527.648 489.133 531.024 485.881C536.339 480.754 543.529 478.191 550.532 475.69C557.347 473.251 564.225 470.813 571.04 468.374L557.66 452.618Z" fill="white"/>
<path d="M508.765 517.019C508.39 517.019 507.89 516.956 507.39 516.831C505.639 516.331 504.451 514.955 503.638 513.892C497.261 505.514 496.698 492.821 502.2 482.38C508.078 471.313 518.707 465.06 526.585 461.747C531.087 459.871 535.839 458.433 540.403 457.057C545.843 455.432 551.47 453.743 556.972 451.242C557.597 450.93 558.348 451.117 558.848 451.68L572.228 467.499C572.541 467.874 572.666 468.437 572.541 468.937C572.416 469.437 572.04 469.812 571.54 470L551.032 477.315C544.592 479.629 537.277 482.192 532.087 487.194C528.961 490.195 526.648 494.072 525.46 498.449C524.959 500.262 525.084 502.388 525.272 504.451C525.459 506.639 525.585 508.89 524.959 510.954C524.522 512.392 523.146 513.767 521.333 513.58C520.082 513.455 519.27 512.642 518.769 511.892C518.644 513.517 518.207 514.83 517.144 515.643C516.456 516.143 515.268 516.581 513.455 515.768C512.83 515.518 512.329 515.143 511.767 514.705C511.579 515.393 511.266 515.893 510.766 516.331C510.454 516.581 509.766 517.019 508.765 517.019ZM557.222 454.494C551.845 456.87 546.53 458.433 541.341 459.996C536.651 461.371 532.212 462.747 527.835 464.56C520.458 467.686 510.454 473.501 504.951 483.818C499.949 493.197 500.387 504.514 506.077 511.954C506.64 512.704 507.39 513.58 508.265 513.83C508.515 513.892 508.703 513.892 508.765 513.892C508.89 513.642 509.141 512.642 508.703 510.454C508.453 509.328 508.203 508.14 507.89 506.952C507.265 504.451 506.64 501.888 506.577 499.449C506.515 496.073 507.64 492.759 509.266 489.132C509.703 487.945 510.141 486.944 510.704 486.069C511.141 485.381 512.079 485.193 512.767 485.569C513.455 486.006 513.767 486.882 513.392 487.632C512.955 488.507 512.517 489.383 512.142 490.258C510.579 494.76 510.078 502.513 511.642 508.015C512.392 510.579 513.455 512.204 514.768 512.829C515.08 512.954 515.268 513.017 515.331 513.017C515.643 512.642 515.831 511.391 515.456 507.64C515.393 507.14 515.331 506.702 515.331 506.389C515.331 506.264 514.643 493.072 519.019 486.194C519.27 485.819 519.52 485.506 519.77 485.193C520.332 484.506 521.27 484.443 521.958 484.943C522.646 485.506 522.708 486.444 522.208 487.132C522.083 487.257 522.021 487.382 521.896 487.507C518.769 491.946 517.769 502.951 520.958 509.391C521.395 510.266 521.645 510.328 521.645 510.328C521.645 510.328 521.833 510.141 521.958 509.891C522.396 508.39 522.271 506.514 522.146 504.514C521.958 502.2 521.833 499.762 522.458 497.386C523.834 492.509 526.397 488.132 529.961 484.756C535.651 479.316 543.279 476.628 550.032 474.189L568.414 467.624L557.222 454.494Z" fill="#1A1E22"/>
<path d="M365.333 171.443C366.146 170.193 365.771 168.505 363.957 165.941C353.766 151.498 341.011 135.554 325.254 127.238C311.687 120.11 291.428 117.734 281.237 131.677C280.487 132.678 279.799 133.803 279.799 135.054C279.799 138.368 283.488 136.742 285.239 135.867C288.365 134.241 291.428 131.99 294.555 130.99C298.119 129.864 302.37 130.427 307.06 131.24C300.682 129.239 283.363 133.866 282.425 140.618C281.8 145.183 288.615 141.681 290.491 140.994C293.804 139.806 304.371 136.93 310.186 139.305C304.621 136.992 293.117 139.493 287.677 144.495C287.052 145.12 286.364 145.871 286.552 146.746C286.739 147.621 287.614 148.121 288.49 148.121C292.116 148.121 296.055 145.245 300.119 145.183C321.565 144.933 337.197 166.316 350.264 180.634C353.828 177.696 357.455 175.32 361.769 173.632C363.582 173.006 364.77 172.319 365.333 171.443Z" fill="white"/>
<path d="M350.39 182.26C349.952 182.26 349.514 182.073 349.264 181.76C347.576 179.947 345.95 178.009 344.137 176.008C332.132 162.315 318.502 146.809 300.682 146.809C300.557 146.809 300.432 146.809 300.307 146.809C298.494 146.809 296.556 147.559 294.68 148.247C292.742 148.997 290.678 149.747 288.615 149.747H288.552C287.052 149.747 285.426 148.81 285.114 147.121C284.926 145.996 285.364 145.058 285.864 144.37C284.363 144.683 283.05 144.62 282.112 143.87C281.487 143.37 280.737 142.37 280.987 140.494C281.049 139.869 281.237 139.306 281.487 138.743C280.862 138.743 280.299 138.556 279.799 138.243C279.111 137.805 278.298 136.93 278.298 135.117C278.298 133.366 279.236 131.865 279.986 130.802C284.926 124.05 292.491 120.361 301.933 120.048C309.686 119.798 318.439 121.924 326.005 125.925C342.449 134.616 355.579 151.436 365.27 165.129C366.771 167.192 368.209 169.943 366.708 172.319C365.958 173.444 364.708 174.32 362.519 175.195C358.83 176.633 355.329 178.822 351.452 181.948C351.14 182.135 350.765 182.26 350.39 182.26ZM300.62 143.683C319.877 143.683 334.633 160.439 346.45 173.945C347.888 175.57 349.202 177.071 350.515 178.571C354.204 175.695 357.642 173.695 361.269 172.256C362.707 171.694 363.645 171.131 363.957 170.631C364.395 170.006 363.895 168.755 362.644 166.879C353.203 153.499 340.323 136.992 324.504 128.677C317.439 124.925 309.248 122.924 301.995 123.174C296.118 123.362 287.927 125.175 282.425 132.678C281.925 133.366 281.3 134.304 281.3 135.179C281.3 135.429 281.3 135.554 281.362 135.617C281.675 135.679 282.613 135.554 284.488 134.616C285.489 134.116 286.489 133.491 287.489 132.928C289.615 131.678 291.804 130.365 294.055 129.677C297.118 128.677 300.557 128.864 304.309 129.364C305.497 129.427 306.622 129.614 307.497 129.865C308.31 130.115 308.748 130.927 308.56 131.74C308.373 132.553 307.623 133.053 306.81 132.928C305.872 132.741 304.934 132.616 304.059 132.491C299.494 132.303 292.241 133.929 287.552 136.867C285.426 138.18 284.176 139.681 283.988 140.994C283.926 141.244 283.988 141.432 283.988 141.494C284.613 141.682 286.239 141.244 288.865 140.119C289.303 139.931 289.678 139.743 289.99 139.681C290.116 139.618 302.12 135.429 309.686 137.618C310.061 137.743 310.436 137.868 310.811 137.993C311.624 138.305 311.999 139.243 311.687 140.056C311.374 140.869 310.436 141.244 309.623 140.931C309.498 140.869 309.311 140.806 309.186 140.744C304.309 139.118 293.867 141.119 288.803 145.808C288.302 146.246 288.177 146.496 288.177 146.621C288.24 146.684 288.427 146.746 288.552 146.746C288.552 146.746 288.552 146.746 288.615 146.746C290.116 146.746 291.741 146.121 293.554 145.433C295.68 144.62 297.869 143.808 300.182 143.808C300.37 143.683 300.495 143.683 300.62 143.683Z" fill="#1A1E22"/>
<path d="M592.049 404.474C552.845 410.351 498.949 409.288 459.996 401.91C466.123 370.148 456.244 331.882 440.113 303.809C426.795 280.674 408.913 261.667 392.031 241.221C373.962 219.337 357.08 196.516 341.574 172.819C346.638 166.629 351.703 160.376 356.767 154.187C376.713 175.945 396.783 197.829 420.73 215.086C444.677 232.343 473.001 244.785 502.513 245.035C529.461 245.285 546.718 237.407 578.543 245.535L592.049 404.474Z" fill="#FEC729"/>
<path d="M535.526 409.788C509.078 409.788 481.942 407.662 459.746 403.473C459.308 403.41 458.995 403.16 458.745 402.785C458.495 402.473 458.433 402.035 458.495 401.597C461.371 386.841 460.809 369.584 456.932 351.765C453.306 335.196 447.053 318.877 438.8 304.559C428.421 286.489 414.915 270.608 401.848 255.226C398.221 250.975 394.532 246.598 390.906 242.221C372.836 220.4 355.829 197.328 340.323 173.694C339.948 173.131 340.01 172.381 340.448 171.818L355.642 153.186C355.954 152.811 356.329 152.623 356.83 152.623C357.33 152.623 357.705 152.811 358.018 153.123C377.588 174.507 397.846 196.578 421.73 213.835C448.366 232.968 476.315 243.222 502.638 243.472C511.766 243.534 519.895 242.659 527.71 241.846C543.216 240.158 557.847 238.595 579.043 244.034C579.856 244.222 580.356 245.097 580.169 245.91C579.981 246.723 579.106 247.223 578.293 247.036C557.66 241.721 543.279 243.284 528.085 244.91C520.145 245.785 511.954 246.661 502.638 246.535C475.689 246.285 447.053 235.844 419.98 216.336C396.283 199.267 376.275 177.633 356.955 156.562L343.637 172.881C358.893 196.14 375.65 218.774 393.407 240.22C397.033 244.597 400.722 248.974 404.349 253.226C417.541 268.732 431.109 284.738 441.676 302.995C455.681 327.318 468.249 365.52 461.997 400.597C500.574 407.662 553.783 408.6 591.986 402.848C592.861 402.723 593.611 403.285 593.736 404.161C593.862 405.036 593.299 405.786 592.423 405.911C575.417 408.538 555.659 409.788 535.526 409.788Z" fill="#1A1E22"/>
<path d="M571.103 350.827C583.858 367.084 606.117 415.916 550.407 453.618C553.158 458.057 558.41 470.375 561.161 474.814C609.305 463.434 646.258 414.603 650.759 366.208C655.261 317.814 633.565 251.287 578.606 245.598L571.103 350.827Z" fill="#FEC729"/>
<path d="M561.161 476.315C560.661 476.315 560.098 476.064 559.848 475.564C558.41 473.251 556.472 469.187 554.408 464.81C552.47 460.746 550.469 456.494 549.094 454.368C548.656 453.681 548.844 452.743 549.532 452.242C569.602 438.675 581.294 422.418 584.17 403.911C587.422 383.027 578.543 362.769 569.915 351.702C569.352 351.015 569.477 350.014 570.165 349.514C570.853 349.014 571.853 349.076 572.353 349.764C581.357 361.269 590.673 382.527 587.234 404.411C584.233 423.418 572.541 440.05 552.47 453.993C553.783 456.369 555.471 459.808 557.16 463.434C558.848 466.998 560.598 470.625 561.911 472.938C583.983 467.436 604.991 453.368 621.123 433.297C637.066 413.477 647.008 389.592 649.259 365.958C651.635 340.448 646.57 312.249 635.628 290.491C626.562 272.421 609.305 250.224 578.481 247.098C577.605 247.036 576.98 246.223 577.105 245.41C577.168 244.535 577.98 243.909 578.793 244.034C611.056 247.348 629.001 270.42 638.442 289.177C649.571 311.436 654.824 340.26 652.385 366.333C650.134 390.53 639.88 415.04 623.624 435.361C606.804 456.307 584.733 470.875 561.599 476.315C561.411 476.315 561.286 476.315 561.161 476.315Z" fill="#1A1E22"/>
<path d="M482.067 226.09C482.817 217.274 488.382 209.458 495.135 203.643C505.889 194.39 520.207 189.325 534.4 189.638C548.594 189.95 562.599 195.765 572.916 205.519C579.668 211.959 585.046 220.713 584.545 230.029C583.67 244.347 570.727 252.85 559.723 259.541C555.972 261.791 525.584 285.176 525.084 284.426C512.329 265.605 479.816 252.6 482.067 226.09Z" fill="#FEC729"/>
<path d="M525.084 286.114C524.959 286.114 524.897 286.114 524.772 286.051C524.334 285.989 523.959 285.739 523.709 285.364C519.457 278.986 512.892 273.359 505.952 267.419C492.696 255.977 478.941 244.16 480.504 226.027C481.192 217.774 486.006 209.458 494.072 202.581C505.139 193.077 519.77 187.887 534.338 188.2C548.969 188.512 563.349 194.452 573.916 204.456C578.731 209.021 586.671 218.399 585.983 230.154C585.108 244.722 572.853 253.351 560.411 260.916C558.973 261.792 552.908 266.293 546.53 271.045C528.148 284.738 526.085 286.114 525.084 286.114ZM483.63 226.278C482.192 242.784 495.322 254.101 508.015 265.043C514.392 270.545 521.02 276.235 525.522 282.487C528.586 280.487 537.777 273.671 544.654 268.544C551.407 263.542 557.222 259.228 558.785 258.228C570.54 251.1 582.107 243.034 582.857 229.967C583.107 225.465 582.044 216.461 571.728 206.707C561.724 197.203 548.031 191.576 534.275 191.264C520.52 190.951 506.577 195.89 496.073 204.894C488.695 211.272 484.255 218.837 483.63 226.278Z" fill="#1A1E22"/>
<path d="M542.466 323.754C542.153 323.754 541.778 323.629 541.466 323.379C540.778 322.816 540.715 321.878 541.216 321.191C546.28 314.876 547.155 305.497 543.279 298.869C539.777 292.804 534.275 290.366 527.272 287.24C526.585 286.927 525.897 286.614 525.209 286.302C519.144 291.679 519.207 296.931 519.269 302.496C519.332 307.185 519.394 311.999 515.643 316.626C515.08 317.314 514.142 317.377 513.455 316.876C512.767 316.314 512.704 315.376 513.204 314.688C516.206 310.937 516.206 307.06 516.143 302.558C516.081 296.618 516.018 289.866 523.959 283.301C524.396 282.925 525.084 282.863 525.584 283.113C526.585 283.551 527.585 283.988 528.523 284.426C535.713 287.615 541.903 290.366 545.905 297.306C550.469 305.122 549.531 315.751 543.591 323.191C543.404 323.504 542.966 323.754 542.466 323.754Z" fill="#1A1E22"/>
<path d="M554.096 258.416C556.972 254.852 559.848 250.975 560.473 246.473C561.599 238.283 555.034 230.905 547.718 227.028C539.215 222.526 528.773 221.151 519.77 224.652C510.766 228.154 503.701 236.907 503.513 246.536C503.325 257.103 510.703 266.169 517.831 273.984C520.832 277.298 525.522 284.051 525.522 284.051C525.522 284.051 549.219 264.48 554.096 258.416Z" fill="#1A1E22"/>
<path d="M525.459 285.614C525.397 285.614 525.334 285.614 525.272 285.614C524.834 285.551 524.459 285.301 524.209 284.926C524.146 284.863 519.582 278.236 516.643 274.984C509.39 267.044 501.7 257.603 501.95 246.473C502.138 236.594 509.203 227.028 519.144 223.151C528.023 219.712 538.902 220.65 548.343 225.652C559.723 231.655 562.787 240.721 561.911 246.723C561.224 251.663 558.222 255.727 555.221 259.478C550.282 265.606 527.335 284.488 526.397 285.301C526.21 285.489 525.835 285.614 525.459 285.614ZM530.586 224.214C527.023 224.214 523.521 224.839 520.332 226.027C511.516 229.466 505.264 237.845 505.076 246.473C504.889 256.477 512.142 265.356 518.957 272.859C521.208 275.297 524.209 279.549 525.772 281.675C530.774 277.485 548.781 262.417 552.845 257.415C555.596 254.039 558.285 250.35 558.848 246.223C559.848 238.783 553.596 231.905 546.905 228.341C541.716 225.652 536.026 224.214 530.586 224.214Z" fill="#1A1E22"/>
<path d="M580.169 384.653C567.976 384.653 556.472 376.337 552.97 364.395C551.845 360.581 551.595 356.392 552.157 352.39C552.345 350.952 552.533 349.826 552.783 348.951C543.842 348.889 534.838 347.763 526.147 346.638C517.394 345.512 508.328 344.387 499.386 344.387C500.387 353.453 496.885 362.582 489.883 369.084C482.38 375.962 472.251 378.65 462.684 376.149C461.872 375.962 461.371 375.087 461.559 374.274C461.746 373.461 462.622 372.961 463.435 373.148C471.938 375.337 481.004 372.961 487.694 366.833C494.384 360.643 497.511 351.827 496.01 343.199C495.948 342.761 496.073 342.261 496.323 341.948C496.635 341.573 497.073 341.386 497.511 341.386C507.202 341.261 517.018 342.511 526.46 343.699C535.838 344.887 545.53 346.075 554.971 345.95C555.846 345.95 556.534 346.638 556.534 347.513C556.534 347.951 556.347 348.388 556.034 348.638C555.784 349.389 555.346 351.577 555.159 352.953C554.658 356.517 554.909 360.206 555.909 363.644C559.348 375.462 571.54 383.215 583.608 381.402C584.483 381.277 585.233 381.839 585.358 382.715C585.483 383.59 584.921 384.34 584.045 384.465C582.795 384.59 581.482 384.653 580.169 384.653Z" fill="#1A1E22"/>
<path d="M560.473 246.472C554.408 266.73 525.022 284.488 525.022 284.488C503.201 261.478 502.888 245.785 503.638 245.034C504.764 243.909 506.764 242.658 508.203 241.72C509.39 240.97 510.578 239.97 511.641 238.907C515.58 235.093 518.957 230.716 521.458 225.839C523.771 221.337 525.522 216.398 526.272 211.396C526.46 210.27 527.71 201.517 526.522 201.079C517.081 197.328 510.266 188.387 507.827 178.508C505.389 168.691 507.015 158.125 511.016 148.808C516.456 136.116 526.96 125.049 540.34 121.423C553.721 117.796 569.664 123.048 576.23 135.178C581.044 144.057 580.419 155.061 577.167 164.565C573.854 174.131 568.164 182.634 562.912 191.2C557.66 199.829 552.658 208.895 551.157 218.899C550.157 225.589 550.844 232.779 553.846 238.907C555.159 241.72 559.473 243.909 560.473 246.472Z" fill="white"/>
<path d="M525.022 286.051C524.584 286.051 524.209 285.863 523.896 285.551C512.267 273.296 506.89 263.229 504.389 256.977C502.325 251.787 500.95 245.41 502.513 243.909C503.763 242.721 505.764 241.408 507.202 240.47L507.327 240.408C508.328 239.782 509.328 238.97 510.516 237.782C514.455 233.968 517.644 229.716 520.02 225.152C522.396 220.587 523.959 215.898 524.709 211.146C525.209 207.832 525.584 203.706 525.397 202.33C516.206 198.453 508.89 189.575 506.264 178.946C503.951 169.504 505.076 158.563 509.516 148.246C515.643 134.053 526.96 123.486 539.84 119.985C554.659 115.983 570.852 122.236 577.543 134.553C583.733 145.932 580.856 158.625 578.543 165.253C575.667 173.568 570.977 181.134 566.413 188.512C565.663 189.762 564.85 191.013 564.1 192.263C559.348 200.079 554.096 209.27 552.533 219.399C551.47 226.214 552.408 232.967 555.096 238.469C555.596 239.532 556.909 240.658 558.097 241.721C559.598 243.034 561.161 244.409 561.786 246.097C561.911 246.41 561.911 246.785 561.849 247.098C559.223 255.789 552.345 264.98 541.403 274.421C533.275 281.424 526.022 285.801 525.772 285.988C525.584 285.988 525.272 286.051 525.022 286.051ZM505.014 245.91C505.014 247.786 505.639 261.479 525.272 282.487C530.461 279.111 553.283 263.667 558.785 246.598C558.285 245.722 557.159 244.784 556.159 243.847C554.721 242.596 553.22 241.22 552.408 239.595C549.406 233.53 548.406 226.089 549.531 218.649C551.157 207.957 556.597 198.453 561.536 190.388C562.286 189.137 563.099 187.887 563.85 186.636C568.289 179.446 572.916 172.005 575.667 164.002C579.231 153.623 578.918 143.369 574.854 135.866C568.914 124.987 553.971 119.234 540.715 122.861C528.773 126.112 518.206 135.991 512.454 149.371C508.265 159.125 507.14 169.317 509.328 178.133C511.766 188.012 518.582 196.203 527.085 199.579C528.023 199.954 529.524 200.579 527.835 211.584C527.023 216.648 525.397 221.65 522.833 226.527C520.332 231.404 516.893 235.906 512.704 239.97C511.329 241.283 510.203 242.221 509.015 242.971L508.89 243.034C507.702 243.909 506.077 244.972 505.014 245.91Z" fill="#1A1E22"/>
<path d="M543.529 136.304C541.028 157.375 547.093 179.196 560.098 195.515C574.166 186.637 583.045 171.005 584.733 154.436C585.483 146.871 585.171 139.055 582.419 131.927C576.73 117.171 560.848 107.855 545.03 107.167C529.211 106.48 513.83 113.357 501.45 123.236C510.766 132.99 520.457 141.369 532.712 147.058C535.901 143.745 540.278 139.555 543.529 136.304Z" fill="#1A1E22"/>
<path d="M560.036 197.079C559.598 197.079 559.098 196.891 558.785 196.516C546.343 180.885 540.153 160.627 541.528 140.494C540.778 141.244 539.965 142.057 539.152 142.807C537.277 144.62 535.338 146.496 533.775 148.184C533.338 148.684 532.587 148.81 532.025 148.497C518.207 142.119 507.765 132.24 500.262 124.362C499.949 124.05 499.824 123.612 499.824 123.174C499.824 122.737 500.074 122.361 500.387 122.049C514.392 110.857 530.211 104.98 545.03 105.605C562.537 106.355 578.168 116.734 583.795 131.365C586.296 137.93 587.109 145.496 586.171 154.624C584.42 172.194 574.917 187.95 560.848 196.891C560.661 197.016 560.348 197.079 560.036 197.079ZM543.529 134.741C543.779 134.741 543.967 134.804 544.217 134.866C544.842 135.179 545.155 135.804 545.092 136.492C542.654 156.813 548.218 177.446 560.473 193.452C573.103 184.949 581.544 170.443 583.17 154.312C584.045 145.746 583.295 138.618 580.981 132.491C575.854 119.173 561.036 109.419 544.967 108.731C531.399 108.168 516.831 113.358 503.763 123.424C510.766 130.677 520.207 139.306 532.4 145.183C533.838 143.745 535.463 142.119 537.026 140.556C538.902 138.743 540.84 136.867 542.404 135.179C542.716 134.866 543.091 134.741 543.529 134.741Z" fill="#1A1E22"/>
<path d="M641.068 272.046C631.502 265.481 630.876 251.1 631.439 239.533C632.377 217.712 643.131 199.642 650.134 179.509C655.011 165.378 658.325 149.997 654.511 135.554C651.009 122.361 641.756 111.232 630.501 103.541C623.186 98.5393 614.87 94.8503 606.116 93.9125C597.363 92.9746 588.047 95.1004 581.169 100.603C572.853 107.293 569.039 118.11 573.979 127.926C580.544 125.675 586.984 123.362 591.673 130.364C593.987 133.866 594.612 138.18 594.862 142.369C595.925 165.566 585.233 188.638 589.485 211.459C591.986 224.902 599.614 236.969 609.055 246.848C618.496 256.665 629.813 264.293 641.068 272.046Z" fill="#1A1E22"/>
<path d="M641.068 273.609C640.755 273.609 640.443 273.546 640.193 273.359L638.442 272.171C627.875 264.918 616.996 257.415 607.93 247.911C597.175 236.657 590.298 224.152 587.922 211.772C585.483 198.766 587.859 185.511 590.11 172.694C591.861 162.752 593.736 152.498 593.236 142.432C593.049 138.993 592.611 134.616 590.36 131.24C586.546 125.55 581.919 126.8 574.604 129.364L574.416 129.426C573.666 129.676 572.853 129.364 572.541 128.676C567.601 118.797 570.602 107.105 580.106 99.4769C586.921 93.9747 596.425 91.4112 606.179 92.4116C614.495 93.2869 622.936 96.6008 631.251 102.291C643.819 110.856 652.572 122.549 655.886 135.241C660.2 151.56 655.449 168.692 651.447 180.134C649.384 186.011 647.07 191.764 644.757 197.328C639.004 211.271 633.565 224.527 632.877 239.72C632.377 251.037 632.94 264.73 641.881 270.858C642.568 271.358 642.756 272.296 642.256 273.046C642.068 273.359 641.568 273.609 641.068 273.609ZM583.545 124.049C586.984 124.049 590.298 125.362 593.049 129.426C595.737 133.428 596.3 138.367 596.488 142.244C596.988 152.623 595.112 163.127 593.299 173.194C590.985 186.261 588.735 198.641 591.11 211.146C593.299 222.964 599.989 234.906 610.306 245.723C617.121 252.851 625.124 258.915 633.19 264.605C629.813 257.165 629.626 247.661 629.938 239.408C630.626 223.651 636.441 209.521 642.068 195.953C644.319 190.451 646.695 184.761 648.696 178.946C652.51 167.879 657.137 151.373 653.073 135.866C649.884 123.924 641.568 112.857 629.688 104.729C621.81 99.3519 613.869 96.2256 606.054 95.4128C597.113 94.4749 588.484 96.7883 582.294 101.79C574.354 108.168 571.54 117.734 574.979 125.925C577.668 124.987 580.669 124.049 583.545 124.049Z" fill="#1A1E22"/>
<path d="M522.708 164.253C521.77 163.94 515.768 160.626 515.393 160.939C514.142 162.064 513.642 168.004 514.455 169.692C515.705 172.193 518.832 172.006 520.395 170.13C521.708 168.567 522.208 166.378 522.708 164.253Z" fill="#1A1E22"/>
<path d="M517.394 173.132C517.206 173.132 517.018 173.132 516.831 173.069C515.205 172.881 513.83 171.881 513.079 170.38C512.079 168.317 512.392 161.502 514.33 159.751C515.33 158.813 516.331 159.314 520.958 161.627C521.833 162.065 522.958 162.627 523.208 162.69C523.959 162.94 524.396 163.753 524.271 164.503C523.834 166.566 523.208 169.192 521.645 171.068C520.52 172.381 518.957 173.132 517.394 173.132ZM516.081 162.815C515.58 164.441 515.33 168.067 515.831 169.005C516.143 169.568 516.581 169.943 517.206 170.005C517.956 170.068 518.707 169.755 519.207 169.192C520.082 168.192 520.52 166.691 520.895 165.191C520.52 165.003 520.082 164.816 519.582 164.503C518.582 164.003 517.081 163.253 516.081 162.815Z" fill="#1A1E22"/>
</g>
<defs>
<clipPath id="clip0">
<rect width="941" height="941" fill="white"/>
</clipPath>
</defs>
</svg>
