<svg width="393" height="249" viewBox="0 0 393 249" fill="none" xmlns="http://www.w3.org/2000/svg">
<path d="M295.538 45.9082H96.5483V215.558H295.538V45.9082Z" fill="white"/>
<path d="M295.538 216.268H96.5483C96.1333 216.268 95.8159 215.95 95.8159 215.535V45.909C95.8159 45.4935 96.1333 45.1758 96.5483 45.1758H295.538C295.953 45.1758 296.271 45.4935 296.271 45.909V215.559C296.271 215.95 295.929 216.268 295.538 216.268ZM97.2807 214.801H294.806V46.6423H97.2807V214.801Z" fill="#1A1E22"/>
<path d="M96.5485 45.9824L57.0728 71.9884V219.005L96.5485 217.881V45.9824Z" fill="white"/>
<path d="M57.0727 219.74C56.8774 219.74 56.7065 219.667 56.56 219.545C56.4136 219.398 56.3403 219.227 56.3403 219.007V71.99C56.3403 71.7456 56.4624 71.5012 56.6821 71.379L96.1579 45.373C96.3776 45.2263 96.6705 45.2019 96.9147 45.3485C97.1588 45.4707 97.3053 45.7152 97.3053 45.984V217.883C97.3053 218.274 96.9879 218.616 96.5973 218.616L57.0727 219.74ZM57.8051 72.3811V218.249L95.8161 217.174V47.3527L57.8051 72.3811Z" fill="#1A1E22"/>
<path d="M295.539 45.9824L335.014 71.9884V219.005L295.539 217.881V45.9824Z" fill="white"/>
<path d="M335.014 219.738C335.014 219.738 334.99 219.738 335.014 219.738L295.514 218.614C295.124 218.614 294.806 218.272 294.806 217.881V45.9821C294.806 45.7132 294.953 45.4688 295.197 45.3466C295.441 45.2244 295.734 45.2244 295.954 45.3711L335.405 71.377C335.6 71.5237 335.747 71.7437 335.747 71.9881V219.005C335.747 219.201 335.673 219.396 335.527 219.543C335.381 219.665 335.21 219.738 335.014 219.738ZM296.271 217.172L334.282 218.247V72.3792L296.271 47.3508V217.172Z" fill="#1A1E22"/>
<path d="M335.063 71.9375H56.999V230.662H335.063V71.9375Z" fill="#FFBD00"/>
<path d="M335.063 231.396L56.999 231.347C56.584 231.347 56.2666 231.03 56.2666 230.614L56.291 71.8895C56.291 71.694 56.3643 71.4984 56.5107 71.3762C56.6572 71.2296 56.8281 71.1562 57.0234 71.1562L335.087 71.2051C335.502 71.2051 335.819 71.5229 335.819 71.9384L335.795 230.663C335.795 230.858 335.722 231.054 335.575 231.176C335.429 231.298 335.258 231.396 335.063 231.396ZM57.707 229.881L334.306 229.93L334.33 72.6716L57.7314 72.6228L57.707 229.881Z" fill="#1A1E22"/>
<path d="M312.871 106.697C312.701 109.997 312.286 155.727 311.7 155.825C292.267 159.32 266.536 159.149 242.587 157.096C230.673 156.069 233.7 148.126 233.456 135.367C233.261 125.419 233.31 115.374 235.873 105.695C263.289 102.224 306.866 105.988 312.871 106.697Z" fill="white"/>
<path d="M268.562 142.553C259.578 142.553 250.789 142.186 242.88 140.769C242.489 140.695 242.221 140.329 242.294 139.913C242.367 139.522 242.733 139.253 243.148 139.327C255.623 141.526 270.393 141.16 284.675 140.817C290.509 140.671 296.027 140.549 301.227 140.573C301.642 140.573 301.959 140.915 301.959 141.306C301.959 141.697 301.617 142.04 301.227 142.04C296.051 141.991 290.558 142.137 284.723 142.284C279.328 142.406 273.909 142.553 268.562 142.553Z" fill="#1A1E22"/>
<path d="M295.904 125.469C295.904 125.469 295.88 125.469 295.856 125.469C290.192 125.176 284.772 125.151 279.499 125.127C270.393 125.078 261.824 125.029 252.303 123.782C251.912 123.734 251.619 123.367 251.668 122.951C251.717 122.56 252.083 122.267 252.498 122.316C261.922 123.538 270.466 123.587 279.523 123.636C284.797 123.66 290.241 123.685 295.929 123.978C296.344 124.002 296.637 124.345 296.612 124.736C296.612 125.151 296.295 125.469 295.904 125.469Z" fill="#1A1E22"/>
<path d="M152.747 176.135C152.698 176.135 152.673 176.135 152.625 176.135C140.15 173.935 125.38 174.302 111.123 174.644C105.288 174.79 99.7705 174.913 94.5705 174.888C94.1555 174.888 93.8381 174.546 93.8381 174.155C93.8381 173.764 94.1799 173.422 94.5705 173.422C99.7461 173.471 105.239 173.324 111.074 173.177C125.428 172.835 140.272 172.469 152.869 174.693C153.259 174.766 153.528 175.133 153.455 175.548C153.406 175.866 153.088 176.135 152.747 176.135Z" fill="#1A1E22"/>
<path d="M143.323 193.121C143.299 193.121 143.25 193.121 143.226 193.121C133.802 191.899 125.258 191.85 116.201 191.801C110.927 191.777 105.483 191.752 99.7951 191.459C99.3801 191.435 99.0871 191.092 99.1115 190.701C99.1359 190.286 99.4777 189.993 99.8683 190.017C105.532 190.31 110.952 190.335 116.225 190.359C125.331 190.408 133.9 190.457 143.421 191.704C143.812 191.752 144.105 192.119 144.056 192.535C143.983 192.852 143.69 193.121 143.323 193.121Z" fill="#1A1E22"/>
<path d="M310.04 0.740234C324.37 18.9982 334.086 40.3847 339.848 62.7733C344.242 79.8581 346.439 97.4561 347.147 115.079C347.855 132.774 346.024 151.081 338.041 167.213C335.405 172.565 332.646 178.309 327.397 181.316C321.709 184.566 315.41 186.204 309.747 189.357C303.912 192.608 296.979 195.638 292.999 201.089C289.337 206.075 287.409 212.112 283.332 216.805C278.742 222.109 271.931 225.115 264.998 226.386C256.99 227.877 248.543 227.413 240.438 227.119C233.554 226.875 225.693 225.091 219.492 229.001C209.678 235.21 219.199 240.025 226.23 241.784C261.116 250.559 306.378 250.29 339.286 234.843C370.608 220.129 381.643 190.481 386.892 158.609C393.947 115.616 392.336 71.5479 384.401 28.7504L310.04 0.740234Z" fill="white"/>
<path d="M274.323 248.336C257.869 248.336 241.366 246.356 226.035 242.494C223.545 241.859 215.317 239.463 214.585 234.893C214.243 232.669 215.732 230.493 219.077 228.367C224.204 225.116 230.234 225.605 236.093 226.069C237.606 226.192 239.022 226.314 240.438 226.363C241.049 226.387 241.659 226.412 242.269 226.436C249.764 226.729 257.503 227.023 264.851 225.654C270.173 224.676 277.619 222.256 282.746 216.317C284.968 213.751 286.579 210.72 288.141 207.762C289.411 205.367 290.729 202.874 292.389 200.626C295.807 195.957 301.178 193.097 306.378 190.311C307.403 189.749 308.404 189.236 309.356 188.698C312.164 187.134 315.166 185.936 318.047 184.763C321.05 183.541 324.126 182.294 327.007 180.657C331.938 177.821 334.599 172.469 337.162 167.263L337.358 166.847C344.291 152.866 347.221 135.928 346.391 115.08C345.609 96.015 343.241 78.9547 339.115 62.9453C333.012 39.3102 323.027 18.5347 309.429 1.18113C309.185 0.863386 309.234 0.398994 309.551 0.154576C309.869 -0.0898407 310.333 -0.0409572 310.577 0.276785C324.297 17.7771 334.379 38.748 340.507 62.5787C344.657 78.6858 347.05 95.8439 347.831 115.031C348.685 136.124 345.683 153.306 338.652 167.507L338.456 167.923C335.795 173.324 333.037 178.897 327.715 181.928C324.761 183.614 321.611 184.885 318.584 186.107C315.728 187.256 312.798 188.454 310.064 189.969C309.088 190.507 308.062 191.069 307.061 191.607C302.008 194.295 296.783 197.106 293.561 201.505C291.974 203.681 290.68 206.1 289.435 208.447C287.824 211.453 286.164 214.582 283.845 217.27C278.425 223.527 270.662 226.069 265.095 227.096C257.601 228.489 249.764 228.171 242.196 227.902C241.586 227.878 240.975 227.854 240.365 227.829C238.925 227.78 237.411 227.658 235.971 227.536C230.356 227.096 224.57 226.632 219.858 229.589C217.075 231.349 215.781 233.06 216.025 234.624C216.465 237.361 221.543 239.83 226.376 241.028C244.418 245.574 264.143 247.505 283.43 246.625C304.376 245.672 323.564 241.345 338.92 234.135C353.373 227.34 364.236 217.075 372.171 202.752C378.616 191.093 383.059 177.015 386.11 158.439C392.824 117.548 391.994 73.9441 383.62 28.8247C383.547 28.4336 383.816 28.0426 384.206 27.9692C384.597 27.8959 384.987 28.1648 385.061 28.5559C393.459 73.8219 394.289 117.597 387.551 158.659C384.475 177.406 380.007 191.631 373.465 203.436C365.384 218.052 354.276 228.514 339.555 235.431C324.028 242.739 304.644 247.089 283.503 248.067C280.476 248.262 277.399 248.336 274.323 248.336Z" fill="#1A1E22"/>
<path d="M313.213 209.841C309.771 210.721 295.05 217.761 290.973 219.276C285.065 221.476 260.848 233.99 255.965 225.924C252.889 220.816 263.704 213.899 266.902 211.503C280.28 201.482 295.319 188.113 311.114 182.149C319.146 179.118 332.817 178.972 340.483 183.371L313.213 209.841Z" fill="white"/>
<path d="M262.239 229.345C259.139 229.345 256.649 228.514 255.33 226.339C252.205 221.181 261.019 214.875 265.242 211.82C265.706 211.478 266.121 211.185 266.438 210.94C269.172 208.887 271.956 206.736 274.885 204.439C285.798 195.909 298.175 186.254 310.845 181.488C318.95 178.433 332.915 178.213 340.824 182.783C341.166 182.979 341.288 183.443 341.093 183.786C340.898 184.128 340.434 184.25 340.092 184.054C332.548 179.704 319.146 179.924 311.358 182.881C298.907 187.574 287.165 196.74 275.788 205.612C272.859 207.91 270.076 210.06 267.317 212.138C266.975 212.382 266.56 212.7 266.096 213.042C262.532 215.609 254.158 221.597 256.575 225.605C260.335 231.814 278.034 224.09 286.554 220.375C288.337 219.593 289.728 218.982 290.705 218.615C292.34 218.004 295.783 216.464 299.42 214.827C305.084 212.309 310.919 209.694 313.018 209.132C313.409 209.034 313.799 209.278 313.921 209.669C314.019 210.06 313.775 210.451 313.384 210.574C311.407 211.087 305.352 213.8 300.006 216.171C296.344 217.808 292.877 219.348 291.193 219.984C290.265 220.326 288.874 220.937 287.116 221.695C280.402 224.628 269.587 229.345 262.239 229.345Z" fill="#1A1E22"/>
<path d="M82.0463 0.742188C67.7159 19.0001 57.9995 40.3867 52.2381 62.7753C47.8437 79.86 45.6466 97.4581 44.9386 115.081C44.2306 132.776 46.0616 151.083 54.0446 167.215C56.6812 172.567 59.4399 178.311 64.6887 181.318C70.3769 184.568 76.6754 186.206 82.3393 189.359C88.174 192.61 95.1072 195.64 99.0865 201.091C102.748 206.077 104.677 212.114 108.754 216.807C113.344 222.111 120.155 225.117 127.088 226.388C135.096 227.879 143.543 227.415 151.648 227.121C158.532 226.877 166.393 225.093 172.594 229.003C182.408 235.212 172.887 240.027 165.856 241.786C130.97 250.561 85.7083 250.292 52.7996 234.845C21.4777 220.107 10.4431 190.483 5.21871 158.587C-1.86105 115.545 -0.22538 71.4032 7.73325 28.5324L82.0463 0.742188Z" fill="white"/>
<path d="M117.763 248.337C114.687 248.337 111.611 248.263 108.559 248.117C87.4177 247.139 68.0338 242.788 52.5072 235.48C37.7862 228.563 26.6783 218.102 18.5976 203.486C12.0549 191.705 7.56293 177.456 4.4869 158.709C-2.25108 117.598 -1.39663 73.7495 7.02585 28.4101C7.09909 28.0191 7.48969 27.7502 7.8803 27.8235C8.27091 27.8969 8.53945 28.2879 8.46621 28.679C0.068152 73.8473 -0.786302 117.525 5.92726 158.489C8.97888 177.065 13.422 191.143 19.8671 202.802C27.8013 217.125 38.6895 227.39 53.1175 234.185C68.4733 241.395 87.6619 245.721 108.608 246.675C127.894 247.555 147.645 245.624 165.661 241.078C170.495 239.855 175.597 237.411 176.012 234.674C176.257 233.085 174.987 231.399 172.18 229.639C167.468 226.657 161.682 227.121 156.067 227.586C154.602 227.708 153.113 227.83 151.673 227.879C151.062 227.903 150.452 227.928 149.842 227.952C142.274 228.246 134.437 228.539 126.942 227.146C121.376 226.119 113.613 223.577 108.193 217.32C105.874 214.632 104.214 211.527 102.603 208.497C101.358 206.15 100.064 203.706 98.4768 201.555C95.2543 197.156 90.0299 194.369 84.9764 191.656C83.9755 191.119 82.9502 190.581 81.9736 190.019C79.2394 188.503 76.2854 187.306 73.4535 186.157C70.4019 184.935 67.277 183.664 64.3231 181.977C59.001 178.922 56.2424 173.35 53.5814 167.948L53.3861 167.532C46.3551 153.307 43.3523 136.149 44.2068 115.056C44.988 95.8693 47.3805 78.7112 51.5307 62.6041C57.6827 38.7734 67.7409 17.8024 81.461 0.302176C81.7051 -0.0155666 82.1689 -0.06445 82.4863 0.179967C82.8037 0.424384 82.8525 0.888777 82.6084 1.20652C69.0104 18.5357 59.0255 39.3356 52.9222 62.9707C48.7964 78.9801 46.404 96.0404 45.6472 115.105C44.7927 135.954 47.7467 152.892 54.68 166.872L54.8753 167.288C57.4386 172.494 60.0996 177.871 65.031 180.682C67.9118 182.32 70.9878 183.566 73.9906 184.788C76.8713 185.961 79.8741 187.159 82.6816 188.723C83.6581 189.261 84.6347 189.799 85.66 190.337C90.86 193.123 96.2308 195.983 99.6486 200.651C101.309 202.9 102.627 205.393 103.896 207.788C105.459 210.721 107.07 213.776 109.292 216.342C114.443 222.282 121.864 224.702 127.186 225.679C134.51 227.024 142.274 226.73 149.768 226.461C150.379 226.437 150.989 226.412 151.599 226.388C153.015 226.339 154.431 226.217 155.945 226.095C161.78 225.63 167.834 225.142 172.961 228.392C176.305 230.494 177.819 232.694 177.453 234.918C177.184 236.678 175.744 238.291 173.18 239.758C171.252 240.858 168.713 241.835 166.003 242.52C150.721 246.357 134.193 248.337 117.763 248.337Z" fill="#1A1E22"/>
<path d="M78.8733 209.841C82.3155 210.721 97.0365 217.761 101.114 219.276C107.021 221.476 131.239 233.99 136.122 225.924C139.198 220.816 128.383 213.899 125.185 211.503C111.806 201.482 96.768 188.113 80.9728 182.149C72.9409 179.118 59.2697 178.972 51.604 183.371L78.8733 209.841Z" fill="white"/>
<path d="M129.847 229.347C122.499 229.347 111.684 224.63 104.946 221.697C103.189 220.939 101.797 220.328 100.869 219.986C99.1848 219.351 95.7182 217.811 92.0562 216.173C86.7098 213.778 80.6798 211.089 78.6779 210.576C78.2873 210.478 78.0432 210.087 78.1408 209.672C78.2385 209.256 78.6291 209.036 79.0441 209.134C81.1436 209.672 87.0027 212.287 92.6421 214.829C96.2796 216.466 99.7219 218.006 101.358 218.617C102.334 218.984 103.726 219.595 105.508 220.353C114.028 224.068 131.727 231.791 135.487 225.583C137.904 221.599 129.53 215.586 125.966 213.02C125.478 212.678 125.063 212.385 124.745 212.116C121.986 210.063 119.228 207.887 116.274 205.59C104.897 196.717 93.1548 187.552 80.7042 182.859C72.9164 179.926 59.5137 179.706 51.9701 184.032C51.6283 184.228 51.1645 184.106 50.9692 183.763C50.7739 183.421 50.8959 182.957 51.2377 182.761C59.1475 178.215 73.1117 178.411 81.2169 181.466C93.8628 186.232 106.265 195.886 117.177 204.417C120.107 206.69 122.865 208.865 125.624 210.918C125.941 211.163 126.356 211.456 126.82 211.798C131.044 214.829 139.857 221.159 136.732 226.316C135.438 228.492 132.948 229.347 129.847 229.347Z" fill="#1A1E22"/>
</svg>
