<svg width="10" height="10" viewBox="0 0 10 10" fill="none" xmlns="http://www.w3.org/2000/svg">
<circle cx="5" cy="5" r="4.25" fill="white" stroke="#828282" stroke-width="0.5"/>
<path d="M4.61081 3.76H5.37881V8H4.61081V3.76ZM4.99481 2.944C4.84548 2.944 4.72015 2.896 4.61881 2.8C4.52281 2.704 4.47481 2.58667 4.47481 2.448C4.47481 2.30933 4.52281 2.192 4.61881 2.096C4.72015 1.99467 4.84548 1.944 4.99481 1.944C5.14415 1.944 5.26681 1.992 5.36281 2.088C5.46415 2.17867 5.51481 2.29333 5.51481 2.432C5.51481 2.576 5.46415 2.69867 5.36281 2.8C5.26681 2.896 5.14415 2.944 4.99481 2.944Z" fill="#828282"/>
</svg>
