<svg width="386" height="553" viewBox="0 0 386 553" fill="none" xmlns="http://www.w3.org/2000/svg">
<path d="M37.2767 482.73C36.5784 483.572 35.8801 484.488 35.9536 485.586C36.0638 486.684 36.9827 487.49 37.8648 488.185C43.3044 492.469 48.744 496.752 54.2204 501.073C62.4533 490.528 70.6863 480.021 78.9192 469.477C71.9359 465.743 65.0629 461.642 57.8958 458.311C50.6185 465.852 44.0395 474.566 37.2767 482.73Z" fill="#FEC729"/>
<path d="M54.2205 501.988C54 501.988 53.8162 501.915 53.6324 501.805L37.2768 488.918C36.2477 488.113 35.1451 487.124 34.9981 485.696C34.8511 484.195 35.8802 482.95 36.505 482.182C38.4162 479.875 40.3274 477.495 42.2019 475.189C46.9799 469.258 51.9417 463.144 57.1976 457.652C57.4549 457.359 57.8959 457.286 58.2635 457.469C63.2253 459.775 68.1136 462.485 72.8181 465.084C74.9499 466.256 77.1551 467.5 79.3236 468.635C79.5441 468.745 79.7279 469.001 79.8014 469.258C79.8749 469.514 79.8014 469.807 79.6176 470.027L54.9188 501.622C54.7718 501.805 54.5513 501.952 54.294 501.952C54.294 501.952 54.2573 501.988 54.2205 501.988ZM37.9752 483.317C37.3871 484.049 36.799 484.781 36.8725 485.477C36.9461 486.209 37.6811 486.831 38.453 487.454L54.0735 499.755L77.5594 469.734C75.6849 468.709 73.8105 467.683 71.9728 466.658C67.452 464.169 62.821 461.569 58.1164 459.373C53.0811 464.681 48.3031 470.576 43.6721 476.324C41.8344 478.63 39.8864 481.01 37.9752 483.317Z" fill="#212121"/>
<path d="M73.6264 550.315C81.8961 546.874 76.383 533.877 75.1334 527.982C73.1854 518.683 70.8331 509.42 68.0766 500.304C67.268 497.558 66.7167 493.385 64.9892 491.115C63.3353 488.955 59.6231 487.197 57.4914 485.44C56.0947 484.305 41.54 471.93 42.2016 471.125C35.6226 479.289 19.8918 491.884 20.1491 491.554L73.6264 550.315Z" fill="white"/>
<path d="M73.6267 551.231C73.3694 551.231 73.1121 551.121 72.9283 550.938L19.5613 492.25C19.1937 491.921 19.1202 491.371 19.451 490.969C19.5245 490.859 19.6348 490.786 19.745 490.712C20.8844 489.87 35.2553 478.301 41.5035 470.54C41.8343 470.137 42.3856 470.064 42.7899 470.393C43.0104 470.576 43.1207 470.796 43.1207 471.052C44.2233 472.846 55.4333 482.548 58.0796 484.708C58.8147 485.33 59.7703 485.916 60.7994 486.575C62.6739 487.783 64.5851 489.028 65.7245 490.529C67.0844 492.323 67.746 495.106 68.3341 497.559C68.5546 498.474 68.7384 499.316 68.9589 500.048C71.7154 509.164 74.0677 518.5 76.0157 527.8C76.2362 528.788 76.567 530.033 76.9345 531.314C78.7723 537.978 81.5656 548.009 73.9575 551.158C73.8472 551.194 73.7369 551.231 73.6267 551.231ZM21.5092 491.664L73.8104 549.217C79.1766 546.362 76.861 537.978 75.1336 531.79C74.766 530.472 74.4353 529.191 74.2147 528.166C72.2668 518.903 69.9145 509.64 67.1947 500.561C66.9742 499.792 66.7536 498.913 66.5331 497.998C65.9818 495.728 65.3937 493.165 64.2543 491.664C63.2987 490.419 61.4978 489.248 59.7703 488.15C58.7045 487.454 57.7121 486.832 56.9035 486.136C56.2052 485.55 52.1622 482.145 48.45 478.814C46.3183 476.91 44.6276 475.336 43.4515 474.164C42.8634 473.578 42.4224 473.102 42.0548 472.7C38.5632 476.763 33.3073 481.596 29.3746 485.074C26.6916 487.417 24.4128 489.321 23.3102 490.236C22.5751 490.822 21.9503 491.335 21.5092 491.664Z" fill="#212121"/>
<path d="M25.3679 487.346C22.6849 488.627 18.6787 487.785 15.9956 489.066C32.3145 511.07 49.9932 530.071 73.0013 551.123L75.6109 549.255C75.9049 549.036 75.9784 548.596 75.7211 548.34C71.0534 543.251 34.0787 503.089 25.3679 487.346Z" fill="#212121"/>
<path d="M73.0016 552.001C72.7811 552.001 72.5606 551.928 72.3768 551.745C48.7439 530.144 31.1386 510.96 15.2608 489.579C15.1138 489.359 15.0403 489.066 15.1138 488.81C15.1873 488.554 15.3711 488.334 15.5916 488.188C17.0985 487.456 18.8995 487.346 20.6269 487.236C22.2441 487.126 23.7878 487.016 24.9639 486.467C25.405 486.247 25.9195 486.43 26.1768 486.833C34.8875 502.539 72.1563 543.032 76.383 547.608C76.677 547.937 76.8241 548.377 76.7873 548.816C76.7506 549.256 76.4933 549.658 76.1625 549.915L73.5529 551.782C73.3692 551.928 73.1854 552.001 73.0016 552.001ZM17.4661 489.506C32.9396 510.228 50.1405 528.936 73.0751 549.915L74.8026 548.67C69.6938 543.141 34.2995 504.59 24.9639 488.481C23.6408 488.92 22.1706 489.03 20.7372 489.103C19.5611 489.176 18.4584 489.25 17.4661 489.506Z" fill="#212121"/>
<path d="M177.53 507.406C185.101 508.138 192.673 508.907 200.244 509.639C200.906 497.777 201.531 485.915 202.192 474.053C195.209 474.565 181.536 472.369 178.743 480.167C177.787 482.803 177.089 507.332 177.53 507.406Z" fill="#FEC729"/>
<path d="M200.244 510.518C200.207 510.518 200.171 510.518 200.171 510.518L177.457 508.285C177.457 508.285 177.457 508.285 177.42 508.285C177.126 508.248 176.869 508.065 176.721 507.845C176.574 507.589 176.427 507.369 176.464 503.196C176.501 500.779 176.574 497.594 176.685 494.446C176.832 490.638 177.236 481.595 177.861 479.838C180.25 473.101 189.512 473.175 196.936 473.211C198.848 473.211 200.648 473.248 202.082 473.138C202.339 473.101 202.596 473.211 202.78 473.394C202.964 473.577 203.074 473.833 203.037 474.09L201.09 509.676C201.09 509.932 200.943 510.152 200.759 510.335C200.648 510.445 200.465 510.518 200.244 510.518ZM178.339 506.564L199.362 508.614L201.2 475.005C199.913 475.042 198.443 475.042 196.936 475.042C190.1 475.005 181.573 474.932 179.625 480.46C178.78 482.767 178.155 502.72 178.339 506.564Z" fill="#212121"/>
<path d="M251.7 536.916C255.706 528.934 243.026 522.674 238.211 518.976C230.64 513.192 222.811 507.7 214.762 502.574C212.336 501.037 209.212 498.218 206.382 497.595C203.699 497.009 199.767 498.108 196.973 498.181C195.172 498.218 176.06 498.291 176.023 497.266C176.391 507.736 172.715 527.507 172.679 527.067L251.7 536.916Z" fill="white"/>
<path d="M251.7 537.831C251.663 537.831 251.627 537.831 251.59 537.831L172.715 528.019C172.238 528.019 171.833 527.616 171.797 527.14C171.797 526.994 171.797 526.884 171.87 526.774C172.201 525.383 175.472 507.297 175.141 497.339C175.141 496.826 175.509 496.423 176.023 496.387C176.281 496.387 176.538 496.497 176.722 496.68C178.743 497.302 193.592 497.375 197.01 497.302C197.966 497.265 199.105 497.119 200.318 496.972C202.523 496.68 204.802 496.35 206.64 496.753C208.882 497.229 211.16 498.913 213.219 500.377C213.954 500.927 214.689 501.439 215.314 501.842C223.363 506.967 231.265 512.496 238.836 518.28C239.645 518.903 240.711 519.598 241.85 520.367C247.584 524.211 256.294 530.033 252.582 537.355C252.362 537.648 252.031 537.831 251.7 537.831ZM173.781 526.298L251.112 535.89C253.317 530.252 246.077 525.419 240.711 521.832C239.571 521.063 238.469 520.331 237.623 519.672C230.089 513.924 222.223 508.432 214.211 503.343C213.513 502.904 212.778 502.391 212.006 501.805C210.131 500.451 207.963 498.876 206.125 498.51C204.581 498.181 202.486 498.474 200.428 498.73C199.178 498.913 198.002 499.059 196.936 499.096C196.018 499.133 190.725 499.133 185.763 499.059C182.896 498.986 180.581 498.913 178.927 498.766C178.118 498.693 177.457 498.657 176.905 498.547C176.942 503.892 176.097 510.995 175.399 516.157C174.921 519.672 174.406 522.6 174.186 523.992C174.039 524.98 173.892 525.749 173.781 526.298Z" fill="#212121"/>
<path d="M173.855 520.549C172.679 523.258 169.077 525.235 167.901 527.944C194.658 534.022 220.533 536.951 251.737 537.939L252.509 534.827C252.582 534.461 252.362 534.095 251.957 534.058C245.121 533.216 190.798 526.809 173.855 520.549Z" fill="#212121"/>
<path d="M251.7 538.818C219.614 537.793 193.702 534.718 167.68 528.823C167.423 528.75 167.202 528.604 167.055 528.348C166.945 528.091 166.908 527.835 167.018 527.579C167.68 526.041 168.966 524.796 170.216 523.588C171.392 522.453 172.495 521.391 173.009 520.183C173.193 519.744 173.708 519.524 174.186 519.707C191.092 525.968 245.856 532.411 252.031 533.144C252.472 533.18 252.876 533.437 253.133 533.803C253.391 534.169 253.464 534.608 253.354 535.047L252.582 538.159C252.509 538.525 252.141 538.818 251.7 538.818ZM169.297 527.286C194.621 532.961 219.908 535.926 251.002 536.951L251.516 534.864C244.018 533.986 191.938 527.798 174.333 521.648C173.634 522.819 172.568 523.844 171.539 524.869C170.694 525.675 169.885 526.48 169.297 527.286Z" fill="#212121"/>
<path d="M150.884 250.653C152.17 255.632 153.236 260.685 154.926 265.517C171.98 313.734 162.645 370.409 135.741 413.317C135.594 413.537 135.447 413.793 135.3 414.013C127.545 426.204 118.466 437.481 108.874 448.281C104.022 453.736 99.0234 459.081 93.9881 464.353C92.5179 465.854 80.5361 479.876 79.3232 479.364C67.1943 474.421 57.2339 467.978 48.1924 458.532C93.8411 397.721 111.152 316.261 96.5609 241.72C110.344 243.038 124.31 242.489 137.983 240.182C140.188 239.816 145.076 237.876 146.914 239.047C148.568 240.109 149.487 245.747 150.038 247.614C150.332 248.64 150.626 249.628 150.884 250.653Z" fill="white"/>
<path d="M79.3962 480.315C79.2492 480.315 79.1022 480.279 78.9552 480.205C66.275 475.043 56.3146 468.343 47.4936 459.154C47.1996 458.824 47.1628 458.349 47.4201 457.982C92.4072 398.086 110.417 317.322 95.6783 241.903C95.6048 241.61 95.7151 241.317 95.8988 241.097C96.0826 240.878 96.3766 240.768 96.6707 240.804C110.38 242.122 124.236 241.573 137.872 239.267C138.423 239.157 139.195 238.974 140.004 238.754C142.687 238.022 145.738 237.18 147.428 238.278C148.898 239.23 149.707 242.232 150.516 245.747C150.663 246.406 150.81 246.955 150.92 247.321C151.177 248.273 151.471 249.262 151.765 250.396C152.133 251.788 152.464 253.179 152.794 254.534C153.676 258.048 154.559 261.709 155.771 265.187C172.201 311.647 164.813 368.578 136.512 413.756C136.365 413.976 136.218 414.232 136.071 414.452C129.088 425.398 120.671 436.309 109.535 448.83C105.161 453.772 100.42 458.898 94.6124 464.902C94.3184 465.195 93.5833 466.037 92.591 467.135C82.5938 478.521 80.4621 480.315 79.3962 480.315ZM49.4048 458.495C57.8215 467.135 67.3776 473.469 79.3962 478.448C81.1604 477.423 88.7318 468.893 91.2678 466.037C92.2969 464.902 92.9953 464.06 93.3261 463.767C99.0965 457.763 103.838 452.674 108.211 447.731C119.275 435.283 127.654 424.41 134.564 413.573C134.711 413.353 134.858 413.097 135.005 412.877C163.012 368.175 170.326 311.83 154.081 265.883C152.831 262.332 151.912 258.634 151.03 255.046C150.699 253.691 150.369 252.3 150.001 250.909C149.707 249.811 149.45 248.822 149.156 247.907C149.045 247.504 148.898 246.918 148.751 246.223C148.31 244.356 147.391 240.511 146.436 239.852C145.443 239.193 142.356 240.035 140.518 240.548C139.6 240.804 138.828 241.024 138.203 241.097C124.824 243.367 111.225 243.953 97.7733 242.781C112.071 318.054 94.0611 398.562 49.4048 458.495Z" fill="#212121"/>
<path d="M100.42 215.322C78.5883 197.053 37.4971 203.094 16.437 219.496C2.94817 230.04 5.30044 248.749 7.1749 264.601C12.1 306.192 47.531 334.053 84.1749 349.759C103.14 357.887 124.347 361.768 140.887 374.142C156.544 385.858 166.21 404.237 170.658 423.238C174.259 438.761 174.664 454.834 173.965 470.686C173.855 472.883 172.275 479.583 173.488 481.377C175.031 483.647 180.434 482.988 182.897 483.171C191.093 483.793 199.326 484.159 207.522 484.232C208.919 484.232 213.844 450.989 214.174 447.585C215.461 435.43 215.424 423.165 214.211 411.01C211.785 386.81 204.618 362.793 192.195 341.741C190.137 338.263 187.932 334.858 185.58 331.563C174.039 315.381 159.3 301.505 143.496 289.533C137.285 284.811 128.28 281.186 123.024 275.548C116.445 268.482 118.908 252.629 116.372 242.708C113.725 232.347 108.653 222.242 100.42 215.322Z" fill="white"/>
<path d="M207.522 485.185C199.289 485.112 190.982 484.746 182.823 484.123C182.308 484.087 181.61 484.087 180.875 484.087C177.898 484.087 174.186 484.087 172.715 481.927C171.723 480.462 172.09 477.314 172.679 473.323C172.826 472.225 172.973 471.236 173.009 470.687C173.855 451.686 172.789 436.712 169.701 423.495C164.887 402.773 154.449 385.529 140.298 374.912C129.382 366.748 116.114 362.208 103.25 357.814C96.7812 355.618 90.1287 353.348 83.7702 350.639C63.4819 341.925 45.9869 330.502 33.0862 317.579C17.5759 301.982 8.53441 284.189 6.21889 264.748C4.82224 253.033 5.26329 240.731 7.5788 228.21C7.65231 227.698 8.16687 227.368 8.64467 227.478C9.15923 227.551 9.49002 228.027 9.37975 228.54C7.13775 240.878 6.65995 252.996 8.0566 264.529C10.4824 284.848 23.6036 322.851 84.5053 348.955C90.7903 351.627 97.406 353.897 103.838 356.094C116.812 360.524 130.227 365.1 141.401 373.447C155.882 384.321 166.577 401.931 171.502 423.056C174.627 436.456 175.692 451.613 174.847 470.76C174.81 471.419 174.663 472.444 174.48 473.616C174.149 475.813 173.524 479.95 174.222 480.938C175.141 482.293 178.596 482.293 180.875 482.293C181.647 482.293 182.382 482.293 182.97 482.329C190.945 482.915 199.068 483.281 207.08 483.391C208.587 479.803 212.814 451.906 213.292 447.585C214.542 435.687 214.542 423.422 213.329 411.194C210.793 386.115 203.221 362.318 191.423 342.328C189.365 338.813 187.16 335.408 184.844 332.223C174.296 317.469 160.586 303.776 142.944 290.376C137.468 286.203 120.304 274.963 120.12 274.853C119.679 274.56 119.569 274.011 119.863 273.572C120.157 273.132 120.708 273.023 121.149 273.316C121.333 273.425 138.534 284.738 144.047 288.912C161.836 302.422 175.692 316.224 186.351 331.161C188.667 334.42 190.909 337.861 193.004 341.413C204.949 361.622 212.594 385.712 215.166 411.047C216.416 423.385 216.379 435.76 215.13 447.805C214.946 449.599 213.586 458.898 212.189 467.465C209.212 485.185 208.551 485.185 207.522 485.185Z" fill="#212121"/>
<path d="M60.3949 468.818C60.3214 468.818 60.2846 468.817 60.2111 468.781C59.6966 468.671 59.4025 468.195 59.5128 467.683L62.3429 454.393C62.4531 453.917 62.9309 453.587 63.4087 453.697C63.8865 453.807 64.2173 454.283 64.1071 454.759L63.813 456.187C63.813 456.26 63.7763 456.333 63.7395 456.37L61.2402 468.049C61.2035 468.525 60.8359 468.818 60.3949 468.818Z" fill="#212121"/>
<path d="M66.5691 472.517C66.3485 472.517 66.0913 472.443 65.9075 472.26C65.54 471.894 65.54 471.308 65.9075 470.979L74.2507 462.741C74.6182 462.375 75.2063 462.375 75.5371 462.741C75.9046 463.107 75.9046 463.693 75.5371 464.023L67.1939 472.26C67.0469 472.443 66.8263 472.517 66.5691 472.517Z" fill="#212121"/>
<path d="M184.807 483.83C184.366 483.83 183.962 483.501 183.889 483.025L182.382 470.687C182.308 470.174 182.676 469.735 183.19 469.662C183.705 469.588 184.146 469.955 184.219 470.467L185.726 482.805C185.8 483.318 185.432 483.757 184.918 483.83C184.881 483.83 184.844 483.83 184.807 483.83Z" fill="#212121"/>
<path d="M196.238 484.672C196.091 484.672 195.944 484.635 195.833 484.562C195.392 484.343 195.209 483.793 195.429 483.317L201.163 472.078C201.383 471.638 201.935 471.455 202.412 471.675C202.853 471.895 203.037 472.444 202.817 472.92L197.083 484.159C196.899 484.489 196.569 484.672 196.238 484.672Z" fill="#212121"/>
<path d="M190.541 483.83C190.468 483.83 190.394 483.83 190.321 483.793C189.843 483.684 189.512 483.171 189.659 482.695C195.172 460.655 193.922 434.991 186.241 410.461C178.412 385.529 164.666 364.477 147.502 351.151C138.24 343.975 127.875 337.971 117.841 332.149C104.242 324.278 90.2022 316.15 78.5879 304.911C70.502 297.076 64.1068 288.069 60.0638 278.843C55.3225 268.043 53.9259 257.462 55.9841 247.431C56.0944 246.918 56.5722 246.625 57.05 246.699C57.5645 246.808 57.8586 247.284 57.785 247.76C55.8003 257.426 57.1602 267.64 61.7545 278.075C65.7239 287.081 71.9722 295.868 79.8743 303.556C91.3049 314.649 105.271 322.74 118.76 330.538C128.831 336.36 139.269 342.401 148.641 349.686C166.1 363.232 180.066 384.613 188.005 409.875C195.797 434.734 197.047 460.728 191.46 483.098C191.313 483.537 190.945 483.83 190.541 483.83Z" fill="#212121"/>
<path d="M289.006 244.868C291.284 247.614 288.565 245.308 291.285 247.614C291.137 247.468 274.414 255.815 272.503 256.437C265.777 258.707 258.794 260.135 251.7 260.648C228.619 262.295 205.022 253.765 188.704 237.363C169.555 218.105 164.225 189.988 162.204 163.921C162.204 163.921 190.174 129.067 200.869 123.062C200.869 123.062 192.085 136.133 193.224 155.903C193.959 168.351 196.312 180.835 201.053 192.368C209.948 214.078 233.58 236.631 260.154 225.354C261.955 224.586 276.693 220.961 276.914 221.767C279.266 230.224 283.419 238.132 289.006 244.868Z" fill="white"/>
<path d="M246.04 261.783C224.392 261.783 203.074 253.142 188.042 238.022C167.827 217.703 163.123 187.791 161.285 164.03C161.285 163.811 161.322 163.554 161.469 163.371C162.608 161.944 189.659 128.298 200.391 122.294C200.759 122.074 201.237 122.147 201.531 122.477C201.825 122.769 201.862 123.245 201.604 123.612C201.531 123.758 193.004 136.682 194.143 155.866C194.952 169.266 197.561 181.421 201.898 192.038C206.713 203.754 217.262 218.508 232.367 224.695C241.483 228.43 250.708 228.393 259.823 224.512C260.852 224.073 265.189 222.938 268.57 222.169C276.252 220.375 276.914 220.705 277.281 220.888C277.575 221.034 277.759 221.254 277.832 221.547C280.074 229.748 284.154 237.583 289.667 244.246C290.182 244.868 290.696 245.491 290.843 246.04C291.027 246.223 291.395 246.516 291.836 246.882C292.24 247.211 292.277 247.797 291.946 248.163C291.799 248.31 291.615 248.419 291.431 248.456C290.807 248.676 287.131 250.47 283.897 252.044C278.016 254.9 273.753 256.95 272.76 257.279C265.887 259.586 258.83 261.014 251.737 261.526C249.862 261.709 247.951 261.783 246.04 261.783ZM163.159 164.213C164.997 187.608 169.665 216.934 189.365 236.704C205.316 252.776 228.619 261.343 251.663 259.732C258.573 259.256 265.483 257.829 272.209 255.595C273.165 255.266 278.678 252.593 283.125 250.47C285.146 249.481 287.058 248.566 288.491 247.87C288.895 247.687 289.263 247.504 289.557 247.358C289.042 246.882 289.042 246.772 289.006 246.479V246.442C288.895 246.296 288.675 246.003 288.271 245.491C282.721 238.791 278.567 230.919 276.252 222.682C275.37 222.755 273.165 223.084 268.681 224.146C264.711 225.061 261.293 226.013 260.558 226.306C251.002 230.37 241.299 230.407 231.706 226.489C216.085 220.082 205.206 204.889 200.244 192.807C195.797 182.007 193.151 169.632 192.342 156.049C191.497 141.99 195.577 131.373 198.149 126.174C186.792 135.107 165.585 161.211 163.159 164.213ZM290.696 248.31C290.733 248.346 290.77 248.383 290.807 248.383C290.77 248.383 290.733 248.346 290.696 248.31Z" fill="#212121"/>
<path d="M259.97 24.1372C256.111 11.9457 244.35 2.31689 231.081 5.31901C215.902 8.72386 207.375 24.3203 205.721 38.5255C204.545 48.4471 204.986 59.7234 198.333 67.9609C193.482 73.9286 186.682 77.8826 179.295 80.5186C178.854 82.2393 178.449 83.9601 178.192 85.6808C177.383 90.7332 177.42 96.2615 179.809 100.911C182.235 105.597 186.793 108.856 191.607 110.796C196.716 112.846 202.413 113.835 208.11 113.798C216.6 103.95 226.083 95.3462 236.594 88.39C244.754 82.9716 253.832 77.7728 258.316 69.0959C265.005 56.0989 264.27 37.6834 259.97 24.1372Z" fill="white"/>
<path d="M207.816 114.715C201.935 114.715 196.238 113.653 191.277 111.64C185.653 109.37 181.279 105.709 179.037 101.315C176.869 97.1418 176.281 91.8331 177.31 85.536C177.604 83.8519 177.972 82.1311 178.449 80.264C178.523 79.9711 178.743 79.7514 179.037 79.6416C187.123 76.7859 193.408 72.6488 197.672 67.3768C202.891 60.9332 203.626 52.4394 204.288 44.2385C204.435 42.3347 204.618 40.3577 204.839 38.4539C206.53 24.0656 215.24 7.99327 230.934 4.44198C237.366 2.97753 244.019 4.36876 249.642 8.28617C254.898 11.9473 258.904 17.4756 260.889 23.846C264.711 35.9277 266.549 55.1486 259.125 69.5003C255.008 77.4449 247.253 82.4973 239.792 87.3666C238.873 87.9523 237.991 88.5381 237.109 89.1239C227.075 95.7872 217.556 104.281 208.808 114.386C208.625 114.569 208.367 114.715 208.11 114.715C208 114.715 207.889 114.715 207.816 114.715ZM180.067 81.2159C179.662 82.8268 179.331 84.3278 179.074 85.8289C178.119 91.7233 178.633 96.6658 180.618 100.473C182.676 104.464 186.682 107.832 191.938 109.919C196.643 111.823 202.082 112.848 207.669 112.848C216.453 102.743 226.009 94.2495 236.08 87.5862C236.962 87.0005 237.881 86.4147 238.763 85.8289C246.04 81.0694 253.575 76.1635 257.471 68.6582C261.955 60.0179 265.042 43.2133 259.088 24.3951C255.596 13.3385 244.68 3.1972 231.302 6.19932C216.49 9.53095 208.257 24.9077 206.64 38.6369C206.419 40.5041 206.272 42.3713 206.088 44.3849C205.39 52.8787 204.618 61.6654 199.068 68.5484C194.621 73.9668 188.263 78.2137 180.067 81.2159Z" fill="#212121"/>
<path d="M350.201 155.976C346.599 144.59 346.489 132.435 347.518 120.646C348.327 111.237 350.973 94.725 359.39 88.7574C369.755 81.4351 374.386 98.9719 375.672 105.965C377.546 116.326 378.686 127.382 377.914 138.109C377.252 147.482 376.039 160.772 369.203 167.911C360.456 177.027 353.693 165.934 350.826 157.843C350.606 157.257 350.385 156.598 350.201 155.976Z" fill="#FEC729"/>
<path d="M362.698 172.267C362.183 172.267 361.705 172.23 361.191 172.121C359.133 171.681 353.95 169.448 349.981 158.208C349.76 157.586 349.54 156.927 349.319 156.268C346.195 146.456 345.35 135.107 346.599 120.572C347.004 116.069 347.849 109.405 349.724 103.182C351.929 95.8959 354.979 90.8069 358.875 88.0611C361.595 86.1207 364.205 85.6447 366.63 86.6332C369.313 87.7316 371.666 90.6605 373.614 95.3101C375.268 99.3374 376.223 103.657 376.628 105.854C378.796 117.753 379.568 128.663 378.906 138.219C378.355 146.163 377.326 160.918 369.938 168.569C367.513 171.022 365.087 172.267 362.698 172.267ZM351.083 155.719C351.267 156.341 351.488 156.964 351.708 157.586C354.722 166.08 358.765 169.741 361.595 170.327C363.837 170.803 366.189 169.777 368.578 167.325C375.488 160.112 376.517 145.797 377.069 138.109C377.73 128.7 376.995 117.936 374.827 106.184C373.467 98.7516 370.416 90.1479 365.969 88.3174C364.168 87.5851 362.183 87.9879 359.978 89.5621C351.819 95.3101 349.282 111.602 348.474 120.755C347.188 134.997 348.033 146.127 351.083 155.719Z" fill="#212121"/>
<path d="M381.369 88.6112C375.893 88.6112 367.843 88.2085 363.874 87.9522C363.359 87.9156 362.992 87.4763 363.029 86.9637C363.065 86.4512 363.506 86.0851 364.021 86.1217C368.909 86.4512 380.009 86.9637 384.714 86.7074C385.228 86.6708 385.669 87.0736 385.669 87.5861C385.706 88.0987 385.302 88.538 384.787 88.538C383.832 88.5746 382.692 88.6112 381.369 88.6112Z" fill="#212121"/>
<path d="M364.168 172.267C363.727 172.267 363.286 172.267 362.918 172.267C362.404 172.267 362 171.828 362 171.352C362 170.84 362.404 170.437 362.918 170.437C365.418 170.473 369.755 170.4 373.981 170.29C378.208 170.217 382.545 170.107 385.081 170.144C385.596 170.144 386 170.583 386 171.059C386 171.572 385.596 171.975 385.081 171.975C382.582 171.938 378.245 172.011 374.018 172.121C370.453 172.194 366.778 172.267 364.168 172.267Z" fill="#212121"/>
<path d="M349.908 85.4983C349.724 85.4983 349.503 85.4251 349.319 85.3152L332.266 71.8056C331.898 71.5128 331.824 70.9636 332.082 70.5975C332.339 70.1948 332.854 70.0849 333.295 70.3046L334.912 71.1833C335.206 71.3297 335.39 71.6592 335.39 71.9521L350.459 83.924C350.863 84.2535 350.937 84.8027 350.606 85.2054C350.459 85.3884 350.165 85.4983 349.908 85.4983Z" fill="#212121"/>
<path d="M353.803 83.1915C353.436 83.1915 353.068 82.9718 352.958 82.6057L349.944 74.5146C349.871 74.4414 349.797 74.3315 349.76 74.2217L349.172 72.5376C349.025 72.0616 349.283 71.5491 349.724 71.366C350.202 71.1829 350.716 71.4392 350.9 71.9152L354.649 81.9833C354.833 82.4592 354.575 82.9718 354.097 83.1548C353.987 83.1915 353.877 83.1915 353.803 83.1915Z" fill="#212121"/>
<path d="M359.905 81.4336C359.39 81.4336 358.986 81.0308 358.986 80.5183V71.2922C358.986 70.7797 359.39 70.377 359.905 70.377C360.419 70.377 360.824 70.7797 360.824 71.2922V80.4817C360.824 80.9942 360.419 81.4336 359.905 81.4336Z" fill="#212121"/>
<path d="M211.014 63.5311C212.19 57.5634 216.012 52.2182 221.268 49.1428C210.646 55.623 199.216 60.7486 187.344 64.4098C185.506 64.9589 183.081 65.2884 182.088 63.6775C180.912 61.7737 182.97 59.5771 184.808 58.3323C190.064 54.6712 195.357 51.01 200.612 47.3489C192.857 52.8772 183.301 55.9159 173.745 55.8061C171.54 55.7695 169.261 55.5864 167.35 54.4881C165.439 53.4264 163.932 51.3029 164.226 49.1428C164.593 46.5434 167.093 44.9325 169.408 43.6512C185.727 34.6814 202.744 27.0662 220.313 20.8789C222.224 20.2199 229.869 30.8738 230.898 32.3383C233.177 35.5967 237.256 40.5026 235.455 44.6397C233.875 48.3008 228.215 52.0718 225.238 54.4881C220.864 58.0394 216.086 61.0781 211.014 63.5311Z" fill="#212121"/>
<path d="M184.698 65.7645C183.117 65.7645 181.941 65.2153 181.279 64.117C179.846 61.7738 181.868 59.1744 184.257 57.5269L188.924 54.2685C184.036 55.916 178.89 56.7581 173.708 56.6849C171.54 56.6483 169.04 56.4652 166.872 55.257C164.814 54.1221 162.939 51.7423 163.307 48.9599C163.711 46.0676 166.247 44.2736 168.93 42.8092C185.249 33.8394 202.413 26.151 219.982 19.9637C220.864 19.6708 222.15 19.7807 226.597 25.1625C229.207 28.3111 231.596 31.716 231.596 31.7526C231.816 32.0821 232.074 32.4116 232.331 32.7777C234.757 36.1459 238.065 40.7589 236.264 44.9326C234.904 48.1178 230.898 51.1932 227.663 53.6461C226.965 54.1953 226.303 54.6712 225.752 55.1106C221.305 58.6985 216.49 61.7738 211.381 64.2634C211.05 64.4099 210.683 64.3732 210.425 64.1536C210.131 63.9339 210.021 63.6044 210.095 63.2383C210.756 59.9433 212.19 56.7947 214.211 54.0855C205.721 58.6253 196.79 62.323 187.564 65.1421C186.535 65.618 185.58 65.7645 184.698 65.7645ZM199.877 48.9233L185.322 59.028C184.955 59.2843 181.831 61.5176 182.86 63.1651C183.632 64.4099 186.057 63.8241 187.087 63.5312C198.664 59.9799 209.801 55.0007 220.202 48.7402C220.423 48.5938 220.643 48.4839 220.864 48.3375C221.305 48.0812 221.856 48.2276 222.113 48.667C222.371 49.1063 222.224 49.6555 221.819 49.9118C221.599 50.0216 221.415 50.1681 221.194 50.2779C217.041 52.9139 213.88 57.0876 212.447 61.8104C216.784 59.5772 220.9 56.8679 224.686 53.7926C225.274 53.3166 225.936 52.8041 226.634 52.2915C229.538 50.0948 233.47 47.0561 234.646 44.3102C236.043 41.0518 233.066 36.9514 230.898 33.9492C230.64 33.5831 230.383 33.2536 230.162 32.8875C225.715 26.5171 221.636 22.0506 220.57 21.7943C203.148 27.945 186.094 35.5601 169.886 44.4567C167.607 45.7015 165.475 47.1659 165.181 49.2528C164.924 51.1566 166.357 52.8773 167.827 53.6827C169.628 54.6712 171.87 54.8543 173.782 54.8543C173.929 54.8543 174.112 54.8543 174.259 54.8543C182.97 54.8543 191.644 52.2183 198.885 47.3856L200.134 46.5069C200.539 46.214 201.127 46.3239 201.421 46.7266C201.715 47.1293 201.604 47.7151 201.2 48.008C200.722 48.3375 200.318 48.6304 199.877 48.9233Z" fill="#212121"/>
<path d="M282.427 47.2022C287.279 46.6531 295.364 44.4564 292.939 37.7565C292.057 35.3402 289.925 33.5828 287.573 32.5943C275.223 27.3589 259.051 26.2972 245.783 25.9677C231.375 25.6382 215.571 26.4436 201.604 30.0681C204.876 34.8276 214.726 39.221 219.945 41.1614C224.686 42.9187 229.354 44.2367 234.316 45.152C250.23 48.1541 266.329 49.0694 282.427 47.2022Z" fill="#FEC729"/>
<path d="M265.447 49.0693C255.302 49.0693 244.828 48.0807 234.169 46.0671C229.244 45.1518 224.502 43.8338 219.651 42.0033C216.196 40.7219 204.655 36.1088 200.87 30.5805C200.686 30.3243 200.649 30.0314 200.759 29.7385C200.87 29.4456 201.09 29.2625 201.384 29.1893C213.476 26.0407 228.435 24.6495 245.82 25.0522C258.794 25.3451 275.334 26.3702 287.94 31.7521C290.807 32.9603 292.939 35.0471 293.821 37.4635C294.593 39.5869 294.482 41.4907 293.453 43.1382C291.285 46.6163 285.698 47.7512 282.537 48.1174C276.951 48.7764 271.217 49.0693 265.447 49.0693ZM203.185 30.6172C206.53 34.3149 213.991 37.976 220.239 40.3191C224.98 42.0765 229.648 43.3945 234.463 44.2732C251.039 47.3485 267.137 48.0441 282.28 46.2502C284.559 45.9939 289.998 45.042 291.836 42.1131C292.534 40.9782 292.608 39.6235 292.057 38.0492C291.358 36.1088 289.594 34.4247 287.205 33.3996C274.892 28.1642 258.61 27.1391 245.783 26.8462C229.207 26.5167 214.873 27.7615 203.185 30.6172Z" fill="#212121"/>
<path d="M201.605 30.1061C199.62 28.2755 201.053 24.3581 202.193 22.0516C212.521 0.597393 245.563 -3.46646 262.323 17.2555C264.418 19.8183 268.056 25.5663 265.888 29.1176C264.601 31.1678 260.669 32.9984 258.5 33.9503C241.483 41.2359 219.283 37.3551 202.671 30.7285C202.193 30.5454 201.862 30.3258 201.605 30.1061Z" fill="white"/>
<path d="M237.183 38.7454C226.303 38.7454 214.248 36.329 202.303 31.5696C201.788 31.3499 201.347 31.0936 200.98 30.7641C198.664 28.6407 199.914 24.6134 201.347 21.6479C206.309 11.3968 216.637 4.44061 228.986 3.01277C242.144 1.51171 254.898 6.60067 263.021 16.6688C264.124 18.0234 269.453 25.0162 266.623 29.5926C265.594 31.2767 263.021 32.9608 258.794 34.7914C252.583 37.4274 245.195 38.7454 237.183 38.7454ZM233.544 4.55044C232.111 4.55044 230.64 4.62367 229.207 4.80672C217.482 6.16134 207.706 12.7514 203.038 22.4168C202.266 24.0276 200.649 27.9084 202.266 29.4095C202.45 29.5926 202.707 29.739 203.001 29.8488C223.29 37.9399 243.909 39.1481 258.133 33.0706C262.874 31.0204 264.565 29.5193 265.116 28.6041C266.917 25.6752 263.793 20.4397 261.624 17.8037C254.714 9.34652 244.46 4.55044 233.544 4.55044Z" fill="#212121"/>
<path d="M220.239 36.3649C219.761 36.3649 219.357 35.9622 219.32 35.4863C218.769 22.4893 224.245 9.34581 232.956 2.71917C233.36 2.42628 233.948 2.4995 234.243 2.90222C234.537 3.30495 234.463 3.89073 234.059 4.18362C225.826 10.4441 220.643 23.0018 221.158 35.4131C221.195 35.9256 220.79 36.3283 220.276 36.3649C220.276 36.3649 220.276 36.3649 220.239 36.3649Z" fill="#212121"/>
<path d="M250.966 36.3662C250.929 36.3662 250.929 36.3662 250.966 36.3662C250.451 36.3662 250.047 35.9635 250.047 35.4509C250.083 29.3002 249.201 23.1861 247.511 18.207C245.416 11.9831 242.218 7.51651 237.955 4.95372C237.514 4.69745 237.367 4.11167 237.661 3.70894C237.918 3.26961 238.506 3.12316 238.91 3.41605C243.504 6.23512 246.996 10.9946 249.238 17.6212C251.002 22.7834 251.921 29.1538 251.848 35.4875C251.848 35.9635 251.443 36.3662 250.966 36.3662Z" fill="#212121"/>
<path d="M233.066 3.04972C233.287 2.68361 233.875 2.3175 234.867 2.06122C237.514 1.40221 240.086 2.86667 238.175 4.2579C235.639 6.05185 232.184 4.40434 233.066 3.04972Z" fill="#212121"/>
<path d="M235.639 5.94157C234.463 5.94157 233.36 5.53885 232.662 4.91645C231.927 4.22084 231.78 3.34217 232.258 2.57333C232.662 1.95094 233.434 1.47499 234.61 1.1821C236.742 0.632932 238.947 1.25532 239.572 2.57333C239.719 2.90283 240.087 4.00117 238.69 4.98968C237.771 5.68529 236.668 5.94157 235.639 5.94157ZM233.875 3.52522C233.949 3.63506 234.206 3.85473 234.684 4.00117C235.455 4.25745 236.632 4.25745 237.661 3.52522C237.808 3.41539 237.881 3.34217 237.918 3.30556C237.661 3.04928 236.558 2.60994 235.125 2.97606C234.243 3.19572 233.949 3.41539 233.875 3.52522Z" fill="#212121"/>
<path d="M243.173 64.9231C241.483 66.0946 240.196 67.8886 240.123 70.0853C239.902 76.3092 249.532 71.9524 250.634 68.3279C252.325 62.763 246.849 62.3237 243.173 64.9231Z" fill="#212121"/>
<path d="M242.879 74.1116C242.622 74.1116 242.328 74.075 242.071 74.0384C240.16 73.7089 239.094 72.2444 239.167 70.0111C239.241 67.7046 240.49 65.6178 242.622 64.1533C245.268 62.2862 248.539 61.9201 250.377 63.2747C251.223 63.8971 252.472 65.3615 251.48 68.5833C250.671 71.2925 246.114 74.1116 242.879 74.1116ZM243.688 65.6544C242.732 66.3134 241.115 67.7778 241.005 70.0844C240.931 71.7685 241.703 72.1346 242.365 72.2444C244.68 72.6472 249.091 70.121 249.716 68.0341C250.046 66.9358 250.267 65.4347 249.275 64.7391C248.135 63.8971 245.636 64.2998 243.688 65.6544Z" fill="#212121"/>
<path d="M366.704 215.981C338.881 243.476 311.573 262.954 279.964 284.957C268.166 261.892 257.765 238.094 248.907 213.785C272.503 202.508 296.687 184.935 314.55 165.897C315.432 164.908 367.549 215.981 366.704 215.981Z" fill="white"/>
<path d="M279.964 285.872C279.891 285.872 279.817 285.872 279.744 285.835C279.487 285.762 279.266 285.615 279.156 285.359C267.358 262.33 256.883 238.35 248.025 214.077C247.878 213.637 248.062 213.125 248.503 212.942C272.319 201.556 296.136 184.202 313.852 165.274C313.999 165.091 314.477 164.761 315.212 165.164C317.674 166.519 335.39 183.58 342.887 190.865C349.025 196.833 355.2 202.91 359.868 207.56C367.807 215.505 367.77 215.541 367.623 216.237C367.586 216.42 367.476 216.566 367.329 216.713C339.947 243.769 312.933 263.173 280.516 285.762C280.332 285.798 280.148 285.872 279.964 285.872ZM250.046 214.223C258.684 237.838 268.865 261.159 280.295 283.602C312.051 261.488 338.624 242.341 365.455 215.907C363.213 213.454 353.068 203.313 340.645 191.268C324.327 175.452 316.682 168.459 314.697 166.995C297.092 185.703 273.569 202.837 250.046 214.223Z" fill="#212121"/>
<path d="M295.732 252.079C295.364 252.079 294.997 251.859 294.886 251.493C292.13 244.025 289.667 236.373 287.609 228.684C287.462 228.208 287.756 227.696 288.271 227.549C288.749 227.403 289.263 227.696 289.41 228.208C291.468 235.824 293.894 243.475 296.651 250.871C296.834 251.347 296.577 251.859 296.099 252.042C295.952 252.079 295.842 252.079 295.732 252.079Z" fill="#212121"/>
<path d="M317.012 234.103C316.718 234.103 316.388 233.957 316.241 233.664L305.288 215.578C305.03 215.139 305.177 214.589 305.619 214.333C306.06 214.077 306.611 214.223 306.868 214.663L317.821 232.749C318.078 233.188 317.931 233.737 317.49 233.993C317.343 234.067 317.196 234.103 317.012 234.103Z" fill="#212121"/>
<path d="M333.919 221.399C333.625 221.399 333.331 221.253 333.148 220.996L320.872 203.386C320.578 202.984 320.688 202.398 321.092 202.105C321.497 201.812 322.085 201.922 322.379 202.325L334.655 219.935C334.949 220.337 334.838 220.923 334.434 221.216C334.287 221.362 334.103 221.399 333.919 221.399Z" fill="#212121"/>
<path d="M278.311 210.305C278.605 209.683 279.23 209.171 280.259 208.951C282.979 208.438 285.294 211.953 283.199 213.967C280.443 216.639 277.282 212.612 278.311 210.305Z" fill="#212121"/>
<path d="M281.251 215.798C280.553 215.798 279.854 215.578 279.23 215.102C277.539 213.894 276.73 211.587 277.502 209.94C277.796 209.244 278.531 208.366 280.112 208.073C281.839 207.743 283.64 208.695 284.485 210.343C285.257 211.88 285.037 213.528 283.861 214.663C283.052 215.395 282.17 215.798 281.251 215.798ZM279.156 210.672C278.788 211.514 279.303 212.942 280.259 213.601C281.03 214.15 281.802 214.04 282.537 213.308C283.383 212.503 283.015 211.514 282.831 211.148C282.427 210.379 281.508 209.647 280.406 209.83C279.781 209.976 279.34 210.269 279.156 210.672Z" fill="#212121"/>
<path d="M294.482 200.055C294.776 199.433 295.401 198.921 296.43 198.701C299.15 198.188 301.465 201.703 299.37 203.717C296.577 206.426 293.416 202.362 294.482 200.055Z" fill="#212121"/>
<path d="M297.386 205.548C296.687 205.548 295.989 205.328 295.364 204.852C293.674 203.644 292.865 201.337 293.637 199.69C293.931 198.994 294.666 198.116 296.246 197.823C297.974 197.493 299.775 198.445 300.62 200.093C301.392 201.63 301.171 203.278 299.995 204.413C299.187 205.182 298.305 205.548 297.386 205.548ZM296.945 199.617C296.834 199.617 296.687 199.617 296.577 199.653C295.916 199.763 295.511 200.056 295.328 200.459C294.96 201.301 295.475 202.729 296.43 203.388C297.202 203.937 297.974 203.827 298.709 203.095C299.554 202.289 299.187 201.301 299.003 200.935C298.635 200.239 297.864 199.617 296.945 199.617Z" fill="#212121"/>
<path d="M308.816 189.18C309.111 188.558 309.735 188.046 310.764 187.826C313.484 187.313 315.8 190.828 313.705 192.842C310.911 195.514 307.787 191.487 308.816 189.18Z" fill="#212121"/>
<path d="M311.757 194.636C311.059 194.636 310.36 194.416 309.735 193.94C308.045 192.732 307.236 190.425 308.008 188.778C308.302 188.082 309.037 187.203 310.617 186.911C312.345 186.581 314.146 187.533 314.991 189.18C315.763 190.718 315.542 192.366 314.366 193.501C313.521 194.269 312.639 194.636 311.757 194.636ZM309.662 189.547C309.294 190.389 309.809 191.817 310.764 192.476C311.536 193.025 312.308 192.915 313.043 192.183C313.889 191.377 313.521 190.389 313.337 190.023C312.933 189.254 312.014 188.521 310.911 188.705C310.287 188.851 309.846 189.107 309.662 189.547Z" fill="#212121"/>
<path d="M330.281 182.993C328.406 184.494 326.642 186.984 327.781 189.071C328.443 190.316 329.95 190.938 331.383 190.901C332.817 190.901 334.14 190.352 335.463 189.84C332.853 190.096 331.126 193.244 331.971 195.734C332.817 198.224 335.573 199.725 338.219 199.651C340.866 199.542 343.292 198.077 345.056 196.137C342.593 196.649 341.38 199.908 342.52 202.178C343.659 204.411 346.416 205.509 348.915 205.289C351.414 205.07 353.73 203.788 355.751 202.251C360.272 198.883 364.094 193.354 362.588 187.936C361.632 184.421 358.581 181.785 355.237 180.357C346.893 176.879 337.521 177.245 330.281 182.993Z" fill="white"/>
<path d="M348.29 206.278C345.46 206.278 342.814 204.85 341.711 202.617C341.307 201.811 341.16 200.896 341.197 199.981C340.241 200.347 339.249 200.567 338.256 200.603C335.022 200.75 332.045 198.846 331.126 196.063C330.685 194.709 330.795 193.171 331.494 191.853C331.457 191.853 331.42 191.853 331.347 191.853C329.472 191.853 327.745 190.938 327.01 189.547C325.613 186.947 327.634 184.018 329.766 182.298C336.786 176.696 346.489 175.671 355.678 179.588C359.721 181.309 362.588 184.275 363.543 187.753C364.278 190.462 363.874 193.464 362.294 196.356C360.97 198.809 358.875 201.152 356.339 203.056C353.693 205.033 351.341 206.058 349.025 206.278C348.768 206.278 348.511 206.278 348.29 206.278ZM343.292 198.882C342.887 199.834 342.924 200.933 343.365 201.775C344.247 203.532 346.489 204.594 348.878 204.411C350.826 204.228 352.848 203.349 355.237 201.555C359.133 198.663 363.176 193.391 361.742 188.192C360.934 185.3 358.398 182.7 354.906 181.199C346.342 177.575 337.374 178.49 330.869 183.652C329.582 184.677 327.671 186.874 328.59 188.595C329.105 189.547 330.354 189.949 331.347 189.949C332.008 189.949 332.706 189.803 333.368 189.583C333.956 189.217 334.654 188.961 335.353 188.888C335.794 188.851 336.235 189.144 336.345 189.583C336.455 190.023 336.198 190.498 335.794 190.645C335.279 190.828 334.765 191.048 334.213 191.231C333.883 191.487 333.589 191.78 333.331 192.146C332.67 193.134 332.486 194.379 332.817 195.404C333.478 197.381 335.757 198.773 338.146 198.663C339.543 198.59 340.792 198.114 341.821 197.528C342.483 196.283 343.586 195.441 344.835 195.185C345.24 195.111 345.607 195.295 345.828 195.624C346.011 195.954 345.975 196.393 345.717 196.686C344.946 197.638 344.137 198.333 343.292 198.882Z" fill="#212121"/>
<path d="M205.905 113.801C194.842 113.142 180.691 111.933 176.134 100.877C173.635 94.8359 173.965 88.2092 175.472 81.7656C170.878 83.0836 166.137 83.9623 161.616 84.5481C113.762 90.4791 69.1792 115.778 40.2537 154.622C24.4126 175.893 6.80738 206.647 1.88232 233.446C18.2012 239.084 34.4465 244.979 51.574 247.212C56.2417 247.835 61.2403 248.237 65.3935 246.041C74.1043 241.464 82.3005 222.463 82.3005 222.463C79.9114 231.835 77.5224 241.208 75.1334 250.617C100.384 250.727 126.369 250.397 151.619 250.507C158.088 205.365 177.126 151.547 207.191 114.972C206.971 114.935 206.162 113.801 205.905 113.801Z" fill="#FEC729"/>
<path d="M86.2698 251.495C82.5576 251.495 78.8087 251.495 75.1332 251.458C74.8392 251.458 74.5819 251.312 74.3982 251.092C74.2144 250.873 74.1776 250.58 74.2512 250.323L79.2865 230.553C76.0154 236.484 71.0903 244.026 65.8344 246.772C61.4239 249.079 56.3151 248.676 51.4636 248.017C35.3285 245.893 19.7815 240.512 4.71225 235.276L1.58814 234.178C1.14709 234.031 0.889814 233.592 1.00008 233.153C5.1533 210.38 19.5609 180.799 39.5185 153.962C68.3705 115.301 112.843 89.5998 161.542 83.5956C166.467 82.9732 171.098 82.0579 175.252 80.8497C175.582 80.7765 175.913 80.8497 176.134 81.0694C176.354 81.2891 176.465 81.6186 176.391 81.9481C174.664 89.2703 174.884 95.3478 177.016 100.51C181.169 110.541 193.592 112.116 205.978 112.885C206.456 112.921 206.787 113.251 207.228 113.763C207.338 113.873 207.485 114.02 207.559 114.129C207.779 114.203 207.926 114.386 208.036 114.605C208.183 114.935 208.11 115.301 207.889 115.557C193.886 132.581 181.243 154.841 171.392 179.847C162.424 202.655 155.882 227.112 152.501 250.616C152.427 251.056 152.06 251.385 151.582 251.385C138.939 251.349 125.928 251.385 113.358 251.458C104.463 251.458 95.348 251.495 86.2698 251.495ZM76.3094 249.664C88.5853 249.701 101.155 249.664 113.358 249.591C125.67 249.555 138.424 249.481 150.81 249.518C154.228 226.123 160.77 201.777 169.665 179.114C179.478 154.255 191.975 132.106 205.905 115.008C205.905 114.971 205.868 114.971 205.831 114.935C205.758 114.862 205.647 114.715 205.574 114.642C195.356 114.02 180.177 112.994 175.252 101.169C173.12 96.0068 172.789 90.0392 174.223 82.9732C170.363 83.9983 166.173 84.8037 161.726 85.3529C113.541 91.3572 69.5466 116.765 41.0254 155.134C33.6745 165.019 9.30652 199.69 2.9848 232.787L5.37382 233.629C20.3328 238.827 35.8063 244.209 51.7576 246.296C56.3151 246.882 61.0932 247.285 65.0258 245.234C73.369 240.841 81.4182 222.279 81.4917 222.096C81.6755 221.657 82.1901 221.437 82.6311 221.584C83.0722 221.73 83.3294 222.206 83.2192 222.682L76.3094 249.664Z" fill="#212121"/>
<path d="M206.419 115.812C196.863 118.632 186.057 115.593 178.964 107.904C172.385 100.802 170.179 90.1846 175.472 81.7273L183.705 79.2012C179.405 86.9262 181.022 97.4336 187.417 103.511C193.812 109.589 206.897 111.456 214.431 106.843L206.419 115.812Z" fill="#212121"/>
<path d="M199.215 117.753C191.497 117.753 183.815 114.458 178.302 108.527C174.884 104.866 172.605 100.216 171.87 95.4566C171.098 90.3677 172.054 85.4617 174.737 81.2148C174.847 81.0318 175.031 80.8853 175.252 80.8121L183.485 78.2859C183.852 78.1761 184.22 78.2859 184.477 78.5788C184.697 78.8717 184.734 79.2744 184.55 79.6039C180.434 86.9994 181.941 96.9577 188.079 102.816C194.327 108.783 206.934 110.357 213.991 106.001C214.395 105.781 214.873 105.854 215.167 106.184C215.461 106.55 215.461 107.026 215.167 107.392L207.154 116.362C207.044 116.472 206.897 116.581 206.713 116.618C204.251 117.423 201.715 117.753 199.215 117.753ZM176.097 82.4962C171.503 90.1114 172.899 100.033 179.662 107.282C186.462 114.604 196.753 117.606 205.941 115.007L210.977 109.369C203.185 111.712 192.526 109.662 186.792 104.207C180.618 98.3123 178.707 88.5371 181.978 80.7389L176.097 82.4962Z" fill="#212121"/>
<path d="M343.733 124.235C328.149 123.027 312.492 121.819 296.908 123.174C281.324 124.528 265.74 128.592 252.693 137.159C243.173 143.42 235.234 151.913 225.348 157.552C211.712 165.35 195.319 167.107 179.625 166.155C173.083 165.752 166.247 164.764 161.028 160.883C160.109 160.188 159.264 159.419 158.492 158.577C148.237 166.119 138.277 174.063 127.618 180.983C128.059 181.532 128.537 182.081 128.978 182.594C161.359 220.267 217.85 211.407 253.097 183.399C266.843 172.489 278.972 160.92 296.393 155.721C302.678 153.854 309.221 152.975 315.763 153.341C319.732 153.561 325.613 154.659 328.627 151.218C329.95 149.717 329.987 147.703 328.443 146.348C327.34 145.36 324.878 145.25 323.334 145.287C325.245 145.14 328.7 144.811 330.281 143.859C331.677 143.053 332.817 141.699 333.111 140.125C334.213 133.644 323.481 135.182 319.916 135.328C327.855 134.706 335.794 134.12 343.696 133.498C346.894 133.242 351.084 132.033 351.047 128.848C350.973 125.663 346.894 124.492 343.733 124.235Z" fill="white"/>
<path d="M185.8 208.66C175.435 208.66 165.695 206.903 156.727 203.425C145.701 199.141 136.108 192.331 128.28 183.215C127.875 182.739 127.398 182.19 126.92 181.568C126.773 181.385 126.699 181.092 126.736 180.836C126.773 180.579 126.92 180.36 127.14 180.213C134.822 175.234 142.283 169.596 149.487 164.177C152.28 162.091 155.147 159.93 157.977 157.844C158.345 157.551 158.896 157.624 159.19 157.953C159.962 158.759 160.77 159.491 161.616 160.15C166.761 163.994 173.634 164.873 179.735 165.239C197.929 166.374 213.145 163.518 224.943 156.745C230.383 153.633 235.344 149.569 240.123 145.615C243.982 142.43 247.951 139.172 252.215 136.353C264.16 128.518 279.155 123.759 296.871 122.221C312.565 120.866 328.443 122.111 343.843 123.283C348.915 123.685 351.929 125.736 351.965 128.774C352.002 132.435 347.775 134.046 343.769 134.376L331.751 135.291C332.229 135.547 332.67 135.877 333.037 136.28C333.956 137.305 334.287 138.623 334.029 140.234C333.735 141.954 332.559 143.565 330.758 144.59C330.244 144.92 329.545 145.14 328.737 145.359C328.847 145.432 328.957 145.506 329.031 145.615C329.913 146.384 330.428 147.373 330.501 148.471C330.575 149.606 330.134 150.778 329.288 151.766C326.385 155.061 321.423 154.658 317.417 154.329C316.792 154.292 316.204 154.219 315.689 154.183C309.441 153.816 303.046 154.622 296.65 156.526C282.096 160.882 271.327 169.669 259.97 178.968C257.912 180.652 255.817 182.373 253.685 184.057C235.381 198.592 212.153 207.525 189.99 208.514C188.556 208.623 187.16 208.66 185.8 208.66ZM128.941 181.202C129.162 181.495 129.419 181.751 129.64 182.044C137.284 190.94 146.62 197.603 157.352 201.741C167.276 205.585 178.229 207.269 189.88 206.756C211.675 205.768 234.499 197.018 252.509 182.703C254.64 181.019 256.735 179.298 258.794 177.614C270.334 168.205 281.214 159.308 296.136 154.842C302.752 152.865 309.367 152.059 315.799 152.425C316.351 152.462 316.976 152.498 317.6 152.572C321.202 152.865 325.649 153.231 327.928 150.631C328.48 150.009 328.737 149.313 328.7 148.654C328.663 148.068 328.369 147.519 327.855 147.043C327.193 146.458 325.539 146.165 323.371 146.201C322.893 146.201 322.489 145.799 322.452 145.323C322.415 144.81 322.819 144.407 323.297 144.371C326.421 144.151 328.81 143.675 329.839 143.089C331.126 142.32 332.008 141.186 332.229 139.977C332.412 138.952 332.228 138.147 331.714 137.561C329.913 135.547 324.363 135.95 321.386 136.17C320.835 136.206 320.357 136.243 319.989 136.243C319.512 136.243 319.07 135.877 319.034 135.401C318.997 134.888 319.365 134.486 319.879 134.449L343.659 132.618C344.762 132.545 350.165 131.959 350.165 128.884C350.128 125.845 344.798 125.296 343.733 125.223C328.443 124.015 312.602 122.807 297.091 124.161C279.597 125.589 264.895 130.275 253.207 137.927C249.017 140.673 245.084 143.931 241.262 147.043C236.41 151.034 231.375 155.171 225.825 158.356C213.696 165.276 198.149 168.205 179.588 167.07C173.23 166.667 165.989 165.715 160.476 161.615C159.741 161.065 159.043 160.443 158.381 159.784C155.772 161.724 153.125 163.701 150.553 165.642C143.569 170.877 136.366 176.296 128.941 181.202Z" fill="#212121"/>
<path d="M185.8 208.658C175.436 208.658 165.696 206.901 156.728 203.423C145.702 199.14 136.109 192.33 128.28 183.214C126.883 181.566 125.524 179.882 124.237 178.235C121.738 175.086 119.165 171.791 116.188 169.045C113.211 166.263 107.11 161.723 100.016 162.272C99.5016 162.309 99.0605 161.942 99.0238 161.43C98.987 160.917 99.3546 160.478 99.8691 160.441C105.64 160.002 111.888 162.565 117.438 167.727C120.525 170.583 123.135 173.914 125.707 177.136C126.994 178.784 128.354 180.468 129.714 182.079C137.358 190.975 146.694 197.638 157.426 201.776C167.35 205.62 178.303 207.304 189.954 206.791C211.749 205.803 234.573 197.053 252.583 182.738C254.714 181.054 256.809 179.333 258.868 177.649C270.408 168.24 281.288 159.343 296.21 154.876C302.826 152.899 309.441 152.094 315.873 152.46C316.425 152.497 317.05 152.533 317.674 152.607C321.276 152.899 325.724 153.266 328.002 150.666C328.554 150.044 328.811 149.348 328.774 148.689C328.737 148.103 328.443 147.554 327.929 147.078C327.157 146.419 325.246 146.2 323.629 146.236C322.857 146.273 322.269 146.309 322.122 146.309C321.644 146.309 321.203 145.943 321.166 145.467C321.129 144.991 321.497 144.552 321.975 144.516C322.158 144.516 322.71 144.442 323.482 144.442C325.54 144.296 328.554 143.93 329.84 143.161C331.126 142.392 332.009 141.22 332.229 140.049C332.413 139.024 332.229 138.218 331.714 137.633C329.914 135.619 324.364 136.022 321.387 136.241C320.835 136.278 320.357 136.315 319.99 136.315C319.475 136.315 319.071 135.948 319.034 135.473C318.998 134.96 319.365 134.557 319.88 134.521L343.66 132.69C344.762 132.617 350.165 132.031 350.165 128.956C350.128 125.917 344.799 125.368 343.733 125.295C328.443 124.086 312.602 122.878 297.092 124.233C279.597 125.587 264.895 130.274 253.208 137.925C249.018 140.671 245.085 143.93 241.262 147.042C236.411 151.032 231.376 155.169 225.826 158.355C213.697 165.274 198.15 168.203 179.589 167.068C173.23 166.665 165.99 165.713 160.477 161.613C156.581 158.684 153.787 154.327 152.464 149.019C151.251 144.186 151.325 138.768 152.648 133.788C155.331 123.757 162.094 115.446 168.232 108.453C168.563 108.087 169.151 108.051 169.518 108.38C169.886 108.71 169.923 109.295 169.592 109.662C163.601 116.508 156.985 124.599 154.376 134.264C153.126 138.951 153.052 144.04 154.192 148.579C155.405 153.485 157.941 157.476 161.506 160.149C166.651 163.993 173.524 164.871 179.626 165.237C197.819 166.372 213.035 163.517 224.833 156.744C230.273 153.632 235.235 149.568 240.013 145.614C243.872 142.429 247.841 139.17 252.105 136.351C264.05 128.516 279.046 123.757 296.761 122.219C312.455 120.865 328.333 122.109 343.733 123.281C348.805 123.684 351.819 125.734 351.856 128.773C351.893 132.434 347.666 134.045 343.66 134.374L331.641 135.289C332.119 135.546 332.56 135.875 332.927 136.278C333.846 137.303 334.177 138.621 333.92 140.232C333.626 141.953 332.45 143.564 330.649 144.589C330.134 144.918 329.399 145.175 328.627 145.358C328.737 145.431 328.848 145.504 328.921 145.577C329.803 146.346 330.318 147.335 330.391 148.433C330.465 149.568 330.024 150.739 329.178 151.728C326.275 155.023 321.313 154.62 317.307 154.291C316.682 154.254 316.094 154.181 315.579 154.144C309.331 153.778 302.936 154.584 296.541 156.487C281.986 160.844 271.217 169.631 259.86 178.93C257.802 180.614 255.707 182.335 253.575 184.019C235.272 198.554 212.043 207.487 189.88 208.475C188.557 208.622 187.16 208.658 185.8 208.658Z" fill="#212121"/>
<path d="M161.028 160.881C154.412 165.97 147.723 171.022 140.813 175.709C139.122 176.844 137.468 177.979 135.741 179.077C134.455 179.919 131.11 183.177 129.677 183.47C129.677 183.47 124.752 177.466 123.318 175.672C133.94 169.778 145.922 161.906 155.478 154.438C156.36 157.037 158.492 159.783 161.028 160.881Z" fill="#212121"/>
<path d="M129.676 184.35C129.419 184.35 129.125 184.24 128.978 184.02C128.794 183.764 124.016 177.979 122.62 176.185C122.473 175.966 122.399 175.709 122.436 175.453C122.473 175.197 122.656 174.977 122.877 174.831C133.425 168.973 145.407 161.065 154.927 153.706C155.147 153.523 155.478 153.45 155.772 153.559C156.066 153.633 156.287 153.852 156.36 154.145C157.205 156.708 159.264 159.124 161.359 160.04C161.653 160.149 161.873 160.442 161.91 160.772C161.947 161.101 161.8 161.394 161.542 161.614C155.662 166.154 148.642 171.462 141.291 176.478C139.527 177.686 137.873 178.785 136.219 179.846C135.814 180.103 135.153 180.652 134.418 181.274C132.433 182.958 130.926 184.13 129.823 184.35C129.787 184.35 129.75 184.35 129.676 184.35ZM124.715 175.929C126.222 177.796 128.905 181.091 129.97 182.373C130.853 181.897 132.323 180.652 133.278 179.883C134.087 179.224 134.749 178.638 135.226 178.345C136.844 177.284 138.497 176.185 140.262 175.014C147.098 170.327 153.677 165.385 159.3 161.065C157.389 159.82 155.919 157.806 155.074 155.939C145.959 162.895 134.749 170.291 124.715 175.929Z" fill="#212121"/>
</svg>
