<svg width="25" height="17" viewBox="0 0 25 17" fill="none" xmlns="http://www.w3.org/2000/svg">
<g clip-path="url(#clip0)">
<path d="M12.5 0.000160217C8.49926 0.000160217 4.49853 2.61259 0.516224 7.81824L0 8.50976L0.516224 9.20129C8.46239 19.6126 16.5192 19.6126 24.4838 9.20129L25 8.50976L24.4838 7.81824C20.5015 2.61259 16.5007 0.000160217 12.5 0.000160217ZM2.04646 8.50976C9.0708 -0.287975 15.9292 -0.287975 22.972 8.50976C15.9292 17.2883 9.0708 17.2883 2.04646 8.50976Z" fill="#121110"/>
<path d="M12.5002 14.0234C9.56875 14.0234 7.19043 11.5455 7.19043 8.49123C7.19043 5.437 9.56875 2.97824 12.5002 2.97824C15.4316 2.97824 17.8099 5.4562 17.8099 8.51044C17.8099 11.5647 15.4316 14.0234 12.5002 14.0234ZM12.5002 5.30253C10.804 5.30253 9.43969 6.724 9.43969 8.49123C9.43969 10.2585 10.804 11.6799 12.5002 11.6799C14.1963 11.6799 15.5606 10.2585 15.5606 8.49123C15.5606 6.74321 14.1963 5.30253 12.5002 5.30253Z" fill="#121110"/>
</g>
<defs>
<clipPath id="clip0">
<rect width="25" height="17" fill="white" transform="matrix(1 0 0 -1 0 17)"/>
</clipPath>
</defs>
</svg>
