<svg width="21" height="21" viewBox="0 0 21 21" fill="none" xmlns="http://www.w3.org/2000/svg">
<path d="M16.1019 0H4.91833C2.20407 0 0 2.20194 0 4.91359V16.1068C0 18.7981 2.20407 21 4.91833 21H6.91832C7.38771 21 7.77546 20.6126 7.77546 20.1437V12.5796C7.77546 12.1107 7.38771 11.7233 6.91832 11.7233H6.28567V10.765H6.91832C7.38771 10.765 7.77546 10.3777 7.77546 9.90874V8.17573C7.77546 7.31942 8.08158 5.85146 10.0816 5.85146H11.5509V6.72816H10.7142C9.97953 6.72816 9.18361 7.21748 9.18361 8.31845V9.88835C9.18361 10.3573 9.57136 10.7447 10.0407 10.7447H11.4897L11.3877 11.7029H10.0407C9.57136 11.7029 9.18361 12.0903 9.18361 12.5592V20.1233C9.18361 20.5922 9.57136 20.9796 10.0407 20.9796H16.0815C18.7958 20.9796 20.9999 18.7777 20.9999 16.066V4.91359C21.0203 2.20194 18.8162 0 16.1019 0ZM16.1019 19.2874H10.9183V13.4359H12.1836C12.6326 13.4359 12.9999 13.1097 13.0407 12.6612L13.306 9.99029C13.3264 9.74563 13.2448 9.50097 13.0815 9.33786C12.9183 9.15437 12.6938 9.05243 12.4489 9.05243H10.9183V8.46117H12.4285C12.8979 8.46117 13.2856 8.07379 13.2856 7.60485V5.03592C13.2856 4.56699 12.8979 4.17961 12.4285 4.17961H10.102C7.1224 4.17961 6.08159 6.25922 6.08159 8.19612V9.07282H5.44894C4.97956 9.07282 4.59181 9.46019 4.59181 9.92913V12.6C4.59181 13.0689 4.97956 13.4563 5.44894 13.4563H6.08159V19.3078H4.93874C3.18365 19.3078 1.73468 17.8806 1.73468 16.1068V4.91359C1.73468 3.16019 3.16324 1.71262 4.93874 1.71262H16.1427C17.8978 1.71262 19.3468 3.13981 19.3468 4.91359V16.1068C19.306 17.8602 17.8774 19.2874 16.1019 19.2874Z" fill="#121110"/>
</svg>
