<svg width="20" height="18" viewBox="0 0 20 18" fill="none" xmlns="http://www.w3.org/2000/svg">
<path d="M10.0068 18C9.66507 18 9.35065 17.8601 9.11825 17.6224L1.9959 10.3357C1.77717 10.1399 1.57211 9.93007 1.3944 9.70629C0.929597 9.14685 0.574163 8.51748 0.341764 7.83217C0.109364 7.2028 0 6.54545 0 5.87413C0 2.64336 2.57006 0 5.72796 0C7.38209 0 8.92686 0.741259 9.99317 1.98601C11.0731 0.741259 12.6179 0 14.272 0C17.4299 0 19.9863 2.64336 19.9863 5.87413C19.9863 6.55944 19.877 7.23077 19.6446 7.86014C19.3575 8.65734 18.9064 9.41259 18.3185 10.014L10.8954 17.6224C10.663 17.8601 10.3486 18 10.0068 18ZM5.72796 2.0979C3.69105 2.0979 2.05058 3.79021 2.05058 5.87413C2.05058 6.30769 2.11893 6.72727 2.25564 7.13287C2.40602 7.58042 2.63841 7.98601 2.93917 8.33566C3.0622 8.48951 3.19891 8.62937 3.34928 8.75524L3.40396 8.81119L10.0068 15.5524L16.8694 8.53147C17.2522 8.13986 17.5393 7.66434 17.7307 7.14685C17.8811 6.74126 17.9494 6.30769 17.9494 5.86014C17.9494 3.77622 16.309 2.08392 14.2857 2.08392C12.8366 2.0979 11.5243 2.96503 10.9364 4.32168L9.99317 6.43357L9.06357 4.32168C8.46207 2.96503 7.14969 2.0979 5.72796 2.0979Z" fill="#121110"/>
</svg>
