<svg width="25" height="16" viewBox="0 0 25 16" fill="none" xmlns="http://www.w3.org/2000/svg">
<g clip-path="url(#clip0)">
<path d="M24.9072 13.835C24.3359 11.995 21.001 8.81999 20.791 8.48499C20.8203 8.42499 20.874 8.33999 20.8984 8.29999C21.5576 7.41 24.0674 3.555 24.4385 2.01C24.4385 2.01 24.4385 2.005 24.4385 2C24.6387 1.295 24.4531 0.839999 24.2676 0.58C23.9795 0.195 23.5254 0 22.9102 0H20.3467C19.4873 0 18.8379 0.445 18.5059 1.25C17.9541 2.685 16.4062 5.635 15.2441 6.68C15.21 5.2 15.2344 4.07 15.249 3.23C15.2979 1.595 15.415 0 13.7549 0H9.72656C8.68652 0 7.69043 1.165 8.76953 2.545C9.71191 3.755 9.10645 4.43 9.31152 7.78499C8.52051 6.915 7.10938 4.57 6.11328 1.565C5.83984 0.754999 5.41504 0 4.22363 0H1.66016C0.620117 0 0 0.58 0 1.555C0 3.735 4.7168 16 12.6514 16C14.6484 16 15.1514 15.285 15.2441 14.53C15.3223 13.92 15.249 11.995 15.2637 11.7C15.4932 11.765 16.0352 12.045 17.1484 13.16C18.8721 14.94 19.3115 16.005 20.708 16.005H23.2715C24.082 16.005 24.5068 15.66 24.7168 15.37C24.9219 15.085 25.1221 14.595 24.9072 13.835ZM20.708 14.4C20.1904 14.4 19.79 13.61 18.252 12.02C16.8701 10.64 15.9717 10.08 15.1514 10.08C13.5645 10.08 13.6816 11.4 13.6963 12.995C13.7012 14.725 13.6914 14.18 13.7012 14.285C13.6084 14.32 13.3447 14.395 12.6514 14.395C6.04004 14.4 1.73828 3.66 1.57227 1.605C1.63086 1.6 2.41699 1.605 4.22363 1.6C4.44824 1.6 4.47266 1.6 4.63867 2.085C5.65918 5.16 7.94434 9.70999 9.61914 9.70999C10.874 9.70999 10.874 8.39499 10.874 7.89499V3.945C10.8057 2.64 10.3418 1.99 10.0342 1.595L13.6865 1.6C13.6865 1.62 13.667 5.97 13.6963 7.02C13.6963 8.51499 14.8584 9.37499 16.6699 7.49499C18.5791 5.285 19.9023 1.985 19.9561 1.85C20.0342 1.66 20.1025 1.595 20.3467 1.595H22.9102H22.9199C22.9199 1.6 22.9199 1.6 22.9199 1.605C22.6855 2.725 20.3711 6.295 19.5996 7.4C19.585 7.415 19.5752 7.435 19.5654 7.455C19.2236 8.02499 18.9453 8.65499 19.6143 9.53999C19.6729 9.61499 19.834 9.78999 20.0635 10.035C20.7764 10.79 23.2178 13.365 23.4375 14.385C23.2861 14.415 23.1299 14.395 20.708 14.4Z" fill="#121110"/>
</g>
<defs>
<clipPath id="clip0">
<rect width="25" height="16" fill="white"/>
</clipPath>
</defs>
</svg>
